<svg width="698" height="436" viewBox="0 0 698 436" fill="none" xmlns="http://www.w3.org/2000/svg">
<path d="M443.128 436C442.909 436 442.689 436 442.462 435.992C432.651 435.828 416.967 430.645 408.902 424.907C404.031 421.444 400.171 416.887 396.444 412.478C393.21 408.655 389.866 404.707 385.912 401.557C384.87 400.728 382.302 399.462 379.326 397.992C376.163 396.428 373.25 394.959 370.815 393.544C369.421 394.771 367.902 395.514 366.273 395.514C366.266 395.514 366.258 395.514 366.25 395.514C363.58 395.498 361.685 394.662 360.604 393.028C358.56 389.94 360.197 384.882 361.356 382.138L361.567 381.63C363.58 376.869 367.315 368.004 370.431 364.745C372.06 363.04 373.689 362.048 375.302 361.578C375.051 361.524 374.801 361.477 374.526 361.43C368.857 360.531 367.644 364.205 366.117 368.864C365.866 369.615 365.623 370.381 365.349 371.131C363.681 375.72 361.818 378.23 359.492 379.043C356.525 380.074 353.447 378.19 349.877 376.002C347.786 374.72 345.413 373.273 342.853 372.304C339.838 371.17 335.86 370.686 331.648 370.17C324.24 369.263 316.574 368.333 312.448 363.713C312.276 363.525 312.197 363.267 312.236 363.009C312.565 360.82 313.787 358.108 315.087 355.239C316.786 351.471 318.681 347.281 318.399 344.326C316.363 344.927 314.343 345.717 312.354 346.593C311.524 347.585 310.31 348.586 309.057 349.61C308.188 350.321 307.366 351.002 306.747 351.619C302.762 355.614 302.793 355.676 304.351 358.741C304.735 359.491 305.205 360.414 305.722 361.578C307.123 364.745 308.047 367.152 307.186 369.247C306.559 370.772 305.033 371.976 302.378 373.039C299.669 374.118 296.537 374.462 293.506 374.79C290.719 375.095 287.837 375.407 285.331 376.291C284.447 376.604 283.46 376.987 282.411 377.401C277.994 379.129 272.505 381.278 268.363 380.458C268.113 380.411 267.893 380.246 267.768 380.02C267.713 379.918 267.682 379.801 267.666 379.684C266.108 380.497 264.597 380.88 263.203 380.512C261.472 380.059 260.18 378.519 259.366 375.916C256.743 367.574 270.595 356.974 282.967 348.672C283.523 348.305 284 347.976 284.4 347.703C287.681 345.459 292.614 342.488 298.197 340.472C297.147 340.417 296.106 340.331 295.072 340.221C293.929 340.104 293.13 339.94 292.496 339.807C291.165 339.533 290.562 339.408 288.346 340.01C287.485 340.245 286.67 340.894 285.801 341.589C284.775 342.41 283.711 343.255 282.364 343.622C278.182 344.74 270.54 345.006 267.102 344.982C265.677 344.974 264.464 344.912 263.391 344.865C260.063 344.701 257.863 344.591 253.509 346.17C252.992 346.358 252.35 346.624 251.614 346.921C247.237 348.711 240.636 351.408 237.222 348.813C235.758 347.695 234.842 346.475 234.489 345.185C232.759 344.443 231.365 343.364 230.339 341.957C228.554 339.51 228.006 336.164 228.71 332.295C228.577 332.592 228.444 332.889 228.311 333.194C227.669 334.648 227.011 336.149 225.899 337.298C225.633 337.579 225.21 337.642 224.866 337.454C222.861 336.367 221.749 334.796 221.561 332.795C220.818 325.001 234.755 313.337 236.345 312.032C243.463 306.192 252.092 303.441 260.431 300.783C262.584 300.095 264.62 299.446 266.64 298.742C270.462 297.406 275.356 294.646 280.539 291.73C294.861 283.655 312.683 273.609 323.355 284.577C327.654 288.994 329.8 296.139 328.578 301.947C328.148 304.019 327.294 305.841 326.096 307.326C327.098 307.365 328.148 307.623 328.923 307.811C329.118 307.857 329.291 307.897 329.424 307.928C332 308.467 334.091 310.359 336.103 312.212C336.612 312.227 337.129 312.243 337.654 312.251C343.988 312.415 351.161 312.61 354.825 316.543C356.016 317.825 356.752 319.427 357.034 321.335C357.245 321.389 357.456 321.436 357.668 321.491C358.835 320.217 360.236 319.122 361.935 318.27C366.273 316.089 373.736 316.449 376.852 320.178C377.408 320.842 377.815 321.522 378.105 322.226C378.543 322.101 378.982 321.968 379.42 321.843C380.462 321.538 381.535 321.225 382.623 320.944C388.825 319.349 394.924 320.35 400.155 321.405C401.478 321.671 402.802 321.913 404.117 322.155C408.025 322.875 412.065 323.617 416.051 325.024C418.235 325.798 420.365 327.252 422.432 328.659C424.797 330.27 427.24 331.935 429.589 332.427C430.74 332.67 431.68 332.639 432.416 332.334C431.985 331.075 431.891 330.012 432.259 329.168C432.526 328.542 433.16 327.776 434.663 327.581C435.141 318.083 426.966 297.867 423.568 289.448C422.753 287.431 422.111 285.844 421.798 284.953C421.344 283.67 421.219 282.631 421.109 281.708C420.945 280.34 420.811 279.261 419.707 277.643C419.003 276.604 417.953 275.916 416.841 275.196C415.784 274.508 414.696 273.805 413.85 272.742C411.024 269.193 410.115 264.721 409.598 260.304C409.567 260.234 409.544 260.156 409.528 260.07C409.442 259.452 409.387 258.819 409.371 258.178C408.408 246.819 413.662 235.82 418.776 228.026C417.061 227.377 416.795 225.431 416.583 223.852C416.458 222.898 416.317 221.913 415.925 221.405C415.346 220.654 414.547 220.35 413.623 219.99C412.613 219.599 411.462 219.154 410.46 218.067C409.332 216.84 408.565 215.73 407.946 214.838C406.184 212.306 405.456 211.25 399.458 211.532C399.168 211.547 398.894 211.414 398.722 211.18C398.55 210.945 398.511 210.64 398.613 210.367C399.145 208.968 399.2 207.865 398.761 206.99C397.892 205.246 395.159 204.457 392.513 203.683C391.401 203.362 390.359 203.058 389.428 202.682C384.322 200.619 382.748 198.516 380.376 195.334C379.843 194.623 379.272 193.857 378.598 193.012C374.096 187.36 364.206 181.341 356.086 179.308C350.331 177.87 344.873 178.425 339.087 179.019C334.662 179.473 330.089 179.934 325.235 179.488C314.734 178.511 306.238 179.59 297.68 182.983C296.591 183.412 295.511 183.936 294.454 184.437C291.118 186.039 287.673 187.689 283.358 187.032C282.254 186.868 281.228 186.227 280.242 185.609C279.099 184.898 277.908 184.163 276.702 184.202C275.019 184.272 273.985 185.164 272.795 186.203C271.981 186.915 271.127 187.65 270.015 188.15C265.951 189.987 262.913 189.666 259.703 189.33C257.988 189.15 256.211 188.963 254.096 189.064C251.708 189.182 249.32 189.815 247.002 190.432C244.629 191.066 242.171 191.715 239.665 191.832C237.065 191.957 234.356 191.136 231.725 190.346C229.439 189.659 227.27 189.01 225.359 189.01C225.343 189.01 225.328 189.01 225.32 189.01C222.658 189.025 220.042 189.846 217.278 190.714C214.78 191.503 212.204 192.309 209.573 192.473C204.898 192.762 200.467 192.121 195.463 190.393C195.001 190.667 194.57 190.878 194.171 191.081C192.91 191.715 191.994 192.176 190.906 193.95C189.786 195.772 189.16 197.562 188.611 199.141C187.257 203.018 186.09 206.372 178.745 206.841C175.895 207.021 173.006 206.904 170.218 206.779C160.469 206.357 152.044 205.997 148.708 218.52C148.003 221.155 147.628 224.055 147.22 227.127C146.007 236.407 144.629 246.921 133.001 249.946C124.607 252.135 114.411 249.29 105.407 246.788C101.938 245.819 98.6647 244.912 95.6109 244.294C78.8775 240.941 59.4113 241.707 44.8078 246.303C32.616 250.142 0.590062 266.691 0.723177 281.216C0.731008 281.693 0.347323 282.076 -0.130326 282.084H-0.138157C-0.607975 282.084 -0.99166 281.7 -0.999491 281.231C-1.14827 265.604 31.3397 248.742 44.291 244.662C59.38 239.909 78.6896 239.143 95.9554 242.606C99.064 243.231 102.368 244.154 105.876 245.123C114.662 247.57 124.622 250.345 132.57 248.273C143.078 245.537 144.315 236.063 145.521 226.893C145.913 223.899 146.32 220.811 147.048 218.067C150.736 204.207 160.242 204.621 170.296 205.051C173.045 205.168 175.879 205.293 178.636 205.114C184.837 204.715 185.644 202.401 186.983 198.563C187.562 196.897 188.22 195.021 189.434 193.043C190.749 190.902 191.994 190.245 193.302 189.588C190.718 188.572 189.066 187.712 188.001 186.657C187.085 188.197 185.675 189.322 183.788 190.01C177.806 192.191 168.206 189.362 163.202 186.93C158.817 184.796 158.018 181.88 157.087 178.511C156.946 178.003 156.805 177.487 156.64 176.947C156.499 176.471 156.233 176.103 155.92 175.689C155.247 174.774 154.409 173.633 154.667 170.991C154.8 169.654 155.622 168.552 156.413 167.488C157.196 166.433 157.94 165.44 158.05 164.276C158.081 163.947 158.293 163.674 158.606 163.556C160.18 162.962 161.558 162.954 162.709 163.525C163.367 163.853 163.907 164.346 164.361 164.948C164.33 164.877 164.306 164.807 164.275 164.737C164.197 164.518 164.204 164.276 164.306 164.064C164.87 162.915 166.225 161.391 167.274 160.726C167.477 160.601 167.72 160.562 167.947 160.617C168.174 160.68 168.37 160.828 168.488 161.039C170.351 164.455 172.622 164.377 175.754 164.268C177.547 164.205 179.567 164.135 181.689 164.799C185.605 166.034 186.897 168.255 187.335 170.991C187.366 170.905 187.398 170.826 187.429 170.74C189.457 165.776 191.423 165.714 194.453 166.034C195.416 166.136 196.504 166.245 197.789 166.144C200.592 165.917 202.408 164.995 204.507 163.924C205.713 163.314 206.958 162.681 208.516 162.094C211.914 160.812 216.785 160.218 221.099 159.804C221.804 159.734 222.869 159.773 224.098 159.804C225.328 159.843 226.729 159.882 227.786 159.82C228.562 159.773 229.407 159.687 230.277 159.601C232.023 159.429 233.824 159.249 235.57 159.265C240.981 159.327 245.209 158.162 251.043 156.427C263.775 152.635 273.578 151.088 284.862 151.088H285.911C291.423 151.088 295.409 151.103 300.248 148.938C301.72 148.281 303.114 147.593 304.461 146.937C307.53 145.428 310.428 144.005 314.077 142.918C320.458 141.011 324.381 139.971 330.88 140.839C332.235 141.019 333.637 141.324 335.117 141.652C339.243 142.551 343.511 143.481 346.784 141.629C348.82 140.472 349.892 139.236 350.049 137.861C350.393 134.874 346.423 131.216 342.923 127.987C340.394 125.658 337.998 123.453 337.011 121.397C332.509 112.079 332.924 99.9384 338.037 91.1752C343.855 81.208 353.189 79.1833 362.898 79.1911C364.778 78.5501 366.594 78.2843 367.792 78.8471C368.051 78.9722 368.372 79.1755 368.646 79.5038C371.3 79.9807 374.941 81.2236 378.755 82.5291C385.74 84.9134 394.314 87.8528 397.485 86.1017C395.167 83.0998 389.498 80.5982 384.017 78.1748C375.474 74.399 366.641 70.4982 367.009 63.7752C367.033 63.3531 367.362 63.0091 367.785 62.9622C370.369 62.7042 373.305 63.6736 376.147 64.6117C379.812 65.8234 383.289 66.9803 385.786 65.5967C382.216 61.5082 375.38 60.0151 368.756 58.5688C364.746 57.6933 360.957 56.8647 357.926 55.4888C357.613 55.3481 357.417 55.0354 357.425 54.6992C357.425 54.4256 357.425 54.1442 357.425 53.8628C357.425 53.2999 357.425 52.7214 357.441 52.182C357.456 51.7912 357.73 51.455 358.114 51.3768C360.487 50.8531 361.395 50.0401 361.45 49.4929C361.505 48.9691 360.831 48.1248 359.203 47.4056C357.707 46.749 355.89 46.8662 353.972 46.9991C351.725 47.1555 349.399 47.3118 347.347 46.2096C345.445 45.1855 344.121 43.6298 342.845 42.1211C341.678 40.7452 340.582 39.4475 339.11 38.6267C338.397 38.228 337.051 37.9544 335.633 37.673C332.642 37.071 329.252 36.3909 328.531 33.8972C327.631 30.7702 330.63 29.324 333.535 27.9247C334.741 27.3462 335.962 26.7521 337.019 26.0485C335.954 26.5019 334.678 27.0022 333.049 27.4635C328.202 28.8315 318.133 25.5091 314.077 20.0995C311.814 17.0898 311.657 13.8534 313.607 10.7499C314.883 8.72519 319.902 6.8412 323.763 6.91937C324.804 6.94283 325.712 7.10699 326.472 7.40405C326.409 6.94283 326.409 6.49724 326.495 6.06728C327.083 3.22957 329.032 1.0407 331.836 0.0478932C332.18 -0.0693676 332.564 0.0322584 332.791 0.313684C334.153 1.9866 334.584 4.19893 334.999 6.34089C335.336 8.0529 335.68 9.82744 336.495 11.2971C337.043 12.2899 337.81 13.2046 338.617 14.1739C340.018 15.8625 341.475 17.6136 341.757 19.8337C341.898 20.9594 341.835 21.9522 341.608 22.8278C342.97 22.773 344.591 23.0701 346.831 23.8987C347.794 24.2583 348.6 24.6336 349.383 24.9932C350.652 25.5795 351.842 26.1423 353.627 26.5879C354.457 26.799 355.389 26.9319 356.376 27.0804C357.809 27.2915 359.289 27.5182 360.565 27.9794C367.26 30.4028 373.994 35.8046 379.929 40.5732C381.793 42.0663 383.547 43.4813 385.246 44.7555C387.768 46.6551 390.297 49.4069 392.967 52.3149C397.978 57.7715 403.154 63.4156 409.019 64.3693C411.039 64.6977 415.291 62.4306 419.402 60.2261C423.27 58.1623 426.99 56.1689 429.832 55.692C430.537 54.7852 431.304 53.9644 432.15 53.2765C435.211 50.8218 437.443 50.1417 438.798 51.2596C440.278 52.4869 439.941 55.5826 437.913 59.3428C436.958 61.1095 435.94 62.845 434.867 64.5413C436.268 64.3693 437.607 64.3615 438.829 64.5882C439.894 63.7909 440.904 63.3687 441.828 63.4782C443.12 63.6267 443.739 64.2833 444.036 64.8071C444.843 66.2533 444.24 68.4969 443.167 71.0532C442.713 73.0232 441.593 75.2277 440.215 77.44C439.902 78.1592 439.635 78.8315 439.471 79.3787C440.998 78.5266 442.18 77.0804 443.324 75.6733C445.062 73.547 446.855 71.3581 449.831 71.147C450.058 71.1236 450.285 71.2095 450.465 71.3581C450.637 71.5144 450.739 71.7255 450.755 71.96C450.833 73.4844 449.658 75.5326 448.304 77.9012C447.004 80.1683 445.219 83.2796 446.002 84.202C446.37 84.6398 446.698 84.7024 446.91 84.7102C446.933 84.7102 446.949 84.7102 446.973 84.7102C448.319 84.7102 450.324 82.7558 452.094 81.0282C453.957 79.2067 455.727 77.4947 457.332 77.3071C457.81 77.2524 458.225 77.5885 458.287 78.0576C460.644 96.7333 427.444 110.922 411.72 115.175C403.929 123.469 396.248 128.269 385.841 131.435C383.14 132.256 380.399 132.787 377.753 133.303C370.611 134.687 363.869 135.992 359.422 142.84C356.047 148.039 356.345 152.104 357.135 157.279C357.229 157.889 357.355 158.561 357.496 159.28C358.294 163.463 359.398 169.185 355.24 171.835C351.263 174.376 346.619 171.311 341.694 168.075C337.599 165.378 333.363 162.587 329.51 163.056C327.615 163.283 325.744 163.853 323.755 164.448C320.27 165.495 316.66 166.582 312.761 165.816C311.038 165.479 309.574 164.917 308.29 164.416C305.228 163.236 303.012 162.376 299.011 164.815C297.555 165.706 296.357 167.488 295.205 169.208C293.569 171.647 291.885 174.172 289.192 174.704C286.083 175.314 284.024 173.422 282.215 171.749C280.179 169.873 278.887 168.817 276.836 169.748C276.131 172.609 274.815 176.002 272.513 176.799C271.315 177.213 270.055 176.908 268.762 175.877C267.353 174.751 267.298 172.695 267.251 170.873C267.228 169.842 267.189 168.434 266.781 168.184C266.68 168.122 266.241 167.965 264.863 168.614C262.53 169.716 262.725 171.319 263.281 174.055C263.657 175.939 264.088 178.073 262.827 179.816C262.42 180.379 261.191 182.084 259.64 181.677C257.737 181.185 257.072 177.831 256.657 174.516C255.905 175.243 255.13 176.791 254.519 178.003C253.399 180.215 252.428 182.13 250.87 182.044C249.86 181.99 249.03 181.138 248.192 179.238C246.509 180.551 244.363 182.115 242.46 182.216C239.986 182.357 238.6 181.083 237.59 180.16C237.105 179.715 236.682 179.324 236.345 179.293C233.91 179.043 233.557 179.488 232.79 180.465C232.14 181.286 231.255 182.412 229.039 183.381C227.904 183.874 220.739 184.366 219.377 183.233C218.656 182.631 218.327 181.271 217.85 179.097C217.591 177.925 216.895 174.798 216.299 174.712C216.276 174.712 215.548 174.704 213.856 177.8C213.559 178.347 213.762 179.332 213.982 180.379C214.397 182.341 214.96 185.023 211.969 186.422C211.1 186.829 210.184 186.844 209.315 186.461C208.195 185.977 207.334 184.913 206.754 183.889C206.418 184.46 206.144 185.07 206.167 186C206.175 186.328 205.995 186.625 205.705 186.774C205.415 186.922 205.071 186.899 204.805 186.711C204.397 186.422 204.17 186.367 203.904 186.305C203.325 186.172 202.847 186 202.181 185.148C200.78 185.554 199.793 186.555 198.673 187.696C198.204 188.173 197.718 188.666 197.186 189.127C201.5 190.487 205.384 190.988 209.464 190.73C211.875 190.581 214.357 189.799 216.754 189.041C219.525 188.173 222.384 187.266 225.304 187.251C227.473 187.227 229.893 187.962 232.218 188.658C234.708 189.408 237.292 190.182 239.587 190.073C241.912 189.963 244.167 189.362 246.556 188.728C248.96 188.087 251.442 187.431 254.01 187.306C256.25 187.196 258.176 187.399 259.875 187.579C262.976 187.9 265.662 188.181 269.303 186.539C270.188 186.141 270.9 185.523 271.66 184.859C272.913 183.764 274.338 182.529 276.632 182.443C278.378 182.365 279.85 183.295 281.15 184.108C282.035 184.655 282.865 185.179 283.617 185.296C287.406 185.875 290.468 184.405 293.702 182.85C294.783 182.334 295.895 181.794 297.038 181.341C305.862 177.839 314.609 176.729 325.391 177.729C330.074 178.167 334.568 177.706 338.906 177.268C344.842 176.666 350.456 176.095 356.501 177.604C364.942 179.715 375.231 185.992 379.937 191.902C380.618 192.762 381.206 193.544 381.746 194.263C384.025 197.32 385.403 199.165 390.07 201.049C390.915 201.392 391.925 201.682 392.99 201.994C395.856 202.823 399.098 203.761 400.304 206.185C400.813 207.201 400.907 208.397 400.594 209.741C406.208 209.655 407.437 211.063 409.356 213.822C409.974 214.713 410.679 215.722 411.728 216.871C412.457 217.668 413.318 217.997 414.242 218.348C415.307 218.763 416.411 219.185 417.288 220.311C417.961 221.178 418.126 222.398 418.29 223.578C418.501 225.118 418.689 226.15 419.433 226.392C419.551 226.432 419.676 226.455 419.793 226.463C419.872 226.346 419.95 226.236 420.028 226.119C421.892 223.445 423.967 221.077 426.207 219.044C427.311 216.973 428.352 214.768 429.245 212.884C430.866 209.476 432.259 206.528 433.418 205.231C441.35 196.296 452.148 191.613 468.443 190.049C470.009 189.901 471.536 189.721 473.047 189.549C477.002 189.096 480.76 188.705 484.957 188.674H484.965C486.132 188.674 488.176 188.439 490.337 188.197C493.829 187.798 496.781 187.493 498.974 187.501C499.122 186.594 499.224 185.68 499.279 184.765C498.065 182.185 495.787 180.028 492.341 179.418C481.113 177.409 461.568 179.543 450.512 183.983C449.611 184.343 447.521 185.742 445.093 187.352C437.631 192.324 426.355 199.845 420.811 197.593C419.245 196.96 418.235 195.631 417.812 193.661C416.701 188.439 428.148 180.762 431.688 178.542C438.398 174.313 447.043 172.507 456.064 170.881C459.29 170.295 464.003 171.03 468.991 171.811C477.025 173.062 486.14 174.477 489.765 170.357C489.945 170.154 490.117 169.951 490.266 169.748C487.134 168.833 483.383 167.637 483.407 163.533C483.415 162.634 483.595 161.907 483.892 161.305C477.158 159.421 467.903 158.96 464.583 159.562C460.801 160.25 457.262 161.907 453.84 163.502C450.708 164.971 447.466 166.488 444.028 167.262C439.424 168.301 436.95 168.137 435.752 166.707C434.358 165.049 435.172 162.157 437.044 157.732C437.396 156.904 437.748 156.122 438.085 155.379C440.152 150.837 441.288 148.336 437.13 145.06C434.608 143.075 429.503 141.769 425.4 140.722C424.045 140.378 422.761 140.049 421.681 139.721C420.96 139.502 420.255 139.315 419.566 139.119C416.231 138.197 413.349 137.407 412.096 135.14C411.321 133.733 411.282 131.919 411.995 129.598C412.355 128.417 413.404 127.8 414.336 127.252C415.479 126.58 416.184 126.103 416.293 125.134C416.38 124.368 416.004 124.047 414.978 123.391C413.866 122.687 412.19 121.616 413.005 118.958C414.375 114.487 426.982 112.821 428.728 112.743C434.256 112.485 440.058 114.307 445.031 117.856C446.949 119.224 448.484 121.1 449.964 122.906C451.624 124.931 453.19 126.846 455.241 128.104C457.825 129.691 460.816 130.059 463.98 130.45C466.822 130.801 469.759 131.169 472.351 132.506C475.898 134.343 477.62 136.774 479.609 139.596C480.15 140.362 480.706 141.144 481.324 141.957C482.185 143.083 483.603 144.349 485.106 145.678C487.949 148.203 490.877 150.806 491.464 153.628C492.31 157.693 489.922 158.96 488.011 159.984C487.667 160.164 487.353 160.336 487.064 160.515C489.648 161.524 491.691 162.829 492.639 164.518C493.383 165.831 493.453 167.238 492.858 168.731C494.095 169.146 495.199 169.638 496.014 170.397C499.757 173.867 501.276 179.168 501.056 184.515C501.511 185.594 501.808 186.719 501.957 187.845C502.145 187.907 502.317 187.97 502.466 188.048C503.398 188.509 506.232 189.924 505.778 192.066C505.434 193.716 503.085 194.865 500.618 195.592C499.255 198.187 496.891 200.337 493.398 201.174C493.383 201.174 493.367 201.181 493.344 201.189C488.974 204.379 484.84 202.362 480.807 200.407C477.84 198.969 474.778 197.484 471.458 197.922C471.685 199.97 476.391 205.176 479.594 208.71C483.07 212.556 486.351 216.183 487.314 218.591C489.28 223.492 489.546 227.151 488.105 229.465C487.118 231.044 485.396 231.935 482.968 232.115C478.646 232.443 476.407 229.168 474.426 226.283C473.588 225.064 472.797 223.914 471.881 222.992C464.066 215.182 454.615 211.344 445.273 212.173C438.837 212.743 432.776 215.495 427.608 220.107C425.478 224.086 423.2 227.385 420.796 228.058C417.578 232.826 414.195 238.939 412.363 245.623C414.884 240.174 418.689 235.101 422.565 231.802C438.281 218.442 465.311 219.388 481.59 233.866C486.907 238.595 489.89 243.88 491.535 249.548C492.294 240.104 493.657 230.794 496.311 221.968C496.82 220.279 501.487 205.411 508.761 203.339C511.048 202.682 513.319 203.331 515.503 205.254C517.625 207.123 518.377 209.976 519.097 212.743C520.382 217.629 521.368 220.35 526.583 219.333C531.352 218.403 534.719 212.657 537.694 207.584C538.932 205.473 540.106 203.472 541.289 201.994C544.342 198.172 546.926 196.342 549.667 196.053C552.251 195.787 554.905 196.905 558.28 199.68C560.394 201.416 561.812 203.62 563.19 205.747C565.069 208.663 566.847 211.414 570.214 212.665C574.912 214.408 579.446 213.924 583.69 211.227C591.544 206.231 596.477 194.951 597.127 186.876C597.808 178.48 598.34 171.851 603.43 164.057C606.006 160.109 608.332 155.614 610.587 151.26C613.625 145.389 616.757 139.322 620.633 134.335C626.694 126.525 639.763 119.576 649.566 121.679C653.27 122.476 656.285 124.29 658.939 125.892C664.099 129.011 667.834 131.263 674.185 125.994C681.443 119.974 684.912 110.359 688.263 101.072C690.432 95.0526 692.68 88.8378 695.929 83.7408C696.188 83.3421 696.712 83.2249 697.12 83.475C697.519 83.733 697.636 84.2646 697.386 84.6633C694.238 89.6039 692.124 95.4591 689.884 101.658C686.455 111.164 682.9 120.998 675.281 127.323C667.983 133.373 663.16 130.458 658.046 127.37C655.384 125.759 652.628 124.094 649.206 123.359C640.178 121.421 627.618 128.144 621.996 135.382C618.214 140.253 615.113 146.249 612.114 152.049C609.843 156.435 607.502 160.977 604.871 164.995C600.016 172.421 599.499 178.855 598.841 187.008C598.16 195.498 592.937 207.381 584.614 212.673C579.884 215.683 574.841 216.214 569.611 214.276C565.711 212.829 563.691 209.702 561.741 206.677C560.442 204.66 559.095 202.573 557.184 201.002C554.193 198.539 551.93 197.546 549.839 197.757C547.631 197.984 545.337 199.673 542.628 203.058C541.523 204.441 540.38 206.388 539.174 208.444C536.019 213.83 532.44 219.935 526.912 221.014C519.849 222.39 518.565 217.496 517.43 213.173C516.764 210.656 516.083 208.061 514.36 206.536C512.622 205.004 510.946 204.496 509.231 204.988C504.04 206.466 499.702 216.668 497.964 222.46C494.777 233.037 493.477 244.38 492.835 255.825C493.633 261.704 493.461 267.895 493.281 274.243C493.101 280.786 492.905 287.556 493.876 294.06C496.789 313.674 497.094 337.188 494.722 358.577C493.124 372.961 487.15 384.859 478.341 391.222C476.148 392.809 473.815 394.021 471.364 394.873C471.395 394.904 471.427 394.935 471.45 394.967C474.512 398.273 471.145 406.083 468.443 412.352C467.942 413.517 467.472 414.604 467.096 415.558C462.351 427.526 457.833 436 443.128 436ZM397.524 411.094C397.602 411.188 397.681 411.281 397.759 411.367C401.424 415.698 405.206 420.17 409.904 423.508C417.742 429.082 432.964 434.116 442.494 434.272C456.721 434.538 460.652 427.135 465.491 414.963C465.875 414.002 466.352 412.9 466.861 411.711C469.101 406.513 472.491 398.656 470.189 396.17C469.939 395.905 469.618 395.694 469.218 395.553C468.6 395.709 467.973 395.842 467.331 395.959C466.799 396.796 466.313 397.664 465.867 398.57C464.669 401.041 463.635 403.699 462.547 406.513C459.219 415.12 455.782 424.016 446.98 428.433C431.696 436.102 410.554 422.898 397.524 411.094ZM375.482 387.063C382.936 392.864 391.127 402.119 391.252 402.26C403.851 416.996 430.028 435.015 446.205 426.893C454.411 422.773 457.731 414.19 460.942 405.895C462.046 403.05 463.087 400.353 464.317 397.82C464.575 397.288 464.849 396.765 465.147 396.256C464.184 396.35 463.213 396.397 462.218 396.382C462.179 396.397 462.132 396.413 462.093 396.421C459.712 397.234 457.614 398.094 455.766 398.86C447.975 402.08 443.269 404.019 434.154 394.841C428.61 389.26 422.213 386.188 415.44 382.936C412.057 381.31 408.557 379.629 405.159 377.604C404.932 377.471 404.775 377.229 404.744 376.963C404.705 376.635 404.689 376.314 404.697 375.986C402.575 375.798 400.437 375.525 398.385 374.915C395.371 374.016 392.419 371.671 389.294 369.193C386.429 366.918 383.625 364.698 380.869 363.634C381.801 365.745 381.519 368.333 381.135 370.443C380.618 373.281 378.645 380.95 375.482 387.063ZM372.068 392.277C374.754 393.825 377.745 395.295 380.086 396.452C383.281 398.023 385.794 399.266 386.984 400.212C387.063 400.275 387.149 400.345 387.227 400.407C384.001 397.007 379.052 392.129 374.636 388.603C373.853 389.971 372.992 391.222 372.068 392.277ZM406.419 376.369C409.638 378.253 412.965 379.856 416.184 381.403C422.793 384.577 429.621 387.853 435.376 393.653C443.676 402.01 447.497 400.431 455.108 397.296C456.024 396.921 456.995 396.514 458.037 396.108C457.136 395.991 456.228 395.826 455.312 395.639C448.202 394.138 441.836 390.714 435.681 387.399C432.502 385.687 429.213 383.921 425.839 382.42C424.554 381.849 423.286 381.192 421.947 380.497C419.253 379.097 416.466 377.659 413.662 377.018C411.486 376.525 409.144 376.353 406.873 376.189C406.725 376.181 406.568 376.166 406.419 376.158C406.419 376.213 406.419 376.291 406.419 376.369ZM406.709 374.438C406.803 374.446 406.905 374.454 406.999 374.462C409.332 374.634 411.736 374.806 414.038 375.329C417.053 376.017 419.942 377.51 422.73 378.957C424.053 379.645 425.298 380.285 426.535 380.833C429.973 382.365 433.285 384.147 436.496 385.867C442.822 389.268 448.805 392.488 455.672 393.935C457.833 394.388 459.932 394.63 461.96 394.662C463.847 394.044 465.468 393.692 466.854 393.606C469.164 390.37 472.006 387.548 474.778 384.788C478.74 380.848 482.835 376.783 485.388 371.53C492.686 356.552 491.386 340.331 490.133 324.657C489.444 315.988 488.724 307.029 489.428 298.273C490.063 290.378 490.266 282.13 490.47 274.149C490.619 268.145 490.775 262.079 491.104 256.028C490.031 248.336 487.236 241.245 480.439 235.203C464.763 221.264 438.774 220.334 423.677 233.162C417.139 238.72 410.875 249.696 411.086 258.115C411.102 258.272 411.118 258.428 411.133 258.584C411.133 258.616 411.141 258.647 411.141 258.67C415.103 256.646 418.259 252.088 421.587 247.281C425.478 241.66 429.503 235.844 435.415 233.076C443.026 229.519 452.751 229.512 460.77 232.74C466.995 232.521 473.462 233.42 477.918 236.922C486.766 243.88 491.206 256.763 489.233 269.74L489.194 269.998C488.41 275.149 487.518 279.809 485.137 280.223C483.43 280.528 482.138 278.534 481.308 277.01C479.922 274.462 480.032 270.522 480.142 266.715C480.204 264.502 480.267 262.423 480.016 260.852C478.302 250.126 473.713 242.762 465.147 236.977C463.682 235.992 462.108 235.148 460.441 234.452C454.482 234.71 448.734 236 445.406 236.883C435.478 239.526 423.325 247.945 419.332 258.936C418.353 261.618 417.241 268.09 419.089 270.928C419.606 271.725 420.326 272.148 421.289 272.218C423.231 272.39 425.314 269.443 427.146 266.871C428.516 264.956 429.808 263.142 431.202 262.227C435.094 259.679 437.748 259.061 439.095 260.39C441.249 262.524 438.25 267.762 436.856 269.912C433.716 274.766 431.194 279.23 432.205 284.64C432.651 287.04 433.747 289.104 434.906 291.292C436.135 293.606 437.396 296.006 437.874 298.867C438.226 300.994 438.218 303.128 438.21 305.192C438.195 308.326 438.187 311.289 439.338 314.276C440.669 317.715 442.956 320.928 445.179 324.039C447.693 327.565 450.277 331.185 451.639 335.312C453.049 335.984 454.341 336.75 455.312 337.415C460.95 341.277 463.956 348.273 465.248 352.096C467.895 359.921 468.921 377.307 459.313 382.021C451.123 386.031 440.395 381.357 431.774 377.596C428.845 376.322 426.081 375.118 423.732 374.376C421.579 373.703 419.23 373.32 416.967 372.961C414.351 372.538 411.65 372.109 409.223 371.21C407.978 372.124 407.124 373.234 406.709 374.438ZM377.659 363.001C375.662 363.001 373.673 363.838 371.676 365.933C368.779 368.966 364.981 377.972 363.157 382.302L362.945 382.811C361.207 386.93 360.878 390.315 362.045 392.082C362.789 393.208 364.206 393.786 366.266 393.794C366.273 393.794 366.281 393.794 366.281 393.794C367.299 393.794 368.301 393.364 369.265 392.606C365.537 390.26 363.274 388.048 363.486 385.812C363.697 383.647 364.754 382.873 365.608 382.607C367.565 381.99 370.674 383.545 374.072 386.008C376.766 380.7 378.747 373.977 379.436 370.162C380.008 366.988 379.835 364.979 378.88 363.627C378.731 363.416 378.559 363.22 378.371 363.04C378.128 363.017 377.901 363.001 377.659 363.001ZM468.905 393.7C469.015 393.724 469.124 393.739 469.234 393.771C472.108 392.981 474.809 391.683 477.323 389.87C485.615 383.882 491.48 372.132 493.007 358.436C495.372 337.196 495.066 313.838 492.177 294.365C491.958 292.887 491.793 291.402 491.684 289.909C491.55 292.77 491.378 295.608 491.151 298.414C490.462 307.037 491.167 315.925 491.856 324.524C493.124 340.432 494.44 356.888 486.938 372.288C484.253 377.807 480.056 381.982 475.992 386.016C473.431 388.548 470.972 390.995 468.905 393.7ZM366.704 384.163C366.493 384.163 366.305 384.186 366.125 384.241C365.929 384.304 365.342 384.491 365.201 385.969C365.052 387.485 367.44 389.447 370.564 391.371C371.512 390.331 372.412 389.01 373.258 387.517C370.572 385.515 368.207 384.163 366.704 384.163ZM409.097 369.404C409.207 369.404 409.317 369.427 409.418 369.466C411.775 370.412 414.43 370.834 417.233 371.288C419.559 371.663 421.97 372.054 424.241 372.765C426.676 373.531 429.487 374.751 432.455 376.048C440.747 379.668 451.076 384.163 458.546 380.504C466.814 376.447 466.251 360.476 463.612 352.675C462.39 349.055 459.556 342.442 454.333 338.861C453.675 338.408 452.963 337.978 452.242 337.579C452.297 337.853 452.352 338.134 452.399 338.416C453.143 343.02 452.853 345.248 451.42 345.866C449.517 346.686 446.808 343.888 442.83 338.846C443.12 343.653 446.095 347.163 449.243 350.869C453.425 355.794 457.739 360.883 454.826 368.982C454.732 369.255 454.505 369.458 454.223 369.529C452.289 370.013 450.621 369.779 449.267 368.825C445.923 366.488 445.273 360.422 444.702 355.067C444.42 352.424 444.154 349.931 443.598 348.57C443.402 348.094 442.063 346.405 440.763 344.779C437.49 340.675 434.601 336.915 433.113 333.921C432.056 334.358 430.772 334.429 429.26 334.116C426.575 333.561 423.983 331.794 421.485 330.09C419.512 328.745 417.476 327.354 415.502 326.658C411.65 325.29 407.852 324.594 403.835 323.86C402.512 323.617 401.181 323.375 399.85 323.101C393.593 321.835 388.347 321.264 383.093 322.617C382.036 322.89 380.979 323.203 379.953 323.5C379.507 323.633 379.06 323.758 378.614 323.891C379.17 327.354 377.33 331.028 375.772 334.147C375.49 334.71 375.208 335.265 374.949 335.812C374.331 337.11 373.673 338.376 373.031 339.596C371.058 343.372 369.194 346.944 368.669 351.134C368.513 352.362 368.497 353.574 368.474 354.754C368.411 358.624 368.348 362.626 362.46 363.509C355.092 364.612 349.055 358.303 343.73 352.721C341.389 350.267 339.173 347.953 337.035 346.428C331.75 342.676 325.908 342.473 320.098 343.903C320.576 347.335 318.595 351.721 316.668 355.981C315.502 358.553 314.405 361 314.022 362.9C317.796 366.777 324.945 367.653 331.867 368.497C336.181 369.021 340.261 369.521 343.464 370.725C346.181 371.749 348.624 373.242 350.785 374.563C353.98 376.518 356.744 378.214 358.936 377.448C360.714 376.83 362.288 374.579 363.744 370.576C364.01 369.841 364.253 369.099 364.496 368.364C366.062 363.58 367.691 358.639 374.808 359.765C376.609 360.054 378.027 360.594 379.084 361.414C383.007 362.055 386.828 365.081 390.367 367.895C393.358 370.271 396.185 372.515 398.879 373.32C400.813 373.899 402.88 374.157 404.947 374.336C405.456 372.499 406.717 370.842 408.62 369.576C408.761 369.451 408.925 369.404 409.097 369.404ZM304.007 340.62C296.106 342.316 288.816 346.788 285.386 349.133C284.987 349.407 284.501 349.735 283.938 350.11C277.634 354.34 258.45 367.223 261.018 375.415C261.645 377.409 262.53 378.566 263.649 378.863C265.074 379.23 266.962 378.292 268.896 376.877C272.732 369.763 280.484 362.665 292.402 355.348C292.614 353.347 293.177 351.322 294.634 349.282C297.108 345.811 305.009 340.174 309.754 341.292C311.915 341.801 313.098 342.606 313.364 343.763C313.403 343.935 313.427 344.107 313.419 344.279C314.899 343.677 316.402 343.129 317.906 342.676C317.365 341.691 316.379 340.988 314.899 340.55C312.847 340.526 310.788 340.558 308.76 340.589C307.201 340.597 305.596 340.62 304.007 340.62ZM269.796 378.902C273.343 379.105 277.987 377.284 281.784 375.798C282.849 375.384 283.852 374.993 284.76 374.673C287.453 373.719 290.437 373.398 293.326 373.086C296.372 372.757 299.254 372.445 301.744 371.452C303.936 370.576 305.158 369.677 305.596 368.614C306.199 367.144 305.377 365.065 304.148 362.29C303.654 361.172 303.192 360.265 302.824 359.538C300.906 355.786 300.937 355.035 305.534 350.423C305.886 350.071 306.285 349.712 306.716 349.344C305.471 349.993 304.242 350.642 303.051 351.283L302.448 351.604C299.449 353.206 296.654 354.785 294.054 356.357C294 357.279 294 358.209 294.007 359.163C294.015 361.305 294.031 363.509 293.279 365.683C291.243 371.546 288.589 370.803 285.778 370.013C284.196 369.568 282.403 369.068 280.273 369.599C279.294 369.849 277.29 371.725 275.363 373.539C273.711 375.095 271.965 376.729 270.227 378.042C270.078 378.323 269.937 378.613 269.796 378.902ZM292.293 357.427C284.071 362.563 277.979 367.567 273.915 372.523C274.001 372.437 274.095 372.359 274.181 372.273C276.561 370.037 278.441 368.27 279.858 367.918C282.434 367.27 284.548 367.864 286.248 368.341C288.926 369.091 290.147 369.435 291.658 365.104C292.316 363.212 292.308 361.242 292.293 359.163C292.285 358.584 292.285 358.014 292.293 357.427ZM445.571 349.125C445.955 350.65 446.166 352.643 446.409 354.871C446.918 359.616 447.544 365.518 450.246 367.402C451.091 367.989 452.109 368.169 453.354 367.942C455.617 361.031 451.882 356.622 447.928 351.963C447.129 351.041 446.33 350.095 445.571 349.125ZM334.333 342.911C335.579 343.45 336.808 344.146 338.022 344.998C340.292 346.616 342.563 348.985 344.967 351.502C350.245 357.037 355.695 362.759 362.194 361.774C366.641 361.102 366.681 358.686 366.743 354.691C366.759 353.472 366.782 352.213 366.947 350.892C367.511 346.397 369.445 342.692 371.488 338.775C372.123 337.564 372.772 336.321 373.375 335.046C373.642 334.491 373.924 333.928 374.205 333.35C375.74 330.293 377.306 327.159 376.915 324.321C374.401 324.97 371.809 325.431 369.084 325.196C365.921 324.915 362.17 324.266 358.326 323.391C357.848 324 357.417 324.641 357.026 325.321C356.705 327.948 355.875 330.145 354.536 331.912C353.87 334.609 353.471 337.446 353.079 340.159C352.617 343.411 352.179 346.475 351.364 349.094C351.278 349.36 351.067 349.571 350.801 349.657C347.026 350.845 344.779 348.836 342.602 346.897C341.553 345.959 340.465 344.99 339.196 344.404C337.81 343.747 336.103 343.278 334.333 342.911ZM308.407 342.848C304.531 342.848 298.251 347.171 296.043 350.267C295.119 351.564 294.61 352.862 294.336 354.175C296.623 352.815 299.058 351.455 301.634 350.079L302.237 349.759C305.095 348.234 308.133 346.608 311.281 345.193C311.586 344.779 311.759 344.419 311.696 344.146C311.657 343.989 311.383 343.434 309.363 342.958C309.065 342.887 308.744 342.848 308.407 342.848ZM315.157 338.822C319.119 338.869 323.081 339.104 326.903 339.87C327.96 340.081 329.119 340.268 330.348 340.464C333.558 340.98 337.207 341.566 339.948 342.84C341.443 343.536 342.626 344.591 343.769 345.615C345.727 347.359 347.293 348.766 349.877 348.14C350.566 345.748 350.973 342.911 351.404 339.924C351.678 338.025 351.952 336.07 352.32 334.132C347.073 338.009 338.734 337.407 331.217 336.281C322.533 334.984 312.197 334.937 298.69 336.133C294.916 336.469 291.4 337.376 288.009 338.337C290.554 337.657 291.478 337.845 292.872 338.134C293.506 338.267 294.219 338.408 295.276 338.525C298.032 338.814 300.875 338.892 303.709 338.9C307.037 338.205 310.467 337.978 313.818 338.533C314.288 338.611 314.734 338.705 315.157 338.822ZM236.744 345.928C237.112 346.444 237.621 346.952 238.287 347.453C240.91 349.454 247.464 346.772 250.98 345.334C251.739 345.021 252.405 344.748 252.937 344.56C257.612 342.864 260.079 342.981 263.493 343.153C264.55 343.208 265.748 343.262 267.134 343.27C271.049 343.262 278.229 342.965 281.941 341.973C282.943 341.707 283.82 341.003 284.752 340.26C285.668 339.526 286.616 338.767 287.743 338.416C287.273 338.548 286.804 338.681 286.342 338.822C281.033 340.354 275.544 341.941 269.107 341.613C268.222 341.566 267.377 341.511 266.562 341.457C262.686 341.191 259.625 340.98 255.678 342.262C254.316 342.7 252.969 343.27 251.661 343.825C248.834 345.021 245.906 346.249 242.468 346.405C240.338 346.483 238.428 346.327 236.744 345.928ZM236.063 343.943C237.825 344.529 239.947 344.779 242.382 344.67C245.506 344.529 248.169 343.411 250.98 342.223C252.319 341.66 253.705 341.074 255.138 340.612C259.405 339.236 262.772 339.463 266.672 339.729C267.478 339.784 268.316 339.838 269.185 339.885C273.602 340.112 277.478 339.416 281.314 338.423C280.163 338.47 278.746 338.158 277.039 337.446C273.977 336.18 272.333 333.944 272.278 330.973C272.13 323.242 282.653 312.478 287.97 310.031C291.243 308.53 295.472 307.842 299.958 307.115C306.974 305.973 314.225 304.793 317.624 300.361C319.221 298.273 320.873 295.42 319.667 293.692C317.013 289.901 302.746 291.871 297.5 293.513C294.532 294.443 291.502 295.326 288.291 296.264C269.773 301.682 248.787 307.818 237.48 323.445C235.022 326.846 229.924 336.743 231.623 339.682C231.749 339.893 232.101 340.518 233.526 340.479C239.759 327.237 246.673 321.092 254.088 322.21C254.394 322.257 254.644 322.46 254.762 322.742C256.171 326.306 251.183 329.879 245.906 333.663C241.325 336.946 236.126 340.667 236.079 343.911C236.063 343.927 236.063 343.935 236.063 343.943ZM443.167 336.493C445.782 339.854 449.643 344.615 450.723 344.279C450.723 344.279 451.498 343.724 450.684 338.681C450.567 337.962 450.41 337.266 450.206 336.571C447.709 335.492 445.266 334.984 443.927 335.719C443.605 335.898 443.355 336.156 443.167 336.493ZM434.53 332.936C436.167 336.266 439.957 341.019 442.086 343.7C442.188 343.825 442.282 343.942 442.376 344.06C441.648 342.426 441.162 340.667 441.084 338.705C441.053 337.97 441.115 337.345 441.241 336.813C440.943 336.43 440.646 336.039 440.34 335.64C438.868 333.717 437.145 331.474 435.987 330.215C435.728 331.192 435.337 332.013 434.789 332.662C434.702 332.748 434.624 332.842 434.53 332.936ZM232.876 342.184C233.33 342.574 233.839 342.926 234.395 343.231C234.975 339.369 240.01 335.766 244.888 332.271C249.101 329.254 253.454 326.134 253.258 323.844C246.806 323.258 240.62 329.246 234.865 341.668C234.74 341.941 234.474 342.129 234.176 342.16C233.691 342.215 233.26 342.215 232.876 342.184ZM318.524 340.636C318.892 341.003 319.205 341.417 319.448 341.871C319.503 341.98 319.558 342.09 319.613 342.199C321.523 341.722 323.442 341.41 325.352 341.331C323.12 340.948 320.834 340.745 318.524 340.636ZM322.909 310.038C322.463 310.296 321.993 310.523 321.5 310.726C316.888 312.61 311.767 312.915 306.81 313.22C301.352 313.548 295.699 313.892 290.781 316.355C285.339 319.075 283.961 321.522 284.353 327.729C284.392 328.339 284.478 329.05 284.572 329.801C284.94 332.803 285.363 336.211 283.35 337.743C283.233 337.829 283.108 337.915 282.982 337.986C283.938 337.72 284.893 337.446 285.856 337.165C289.842 336.016 293.968 334.82 298.525 334.421C312.174 333.209 322.643 333.264 331.46 334.577C338.828 335.68 346.987 336.281 351.678 332.435C352.147 332.052 352.57 331.63 352.954 331.169C353.526 328.894 354.285 326.713 355.366 324.743C355.397 324.422 355.421 324.102 355.436 323.766C355.452 323.398 355.46 323.047 355.444 322.703C349.751 321.249 344.129 319.357 340.167 317.449C338.413 316.605 336.886 315.26 335.422 313.908C334.247 313.869 333.135 313.806 332.086 313.713C331.765 313.681 331.272 313.674 330.7 313.666C327.928 313.627 323.747 313.572 323.05 310.883C322.98 310.586 322.933 310.304 322.909 310.038ZM311.516 289.776C315.705 289.776 319.511 290.503 321.061 292.715C322.51 294.787 321.813 297.71 318.978 301.416C315.165 306.388 307.57 307.631 300.225 308.827C295.863 309.538 291.744 310.21 288.683 311.61C283.765 313.869 273.86 324.243 273.993 330.958C274.04 333.256 275.246 334.867 277.689 335.875C279.929 336.797 281.526 336.977 282.301 336.383C283.523 335.453 283.155 332.443 282.857 330.02C282.763 329.246 282.669 328.511 282.63 327.854C282.191 321.006 283.985 317.848 290.006 314.838C295.245 312.22 301.07 311.868 306.708 311.524C311.743 311.219 316.496 310.93 320.85 309.155C324.898 307.506 326.378 304.144 326.91 301.619C328.014 296.335 326.057 289.823 322.134 285.797C312.393 275.775 295.205 285.468 281.401 293.247C276.146 296.21 271.19 299.008 267.22 300.392C265.184 301.103 263.039 301.783 260.971 302.448C252.781 305.059 244.316 307.764 237.457 313.392C232.328 317.598 222.759 327.041 223.3 332.662C223.417 333.882 224.012 334.851 225.124 335.617C225.79 334.734 226.283 333.624 226.761 332.537C227.599 330.637 228.46 328.667 230.308 327.776C230.621 327.62 231.005 327.674 231.263 327.917C231.522 328.151 231.616 328.527 231.49 328.855C230.746 330.872 230.308 332.764 230.19 334.499C231.647 329.449 235.272 323.594 236.079 322.476C247.73 306.372 269.021 300.15 287.806 294.654C291.008 293.716 294.031 292.832 296.983 291.91C299.418 291.113 305.823 289.776 311.516 289.776ZM436.323 328.151C437.42 329.05 438.978 331.02 441.703 334.585C441.82 334.734 441.938 334.898 442.071 335.062C442.392 334.671 442.752 334.405 443.096 334.218C444.772 333.295 447.137 333.616 449.447 334.429C448.069 331.099 445.884 328.042 443.762 325.056C441.483 321.858 439.127 318.552 437.717 314.909C436.449 311.625 436.464 308.358 436.48 305.2C436.488 303.112 436.496 301.15 436.167 299.164C435.736 296.577 434.593 294.412 433.371 292.113C432.205 289.909 430.999 287.626 430.498 284.968C429.37 278.933 432.048 274.164 435.399 268.989C438.218 264.627 438.414 262.157 437.874 261.618C437.49 261.235 435.846 261.242 432.142 263.674C431.022 264.408 429.761 266.167 428.548 267.872C426.347 270.952 424.077 274.133 421.164 273.93C419.668 273.821 418.454 273.109 417.64 271.858C415.315 268.286 416.716 261.078 417.711 258.342C421.916 246.796 434.601 237.97 444.96 235.21C447.599 234.507 451.71 233.569 456.283 233.053C449.58 231.341 442.165 231.802 436.135 234.616C430.646 237.18 426.762 242.801 422.996 248.234C419.394 253.441 415.98 258.373 411.337 260.453C411.838 264.494 412.699 268.528 415.181 271.639C415.855 272.484 416.779 273.086 417.765 273.719C418.971 274.501 420.224 275.314 421.125 276.65C422.456 278.613 422.628 280.067 422.8 281.466C422.91 282.334 423.02 283.241 423.411 284.351C423.709 285.203 424.351 286.782 425.157 288.775C431.249 303.855 437.02 319.701 436.323 328.151ZM434.444 329.371C433.982 329.512 433.888 329.746 433.849 329.832C433.716 330.145 433.716 330.559 433.825 331.044C434.092 330.575 434.295 330.012 434.444 329.371ZM359.665 321.937C363.086 322.687 366.406 323.234 369.241 323.492C371.708 323.711 374.057 323.297 376.437 322.679C376.218 322.195 375.92 321.725 375.537 321.272C372.953 318.184 366.406 317.942 362.718 319.795C361.559 320.381 360.549 321.108 359.665 321.937ZM338.1 313.986C339.008 314.745 339.94 315.432 340.919 315.902C344.646 317.692 349.869 319.466 355.217 320.873C354.935 319.63 354.387 318.591 353.58 317.723C350.495 314.401 343.973 314.143 338.1 313.986ZM325.775 309.038C325.329 309.038 324.953 309.108 324.765 309.296C324.53 309.53 324.64 310.117 324.726 310.453C325.094 311.868 328.899 311.922 330.732 311.946C331.342 311.954 331.867 311.962 332.258 312.001C332.634 312.04 333.018 312.063 333.417 312.094C332.031 310.906 330.638 309.937 329.095 309.616C328.946 309.585 328.758 309.538 328.539 309.483C327.999 309.351 326.722 309.038 325.775 309.038ZM464.317 234.444C464.927 234.788 465.523 235.164 466.102 235.554C474.974 241.55 479.93 249.501 481.708 260.586C481.982 262.313 481.927 264.479 481.857 266.769C481.763 270.178 481.653 274.047 482.82 276.189C483.877 278.136 484.621 278.574 484.84 278.527C485.74 278.37 486.625 275.415 487.487 269.74L487.526 269.482C489.413 257.107 485.216 244.857 476.853 238.275C473.564 235.687 469.023 234.648 464.317 234.444ZM447.779 210.39C456.753 210.39 465.656 214.385 473.102 221.827C474.136 222.859 475.005 224.133 475.851 225.361C477.73 228.104 479.523 230.708 482.835 230.45C484.707 230.309 485.952 229.707 486.641 228.605C487.761 226.815 487.44 223.586 485.709 219.286C484.856 217.16 481.528 213.478 478.309 209.921C472.46 203.456 468.976 199.352 469.876 196.937C469.978 196.655 470.221 196.452 470.51 196.397C474.637 195.569 478.309 197.351 481.551 198.922C484.339 200.275 486.805 201.471 489.256 201.142C488.301 200.877 487.44 200.423 486.891 199.712C486.351 199.008 485.913 197.796 486.884 195.991C488.277 193.403 491.002 194.06 492.991 194.544C493.821 194.748 494.604 194.927 495.184 194.904C495.607 194.881 496.061 194.841 496.523 194.779C497.431 193.106 498.144 191.238 498.613 189.276C496.241 189.307 493.085 189.666 490.525 189.956C488.215 190.221 486.226 190.448 484.957 190.448C484.926 190.448 484.895 190.448 484.871 190.448C480.784 190.448 477.111 190.87 473.235 191.308C471.716 191.48 470.182 191.66 468.6 191.808C452.775 193.325 442.321 197.836 434.702 206.419C433.708 207.537 432.299 210.515 430.803 213.666C430.372 214.58 429.926 215.511 429.48 216.433C434.209 213.04 439.526 210.992 445.109 210.5C446.002 210.429 446.894 210.39 447.779 210.39ZM490.157 195.803C489.334 195.803 488.794 196.077 488.403 196.796C487.753 198 488.136 198.492 488.262 198.649C488.935 199.524 491.081 199.868 492.615 199.626C493.406 199 494.213 198.164 495.043 197.077C495.16 196.921 495.278 196.765 495.387 196.6C495.348 196.6 495.309 196.608 495.27 196.608C494.44 196.655 493.539 196.428 492.592 196.202C491.582 195.959 490.791 195.803 490.157 195.803ZM497.627 196.327C497.321 196.835 497 197.327 496.656 197.796C497.243 197.327 497.76 196.804 498.198 196.225C498.003 196.264 497.815 196.296 497.627 196.327ZM458.765 172.445C457.88 172.445 457.074 172.499 456.361 172.632C447.521 174.227 439.048 175.994 432.604 180.059C425.604 184.468 418.838 190.292 419.496 193.372C419.793 194.771 420.436 195.655 421.453 196.069C426.152 197.976 437.404 190.472 444.13 185.992C446.839 184.186 448.797 182.881 449.862 182.459C461.169 177.925 481.16 175.744 492.639 177.792C495.497 178.3 497.674 179.707 499.209 181.544C498.848 177.729 497.47 174.18 494.831 171.725C494.189 171.131 493.171 170.717 492.012 170.342C491.738 170.74 491.425 171.155 491.057 171.561C486.805 176.392 477.197 174.892 468.725 173.578C465.053 172.992 461.537 172.445 458.765 172.445ZM500.352 189.58C499.945 191.253 499.381 192.879 498.668 194.388C498.911 194.333 499.154 194.271 499.396 194.208C500.054 192.731 500.36 191.12 500.352 189.58ZM502.074 189.831C502.059 191.058 501.863 192.324 501.487 193.544C502.92 192.997 503.969 192.356 504.095 191.769C504.173 191.386 503.672 190.69 502.074 189.831ZM159.702 165.026C159.404 166.41 158.567 167.535 157.815 168.536C157.134 169.451 156.484 170.318 156.398 171.186C156.202 173.172 156.719 173.875 157.322 174.696C157.674 175.173 158.073 175.712 158.3 176.478C158.465 177.026 158.614 177.557 158.754 178.073C159.639 181.294 160.281 183.616 163.969 185.406C168.519 187.618 177.766 190.401 183.209 188.416C184.978 187.767 186.176 186.704 186.857 185.164C186.865 185.14 186.881 185.109 186.889 185.085C186.161 183.522 186.035 181.458 185.918 178.292L185.91 177.979C185.879 177.057 185.871 176.174 185.863 175.329C185.84 170.694 185.824 167.903 181.196 166.441C179.364 165.862 177.571 165.925 175.84 165.988C172.888 166.089 169.842 166.199 167.524 162.728C166.976 163.236 166.405 163.916 166.052 164.494C167.43 167.402 171.941 168.505 175.942 169.482C177.273 169.802 178.526 170.115 179.591 170.475C179.857 170.561 180.061 170.78 180.139 171.045C180.217 171.311 180.163 171.6 179.99 171.819C177.211 175.368 172.763 176.08 166.405 173.985C166.185 173.914 165.998 173.75 165.896 173.539C165.481 172.679 165.168 171.608 164.831 170.483C164.189 168.301 163.453 165.823 161.957 165.081C161.354 164.776 160.61 164.76 159.702 165.026ZM188.784 184.929C189.629 186.149 191.18 186.938 194.108 188.072C194.492 188.22 194.876 188.369 195.252 188.502C195.432 188.377 195.627 188.228 195.815 188.072C196.395 187.603 196.935 187.055 197.452 186.524C198.791 185.164 200.177 183.764 202.408 183.373C202.745 183.311 203.082 183.459 203.27 183.741C203.81 184.554 203.975 184.585 204.296 184.663C204.382 184.687 204.476 184.702 204.577 184.734C204.773 183.85 205.165 183.217 205.501 182.67C205.721 182.318 205.909 182.013 205.987 181.716C206.089 181.349 206.418 181.091 206.801 181.083C207.193 181.059 207.522 181.317 207.639 181.685C208.038 182.943 208.986 184.46 210.012 184.906C210.427 185.085 210.818 185.078 211.241 184.882C212.917 184.1 212.744 182.865 212.298 180.755C212.024 179.449 211.734 178.104 212.345 176.994C213.95 174.071 215.242 172.843 216.542 173.031C218.32 173.281 218.907 175.939 219.533 178.745C219.784 179.895 220.175 181.63 220.489 181.935C221.311 182.396 227.403 182.24 228.35 181.826C230.167 181.036 230.84 180.176 231.443 179.426C232.508 178.081 233.377 177.284 236.533 177.612C237.441 177.706 238.115 178.323 238.765 178.925C239.673 179.762 240.62 180.622 242.374 180.528C243.925 180.442 246.243 178.613 247.636 177.526L248.043 177.205C248.263 177.033 248.545 176.979 248.811 177.057C249.077 177.135 249.289 177.331 249.382 177.581C250.377 180.246 250.972 180.356 250.972 180.356C251.45 180.317 252.452 178.323 252.984 177.26C254.167 174.915 255.381 172.499 257.338 172.413C257.769 172.406 258.176 172.726 258.231 173.164L258.286 173.649C258.935 179.16 259.75 179.949 260.071 180.035C260.188 180.074 260.65 179.902 261.433 178.831C262.256 177.698 261.934 176.103 261.59 174.422C261.089 171.929 260.462 168.825 264.127 167.09C265.121 166.621 266.578 166.074 267.682 166.746C268.888 167.488 268.927 169.122 268.966 170.858C269.005 172.304 269.044 173.938 269.827 174.555C271.025 175.509 271.715 175.275 271.934 175.196C273.202 174.759 274.439 172.429 275.246 168.982C275.301 168.739 275.457 168.536 275.677 168.419C279.122 166.574 281.385 168.661 283.382 170.506C285.042 172.038 286.6 173.484 288.855 173.039C290.852 172.648 292.269 170.522 293.772 168.278C295.033 166.402 296.333 164.455 298.111 163.369C302.84 160.484 305.792 161.625 308.909 162.829C310.193 163.322 311.516 163.838 313.09 164.143C316.567 164.823 319.973 163.799 323.254 162.814C325.219 162.22 327.255 161.61 329.299 161.36C333.778 160.812 338.28 163.783 342.641 166.652C347.081 169.576 351.278 172.335 354.309 170.397C357.48 168.372 356.548 163.517 355.796 159.616C355.655 158.874 355.522 158.178 355.428 157.553C354.614 152.182 354.285 147.617 357.973 141.926C362.812 134.46 369.907 133.092 377.416 131.638C380.023 131.13 382.717 130.614 385.332 129.816C394.58 127.002 401.619 122.851 408.557 115.972C408.494 115.988 408.432 115.995 408.369 116.011C400.045 117.762 392.998 118.52 386.303 118.325C380.227 122.773 370.854 128.433 366.868 126.455C365.232 125.642 364.613 123.821 365.036 121.045C365.044 120.998 365.052 120.952 365.06 120.905C359.821 120.529 354.857 119.302 351.09 117.145C346.627 114.588 341.835 109.616 344.348 100.431C345.656 95.6702 348.154 93.0044 351.952 90.5185C352.688 87.8215 353.956 85.2808 355.436 83.5454C355.977 82.9122 357.276 81.9506 358.874 81.0438C351.2 81.6145 344.129 84.1708 339.533 92.0429C334.694 100.329 334.31 111.829 338.57 120.647C339.415 122.406 341.694 124.501 344.098 126.721C348.084 130.395 352.21 134.202 351.764 138.056C351.545 139.995 350.151 141.699 347.637 143.122C343.793 145.303 338.993 144.255 334.756 143.333C333.308 143.02 331.937 142.715 330.661 142.551C324.506 141.73 320.912 142.684 314.578 144.576C311.07 145.623 308.235 147.015 305.228 148.492C303.866 149.165 302.456 149.852 300.961 150.525C295.785 152.839 291.431 152.831 285.919 152.823H284.869C273.766 152.823 264.111 154.347 251.544 158.092C245.561 159.874 241.231 161.039 235.57 161C233.902 160.992 232.156 161.164 230.457 161.328C229.564 161.414 228.703 161.5 227.912 161.555C226.769 161.625 225.328 161.586 224.059 161.547C222.932 161.516 221.867 161.477 221.272 161.539C217.067 161.946 212.345 162.517 209.127 163.728C207.655 164.283 206.449 164.893 205.29 165.487C203.121 166.589 201.069 167.629 197.93 167.887C196.489 168.004 195.314 167.879 194.281 167.778C191.728 167.512 190.671 167.402 189.026 171.421C188.204 173.43 188.51 175.665 188.831 178.034C189.167 180.301 189.481 182.654 188.784 184.929ZM167.305 172.46C172.097 173.977 175.464 173.742 177.743 171.71C177.054 171.522 176.31 171.342 175.535 171.155C171.855 170.256 167.407 169.177 165.23 166.41C165.755 167.528 166.131 168.794 166.483 169.99C166.757 170.905 167.015 171.772 167.305 172.46ZM485.576 161.876C485.294 162.329 485.137 162.876 485.137 163.595C485.122 166.316 487.346 167.16 491.01 168.223C491.073 168.239 491.135 168.262 491.198 168.278C491.652 167.223 491.629 166.277 491.135 165.417C490.305 163.955 488.238 162.782 485.576 161.876ZM429.754 114.502C429.44 114.502 429.127 114.51 428.814 114.526C425.016 114.698 415.487 116.824 414.665 119.521C414.25 120.873 414.751 121.256 415.917 121.999C416.896 122.624 418.235 123.477 418.016 125.384C417.797 127.276 416.372 128.12 415.221 128.792C414.469 129.23 413.819 129.613 413.655 130.153C413.091 132.005 413.083 133.381 413.623 134.366C414.524 136 417.076 136.704 420.036 137.517C420.733 137.712 421.454 137.907 422.182 138.126C423.231 138.439 424.5 138.767 425.839 139.104C430.098 140.19 435.399 141.55 438.21 143.763C443.433 147.867 441.773 151.518 439.667 156.145C439.338 156.872 438.986 157.639 438.641 158.452C437.318 161.579 436.214 164.619 437.083 165.659C437.772 166.472 439.98 166.472 443.66 165.636C446.91 164.901 449.925 163.494 453.119 162.001C456.643 160.351 460.284 158.647 464.285 157.92C467.316 157.373 477.612 157.615 485.067 159.882C485.733 159.304 486.508 158.897 487.205 158.522C489.037 157.545 490.368 156.841 489.781 154.035C489.311 151.776 486.469 149.251 483.963 147.023C482.397 145.631 480.917 144.318 479.954 143.059C479.312 142.223 478.748 141.417 478.2 140.644C476.258 137.9 474.731 135.726 471.552 134.085C469.242 132.889 466.58 132.56 463.761 132.209C460.55 131.81 457.238 131.403 454.333 129.621C452.039 128.214 450.308 126.095 448.625 124.047C447.145 122.241 445.751 120.545 444.02 119.31C439.659 116.191 434.624 114.502 429.754 114.502ZM366.821 121.006C366.798 121.108 366.782 121.21 366.767 121.311C366.469 123.266 366.774 124.477 367.667 124.923C370.181 126.166 376.609 122.812 382.067 119.208C377.377 120.569 372.021 121.194 366.821 121.006ZM367.44 119.279C371.794 119.38 376.273 118.903 380.29 117.895C378.818 117.723 377.345 117.496 375.865 117.23C374.018 116.894 372.036 116.285 370.032 115.456C368.92 116.777 368.02 118.075 367.44 119.279ZM351.474 92.9732C348.788 94.9822 347.042 97.2336 346.04 100.892C344.255 107.42 346.251 112.384 351.975 115.667C355.585 117.739 360.455 118.888 365.6 119.2C366.187 117.778 367.166 116.269 368.403 114.729C361.246 111.367 354.121 105.379 351.881 98.93C351.263 97.1633 351.176 95.076 351.474 92.9732ZM388.762 116.488C388.692 116.543 388.629 116.597 388.558 116.652C388.934 116.652 389.318 116.644 389.702 116.644C389.6 116.433 389.584 116.183 389.67 115.956C389.381 116.128 389.075 116.308 388.762 116.488ZM371.222 114.088C372.921 114.752 374.597 115.245 376.171 115.526C378.974 116.034 381.754 116.371 384.581 116.535C385.755 116.081 386.867 115.565 387.877 115.003C388.934 114.158 389.78 113.423 390.297 112.884C397.798 105.215 403.373 93.5673 406.028 87.3055C407.758 83.2327 410.092 80.0588 412.699 77.1195C406.286 81.7083 401.173 86.7349 395.762 92.0507C393.836 93.9425 391.839 95.9047 389.764 97.859C388.402 99.1489 386.358 100.798 383.986 102.714C380.055 105.927 374.879 110.109 371.222 114.088ZM439.252 66.4722C436.519 68.9503 433.082 74.3834 431.719 76.5332C431.343 77.1273 431.038 77.6042 430.834 77.909C426.982 83.5845 422.675 88.1576 418.11 92.9888C416.638 94.5523 415.111 96.1705 413.608 97.8199C412.386 99.1567 411.031 100.955 409.591 102.862C405.715 107.983 401.126 114.049 395.7 116.285C399.536 115.917 403.6 115.268 408.04 114.338C408.902 114.158 409.826 113.939 410.804 113.681C411.384 113.064 411.955 112.423 412.535 111.758C419.551 103.753 425.862 95.4278 431.296 87.0085C431.868 86.1251 432.76 84.9369 433.794 83.5688C435.258 81.6223 437.161 79.0973 438.735 76.5879C439.08 75.814 439.487 74.9541 439.941 74.0004C440.466 72.9137 441.053 71.6708 441.554 70.4747C441.718 69.6617 441.726 68.9269 441.53 68.3171C441.264 67.4807 440.591 66.9022 439.479 66.5426C439.408 66.5191 439.33 66.4957 439.252 66.4722ZM392.889 113.423C392.481 114.088 392.113 114.76 391.784 115.44C398.119 115.175 403.687 107.811 408.22 101.83C409.685 99.8915 411.071 98.0623 412.339 96.6708C413.85 95.0135 415.377 93.3875 416.865 91.8162C421.375 87.0319 425.643 82.5135 429.417 76.9475C429.613 76.6583 429.91 76.1971 430.27 75.6186C432.588 71.9522 434.953 68.4578 437.145 66.1752C436.041 66.1361 434.867 66.269 433.63 66.5269C429.299 73.0232 424.241 79.0504 419.308 84.9369C418.047 86.4378 416.787 87.9388 415.549 89.4397C412.879 92.6605 409.544 95.764 406.004 99.0551C403.334 101.533 400.617 104.05 398.205 106.638C396.592 109.1 394.893 111.391 392.928 113.392C392.912 113.4 392.904 113.408 392.889 113.423ZM353.479 91.6051C352.915 93.9816 352.829 96.4206 353.51 98.3593C355.655 104.527 362.632 110.265 369.546 113.377C373.258 109.202 378.575 104.902 382.921 101.385C385.262 99.4928 387.282 97.859 388.598 96.6161C390.657 94.6695 392.646 92.7152 394.564 90.8312C395.543 89.8697 396.514 88.9159 397.477 87.9778C393.319 89.3224 385.661 86.7036 378.23 84.163C374.895 83.0216 371.7 81.9272 369.28 81.3878C369.28 81.6849 369.257 82.0054 369.186 82.365C368.701 85.0698 364.292 86.985 358.584 89.2208C356.9 89.8775 355.303 90.5029 354.512 90.9719C354.16 91.183 353.815 91.394 353.479 91.6051ZM437.741 81.1533C436.871 82.3571 435.994 83.5298 435.172 84.6086C434.162 85.9531 433.285 87.1101 432.745 87.9466C427.279 96.405 420.945 104.77 413.897 112.814C430.443 107.834 457.332 94.7946 456.674 79.3865C455.688 79.965 454.443 81.1845 453.299 82.2946C451.146 84.3897 448.922 86.5785 446.832 86.4613C446.009 86.4222 445.281 86.047 444.686 85.3434C443.12 83.5063 444.913 80.3872 446.808 77.0804C447.591 75.7202 448.445 74.2271 448.828 73.1248C447.207 73.6798 446.017 75.1495 444.663 76.7912C443.136 78.6595 441.397 80.7859 438.735 81.5754C438.508 81.6458 438.273 81.6145 438.069 81.5051C437.936 81.4269 437.819 81.3018 437.741 81.1533ZM423.912 76.6739C422.119 78.2296 420.248 79.7305 418.439 81.1767C415.604 83.4594 412.918 85.6092 411.047 87.5713C407.484 91.3081 404.704 95.9047 402.034 100.384C402.958 99.5085 403.89 98.6408 404.822 97.7808C408.314 94.5366 411.619 91.4722 414.21 88.3374C415.455 86.8287 416.716 85.3278 417.977 83.8268C419.966 81.466 421.955 79.0895 423.912 76.6739ZM419.05 72.9606C418.752 73.2733 418.447 73.5782 418.149 73.8831C414.023 78.1123 410.123 82.107 407.625 87.9778C407.359 88.6032 407.069 89.2755 406.748 89.9947C407.704 88.7361 408.721 87.5244 409.802 86.3831C411.752 84.3349 414.477 82.1539 417.358 79.8321C422.072 76.0485 427.217 71.9131 430.27 67.4572C426.41 68.8018 422.362 70.9594 419.05 72.9606ZM363.259 80.9187C360.651 81.8725 357.676 83.6158 356.775 84.6711C355.789 85.8281 354.888 87.4228 354.222 89.1739C355.154 88.7049 356.478 88.1967 357.965 87.6104C361.395 86.2658 367.143 84.0222 367.495 82.0523C367.573 81.6223 367.581 81.3018 367.542 81.0751C367.362 81.0595 367.197 81.0438 367.033 81.036C365.772 80.9735 364.512 80.9266 363.259 80.9187ZM368.779 64.6508C369.249 69.7555 377.126 73.2343 384.753 76.6036C391.15 79.4334 397.187 82.0992 399.443 85.8515C399.474 85.9062 399.497 85.961 399.521 86.0157C403.389 82.3337 407.359 78.8159 412.026 75.5013C413.521 74.4381 415.604 73.031 418 71.577C419.95 69.5679 421.931 67.465 423.826 65.0573C424.852 63.7596 425.768 62.2039 426.731 60.5623C427.256 59.6711 427.788 58.7721 428.344 57.8966C425.925 58.7408 422.894 60.3512 420.248 61.7662C415.683 64.2052 411.368 66.5113 408.776 66.0892C402.332 65.0338 396.702 58.905 391.738 53.4954C389.122 50.642 386.648 47.9528 384.252 46.147C382.537 44.8571 380.767 43.4344 378.896 41.9334C373.062 37.243 366.446 31.935 360.025 29.6132C358.913 29.2067 357.519 29.0035 356.164 28.8002C355.178 28.6517 354.16 28.5032 353.252 28.2687C351.31 27.784 349.978 27.1664 348.702 26.5645C347.95 26.2127 347.175 25.8531 346.283 25.5169C343.777 24.5867 342.266 24.399 340.895 24.6336C339.462 26.9944 336.706 28.3234 334.326 29.4647C331.131 31.0047 329.776 31.8412 330.23 33.4125C330.661 34.9056 333.629 35.4997 336.017 35.9766C337.575 36.2893 339.047 36.5864 340.003 37.1179C341.741 38.0951 342.994 39.5726 344.208 41.0032C345.437 42.4494 346.588 43.8174 348.209 44.6852C349.822 45.5529 351.803 45.42 353.901 45.2715C355.953 45.1308 358.067 44.99 359.946 45.8187C362.162 46.7959 363.353 48.1952 363.212 49.6492C363.11 50.6811 362.311 52.0413 359.195 52.8778C359.195 53.1983 359.195 53.5266 359.195 53.8471C359.195 53.941 359.195 54.0426 359.195 54.1364C361.982 55.309 365.482 56.0751 369.171 56.8803C376.468 58.475 384.009 60.1245 387.783 65.2683C388.049 65.6358 387.987 66.1517 387.634 66.4409C384.377 69.1301 379.937 67.6605 375.654 66.2455C373.274 65.4794 370.846 64.6742 368.779 64.6508ZM430.803 57.3337C429.879 58.6079 429.033 60.0385 428.203 61.4378C427.248 63.056 426.261 64.7289 425.165 66.1204C424.429 67.0507 423.693 67.9341 422.941 68.7862C425.752 67.3321 428.728 66.0501 431.578 65.2605C432.267 63.8925 432.729 62.501 432.901 61.0782C433.05 59.8196 433.058 58.1936 432.22 57.6229C431.868 57.3884 431.382 57.2946 430.803 57.3337ZM440.998 65.3074C441.726 65.6827 442.298 66.1752 442.697 66.7771C442.736 66.3159 442.697 65.9406 442.548 65.667C442.494 65.5654 442.337 65.2918 441.656 65.2136C441.46 65.198 441.233 65.2292 440.998 65.3074ZM432.103 55.7311C432.502 55.8249 432.862 55.9813 433.191 56.2002C434.452 57.0601 434.922 58.7252 434.608 61.2815C434.585 61.4925 434.554 61.6958 434.514 61.9069C435.172 60.8124 435.814 59.7024 436.417 58.5767C438.203 55.2621 438.25 53.0732 437.717 52.6276C437.365 52.3306 436.018 52.4244 433.246 54.6602C432.854 54.9728 432.471 55.3403 432.103 55.7311ZM323.489 8.64702C319.879 8.64702 315.862 10.445 315.087 11.6723C313.528 14.1583 313.654 16.6442 315.478 19.0754C319.096 23.8987 328.343 27.0101 332.603 25.814C334.537 25.2668 335.915 24.6727 337.129 24.1411C338.037 23.7502 338.844 23.3984 339.682 23.1561C340.057 22.2884 340.214 21.2799 340.065 20.0604C339.846 18.3406 338.617 16.8553 337.309 15.284C336.487 14.2912 335.633 13.2749 335.007 12.1414C334.059 10.4372 333.691 8.52194 333.331 6.67704C332.987 4.89467 332.658 3.20612 331.836 1.91625C329.909 2.78398 328.625 4.37091 328.195 6.42688C327.967 7.5135 328.876 9.28804 329.674 10.8593C330.606 12.6964 331.421 14.2755 330.935 15.4794C330.332 16.9725 329.181 17.9028 327.858 17.9497C326.503 18.0122 325.266 17.1289 324.483 15.5576C323.778 14.1426 324.992 12.9857 325.971 12.0476C327.012 11.047 327.443 10.531 327.192 10.0854C326.55 8.94408 324.953 8.67047 323.731 8.6392C323.661 8.64702 323.575 8.64702 323.489 8.64702ZM328.359 12.0398C328.007 12.5088 327.568 12.9309 327.184 13.2984C326.675 13.783 325.908 14.5179 326.049 14.7993C326.519 15.7374 327.153 16.2533 327.811 16.2377C328.429 16.2142 329.017 15.6748 329.353 14.8384C329.518 14.4162 328.891 13.0951 328.359 12.0398Z" fill="white"/>
</svg>
