<svg width="18" height="18" viewBox="0 0 18 18" fill="none" xmlns="http://www.w3.org/2000/svg">
<path d="M17.41 6.7561L16.1217 5.598V3.30311C16.1217 2.52762 15.4195 1.89671 14.5564 1.89671H12.0052L10.0106 0.103441C9.93719 0.0375157 9.83768 0.00042192 9.73391 0.00038676L8.27619 0C8.17245 0 8.07283 0.0370235 7.99946 0.102913L6.00185 1.89674H3.44343C2.58037 1.89674 1.87822 2.52765 1.87822 3.30314V5.6017L0.590751 6.75586C0.209817 7.09796 0 7.5529 0 8.03688V16.1889C0 16.6768 0.216156 17.1198 0.566451 17.4458C0.574003 17.4539 0.581868 17.4619 0.59036 17.4695C0.598812 17.4771 0.607655 17.4841 0.616655 17.4909C0.979433 17.8057 1.47259 18 2.0156 18H13.5391C13.7552 18 13.9304 17.8426 13.9304 17.6484C13.9304 17.4542 13.7552 17.2968 13.5391 17.2968H2.01557C1.81807 17.2968 1.63146 17.2546 1.46578 17.1801L6.07804 13.0359L7.57963 14.3843C7.96029 14.7261 8.46624 14.9144 9.0044 14.9144C9.5428 14.9142 10.0495 14.7257 10.4301 14.3835L11.9254 13.0391L16.5341 17.1801C16.3685 17.2546 16.1818 17.2968 15.9843 17.2968H10.7608C10.5447 17.2968 10.3695 17.4542 10.3695 17.6484C10.3695 17.8426 10.5447 18 10.7608 18H15.9844C16.5273 18 17.0205 17.8057 17.3833 17.491C17.3923 17.4842 17.4012 17.4771 17.4096 17.4695C17.4182 17.4619 17.426 17.4539 17.4336 17.4457C17.7838 17.1198 18 16.6767 18 16.1889V8.03635C18 7.55283 17.7905 7.09818 17.41 6.7561ZM16.1217 6.59268L16.8565 7.2532C16.9243 7.3142 16.983 7.38121 17.0325 7.45266L16.1217 8.27154V6.59268ZM8.43803 0.703236L9.5716 0.703587L10.8987 1.89674H7.10893L8.43803 0.703236ZM1.14374 7.25348L1.87826 6.595V8.27038L0.967733 7.45276C1.01723 7.38135 1.07593 7.31437 1.14374 7.25348ZM0.912402 16.6829C0.829524 16.5341 0.782607 16.3664 0.782607 16.1889V8.28064L5.5245 12.5388L0.912402 16.6829ZM9.87658 13.8865C9.64375 14.0958 9.33419 14.211 9.00483 14.2112C8.67563 14.2112 8.36576 14.096 8.13289 13.8869L2.66086 8.97312V3.30311C2.66086 2.91536 3.01194 2.59991 3.44347 2.59991H14.5565C14.988 2.59991 15.3391 2.91536 15.3391 3.30311V5.6987C15.3354 5.72665 15.3354 5.75485 15.3391 5.7828V8.97512L9.87658 13.8865ZM17.2174 16.1889C17.2174 16.3664 17.1704 16.5341 17.0876 16.6829L12.4787 12.5417L17.2174 8.28124V16.1889Z" fill="white"/>
<path d="M9.00001 17.2966C8.89709 17.2966 8.79614 17.3343 8.72336 17.3997C8.65057 17.465 8.6087 17.5558 8.6087 17.6482C8.6087 17.7407 8.65057 17.8314 8.72336 17.8968C8.79614 17.9626 8.89709 17.9998 9.00001 17.9998C9.10292 17.9998 9.20388 17.9626 9.27666 17.8968C9.34944 17.8314 9.39131 17.7407 9.39131 17.6482C9.39131 17.5558 9.34944 17.465 9.27666 17.3997C9.20388 17.3343 9.10292 17.2966 9.00001 17.2966Z" fill="white"/>
<path d="M9.00011 4.07434C6.96291 4.07434 5.30554 5.56351 5.30554 7.39401C5.30554 9.24954 6.9856 10.7591 9.05067 10.7591H11.429C11.6451 10.7591 11.8203 10.6017 11.8203 10.4075C11.8203 10.2134 11.6451 10.0559 11.429 10.0559H9.05067C7.41713 10.0559 6.08815 8.8618 6.08815 7.39401C6.08815 5.95129 7.39444 4.77754 9.00011 4.77754C10.6058 4.77754 11.9121 5.95129 11.9121 7.39401V8.11454C11.9121 8.39146 11.6613 8.61673 11.3531 8.61673C11.0449 8.61673 10.7942 8.39146 10.7942 8.11454V7.30069C10.7942 6.33805 9.92261 5.55489 8.85126 5.55489C7.7247 5.55489 6.80823 6.37841 6.80823 7.39067C6.80823 8.40289 7.72474 9.22641 8.85126 9.22641H9.47375C9.68986 9.22641 9.86505 9.06896 9.86505 8.87481C9.86505 8.68066 9.68986 8.52321 9.47375 8.52321H8.85126C8.15627 8.52321 7.59083 8.01515 7.59083 7.39063C7.59083 6.76616 8.15627 6.25809 8.85126 6.25809C9.49108 6.25809 10.0116 6.72583 10.0116 7.30069V8.11454C10.0116 8.77921 10.6134 9.31994 11.3531 9.31994C12.0929 9.31994 12.6947 8.77921 12.6947 8.11454V7.39401C12.6946 5.56351 11.0373 4.07434 9.00011 4.07434Z" fill="white"/>
</svg>
