<svg width="18" height="18" viewBox="0 0 18 18" fill="none" xmlns="http://www.w3.org/2000/svg">
<path d="M15.6797 1.40625H14.0625V0.5625C14.0625 0.251859 13.8107 0 13.5 0C13.1893 0 12.9375 0.251859 12.9375 0.5625V1.40625H5.0625V0.5625C5.0625 0.251859 4.81068 0 4.5 0C4.18932 0 3.9375 0.251859 3.9375 0.5625V1.40625H2.32031C1.04087 1.40625 0 2.44712 0 3.72656V15.6797C0 16.9591 1.04087 18 2.32031 18H15.6797C16.9591 18 18 16.9591 18 15.6797V3.72656C18 2.44712 16.9591 1.40625 15.6797 1.40625ZM2.32031 2.53125H3.9375V3.09375C3.9375 3.40439 4.18932 3.65625 4.5 3.65625C4.81068 3.65625 5.0625 3.40439 5.0625 3.09375V2.53125H12.9375V3.09375C12.9375 3.40439 13.1893 3.65625 13.5 3.65625C13.8107 3.65625 14.0625 3.40439 14.0625 3.09375V2.53125H15.6797C16.3388 2.53125 16.875 3.06745 16.875 3.72656V5.0625H1.125V3.72656C1.125 3.06745 1.6612 2.53125 2.32031 2.53125ZM15.6797 16.875H2.32031C1.6612 16.875 1.125 16.3388 1.125 15.6797V6.1875H16.875V15.6797C16.875 16.3388 16.3388 16.875 15.6797 16.875Z" fill="white"/>
<path d="M9.05628 8.09998C8.33314 8.09998 7.62624 8.31441 7.02497 8.71616C6.42371 9.11792 5.95507 9.68895 5.67834 10.357C5.40161 11.0251 5.3292 11.7603 5.47028 12.4695C5.61136 13.1788 5.95958 13.8302 6.47092 14.3416C6.98225 14.8529 7.63373 15.2011 8.34298 15.3422C9.05222 15.4833 9.78737 15.4109 10.4555 15.1342C11.1236 14.8574 11.6946 14.3888 12.0963 13.7875C12.4981 13.1863 12.7125 12.4794 12.7125 11.7562C12.7114 10.7869 12.3258 9.85754 11.6404 9.1721C10.955 8.48666 10.0256 8.10109 9.05628 8.09998ZM9.05628 14.85C8.44439 14.85 7.84625 14.6685 7.33748 14.3286C6.82872 13.9886 6.43218 13.5055 6.19802 12.9402C5.96387 12.3748 5.9026 11.7528 6.02197 11.1527C6.14134 10.5525 6.436 10.0013 6.86866 9.56861C7.30133 9.13594 7.85259 8.84129 8.45272 8.72192C9.05284 8.60255 9.67489 8.66381 10.2402 8.89797C10.8055 9.13213 11.2887 9.52867 11.6286 10.0374C11.9686 10.5462 12.15 11.1443 12.15 11.7562C12.1491 12.5764 11.8228 13.3628 11.2428 13.9428C10.6628 14.5227 9.87649 14.849 9.05628 14.85Z" fill="white"/>
<path d="M10.8584 10.5766L8.67081 12.7642L7.67659 11.7697C7.62354 11.7185 7.5525 11.6901 7.47876 11.6908C7.40502 11.6914 7.33447 11.721 7.28233 11.7731C7.23018 11.8253 7.2006 11.8958 7.19996 11.9695C7.19932 12.0433 7.22767 12.1143 7.2789 12.1674L8.47196 13.3607C8.52471 13.4135 8.59623 13.4431 8.67081 13.4431C8.74538 13.4431 8.81691 13.4135 8.86965 13.3607L11.2561 10.9743C11.3073 10.9213 11.3356 10.8502 11.335 10.7765C11.3344 10.7027 11.3048 10.6322 11.2526 10.5801C11.2005 10.5279 11.1299 10.4983 11.0562 10.4977C10.9825 10.4971 10.9114 10.5254 10.8584 10.5766Z" fill="white"/>
</svg>
