<svg width="15" height="13" viewBox="0 0 15 13" fill="none" xmlns="http://www.w3.org/2000/svg">
<path d="M13.6816 0.787109H1.31836C0.592324 0.787109 0 1.37879 0 2.10547V10.8945C0 11.6187 0.589688 12.2129 1.31836 12.2129H13.6816C14.4059 12.2129 15 11.6232 15 10.8945V2.10547C15 1.38125 14.4103 0.787109 13.6816 0.787109ZM13.4996 1.66602L7.52795 7.63769L1.50466 1.66602H13.4996ZM0.878906 10.7125V2.28327L5.11169 6.47976L0.878906 10.7125ZM1.50038 11.334L5.73583 7.09854L7.21992 8.56988C7.39172 8.74022 7.66895 8.73966 7.84005 8.56853L9.28711 7.12148L13.4996 11.334H1.50038ZM14.1211 10.7125L9.90858 6.5L14.1211 2.28746V10.7125Z" fill="white"/>
</svg>
