<svg width="16" height="10" viewBox="0 0 16 10" fill="none" xmlns="http://www.w3.org/2000/svg">
<path d="M3.9851 8.65933C3.90444 8.82467 3.97244 9.024 4.13777 9.10533C5.35177 9.69867 6.65177 10 8.00044 10C11.2678 10 14.3178 8.14533 15.9591 5.16067C16.0144 5.06067 16.0144 4.93933 15.9591 4.84C15.5078 4.01933 14.9458 3.27333 14.2878 2.62267C14.1571 2.49333 13.9458 2.494 13.8164 2.62533C13.6871 2.756 13.6884 2.96733 13.8191 3.09667C14.3884 3.65933 14.8804 4.29933 15.2844 5C13.7404 7.678 10.9658 9.33333 8.00044 9.33333C6.75377 9.33333 5.5531 9.05533 4.4311 8.50667C4.26577 8.426 4.06644 8.49467 3.9851 8.65933Z" fill="white"/>
<path d="M8.00042 7.66671C9.41975 7.66671 10.5898 6.55738 10.6638 5.14071C10.6731 4.95671 10.5318 4.80004 10.3478 4.79071C10.1598 4.77404 10.0071 4.92204 9.99775 5.10671C9.94242 6.16804 9.06509 7.00004 8.00042 7.00004C7.71375 7.00004 7.43775 6.94071 7.17842 6.82404C7.01109 6.74871 6.81309 6.82338 6.73775 6.99071C6.66175 7.15804 6.73642 7.35538 6.90442 7.43138C7.24975 7.58738 7.61842 7.66671 8.00042 7.66671Z" fill="white"/>
<path d="M15.4935 0.0486666L13.0008 1.566C11.5115 0.544 9.78883 0 8.00017 0C4.73283 0 1.68283 1.85467 0.0415 4.83933C-0.0138333 4.93933 -0.0138333 5.06067 0.0415 5.16C0.646167 6.25933 1.47217 7.22467 2.43083 7.99933L0.160167 9.382C0.00283333 9.478 -0.0471667 9.68267 0.0488333 9.84C0.1115 9.94333 0.2215 10 0.3335 10C0.392167 10 0.452167 9.98467 0.506167 9.95133L6.17883 6.49867H6.1795C6.18017 6.49867 6.18017 6.498 6.18017 6.498L15.8402 0.618C15.9975 0.522 16.0475 0.317333 15.9515 0.16C15.8562 0.00333318 15.6515 -0.0466667 15.4935 0.0486666ZM6.1575 5.73133C6.06483 5.498 6.00017 5.254 6.00017 5C6.00017 3.89733 6.8975 3 8.00017 3C8.58883 3 9.12217 3.26267 9.49883 3.69733L6.1575 5.73133ZM10.0868 3.34C9.5835 2.70467 8.8255 2.33333 8.00017 2.33333C6.5295 2.33333 5.3335 3.52933 5.3335 5C5.3335 5.37733 5.41483 5.74867 5.56817 6.09L3.0335 7.63267C2.10817 6.928 1.3095 6.02867 0.716167 5C2.26017 2.322 5.03483 0.666667 8.00017 0.666667C9.5535 0.666667 11.0542 1.11067 12.3735 1.948L10.0868 3.34Z" fill="white"/>
</svg>
