<svg width="16" height="10" viewBox="0 0 16 10" fill="none" xmlns="http://www.w3.org/2000/svg">
<path d="M3.98486 8.65927C3.90419 8.82461 3.97219 9.02394 4.13753 9.10527C5.35153 9.69861 6.65153 9.99994 8.00019 9.99994C11.2675 9.99994 14.3175 8.14527 15.9589 5.16061C16.0142 5.06061 16.0142 4.93927 15.9589 4.83994C15.5075 4.01927 14.9455 3.27327 14.2875 2.6226C14.1569 2.49327 13.9455 2.49394 13.8162 2.62527C13.6869 2.75594 13.6882 2.96727 13.8189 3.09661C14.3882 3.65927 14.8802 4.29927 15.2842 4.99994C13.7402 7.67794 10.9655 9.33327 8.00019 9.33327C6.75353 9.33327 5.55286 9.05527 4.43086 8.50661C4.26553 8.42594 4.06619 8.49461 3.98486 8.65927Z" fill="white"/>
<path d="M8.00018 7.66665C9.41951 7.66665 10.5895 6.55732 10.6635 5.14065C10.6728 4.95665 10.5315 4.79998 10.3475 4.79065C10.1595 4.77398 10.0068 4.92198 9.99751 5.10665C9.94218 6.16798 9.06484 6.99998 8.00018 6.99998C7.71351 6.99998 7.43751 6.94065 7.17818 6.82398C7.01084 6.74865 6.81284 6.82332 6.73751 6.99065C6.66151 7.15798 6.73618 7.35532 6.90418 7.43132C7.24951 7.58732 7.61818 7.66665 8.00018 7.66665Z" fill="white"/>
<path d="M15.4935 0.0486666L13.0008 1.566C11.5115 0.544 9.78883 0 8.00017 0C4.73283 0 1.68283 1.85467 0.0415 4.83933C-0.0138333 4.93933 -0.0138333 5.06067 0.0415 5.16C0.646167 6.25933 1.47217 7.22467 2.43083 7.99933L0.160167 9.382C0.00283333 9.478 -0.0471667 9.68267 0.0488333 9.84C0.1115 9.94333 0.2215 10 0.3335 10C0.392167 10 0.452167 9.98467 0.506167 9.95133L6.17883 6.49867H6.1795C6.18017 6.49867 6.18017 6.498 6.18017 6.498L15.8402 0.618C15.9975 0.522 16.0475 0.317333 15.9515 0.16C15.8562 0.00333318 15.6515 -0.0466667 15.4935 0.0486666ZM6.1575 5.73133C6.06483 5.498 6.00017 5.254 6.00017 5C6.00017 3.89733 6.8975 3 8.00017 3C8.58883 3 9.12217 3.26267 9.49883 3.69733L6.1575 5.73133ZM10.0868 3.34C9.5835 2.70467 8.8255 2.33333 8.00017 2.33333C6.5295 2.33333 5.3335 3.52933 5.3335 5C5.3335 5.37733 5.41483 5.74867 5.56817 6.09L3.0335 7.63267C2.10817 6.928 1.3095 6.02867 0.716167 5C2.26017 2.322 5.03483 0.666667 8.00017 0.666667C9.5535 0.666667 11.0542 1.11067 12.3735 1.948L10.0868 3.34Z" fill="white"/>
</svg>
