<svg width="136" height="42" viewBox="0 0 136 42" fill="none" xmlns="http://www.w3.org/2000/svg">
<rect width="136" height="42" rx="8" fill="#CB3809"/>
<path d="M36.1818 30C41.4803 30 45 26.3544 45 21.2088C45 20.6196 44.9376 20.1648 44.8506 19.7112H36.183V22.8048H41.3946C41.1816 24.1188 39.8166 26.6844 36.183 26.6844C33.0526 26.6844 30.4964 24.1428 30.4964 21C30.4964 17.8572 33.0514 15.3144 36.183 15.3144C37.9741 15.3144 39.164 16.0632 39.8411 16.7016L42.3336 14.3568C40.7286 12.8844 38.6621 12 36.1818 12C31.1085 12 27 16.0272 27 21C27 25.9728 31.1085 30 36.1818 30Z" fill="white"/>
<path d="M66.9 21.33V26.37C66.45 26.6 65.88 26.785 65.19 26.925C64.51 27.055 63.815 27.12 63.105 27.12C62.025 27.12 61.09 26.905 60.3 26.475C59.51 26.035 58.905 25.405 58.485 24.585C58.075 23.765 57.87 22.785 57.87 21.645C57.87 20.525 58.075 19.555 58.485 18.735C58.905 17.915 59.5 17.29 60.27 16.86C61.05 16.42 61.965 16.2 63.015 16.2C63.765 16.2 64.455 16.315 65.085 16.545C65.725 16.765 66.27 17.085 66.72 17.505L66.165 18.66C65.655 18.24 65.155 17.94 64.665 17.76C64.175 17.58 63.63 17.49 63.03 17.49C61.87 17.49 60.985 17.845 60.375 18.555C59.775 19.265 59.475 20.295 59.475 21.645C59.475 23.035 59.785 24.09 60.405 24.81C61.025 25.52 61.94 25.875 63.15 25.875C63.96 25.875 64.74 25.755 65.49 25.515V22.515H63V21.33H66.9ZM73.0515 27.105C72.3115 27.105 71.6615 26.945 71.1015 26.625C70.5415 26.305 70.1065 25.85 69.7965 25.26C69.4965 24.67 69.3465 23.98 69.3465 23.19C69.3465 22.4 69.4965 21.71 69.7965 21.12C70.1065 20.52 70.5415 20.06 71.1015 19.74C71.6615 19.42 72.3115 19.26 73.0515 19.26C73.7815 19.26 74.4265 19.42 74.9865 19.74C75.5465 20.06 75.9765 20.52 76.2765 21.12C76.5865 21.71 76.7415 22.4 76.7415 23.19C76.7415 23.98 76.5865 24.67 76.2765 25.26C75.9765 25.85 75.5465 26.305 74.9865 26.625C74.4265 26.945 73.7815 27.105 73.0515 27.105ZM73.0365 25.905C73.7365 25.905 74.2715 25.675 74.6415 25.215C75.0115 24.755 75.1965 24.08 75.1965 23.19C75.1965 22.32 75.0065 21.65 74.6265 21.18C74.2565 20.71 73.7315 20.475 73.0515 20.475C72.3615 20.475 71.8265 20.71 71.4465 21.18C71.0665 21.65 70.8765 22.32 70.8765 23.19C70.8765 24.08 71.0615 24.755 71.4315 25.215C71.8115 25.675 72.3465 25.905 73.0365 25.905ZM82.4236 27.105C81.6836 27.105 81.0336 26.945 80.4736 26.625C79.9136 26.305 79.4786 25.85 79.1686 25.26C78.8686 24.67 78.7186 23.98 78.7186 23.19C78.7186 22.4 78.8686 21.71 79.1686 21.12C79.4786 20.52 79.9136 20.06 80.4736 19.74C81.0336 19.42 81.6836 19.26 82.4236 19.26C83.1536 19.26 83.7986 19.42 84.3586 19.74C84.9186 20.06 85.3486 20.52 85.6486 21.12C85.9586 21.71 86.1136 22.4 86.1136 23.19C86.1136 23.98 85.9586 24.67 85.6486 25.26C85.3486 25.85 84.9186 26.305 84.3586 26.625C83.7986 26.945 83.1536 27.105 82.4236 27.105ZM82.4086 25.905C83.1086 25.905 83.6436 25.675 84.0136 25.215C84.3836 24.755 84.5686 24.08 84.5686 23.19C84.5686 22.32 84.3786 21.65 83.9986 21.18C83.6286 20.71 83.1036 20.475 82.4236 20.475C81.7336 20.475 81.1986 20.71 80.8186 21.18C80.4386 21.65 80.2486 22.32 80.2486 23.19C80.2486 24.08 80.4336 24.755 80.8036 25.215C81.1836 25.675 81.7186 25.905 82.4086 25.905ZM95.5157 19.44V26.865C95.5157 28.015 95.2107 28.88 94.6007 29.46C94.0007 30.05 93.1057 30.345 91.9157 30.345C90.7657 30.345 89.7607 30.095 88.9007 29.595L89.1557 28.41C89.6257 28.66 90.0757 28.845 90.5057 28.965C90.9457 29.085 91.4107 29.145 91.9007 29.145C93.3107 29.145 94.0157 28.425 94.0157 26.985V25.35C93.7857 25.79 93.4507 26.14 93.0107 26.4C92.5707 26.65 92.0607 26.775 91.4807 26.775C90.8207 26.775 90.2307 26.62 89.7107 26.31C89.2007 26 88.8007 25.56 88.5107 24.99C88.2307 24.42 88.0907 23.765 88.0907 23.025C88.0907 22.285 88.2307 21.63 88.5107 21.06C88.8007 20.49 89.2007 20.05 89.7107 19.74C90.2307 19.42 90.8207 19.26 91.4807 19.26C92.0607 19.26 92.5707 19.385 93.0107 19.635C93.4507 19.875 93.7857 20.22 94.0157 20.67V19.44H95.5157ZM91.8257 25.56C92.5057 25.56 93.0407 25.335 93.4307 24.885C93.8207 24.435 94.0157 23.815 94.0157 23.025C94.0157 22.235 93.8207 21.615 93.4307 21.165C93.0507 20.705 92.5157 20.475 91.8257 20.475C91.1457 20.475 90.6057 20.705 90.2057 21.165C89.8157 21.615 89.6207 22.235 89.6207 23.025C89.6207 23.805 89.8157 24.425 90.2057 24.885C90.6057 25.335 91.1457 25.56 91.8257 25.56ZM98.3961 15.96H99.8961V27H98.3961V15.96ZM109.223 23.25H103.823C103.873 25.02 104.678 25.905 106.238 25.905C107.108 25.905 107.903 25.62 108.623 25.05L109.088 26.13C108.748 26.43 108.313 26.67 107.783 26.85C107.263 27.02 106.738 27.105 106.208 27.105C104.998 27.105 104.048 26.76 103.358 26.07C102.668 25.37 102.323 24.415 102.323 23.205C102.323 22.435 102.473 21.75 102.773 21.15C103.083 20.55 103.513 20.085 104.063 19.755C104.613 19.425 105.238 19.26 105.938 19.26C106.958 19.26 107.758 19.59 108.338 20.25C108.928 20.91 109.223 21.825 109.223 22.995V23.25ZM105.968 20.385C105.398 20.385 104.933 20.555 104.573 20.895C104.213 21.235 103.983 21.72 103.883 22.35H107.888C107.828 21.71 107.633 21.225 107.303 20.895C106.973 20.555 106.528 20.385 105.968 20.385Z" fill="white"/>
</svg>
