<svg width="581" height="477" viewBox="0 0 581 477" fill="none" xmlns="http://www.w3.org/2000/svg">
<path d="M580.761 431.069H493.625C494.985 432.686 496.342 434.306 498.448 435.408C500.55 436.51 503.398 437.093 505.535 437.609C507.67 438.127 509.095 438.581 509.646 439.388C510.197 440.198 509.873 441.361 507.155 442.107C504.437 442.852 499.323 443.176 492.109 442.852C484.892 442.528 475.572 441.556 467.967 440.295C460.361 439.031 454.472 437.479 450.138 436.993C445.801 436.507 443.018 437.09 442.726 438.581C442.435 440.072 444.634 442.466 448.259 443.889C451.884 445.315 456.931 445.766 465.379 446.057C473.823 446.349 485.669 446.479 493.434 446.641C501.201 446.803 504.888 446.997 507.544 446.77C510.197 446.543 511.816 445.895 511.071 444.894C510.326 443.889 507.22 442.531 503.433 441.138C499.646 439.744 495.183 438.322 492.3 436.154C489.42 433.985 488.124 431.072 486.767 428.901C485.407 426.733 483.985 425.307 482.43 423.981C480.878 422.653 479.194 421.424 477.578 421.295C475.961 421.165 474.406 422.137 472.949 423.074C471.491 424.014 470.134 424.918 467.319 425.436C464.504 425.955 460.231 426.084 453.468 426.182C446.704 426.279 437.45 426.344 429.391 426.7C421.335 427.057 414.474 427.705 410.849 428.188C407.224 428.674 406.836 428.998 409.229 431.62C411.623 434.241 416.803 439.164 423.952 446.414C431.104 453.667 440.229 463.249 445.762 468.639C451.294 474.031 453.238 475.231 454.951 475.83C456.668 476.43 458.155 476.43 460.614 475.182C463.072 473.934 466.503 471.439 467.474 469.676C468.446 467.91 466.956 466.876 461.391 461.921C455.826 456.966 446.183 448.096 441.262 444.181C436.345 440.263 436.151 441.3 431.133 446.154C426.119 451.009 416.281 459.688 411.102 464.316C405.925 468.947 405.407 469.527 406.346 469.851C407.286 470.175 409.68 470.24 413.11 469.43C416.54 468.619 421.007 466.937 423.628 465.544C426.248 464.15 427.026 463.052 433.271 457.128C439.516 451.204 451.229 440.454 456.733 435.113C462.233 429.772 461.524 429.837 455.696 430.064C449.872 430.291 438.933 430.68 433.627 431.101C428.322 431.522 428.645 431.976 429.941 433.807C431.24 435.638 433.511 438.847 433.576 438.458C433.64 438.069 431.499 434.083 429.617 432.09C427.735 430.097 426.119 430.097 423.077 430.259C420.036 430.421 415.569 430.745 411.688 429.708C407.804 428.671 404.503 426.276 403.017 424.853C401.527 423.427 401.85 422.977 405.022 423.074C408.193 423.171 414.211 423.819 421.817 423.819C429.423 423.819 438.613 423.171 446.442 421.846C454.274 420.517 460.746 418.511 465.21 417.088C469.677 415.662 472.136 414.823 473.59 414.888C475.048 414.953 475.498 415.925 475.627 416.894C475.757 417.866 475.563 418.835 475.077 418.673C474.591 418.511 473.814 417.215 473.201 415.63C472.586 414.042 472.132 412.165 471.293 411.55C470.451 410.934 469.223 411.582 465.502 411.031C461.78 410.48 455.567 408.733 450.131 406.497C444.696 404.264 440.035 401.546 436.863 400.638C433.692 399.731 432.008 400.638 429.744 401.286C427.479 401.934 424.632 402.323 421.396 403.811C418.16 405.302 414.535 407.891 411.267 407.567C407.999 407.243 405.086 404.005 403.713 405.736C402.343 407.466 402.511 414.168 402.822 417.665C403.133 421.162 403.59 421.457 404.073 421.327C404.555 421.197 405.064 420.646 405.657 417.603C406.249 414.56 406.93 409.022 407.837 406.06C408.744 403.098 409.874 402.709 412.384 402.385C414.892 402.061 418.775 401.802 422.238 401.234C425.701 400.667 428.743 399.792 430.813 398.677C432.882 397.559 433.984 396.202 433.87 394.338C433.757 392.478 432.432 390.112 431.039 387.426C429.646 384.739 428.192 381.728 427.852 378.637C427.512 375.545 428.289 372.372 427.22 371.724C426.151 371.076 423.239 372.956 419.938 374.249C416.638 375.545 412.948 376.255 411.008 377.032C409.067 377.81 408.873 378.65 408.582 381.887C408.29 385.125 407.901 390.757 407.675 394.254C407.448 397.751 407.383 399.112 408.225 399.497C409.067 399.886 410.813 399.303 411.461 395.061C412.109 390.819 411.656 382.921 412.142 378.517C412.627 374.113 414.049 373.208 419.067 371.523C424.081 369.838 432.691 367.378 438.548 365.275C444.404 363.172 447.511 361.422 449.422 361.098C451.33 360.774 452.043 361.875 450.782 363.201C449.519 364.53 446.283 366.082 445.088 363.687C443.889 361.292 444.732 354.947 444.958 350.089C445.185 345.234 444.796 341.867 443.598 332.025C442.399 322.183 440.394 305.866 438.033 296.185C435.671 286.505 432.954 283.462 430.589 281.456C428.228 279.45 426.219 278.478 424.052 278.024C421.885 277.571 419.553 277.635 418.455 279.868C417.353 282.101 417.483 286.505 420.428 288.609C423.372 290.712 429.131 290.517 431.043 287.539C432.95 284.561 431.01 278.799 426.932 276.433C422.854 274.071 416.641 275.104 408.552 277.632C400.464 280.157 390.497 284.172 382.243 286.988C373.993 289.804 367.456 291.425 363.119 293.172C358.781 294.918 356.647 296.798 353.605 298.156C350.563 299.517 346.615 300.356 340.888 299.805C335.161 299.254 327.652 297.313 322.865 296.471C318.077 295.628 316.004 295.887 315 298.188C313.996 300.486 314.06 304.825 315.032 309.615C316.004 314.405 317.879 319.652 319.787 324.215C321.695 328.781 323.639 332.663 326.616 335.706C329.593 338.749 333.606 340.95 344.93 341.63C356.255 342.311 374.897 341.468 385.185 338.944C395.476 336.419 397.416 332.21 399.327 325.897C401.235 319.584 403.114 311.167 402.595 306.504C402.077 301.841 399.165 300.936 397.322 303.396C395.479 305.856 394.701 311.683 394.928 317.448C395.155 323.21 396.386 328.907 398.261 338.137C400.137 347.363 402.663 360.119 405.025 366.14C407.386 372.162 409.589 371.449 417.03 368.017C424.473 364.585 437.158 358.434 444.213 355.196C451.268 351.959 452.69 351.635 453.144 354.775C453.597 357.915 453.079 364.52 452.075 371.449C451.071 378.377 449.584 385.63 449.778 389.383C449.973 393.139 451.848 393.398 454.631 393.236C457.413 393.074 461.103 392.491 463.95 392.199C466.797 391.908 468.806 391.908 470.066 393.236C471.329 394.565 471.844 397.219 472.087 399.598C472.33 401.977 472.298 404.083 471.714 405.49C471.131 406.899 470.001 407.609 467.604 407.739C465.21 407.868 461.553 407.415 458.916 406.75C456.279 406.086 454.66 405.214 453.513 403.772C452.363 402.33 451.686 400.324 451.621 398.123C451.557 395.923 452.107 393.525 453.756 392.28C455.405 391.032 458.158 390.935 462.492 390.452C466.83 389.966 472.751 389.091 477.037 387.588C481.325 386.081 483.978 383.945 485.578 383.264C487.182 382.584 487.729 383.362 488.069 384.301C488.41 385.241 488.539 386.34 487.794 387.199C487.049 388.057 485.433 388.673 484.785 385.144C484.137 381.615 484.461 373.941 484.445 363.438C484.428 352.931 484.072 339.592 483.505 331.662C482.938 323.729 482.161 321.204 479.638 319.49C477.114 317.775 472.842 316.868 469.249 316.285C465.657 315.701 462.745 315.442 460.286 316.673C457.828 317.905 455.819 320.624 453.944 324.315C452.068 328.006 450.319 332.667 450.514 334.708C450.708 336.747 452.843 336.167 455.337 331.114C457.828 326.065 460.675 316.544 461.971 307.803C463.267 299.063 463.007 291.097 461.776 285.109C460.546 279.12 458.346 275.104 456.114 273.066C453.882 271.027 451.615 270.963 450.128 273.001C448.638 275.04 447.929 279.184 446.341 282.26C444.754 285.335 442.296 287.341 441.198 287.406C440.096 287.471 440.355 285.595 440.42 283.521C440.485 281.45 440.355 279.181 440.938 277.856C441.521 276.527 442.814 276.141 443.057 276.802C443.3 277.467 442.49 279.181 441.583 280.688C440.676 282.195 439.675 283.488 438.768 283.666C437.861 283.845 437.055 282.905 436.52 281.965C435.986 281.025 435.726 280.089 436.212 278.727C436.698 277.366 437.926 275.587 438.784 274.712C439.643 273.837 440.129 273.87 439.983 274.647C439.837 275.425 439.06 276.945 437.913 277.836C436.763 278.727 435.244 278.987 434.094 278.76C432.944 278.533 432.17 277.82 431.409 277.078C430.647 276.333 429.902 275.555 430.275 274.424C430.647 273.289 432.134 271.802 433.64 270.862C435.147 269.922 436.666 269.533 436.601 270.246C436.536 270.959 434.888 272.771 433.009 273.986C431.133 275.202 429.028 275.814 426.893 275.474C424.758 275.134 422.588 273.84 421.924 272.982C421.26 272.123 422.102 271.702 423.994 270.652C425.886 269.598 428.833 267.916 430.774 266.75C432.714 265.583 433.653 264.938 435.484 263.707C437.31 262.475 440.031 260.664 441.599 259.513C443.17 258.363 443.588 257.88 443.297 256.859C443.005 255.838 442.001 254.286 442.438 252.422C442.875 250.562 444.751 248.391 446.371 246.822C447.99 245.251 449.348 244.282 451.064 243.925C452.778 243.569 454.851 243.828 456.759 244.962C458.667 246.096 460.416 248.102 460.724 251.988C461.031 255.874 459.898 261.636 458.476 264.808C457.05 267.981 455.337 268.564 454.9 267.689C454.462 266.814 455.304 264.484 456.228 261.101C457.151 257.718 458.152 253.281 457.718 249.865C457.28 246.45 455.405 244.055 454.514 242.256C453.623 240.461 453.72 239.262 451.764 235.165C449.807 231.069 445.794 224.075 441.003 217.344C436.216 210.61 430.647 204.135 426.086 199.861C421.522 195.586 417.966 193.515 415.277 192.122C412.592 190.728 410.778 190.018 409.323 190.278C407.866 190.537 406.768 191.768 405.18 193.094C403.596 194.423 401.523 195.845 399.194 196.882C396.865 197.919 394.274 198.564 392.172 199.018C390.069 199.472 388.45 199.731 386.542 199.212C384.634 198.694 382.431 197.401 380.847 195.878C379.26 194.354 378.291 192.608 377.773 190.893C377.255 189.176 377.19 187.494 377.806 187.948C378.421 188.401 379.713 190.991 380.815 193.288C381.916 195.586 382.82 197.595 384.083 199.342C385.346 201.089 386.963 202.58 388.032 204.294C389.101 206.008 389.619 207.953 390.231 209.602C390.847 211.252 391.559 212.613 392.625 214.233C393.694 215.85 395.116 217.73 395.764 219.574C396.412 221.418 396.282 223.233 396.25 224.493C396.217 225.757 396.282 226.467 397.092 226.143C397.902 225.819 399.453 224.458 401.462 223.651C403.467 222.841 405.929 222.581 408.776 222.938C411.623 223.294 414.859 224.267 417.966 228.279C421.072 232.294 424.049 239.352 425.831 243.883C427.609 248.417 428.192 250.423 429.714 252.299C431.237 254.176 433.695 255.926 435.312 256.801C436.931 257.676 437.706 257.676 438.256 256.574C438.807 255.472 439.131 253.271 439.552 251.525C439.973 249.778 440.491 248.482 441.784 246.958C443.08 245.435 445.149 243.688 446.704 242.522C448.259 241.355 449.292 240.775 450.912 239.868C452.532 238.96 454.731 237.732 456.024 237.116C457.319 236.5 457.705 236.5 457.64 237.019C457.575 237.538 457.057 238.571 456.02 237.797C454.984 237.019 453.432 234.43 450.941 231.743C448.45 229.056 445.02 226.273 441.492 222.484C437.965 218.696 434.34 213.906 430.586 209.826C426.832 205.746 422.948 202.379 419.582 200.178C416.216 197.978 413.369 196.941 411.429 196.746C409.489 196.552 408.452 197.2 408.452 198.269C408.452 199.339 409.489 200.826 410.039 201.896C410.59 202.965 410.655 203.613 409.91 204.582C409.165 205.555 407.613 206.848 406.317 208.144C405.022 209.44 403.988 210.733 402.66 212.418C401.332 214.1 399.716 216.174 398.776 217.082C397.837 217.989 397.578 217.73 398.096 216.434C398.614 215.137 399.907 212.807 400.749 211.158C401.591 209.508 401.98 208.536 401.3 207.207C400.62 205.879 398.874 204.197 397.772 202.706C396.671 201.215 396.221 199.922 396.156 198.755C396.091 197.589 396.415 196.555 397.743 195.453C399.071 194.351 401.4 193.188 403.859 191.567C406.317 189.947 408.905 187.876 410.914 185.903C412.919 183.929 414.344 182.049 416.479 179.395C418.614 176.741 421.464 173.309 423.307 170.72C425.15 168.13 425.993 166.38 426.261 164.028C426.527 161.671 426.219 158.709 423.34 155.051C420.46 151.392 415.008 147.039 410.697 144.667C406.385 142.295 403.214 141.906 400.367 142.976C397.52 144.045 394.996 146.57 393.539 148.965C392.081 151.359 391.695 153.628 390.303 155.18C388.91 156.733 386.516 157.575 384.964 157.867C383.413 158.159 382.7 157.899 382.182 156.149C381.663 154.402 381.34 151.165 380.598 150.063C379.853 148.961 378.69 149.998 378.01 151.94C377.329 153.881 377.135 156.733 377.167 158.739C377.2 160.745 377.459 161.911 377.718 162.721C377.977 163.532 378.236 163.985 377.07 165.376C375.904 166.769 373.316 169.099 372.571 169.261C371.826 169.423 372.927 167.417 373.834 164.76C374.741 162.106 375.451 158.803 376.001 155.955C376.552 153.106 376.941 150.711 378.363 147.733C379.788 144.755 382.247 141.193 383.831 139.058C385.418 136.922 386.127 136.209 386.613 135.334C387.099 134.459 387.358 133.425 387.763 132.032C388.168 130.638 388.719 128.891 386.704 126.876C384.689 124.86 380.112 122.578 377.018 120.634C373.928 118.693 372.328 117.088 371.573 117.195C370.822 117.299 370.919 119.114 373.348 121.554C375.778 123.998 380.543 127.07 385.259 127.893C389.975 128.72 394.646 127.297 397.95 125.991C401.258 124.685 403.198 123.492 405.073 122.643C406.949 121.794 408.763 121.285 410.01 119.769C411.257 118.252 411.934 115.727 410.949 115.338C409.962 114.95 407.309 116.7 409.34 118.245C411.371 119.791 418.086 121.136 423.336 122.909C428.587 124.682 432.374 126.882 435.302 129.313C438.23 131.74 440.304 134.394 441.726 137.891C443.151 141.388 443.925 145.727 444.719 147.646C445.512 149.564 446.322 149.062 446.701 147.428C447.08 145.795 447.031 143.024 445.373 143.65C443.711 144.272 440.436 148.287 438.279 152.351C436.118 156.415 435.072 160.524 435.228 165.301C435.383 170.078 436.744 175.516 439.04 180.403C441.337 185.29 444.573 189.629 446.905 190.926C449.234 192.222 450.659 190.472 449.04 187.559C447.423 184.645 442.762 180.565 438.457 177.425C434.152 174.285 430.207 172.084 425.999 169.88C421.791 167.68 417.328 165.476 412.472 162.174C407.62 158.871 402.375 154.467 398.394 150.52C394.413 146.57 391.695 143.073 390.724 139.77C389.752 136.468 390.529 133.36 392.34 131.837C394.151 130.314 397.001 130.379 399.071 132.453C401.141 134.524 402.437 138.604 404.662 143.29C406.887 147.976 410.042 153.268 413.473 156.862C416.903 160.456 420.609 162.349 425.157 163.159C429.705 163.969 435.092 163.694 435.908 162.569C436.724 161.445 432.97 159.468 431.117 157.342C429.264 155.213 429.313 152.931 430.534 149.911C431.755 146.89 434.149 143.138 434.084 139.868C434.019 136.598 431.496 133.814 427.635 130.923C423.777 128.032 418.581 125.038 414.772 125.239C410.962 125.44 408.536 128.833 404.393 132.297C400.25 135.762 394.394 139.294 390.656 142.81C386.918 146.327 385.301 149.823 384.397 152.306C383.494 154.791 383.309 156.263 383.406 158.79C383.503 161.315 383.882 164.893 384.3 167.813C384.718 170.733 385.172 173.001 385.042 175.007C384.912 177.013 384.2 178.763 382.551 179.8C380.902 180.837 378.311 181.161 376.694 180.805C375.078 180.448 374.43 179.411 374.268 177.891C374.106 176.368 374.43 174.362 374.229 172.842C374.029 171.322 373.3 170.292 371.972 170.81C370.644 171.329 368.719 173.393 368.114 175.756C367.508 178.115 368.217 180.769 369.481 183.718C370.744 186.664 372.555 189.902 373.105 189.837C373.656 189.772 372.943 186.405 371.907 183.07C370.87 179.735 369.513 176.433 368.088 174.751C366.663 173.066 365.176 173.001 363.718 173.811C362.26 174.622 360.838 176.303 360.774 178.118C360.709 179.93 362.005 181.874 365.435 186.599C368.865 191.328 374.43 198.836 377.537 202.755C380.643 206.673 381.291 206.997 381.615 206.057C381.939 205.117 381.939 202.917 381.55 201.912C381.161 200.907 380.384 201.102 379.963 202.074C379.542 203.046 379.477 204.793 385.334 213.728C391.19 222.662 402.971 238.785 409.958 248.183C416.949 257.582 419.148 260.252 420.622 262.203C422.096 264.154 422.838 265.385 423.21 265.917C423.583 266.452 423.583 266.289 423.566 264.766C423.55 263.243 423.518 260.362 422.271 257.4C421.024 254.438 418.565 251.395 416.155 249.839C413.745 248.284 411.384 248.222 410.088 248.462C408.792 248.705 408.565 249.256 408.857 249.92C409.148 250.585 409.958 251.363 409.861 252.17C409.764 252.98 408.76 253.819 407.905 254.759C407.046 255.699 406.337 256.733 405.899 258.029C405.462 259.325 405.3 260.877 405.219 261.931C405.138 262.984 405.138 263.532 404.976 263.937C404.814 264.342 404.49 264.601 404.312 265.46C404.134 266.319 404.102 267.774 404.49 269.167C404.879 270.558 405.689 271.886 406.463 272.729C407.241 273.571 407.986 273.928 408.096 274.333C408.209 274.738 407.691 275.192 406.978 275.338C406.266 275.483 405.362 275.321 404.471 274.576C403.58 273.831 402.709 272.505 401.996 270.755C401.284 269.008 400.733 266.837 400.701 264.75C400.668 262.663 401.154 260.654 401.786 260.119C402.417 259.584 403.195 260.524 403.179 260.848C403.162 261.172 402.353 260.881 399.991 257.497C397.63 254.114 393.713 247.639 391.433 244.094C389.153 240.548 388.505 239.932 387.986 240.046C387.468 240.159 387.079 241.002 386.046 243.575C385.01 246.148 383.328 250.455 382.729 254.714C382.13 258.972 382.616 263.178 383.474 266.74C384.333 270.302 385.56 273.215 386.791 275.383C388.022 277.551 389.25 278.977 389.59 279.787C389.93 280.597 389.379 280.792 386.224 281.712C383.069 282.636 377.31 284.285 373.944 285.241C370.579 286.197 369.607 286.457 368.477 284.723C367.343 282.989 366.05 279.269 365.176 275.82C364.301 272.372 363.848 269.2 363.945 265.071C364.042 260.942 364.69 255.861 365.678 252.17C366.666 248.478 367.991 246.181 369.092 244.223C370.193 242.266 371.065 240.645 372.911 239.349C374.754 238.053 377.572 237.084 379.853 236.29C382.133 235.496 383.882 234.88 385.126 235.156C386.373 235.431 387.115 236.598 387.131 236.838C387.148 237.081 386.435 236.4 386.03 235.655C385.625 234.909 385.528 234.102 385.787 233.227C386.046 232.352 386.662 231.412 386.824 230.67C386.986 229.925 386.694 229.374 385.366 229.293C384.038 229.212 381.676 229.601 380.494 229.99C379.312 230.379 379.312 230.768 380.445 230.832C381.579 230.897 383.843 230.638 385.573 229.698C387.303 228.758 388.502 227.141 388.858 225.699C389.214 224.257 388.728 222.996 387.433 222.364C386.137 221.732 384.035 221.732 382.143 222.137C380.251 222.543 378.567 223.353 379.069 223.836C379.571 224.322 382.256 224.484 384.498 223.968C386.739 223.456 388.54 222.267 388.67 221.052C388.8 219.837 387.261 218.599 385.891 217.72C384.52 216.842 383.325 216.324 381.706 216.599C380.089 216.874 378.048 217.944 376.821 218.103C375.59 218.265 375.172 217.519 376.205 216.806C377.242 216.093 379.733 215.413 381.203 214.784C382.677 214.152 383.128 213.569 382.548 212.859C381.965 212.146 380.348 211.304 378.551 211.223C376.756 211.142 374.78 211.822 373.277 212.243C371.771 212.665 370.737 212.827 369.539 211.498C368.34 210.169 366.983 207.353 362.014 200.249C357.048 193.142 348.471 181.748 344.202 175.678C339.929 169.608 339.961 168.863 340.933 167.489C341.905 166.111 343.813 164.105 345.06 162.631C346.307 161.156 346.887 160.22 346.064 158.988C345.238 157.757 343.006 156.237 341.824 155.086C340.642 153.936 340.512 153.161 339.803 152.027C339.09 150.893 337.798 149.405 337.166 148.352C336.534 147.299 336.567 146.683 336.939 146.602C337.312 146.521 338.024 146.975 337.927 147.412C337.83 147.85 336.923 148.271 335.55 147.153C334.173 146.035 332.33 143.381 331.261 141.618C330.192 139.855 329.9 138.98 329.998 138.558C330.095 138.137 330.581 138.17 330.807 138.575C331.034 138.98 331.002 139.758 329.593 138.656C328.184 137.554 325.401 134.576 324.141 132.715C322.878 130.855 323.137 130.11 323.396 130.11C323.655 130.11 323.914 130.855 323.137 130.888C322.359 130.92 320.549 130.239 319.107 129.06C317.666 127.877 316.6 126.195 314.64 125.385C312.684 124.575 309.833 124.639 307.763 125.012C305.693 125.385 304.398 126.065 303.653 127.099C302.908 128.136 302.713 129.526 302.325 130.531C301.936 131.536 301.353 132.148 301.078 132.877C300.802 133.607 300.835 134.449 301.223 135.661C301.612 136.877 302.357 138.461 303.455 139.92C304.556 141.378 306.011 142.703 307.598 143.692C309.185 144.68 310.899 145.325 311.676 146.087C312.454 146.848 312.292 147.72 311.612 148.239C310.931 148.757 309.736 148.919 309.315 148.514C308.894 148.109 309.25 147.137 310.076 146.848C310.902 146.557 312.195 146.946 313.685 148.307C315.175 149.668 316.856 151.998 317.763 153.485C318.67 154.976 318.799 155.621 318.475 156.35C318.152 157.079 317.374 157.89 316.422 158.243C315.466 158.599 314.336 158.502 314.158 157.757C313.979 157.011 314.757 155.621 315.774 155.216C316.794 154.811 318.054 155.394 319.723 156.836C321.388 158.278 323.461 160.576 324.494 162.096C325.531 163.619 325.531 164.361 325.029 165.042C324.526 165.722 323.522 166.338 322.408 166.322C321.29 166.306 320.063 165.658 319.901 164.624C319.739 163.587 320.646 162.164 321.938 161.727C323.234 161.289 324.915 161.84 326.097 162.537C327.28 163.234 327.957 164.076 328.734 164.446C329.512 164.818 330.386 164.721 330.351 163.716C330.318 162.712 329.379 160.803 327.163 158.457C324.948 156.11 321.452 153.327 318.718 150.928C315.985 148.533 314.009 146.524 312.408 144.729C310.808 142.933 309.577 141.345 309.917 141.313C310.258 141.281 312.165 142.804 315.531 145.766C318.897 148.728 323.717 153.132 326.535 155.884C329.35 158.635 330.159 159.737 331.228 160.965C332.297 162.196 333.622 163.554 334.675 164.478C335.728 165.402 336.505 165.888 337.555 166.144C338.607 166.403 339.932 166.435 341.228 165.479C342.524 164.523 343.784 162.582 344.496 161.513C345.209 160.443 345.371 160.249 345.922 160.411C346.472 160.573 347.412 161.091 348.348 162.384C349.287 163.681 350.223 165.752 352.005 168.373C353.783 170.995 356.407 174.168 357.489 175.837C358.574 177.503 358.121 177.665 355.371 178.88C352.62 180.095 347.57 182.36 343.771 184.577C339.968 186.794 337.412 188.965 333.107 192.543C328.802 196.121 322.751 201.105 318.236 207.742C313.72 214.379 310.743 222.666 308.35 227.912C305.956 233.156 304.142 235.36 302.169 237.884C300.196 240.409 298.059 243.257 296.539 247.435C295.02 251.612 294.113 257.115 293.595 261.033C293.077 264.951 292.947 267.281 293.303 267.735C293.66 268.189 294.502 266.763 295.891 264.983C297.284 263.204 299.225 261.065 301.23 259.351C303.235 257.637 305.308 256.34 307.281 254.723C309.253 253.103 311.132 251.162 312.943 249.577C314.754 247.989 316.503 246.761 317.925 245.756C319.35 244.751 320.448 243.977 320.092 242.843C319.736 241.708 317.925 240.221 316.662 239.897C315.398 239.573 314.689 240.415 314.948 241.773C315.207 243.134 316.438 245.011 319.771 244.589C323.104 244.168 328.54 241.449 333.136 239.054C337.733 236.659 341.484 234.585 344.493 232.514C347.502 230.443 349.767 228.369 351.969 226.234C354.169 224.098 356.307 221.894 358.895 219.953C361.483 218.012 364.525 216.327 366.015 215.484C367.505 214.642 367.44 214.642 366.436 215.614C365.432 216.586 363.491 218.527 360.968 220.663C358.445 222.799 355.338 225.132 352.329 227.721C349.32 230.311 346.408 233.159 342.556 235.849C338.705 238.536 333.917 241.06 329.677 242.843C325.437 244.622 321.747 245.659 319.029 246.145C316.312 246.631 314.563 246.566 313.238 246.793C311.91 247.02 311.006 247.538 308.933 249.253C306.863 250.967 303.627 253.884 301.133 256.214C298.642 258.544 296.892 260.294 295.891 261.684C294.887 263.078 294.628 264.112 294.823 266.056C295.017 267.997 295.665 270.846 296.345 272.758C297.025 274.667 297.738 275.639 299.063 276.255C300.391 276.871 302.331 277.13 305.535 276.449C308.738 275.769 313.205 274.152 319.321 270.298C325.437 266.445 333.204 260.359 338.219 256.57C343.233 252.782 345.501 251.295 348.056 250.031C350.612 248.767 353.459 247.733 356.371 246.826C359.284 245.918 362.26 245.14 364.392 244.729C366.523 244.317 367.806 244.269 368.716 243.799C369.63 243.329 370.167 242.438 370.465 242.917C370.763 243.394 370.815 245.241 370.096 248.235C369.377 251.23 367.89 255.375 367.242 259.195C366.595 263.016 366.789 266.513 367.135 270.713C367.482 274.913 367.978 279.82 368.648 282.477C369.319 285.134 370.164 285.546 369.591 286.46C369.017 287.374 367.032 288.793 365.098 289.694C363.167 290.598 361.289 290.987 358.798 291.924C356.307 292.864 353.2 294.351 349.899 295.161C346.599 295.972 343.103 296.101 339.09 295.81C335.077 295.518 330.548 294.805 326.988 293.933C323.428 293.058 320.84 292.024 319.059 291.311C317.28 290.598 316.308 290.209 315.823 289.403C315.337 288.592 315.337 287.364 315.725 285.484C316.114 283.608 316.892 281.08 317.28 279.236C317.669 277.392 317.669 276.226 318.155 276.485C318.641 276.744 319.612 278.426 319.771 281.051C319.933 283.673 319.285 287.234 317.539 290.115C315.793 292.997 312.943 295.197 311.424 298.243C309.901 301.286 309.707 305.172 311.618 311.485C313.526 317.798 317.539 326.538 321.747 330.942C325.955 335.347 330.354 335.411 337.441 335.444C344.529 335.476 354.302 335.476 362.26 335.476C370.222 335.476 376.371 335.476 380.769 335.509C385.172 335.541 387.825 335.606 389.732 336.384C391.64 337.161 392.806 338.649 392.677 340.237C392.547 341.822 391.122 343.507 387.112 344.771C383.098 346.035 376.497 346.874 368.7 347.295C360.9 347.717 351.905 347.717 344.432 347.555C336.955 347.393 331.002 347.068 327.247 346.582C323.493 346.096 321.942 345.448 320.808 344.512C319.674 343.572 318.965 342.343 317.993 338.976C317.021 335.609 315.793 330.106 314.66 326.642C313.526 323.178 312.493 321.755 311.521 322.205C310.549 322.659 309.645 324.989 310.063 328.81C310.484 332.631 312.23 337.939 316.341 345.257C320.451 352.575 326.923 361.898 333.039 371.513C339.155 381.129 344.914 391.036 354.557 406.737C364.201 422.439 377.728 443.935 385.298 455.008C392.871 466.082 394.488 466.727 395.686 466.824C396.885 466.921 397.659 466.468 397.144 464.753C396.626 463.039 394.815 460.057 389.055 450.701C383.296 441.345 373.588 425.611 369.218 417.192C364.849 408.776 365.82 407.674 367.987 403.108C370.154 398.541 373.52 390.514 376.076 386.952C378.632 383.391 380.381 384.298 384.391 390.676C388.404 397.054 394.682 408.902 398.132 414.311C401.582 419.716 402.204 418.679 402.074 416.706C401.944 414.732 401.063 411.819 400.558 410.231C400.053 408.646 399.923 408.387 396.298 403.302C392.674 398.221 385.554 388.314 381.997 383.358C378.437 378.407 378.437 378.407 380.313 373.743C382.188 369.08 385.942 359.756 387.594 354.61C389.247 349.463 388.793 348.491 387.918 348.459C387.044 348.426 385.751 349.334 383.646 353.67C381.544 358.009 378.632 365.777 377.012 369.306C375.396 372.836 375.072 372.123 373.679 370.408C372.286 368.694 369.827 365.972 368.729 364.193C367.628 362.413 367.887 361.571 369.247 359.918C370.608 358.268 373.067 355.806 374.618 353.962C376.173 352.118 376.818 350.886 376.364 350.076C375.911 349.266 374.359 348.877 372.642 349.395C370.929 349.914 369.05 351.337 367.498 352.957C365.943 354.574 364.716 356.389 363.647 356.681C362.578 356.972 361.674 355.741 360.518 353.981C359.364 352.221 357.962 349.93 356.993 349.087C356.022 348.245 355.484 348.854 355.989 350.387C356.495 351.92 358.049 354.38 359.342 356.389C360.638 358.395 361.671 359.95 361.412 362.345C361.153 364.74 359.601 367.978 357.528 372.025C355.458 376.073 352.867 380.928 351.509 383.452C350.149 385.977 350.019 386.171 345.977 379.988C341.931 373.805 333.972 361.244 329.635 354.509C325.297 347.775 324.585 346.868 326.204 346.09C327.821 345.312 331.773 344.667 338.892 344.57C346.012 344.473 356.303 344.926 363.035 345.121C369.766 345.315 372.937 345.25 374.566 346.031C376.196 346.812 376.28 348.443 374.663 350.675C373.047 352.908 369.724 355.747 367.738 358.268C365.752 360.79 365.108 362.99 364.946 364.445C364.784 365.904 365.108 366.613 366.371 368.526C367.634 370.434 369.834 373.542 371.194 375.357C372.555 377.169 373.07 377.687 372.587 380.053C372.101 382.415 370.614 386.625 368.8 390.964C366.99 395.304 364.852 399.77 363.397 402.78C361.94 405.791 361.166 407.346 358.221 413.497C355.277 419.648 350.165 430.398 347.671 436.192C345.18 441.987 345.309 442.829 346.31 443.154C347.314 443.478 349.19 443.283 352.232 437.942C355.273 432.602 359.481 422.111 361.648 416.738C363.815 411.365 363.945 411.106 361.843 407.868C359.74 404.631 355.403 398.415 353.365 394.983C351.328 391.551 351.587 390.903 353.527 386.823C355.468 382.743 359.092 375.234 361.036 371.64C362.976 368.046 363.235 368.37 362.685 369.955C362.134 371.543 360.777 374.391 355.079 386.531C349.384 398.671 339.352 420.105 332.589 433.927C325.825 447.752 322.33 453.968 320.228 457.465C318.126 460.961 317.413 461.739 316.506 461.448C315.599 461.156 314.501 459.795 315.599 455.621C316.7 451.443 320.001 444.45 325.08 434.125C330.159 423.797 337.02 410.133 340.58 403.143C344.14 396.15 344.399 395.826 344.075 397.09C343.751 398.353 342.844 401.202 340.159 407.126C337.474 413.05 333.007 422.05 328.543 431.053C319.298 431.036 310.002 431.027 300.673 431.023C298.243 431.059 295.814 431.095 292.503 432.349C289.193 433.606 285.001 436.082 282.714 438.37C280.427 440.658 280.048 442.755 281.095 446.854C282.144 450.954 284.619 457.053 285.762 461.055C286.906 465.058 286.715 466.967 284.143 468.107C281.571 469.251 276.615 469.634 273.473 467.725C270.327 465.819 268.996 461.626 268.044 458.67C267.091 455.715 266.518 454 264.422 451.521C262.326 449.042 258.705 445.801 258.896 443.896C259.087 441.99 263.088 441.416 266.233 439.608C269.378 437.797 271.662 434.747 274.046 428.168C276.427 421.593 278.905 411.488 277.476 378.031C276.048 344.573 270.713 287.766 267.376 256.023C264.043 224.283 262.709 217.61 261.876 213.605C261.044 209.602 260.71 208.267 258.041 208.552C255.372 208.837 250.37 210.743 245.107 211.699C239.843 212.652 234.317 212.652 230.245 212.344C226.173 212.033 223.553 211.414 222.195 212.01C220.838 212.606 220.744 214.418 218.908 217.014C217.074 219.613 213.501 222.996 211.477 223.972C209.452 224.947 208.976 223.518 209.216 221.706C209.455 219.895 210.408 217.704 211.027 216.939C211.645 216.178 211.93 216.845 211.312 218.511C210.693 220.18 209.167 222.847 207.356 225.42C205.546 227.994 203.45 230.473 201.973 231.545C200.496 232.618 199.637 232.284 199.663 230.9C199.686 229.52 200.593 227.089 201.973 224.276C203.353 221.463 205.212 218.271 206.19 217.056C207.165 215.841 207.263 216.602 206.524 218.485C205.785 220.368 204.214 223.369 202.355 225.897C200.496 228.421 198.355 230.473 196.971 231.306C195.592 232.138 194.97 231.759 194.733 230.781C194.493 229.805 194.639 228.23 195.996 225.132C197.354 222.034 199.926 217.412 200.975 216.171C202.025 214.933 201.548 217.075 199.929 219.603C198.309 222.128 195.546 225.035 194.238 225.657C192.929 226.276 193.071 224.61 193.881 222.154C194.691 219.7 196.168 216.46 197.431 213.98C198.695 211.501 199.741 209.787 201.004 208.523C202.268 207.259 203.745 206.449 204.888 206.044C206.032 205.639 206.841 205.639 209.391 204.472C211.94 203.305 216.226 200.969 218.37 199.802C220.514 198.636 220.514 198.636 218.966 196.37C217.418 194.105 214.321 189.578 209.961 185.789C205.601 182.001 199.981 178.951 197.266 177.781C194.552 176.615 194.743 177.328 196.456 178.614C198.17 179.901 201.409 181.761 204.318 184.143C207.224 186.525 209.796 189.432 211.655 191.603C213.514 193.771 214.658 195.2 215.937 196.208C217.22 197.213 218.642 197.796 219.64 198.318C220.641 198.843 221.22 199.31 224.557 198.781C227.896 198.253 233.993 196.727 239.567 194.75C245.142 192.773 250.192 190.342 252.716 189.03C255.239 187.721 255.239 187.529 254.834 184.668C254.429 181.81 253.619 176.281 253.428 170.059C253.237 163.84 253.668 156.93 254.381 152.186C255.096 147.445 256.094 144.871 256.859 143.964C257.62 143.06 258.145 143.821 259.978 143.51C261.811 143.199 264.957 141.819 267.72 139.936C270.483 138.053 272.864 135.671 274.794 134.456C276.725 133.24 278.202 133.192 278.487 134.504C278.772 135.814 277.868 138.484 276.773 140.652C275.679 142.82 274.393 144.489 273.557 145.967C272.724 147.445 272.342 148.731 271.937 156.833C271.532 164.935 271.105 179.852 270.246 188.528C269.388 197.203 268.102 199.63 267.03 201.397C265.958 203.16 265.099 204.255 264.004 204.829C262.91 205.399 261.575 205.448 259.265 205.879C256.956 206.306 253.668 207.117 251.809 207.593C249.949 208.069 249.522 208.212 250.021 207.593C250.519 206.974 251.951 205.59 253.713 204.138C255.475 202.683 257.571 201.16 259.955 200.279C262.336 199.397 265.005 199.157 265.744 199.886C266.482 200.612 265.29 202.304 264.315 203.02C263.34 203.736 262.576 203.474 261.98 202.628C261.384 201.782 260.956 200.353 261.717 198.185C262.479 196.017 264.432 193.11 265.909 184.626C267.386 176.141 268.387 162.083 268.957 153.411C269.527 144.735 269.673 141.449 269.718 139.327C269.767 137.207 269.718 136.254 270.172 135.324C270.625 134.394 271.578 133.49 272.673 132.369C273.767 131.247 275.008 129.915 275.031 128.198C275.053 126.483 273.865 124.383 271.315 121.561C268.766 118.738 264.86 115.186 261.5 113.054C258.141 110.921 255.333 110.205 253.665 110.348C251.997 110.49 251.475 111.492 248.854 115.52C246.234 119.548 241.517 126.6 237.899 132.035C234.278 137.466 231.754 141.281 229.014 144.878C226.274 148.475 223.323 151.858 221.988 154.529C220.654 157.199 220.942 159.153 223.18 165.538C225.418 171.925 229.61 182.743 231.923 188.152C234.232 193.561 234.663 193.561 234.375 191.558C234.09 189.555 233.089 185.553 230.825 179.191C228.561 172.829 225.036 164.105 222.892 158.58C220.747 153.051 219.986 150.718 218.389 146.521C216.792 142.327 214.363 136.274 212.672 129.436C210.981 122.598 210.029 114.972 209.669 110.396C209.313 105.82 209.549 104.297 210.097 103.27C210.644 102.246 211.503 101.721 212.406 101.293C213.31 100.865 214.266 100.531 214.93 99.9125C215.597 99.2935 215.979 98.3861 216.167 97.0282C216.358 95.6703 216.358 93.8587 216.358 92.5851C216.358 91.3115 216.358 90.5726 217.298 91.4411C218.237 92.3097 220.119 94.7888 222.766 96.5291C225.409 98.2694 228.816 99.2708 229.221 99.7472C229.626 100.224 227.032 100.175 224.518 99.2481C222.004 98.318 219.575 96.5064 218.237 94.4226C216.899 92.3388 216.656 89.9796 216.549 87.5134C216.443 85.0471 216.472 82.474 216.417 81.1615C216.362 79.8522 216.216 79.8036 215.574 79.5897C214.93 79.3758 213.786 78.9934 213.051 78.1832C212.313 77.373 211.979 76.1351 212.312 74.7772C212.646 73.4193 213.647 71.9415 214.765 71.2027C215.885 70.4638 217.123 70.4638 220.051 69.0119C222.979 67.5568 227.602 64.6499 231.34 61.8401C235.078 59.0271 237.938 56.3114 239.487 55.0475C241.035 53.7836 241.271 53.9748 242.272 54.9989C243.273 56.023 245.035 57.8832 246.393 59.3123C247.75 60.7415 248.702 61.7429 249.133 64.2934C249.561 66.8438 249.467 70.9434 249.182 74.3721C248.897 77.8041 248.42 80.5684 247.419 83.5953C246.418 86.6222 244.896 89.9115 243.607 92.1962C242.321 94.4842 241.271 95.7708 240.773 97.1287C240.274 98.4865 240.319 99.9157 240.701 101.18C241.083 102.443 241.796 103.539 243.202 104.612C244.608 105.684 246.704 106.731 248.275 107.567C249.846 108.4 250.895 109.022 252.563 109.33C254.232 109.641 256.518 109.641 257.733 109.641C258.948 109.641 259.09 109.641 259.068 108.403C259.045 107.165 258.854 104.686 258.138 102.35C257.422 100.013 256.185 97.8222 256.305 94.8666C256.425 91.9111 257.902 88.1939 259.758 84.9305C261.617 81.667 263.855 78.8541 264.092 73.374C264.332 67.8938 262.566 59.7433 258.517 54.3086C254.468 48.8771 248.132 46.1581 243.941 45.4192C239.749 44.6803 237.698 45.9183 237.391 47.1822C237.08 48.4461 238.512 49.7327 239.464 48.5174C240.416 47.3021 240.892 43.585 238.392 41.6535C235.891 39.722 230.413 39.5794 225.768 41.3424C221.123 43.1053 217.314 46.7771 215.027 50.4942C212.74 54.2114 211.979 57.9771 211.049 61.3832C210.12 64.7924 209.025 67.842 207.548 70.0587C206.07 72.2753 204.214 73.6559 203 76.2777C201.785 78.8994 201.215 82.7592 202.047 86.1911C202.88 89.6231 205.121 92.624 204.691 95.7222C204.263 98.8203 201.166 102.012 200.214 103.659C199.262 105.302 200.454 105.399 201.882 105.231C203.311 105.065 204.979 104.634 205.669 104.064C206.359 103.494 206.074 102.777 204.214 102.969C202.355 103.16 198.928 104.255 196.45 104.945C193.972 105.636 192.449 105.924 191.64 106.041C190.83 106.161 190.736 106.112 190.496 99.2481C190.256 92.3842 189.877 78.7082 189.949 71.679C190.02 64.6498 190.545 64.2674 191.212 61.0494C191.879 57.8313 192.689 51.7808 190.998 45.4646C189.307 39.1484 185.116 32.5729 182.709 28.7131C180.302 24.8534 179.684 23.7094 178.304 22.5395C176.924 21.3728 174.779 20.1802 173.707 20.1802C172.635 20.1802 172.635 21.3728 174.041 22.3742C175.447 23.3756 178.258 24.1858 181.138 24.377C184.021 24.5682 186.975 24.1404 188.737 21.0423C190.499 17.9441 191.073 12.1788 189.498 8.15057C187.927 4.12231 184.212 1.83434 181.232 1.07276C178.255 0.311188 176.017 1.07276 176.208 1.93156C176.399 2.79036 179.02 3.74314 180.257 5.50611C181.494 7.26908 181.352 9.84224 180.853 11.7737C180.354 13.7052 179.496 14.9918 179.949 14.2529C180.403 13.514 182.165 10.7497 181.974 8.17649C181.783 5.60334 179.638 3.22138 177.306 3.33805C174.97 3.45796 172.447 6.07973 170.471 9.15196C168.495 12.2274 167.067 15.7534 166.565 18.5404C166.066 21.3275 166.493 23.3789 167.018 25.0932C167.543 26.8076 168.162 28.1914 168.281 29.977C168.401 31.7659 168.019 33.9567 167.352 36.0308C166.685 38.1048 165.732 40.059 164.874 40.1757C164.015 40.2956 163.254 38.578 164.206 36.6724C165.159 34.7669 167.828 32.6701 169.519 34.122C171.21 35.5771 171.926 40.5808 172.211 44.0581C172.496 47.5387 172.353 49.4929 171.854 51.0646C171.355 52.6364 170.497 53.829 169.496 54.3767C168.495 54.9243 167.352 54.8304 167.637 53.1614C167.922 51.4924 169.639 48.2516 170.876 47.4414C172.114 46.6313 172.878 48.2516 172.518 50.8734C172.162 53.4952 170.685 57.1151 170.018 59.429C169.35 61.7397 169.493 62.741 171.352 62.5758C173.212 62.4105 176.781 61.0753 178.734 58.0711C180.688 55.0702 181.021 50.397 180.26 44.9169C179.499 39.4368 177.64 33.1465 176.282 29.9284C174.925 26.7104 174.067 26.5678 174.187 28.4506C174.306 30.3335 175.401 34.2419 176.451 39.0058C177.5 43.7729 178.498 49.3956 178.88 53.2327C179.263 57.0697 179.023 59.1179 180.072 60.142C181.122 61.166 183.454 61.166 184.954 60.9035C186.454 60.641 187.121 60.116 186.739 59.7109C186.356 59.3058 184.928 59.0207 183.691 59.2119C182.453 59.4031 181.404 60.0707 180.762 61.5484C180.118 63.0262 179.881 65.3142 179.641 67.3883C179.402 69.4624 179.165 71.3193 178.213 72.0096C177.261 72.6999 175.592 72.2235 174.404 71.0568C173.212 69.8901 172.499 68.0299 172.69 66.7434C172.881 65.4568 173.976 64.7406 175.168 64.6952C176.36 64.6466 177.646 65.2688 178.573 67.3883C179.502 69.5077 180.072 73.1309 180.192 78.1119C180.312 83.093 179.978 89.4319 179.881 92.624C179.787 95.8162 179.93 95.8648 181.216 96.4838C182.502 97.1027 184.931 98.2953 186.408 99.2708C187.885 100.25 188.41 101.011 188.575 101.679C188.744 102.346 188.553 102.917 187.944 103.322C187.335 103.727 186.311 103.963 185.145 103.607C183.979 103.25 182.667 102.298 181.332 102.035C179.998 101.773 178.641 102.204 177.617 102.525C176.593 102.845 175.903 103.059 175.926 102.836C175.949 102.609 176.687 101.941 178.022 101.5C179.356 101.06 181.284 100.846 182.524 101.215C183.762 101.585 184.312 102.537 185.453 103.704C186.596 104.871 188.336 106.255 189.262 107.22C190.192 108.186 190.312 108.734 189.952 109.103C189.596 109.473 188.76 109.664 187.688 109.162C186.616 108.663 185.307 107.47 183.95 106.789C182.592 106.109 181.187 105.944 179.829 106.216C178.472 106.491 177.163 107.204 176.172 107.587C175.184 107.969 174.517 108.014 174.708 107.645C174.899 107.275 175.946 106.488 177.196 105.989C178.446 105.49 179.901 105.273 181.507 105.428C183.114 105.584 184.879 106.109 186.094 106.919C187.309 107.729 187.976 108.825 188.465 109.554C188.954 110.28 189.262 110.636 188.977 110.889C188.692 111.138 187.811 111.281 186.632 111.129C185.453 110.973 183.976 110.523 182.343 110.484C180.71 110.448 178.926 110.831 178.116 110.688C177.306 110.545 177.474 109.878 178.356 109.486C179.237 109.094 180.834 108.974 182.311 109.129C183.788 109.285 185.145 109.713 186.525 110.131C187.908 110.549 189.311 110.954 190.227 111.31C191.144 111.667 191.575 111.978 190.943 112.419C190.312 112.859 188.621 113.43 186.846 113.585C185.07 113.741 183.214 113.478 181.809 113.55C180.403 113.621 179.45 114.026 178.76 115.303C178.07 116.576 177.64 118.722 177.523 121.904C177.403 125.087 177.594 129.303 177.724 150.915C177.853 172.528 177.925 211.537 178.009 241.099C178.093 270.658 178.187 290.77 179.237 300.826C180.286 310.882 182.285 310.882 185.621 311.407C188.958 311.932 193.625 312.979 197.341 313.553C201.056 314.126 203.819 314.22 203.962 313.792C204.104 313.365 201.626 312.412 196.197 311.504C190.768 310.6 182.382 309.741 175.191 309.122C167.996 308.504 161.994 308.121 158.661 308.073C155.328 308.024 154.66 308.312 154.852 309.408C155.043 310.503 156.089 312.409 160.093 313.65C164.093 314.888 171.048 315.461 175.622 315.986C180.195 316.511 182.385 316.988 182.767 321.039C183.15 325.09 181.721 332.715 180.195 338.484C178.67 344.249 177.05 348.157 177.384 350.351C177.717 352.542 180.004 353.022 182.813 352.163C185.624 351.304 188.958 349.113 188.766 347.017C188.575 344.92 184.86 342.917 181.669 344.061C178.479 345.205 175.809 349.496 175.907 355.689C176.001 361.885 178.861 369.987 178.955 376.611C179.049 383.235 176.383 388.382 171.618 393.959C166.853 399.536 159.995 405.541 158.233 410.924C156.471 416.31 159.804 421.074 162.95 423.171C166.095 425.268 169.046 424.697 175.382 423.745C181.718 422.792 191.436 421.457 199.009 417.882C206.582 414.308 212.014 408.494 217.301 398.914C222.587 389.334 227.735 375.989 229.354 361.979C230.974 347.966 229.069 333.289 227.686 326.091C226.306 318.893 225.448 319.182 223.397 319.658C221.35 320.135 218.111 320.802 215.299 319.61C212.487 318.417 210.107 315.367 208.393 309.79C206.679 304.213 205.63 296.111 206.249 289.821C206.867 283.53 209.154 279.052 211.917 276.572C214.68 274.093 217.92 273.617 220.825 269.281C223.731 264.945 226.303 256.745 227.78 247.739C229.257 238.733 229.639 228.914 229.208 223.625C228.781 218.336 227.54 217.571 227.304 217.86C227.064 218.145 227.829 219.48 227.922 223.625C228.016 227.77 227.446 234.731 226.351 241.734C225.257 248.741 223.637 255.793 222.587 260.177C221.541 264.562 221.062 266.277 222.73 275.189C224.398 284.101 228.207 300.21 231.923 319.94C235.638 339.67 239.26 363.023 241.547 382.658C243.834 402.294 244.786 418.213 245.69 426.6C246.593 434.987 247.452 435.846 251.559 436.118C255.667 436.39 263.023 436.079 268.737 434.792C274.454 433.506 278.529 431.244 281.522 428.492C284.512 425.741 286.42 422.5 286.465 420.497C286.514 418.495 284.703 417.733 281.891 411.491C279.08 405.246 275.27 393.525 272.935 381.372C270.599 369.219 269.744 356.638 267.457 347.01C265.17 337.382 261.455 330.712 257.834 326.992C254.212 323.275 250.688 322.513 248.258 324.753C245.829 326.992 244.494 332.236 246.257 334.76C248.019 337.285 252.878 337.097 254.306 332.472C255.735 327.851 253.736 318.793 250.257 311.31C246.778 303.827 241.825 297.919 239.587 290.77C237.349 283.621 237.825 275.234 235.872 271.232C233.918 267.229 229.536 267.608 227.058 268.895C224.58 270.182 224.009 272.376 223.294 277.237C222.578 282.098 221.722 289.629 221.149 295.92C220.579 302.21 220.291 307.262 220.388 311.647C220.482 316.032 220.958 319.749 221.914 326.755C222.866 333.762 224.294 344.055 223.818 354.875C223.342 365.693 220.961 377.036 218.532 384.425C216.102 391.81 213.624 395.242 212.957 399.77C212.29 404.297 213.433 409.92 215.195 415.306C216.958 420.692 219.338 425.838 220.151 429.222C220.961 432.605 220.2 434.225 217.149 435.703C214.101 437.181 208.766 438.516 204.24 439.897C199.715 441.28 196 442.71 193.664 444.521C191.329 446.333 190.376 448.523 190.901 451.336C191.426 454.149 193.424 457.581 196.952 458.534C200.476 459.487 205.526 457.961 209.148 455.818C212.769 453.673 214.959 450.909 217.771 449.052C220.582 447.192 224.013 446.239 223.106 443.572C222.202 440.901 216.961 436.52 213.388 434.66C209.815 432.803 207.91 433.467 206.148 433.564C204.386 433.658 202.766 433.182 200.671 433.182C198.575 433.182 196.003 433.658 195.193 431.801C194.383 429.941 195.336 425.747 196.003 422.604C196.67 419.457 197.052 417.36 194.477 417.172C191.905 416.981 186.379 418.699 182.188 419.652C177.996 420.604 175.136 420.796 170.565 421.654C165.991 422.513 159.704 424.036 156.87 425.871C154.035 427.705 154.654 429.85 155.273 433.234C155.891 436.617 156.51 441.241 157.582 446.054C158.654 450.867 160.18 455.87 160.417 460.21C160.656 464.546 159.607 468.218 158.709 468.431C157.812 468.645 157.067 465.405 157.589 461.496C158.113 457.588 159.908 453.012 160.757 447.078C161.605 441.144 161.511 433.853 161.285 430.447C161.058 427.041 160.705 427.517 158.56 427.779C156.416 428.042 152.487 428.087 147.042 427.779C141.6 427.468 134.645 426.801 128.452 425.278C122.258 423.751 116.829 421.369 109.635 417.367C102.441 413.365 93.4873 407.739 87.1967 402.067C80.9093 396.396 77.2879 390.676 75.1435 380.811C72.9991 370.946 72.3318 356.933 73.906 344.923C75.4771 332.913 79.2897 322.905 81.2657 317.163C83.2416 311.42 83.3841 309.942 84.8385 309.586C86.293 309.229 89.0528 309.991 92.6257 310.419C96.1986 310.847 100.581 310.944 104.06 310.467C107.539 309.991 110.111 308.941 114.254 306.51C118.397 304.08 124.114 300.269 127.83 292.831C131.545 285.397 133.262 274.339 132.404 267.096C131.545 259.853 128.115 256.421 125.497 254.467C122.877 252.513 121.066 252.037 119.829 251.132C118.591 250.228 117.924 248.893 117.733 240.315C117.542 231.737 117.83 215.912 121.591 204.809C125.355 193.706 132.595 187.319 139.501 183.219C146.407 179.12 152.982 177.311 158.46 174.547C163.938 171.783 168.32 168.066 170.941 165.253C173.561 162.44 174.42 160.534 175.256 158.298C176.091 156.062 176.904 153.495 175.142 152.782C173.38 152.066 169.039 153.203 166.25 154.438C163.461 155.673 162.224 157.008 160.792 159.008C159.364 161.01 157.744 163.678 155.791 165.823C153.838 167.968 151.551 169.589 149.549 171.066C147.547 172.544 145.833 173.879 144.165 173.973C142.497 174.067 140.877 172.923 140.022 170.399C139.164 167.874 139.07 163.966 140.783 159.772C142.497 155.579 146.025 151.097 149.455 147.714C152.885 144.33 156.219 142.042 159.649 137.564C163.079 133.085 166.604 126.412 168.414 121.739C170.225 117.069 170.319 114.399 170.368 112.253C170.416 110.108 170.416 108.488 170.416 107.677C170.416 106.867 170.416 106.867 171.083 105.581C171.751 104.294 173.085 101.721 174.549 99.8866C176.014 98.0523 177.611 96.9569 178.942 96.2569C180.276 95.5601 181.345 95.2587 182.392 95.5083C183.441 95.7578 184.465 96.5583 185.66 97.281C186.852 98.0037 188.209 98.6453 189.162 99.1574C190.114 99.6694 190.661 100.052 190.911 106.819C191.16 113.585 191.115 126.739 191.792 161.163C192.472 195.586 193.875 251.272 194.578 279.116C195.281 306.961 195.281 306.961 194.422 306.961C193.564 306.961 191.85 306.961 189.991 306.818C188.135 306.676 186.133 306.391 185.181 305.626C184.228 304.864 184.322 303.623 183.895 278.792C183.467 253.962 182.515 205.542 181.656 181.09C180.798 156.642 180.037 156.165 177.941 156.259C175.845 156.353 172.415 157.021 169.415 158.784C166.416 160.547 163.84 163.409 161.443 164.964C159.046 166.523 156.821 166.776 155.771 165.538C154.725 164.3 154.852 161.565 157.346 156.337C159.84 151.11 164.699 143.39 167.889 137.67C171.08 131.951 172.606 128.233 173.225 127.854C173.843 127.472 173.558 130.427 171.796 135.24C170.034 140.052 166.795 146.725 163.384 152.594C159.973 158.463 156.387 163.528 153.196 166.196C150.006 168.866 147.207 169.138 144.982 168.957C142.759 168.775 141.111 168.137 141.017 166.805C140.923 165.47 142.38 163.438 143.346 163.421C144.311 163.405 144.787 165.408 143.835 168.078C142.883 170.749 140.502 174.084 135.928 177.418C131.354 180.753 124.591 184.091 118.682 188.712C112.774 193.337 107.727 199.245 104.533 208.776C101.342 218.307 100.008 231.461 99.5317 239.038C99.0555 246.615 99.4378 248.618 100.578 249.762C101.721 250.906 103.626 251.191 105.486 251.191C107.345 251.191 109.152 250.906 109.058 250.189C108.964 249.473 106.963 248.329 105.534 248.235C104.106 248.141 103.247 249.094 104.582 252.62C105.916 256.146 109.441 262.248 110.584 268.49C111.727 274.735 110.49 281.119 108.964 286.505C107.439 291.891 105.631 296.276 102.343 299.517C99.0556 302.758 94.2938 304.854 93.6266 305.904C92.9593 306.954 96.3896 306.954 98.9616 306.857C101.534 306.763 103.25 306.572 103.678 307.667C104.106 308.763 103.25 311.148 101.916 314.719C100.581 318.294 98.7705 323.061 96.3411 332.735C93.9116 342.408 90.8635 356.992 90.5785 368.48C90.2934 379.965 92.7714 388.352 97.9283 396.752C103.088 405.149 110.927 413.559 115.359 419.133C120.953 426.175 121.461 429.144 115.896 431.059H-2.98718" stroke="white" stroke-width="3" stroke-miterlimit="2.6131"/>
</svg>
