<svg width="11" height="13" viewBox="0 0 11 13" fill="none" xmlns="http://www.w3.org/2000/svg">
<path d="M10.0348 1.25831C8.74788 -0.419519 6.6651 -0.419351 5.37829 1.25831L0.750203 7.292C-0.250068 8.59604 -0.250068 10.7179 0.750203 12.022C1.75073 13.3264 3.3783 13.3256 4.37827 12.022L9.00636 5.98827C9.72308 5.05387 9.72308 3.53352 9.00636 2.59912C8.28966 1.6647 7.12347 1.6647 6.40675 2.59912L2.45948 7.74522C2.30963 7.94059 2.30963 8.25737 2.45948 8.45271C2.60933 8.64808 2.85232 8.64808 3.00216 8.45271L6.94942 3.30661C7.36691 2.76233 8.0462 2.76233 8.46366 3.30661C8.88113 3.85089 8.88113 4.7365 8.46366 5.28075L3.8356 11.3145C3.13285 12.2307 1.99555 12.2305 1.29288 11.3145C0.953295 10.8718 0.766274 10.2831 0.766274 9.65701C0.766274 9.03088 0.953317 8.44226 1.29288 7.99952L5.92096 1.9658C6.90796 0.679041 8.50526 0.679209 9.49214 1.9658C10.4767 3.24942 10.4767 5.338 9.49214 6.62159L7.43521 9.30325C7.28535 9.49861 7.28535 9.81537 7.43521 10.0107C7.58506 10.2061 7.82805 10.2061 7.97788 10.0107L10.0348 7.32908C11.3218 5.65131 11.3216 2.93591 10.0348 1.25831Z" fill="white"/>
</svg>
