<svg width="414" height="429" viewBox="0 0 414 429" fill="none" xmlns="http://www.w3.org/2000/svg">
<path d="M742.944 426.878H136.336C135.662 425.775 134.981 424.722 134.292 423.725C134.82 423.654 135.346 423.566 135.871 423.463C144.853 421.691 153.237 414.857 159.48 404.215C166.642 392.008 171.977 378.379 177.137 365.202C178.462 361.818 179.833 358.32 181.201 354.933C188.55 336.736 197.144 319.657 204.58 305.35C207.137 300.433 210.216 295.649 215.389 293.941C218.888 292.787 222.726 293.44 226.433 294.074C227.228 294.209 228.047 294.349 228.847 294.466C232.518 295.012 237.863 295.394 241.861 292.414C246.485 288.966 247.269 282.649 247.116 277.958C246.847 269.816 244.415 261.465 239.886 253.138C235.827 245.675 228.52 235.561 216.76 229.756C211.46 227.136 206.27 226.804 202.151 228.82C198.454 230.628 195.955 234.192 194.92 239.128C193.845 244.267 194.067 249.72 195.575 255.395C195.955 256.824 196.418 258.27 196.962 259.725C199.188 265.679 202.708 271.702 207.425 277.624C211.399 282.617 216.142 288.032 221.107 291.223C218.976 291.095 216.839 291.228 214.729 291.926C208.837 293.869 205.47 299.054 202.708 304.369C195.248 318.718 186.628 335.855 179.242 354.135C177.871 357.532 176.498 361.036 175.172 364.425C170.041 377.525 164.735 391.074 157.661 403.138C154.225 408.994 146.772 419.153 135.464 421.381C134.603 421.551 133.737 421.673 132.866 421.75C130.758 418.96 128.556 416.61 126.216 414.648C124.721 413.391 123.132 412.226 121.595 411.097C118.964 409.169 116.244 407.172 114.034 404.737C109.706 399.969 106.967 393.159 106.325 385.556C106.304 385.325 106.281 385.057 106.251 384.755C106.051 382.628 105.52 376.979 106.827 375.64C106.999 375.465 107.118 375.383 107.184 375.348C107.707 375.815 108.261 378.321 108.475 379.286C108.697 380.278 108.884 381.135 109.13 381.694C111.258 386.574 114.752 389.844 118.714 390.669C119.358 390.801 120.01 390.867 120.665 390.867C125.247 390.867 129.813 387.677 131.614 382.941C133.386 378.281 132.573 372.609 129.438 367.766C128.728 366.668 127.912 365.621 127.125 364.608C125.326 362.29 123.628 360.102 123.153 357.466C122.118 351.69 127.508 346.511 132.9 343.591C133.962 343.016 135.084 342.451 136.169 341.904C140.746 339.595 145.473 337.213 148.362 332.949C148.555 332.665 148.74 332.373 148.914 332.071C152.086 326.626 151.27 320.312 150.483 314.205C150.351 313.173 150.216 312.128 150.1 311.083C151.729 311.903 153.472 312.261 155.144 312.141C155.762 318.981 152.664 326.611 148.716 332.498C148.61 332.654 148.505 332.813 148.394 332.97C147.005 335.012 145.489 337.049 144.015 339.022C139.27 345.389 134.361 351.971 132.763 359.901C132.05 363.452 132.927 366.202 135.111 367.254C136.162 367.761 137.289 367.798 138.377 367.361C140.632 366.454 142.37 363.637 143.244 361.306C156.94 324.786 174.295 289.473 194.833 256.347C194.984 256.106 195.026 255.822 194.97 255.559C194.92 255.336 194.799 255.127 194.611 254.971C194.207 254.631 193.616 254.647 193.225 255.002C187.827 259.943 183.076 265.459 179.022 271.479L194.579 229.109C196.399 224.152 198.05 218.087 195.681 213.451L198.794 213.648C199.869 214.069 201.023 214.133 202.138 213.794C202.626 213.645 202.938 213.165 202.88 212.656C202.822 212.147 202.407 211.752 201.897 211.72L199.283 211.555C198.702 211.269 198.155 210.805 197.68 210.179C196.602 208.757 195.95 206.413 197.072 204.631C197.878 203.353 199.248 202.462 200.939 202.114C203.083 203.472 205.689 204.095 208.233 203.684C208.652 203.618 208.993 203.302 209.094 202.886C209.191 202.47 209.033 202.035 208.687 201.78C206.664 200.298 204.018 199.614 201.467 199.887C200.696 199.309 200.02 198.608 199.486 197.813C203.117 197.314 206.194 195.232 208.489 192.716C208.56 192.75 208.631 192.785 208.703 192.819C210.097 193.453 211.586 193.885 213.026 194.304C215.619 195.057 218.07 195.768 219.741 197.548C223.233 201.263 221.387 206.769 219.432 212.598C217.402 218.649 215.305 224.908 219.142 229.742C219.427 230.1 219.908 230.236 220.336 230.077C222.102 229.419 223.565 230.875 225.762 233.349C226.454 234.131 227.173 234.94 227.923 235.617C231.464 238.812 237.353 239.152 241.927 236.428C245.69 234.184 248.603 230.082 250.129 224.873C252.416 217.077 251.571 208.683 247.549 199.213C244.077 191.04 238.761 183.246 233.614 175.963C229.042 169.493 224.548 162.918 220.153 156.267C223.491 144.652 227.725 133.293 232.811 122.338C237.435 112.375 243.192 99.9715 237.712 89.613C235.721 85.8445 232.087 82.8213 227.748 81.315C223.409 79.8087 218.693 79.936 214.811 81.665C212.255 82.8027 210.042 84.5133 207.9 86.1654C205.708 87.86 203.638 89.4592 201.242 90.4855C195.068 93.1374 188.421 91.4799 181.386 89.727C179.273 89.1993 177.126 88.6636 174.966 88.2472C174.979 88.1995 174.992 88.1517 175.006 88.104C177.736 78.602 179.725 68.9675 180.971 59.248C181.674 53.7558 182.141 48.2345 182.368 42.6998C183.665 44.9275 184.307 47.4442 183.911 50.0458C183.697 51.4539 183.216 53 182.754 54.4957C182.268 56.0604 181.756 57.7126 181.531 59.3196C181.201 61.6693 181.481 63.9261 183.345 65.6976C185.891 68.1162 189.813 67.6176 192.538 67.0315C196.029 66.281 207.477 63.1332 208.172 54.1404C208.753 46.6327 201.372 41.5807 195.076 38.6635C190.975 36.7647 186.789 35.0542 182.527 33.532C182.495 28.5304 182.268 23.5182 181.845 18.5007C181.547 14.9418 181.087 11.2105 179.073 8.14216C176.529 4.26765 171.826 1.85967 164.693 0.780324C152.831 -1.0177 140.635 0.305624 129.427 4.60445C125.147 6.24601 121.302 8.60625 118.597 11.2503C115.162 14.6076 113.498 18.3389 113.651 22.3434C113.685 23.2424 113.815 24.1494 113.939 25.0245C113.971 25.2579 114.005 25.4886 114.037 25.7193C113.329 25.8015 112.624 25.8891 111.919 25.9819C107.886 26.5149 102.037 27.756 97.0614 30.6414C91.9487 33.6063 89.0781 37.5418 88.5314 42.3392C87.5491 50.9421 94.3096 58.3862 108.62 64.4644C109.077 64.658 109.605 64.5095 109.893 64.1038C110.178 63.698 110.147 63.1464 109.817 62.7778C106.138 58.6911 102.729 54.6204 101.403 49.7832C100.18 45.312 101.25 39.247 105.644 36.8072C106.658 36.245 107.831 35.8631 109.069 35.4573C111.586 34.6379 114.19 33.7892 115.537 31.2964C116.178 30.1083 116.353 28.8619 116.324 27.6022C135.05 25.6822 154.346 27.4325 172.563 32.5932C175.206 33.3411 177.826 34.1632 180.417 35.0542C180.417 35.7225 180.411 36.3855 180.403 37.0538C178.241 35.1762 175.658 33.7548 173.012 32.9698C172.84 32.9194 172.671 32.8717 172.499 32.8239C165.171 30.8191 157.452 32.3227 150.62 33.6487L128.939 37.8627C125.839 38.4646 122.083 40.862 121.085 43.5829C120.412 43.3098 119.651 43.1586 118.817 43.1427C115.423 43.0844 111.966 45.2404 110.788 48.1761C109.117 52.3423 110.207 56.7526 111.261 61.0169C111.435 61.7223 111.615 62.4516 111.776 63.157C113.556 70.9591 113.382 79.1643 111.269 86.8868C111.187 87.1864 111.1 87.4887 111.016 87.7937C110.12 90.9893 109.104 94.6146 110.604 97.8685C110.67 98.0117 110.741 98.1549 110.815 98.2928C107.894 101.748 104.524 104.819 100.832 107.437C96.0341 105.448 89.8255 106.44 85.0667 107.54C76.1803 109.601 66.1081 111.937 57.9559 117.554C45.9797 125.81 39.4568 140.202 34.2148 151.764L4.9543 216.321C2.58547 221.543 -0.0976198 227.464 0.00273192 233.758C0.140055 242.252 5.15764 249.566 10.5634 256.206C25.0563 274.014 42.1927 289.321 61.4919 301.706C68.2763 306.055 73.7718 306.739 77.3898 303.682C78.2375 302.966 78.8845 302.098 79.5104 301.26C79.748 300.94 79.9831 300.627 80.2234 300.33C82.7533 303.252 86.0702 305.655 89.3211 308.012C94.9989 312.128 100.36 316.013 101.395 322.222C101.49 322.789 102.016 323.179 102.583 323.097C103.148 323.017 103.55 322.5 103.487 321.93C102.589 313.802 98.9126 306.153 93.1344 300.391C89.8836 297.15 84.623 294.355 80.498 297.15C80.4822 297.161 80.4663 297.171 80.4505 297.182C79.5632 295.872 78.8739 294.456 78.4435 292.888C77.3898 289.046 78.3563 284.946 81.1635 281.347C84.9294 276.52 91.1617 273.497 97.0561 273.662C108.126 273.959 117.713 281.776 124.827 288.555C131.754 295.156 138.258 302.321 144.161 309.858C144.76 310.622 144.824 310.837 144.583 311.293C144.327 311.783 143.825 312.141 143.207 312.271C132.731 314.478 123.383 305.501 117.261 298.555C116.957 298.213 116.471 298.105 116.052 298.285C115.634 298.468 115.378 298.898 115.418 299.354C116.023 306.148 120.573 312.873 127.589 317.345C132.657 320.575 138.472 322.458 143.493 323.876C144.142 324.059 144.599 324.563 144.718 325.229C144.837 325.9 144.578 326.542 144.023 326.945C141.612 328.698 138.604 329.591 135.768 329.4C135.412 329.376 135.066 329.533 134.852 329.822C134.635 330.111 134.582 330.488 134.706 330.824L135.728 333.601C136.109 334.641 135.969 335.757 135.34 336.667C134.714 337.576 133.724 338.101 132.625 338.107C130.518 338.115 128.501 337.621 126.731 336.701C126.462 335.786 125.786 335.025 124.798 334.622C124.265 334.402 123.71 334.259 123.153 334.187C122.709 334.134 122.279 334.365 122.078 334.768C121.877 335.168 121.951 335.654 122.263 335.977C122.992 336.736 123.813 337.404 124.703 337.972C124.695 337.998 124.69 338.019 124.684 338.033C124.634 338.205 124.325 339.048 123.335 338.844C119.141 337.985 115.315 335.579 112.84 332.246C112.608 331.936 112.225 331.777 111.839 331.832C111.457 331.888 111.134 332.15 111 332.516C110.376 334.23 109.864 335.651 109.389 336.988C102.76 355.636 96.5517 375.499 99.7048 395.315C101.255 405.055 104.704 411.319 111.607 416.931C117.586 421.792 124.782 424.25 131.854 423.94C132.528 424.871 133.191 425.849 133.846 426.878C134.252 427.518 134.659 428.178 135.06 428.857C135.089 428.907 135.124 428.955 135.161 429H136.774H742.944C743.527 429 744 428.525 744 427.939C744 427.353 743.527 426.878 742.944 426.878ZM209.072 276.3C203.226 268.954 193.877 254.416 196.988 239.565C197.883 235.293 199.988 232.238 203.075 230.726C206.545 229.029 211.193 229.368 215.828 231.66C227.091 237.221 234.118 246.962 238.032 254.156C242.4 262.189 244.745 270.219 245.004 278.029C245.144 282.211 244.491 287.81 240.601 290.711C238.37 292.374 235.328 292.989 231.118 292.607C230.97 292.143 230.516 291.827 230.017 291.875C222.055 292.596 212.624 280.758 209.072 276.3ZM182.529 35.7994C186.491 37.2288 190.386 38.828 194.191 40.5915C199.877 43.2249 206.553 47.6855 206.067 53.976C205.483 61.5022 195.226 64.2841 192.097 64.9551C189.837 65.443 186.62 65.8885 184.798 64.1568C182.614 62.0803 183.662 58.7017 184.771 55.1269C185.257 53.5569 185.762 51.9313 185.999 50.3666C186.636 46.1792 185.115 42.2623 182.482 39.1489C182.506 38.0324 182.521 36.9159 182.529 35.7994ZM113.68 30.2834C112.735 32.031 110.638 32.7152 108.417 33.4392C107.136 33.8582 105.813 34.2905 104.622 34.9508C99.2823 37.913 97.9302 45.0945 99.3668 50.3454C100.397 54.1059 102.507 57.3598 105.026 60.4679C94.7084 55.2542 89.8677 49.2475 90.6283 42.5805C91.88 31.6093 107.45 28.7134 112.193 28.0849C112.867 27.9974 113.538 27.9125 114.211 27.8329C114.211 28.7187 114.079 29.5461 113.68 30.2834ZM154.386 26.446C146.759 25.2844 139.093 24.701 131.453 24.701C126.33 24.701 121.217 24.9635 116.136 25.486C116.102 25.2314 116.065 24.9768 116.03 24.7249C115.906 23.863 115.793 23.0515 115.761 22.2612C115.481 14.8887 123.026 9.33024 130.18 6.58546C141.05 2.41923 152.875 1.13569 164.379 2.87802C170.883 3.8619 175.114 5.9649 177.308 9.31167C179.049 11.9636 179.466 15.3926 179.741 18.6784C180.137 23.3909 180.359 28.0955 180.409 32.7948C171.982 29.928 163.278 27.8038 154.386 26.446ZM91.645 301.897C94.9804 305.225 97.5737 309.222 99.2744 313.579C96.8316 310.839 93.6652 308.545 90.5596 306.291C87.2665 303.907 84.0869 301.6 81.7445 298.866C84.6072 296.996 88.7718 299.03 91.645 301.897ZM149.997 308.569C149.952 308.537 149.907 308.506 149.86 308.474C149.733 306.578 149.72 304.7 149.944 302.889C149.989 302.525 150.052 302.159 150.132 301.796C150.937 302.592 151.684 303.422 152.321 304.308C153.586 306.068 154.394 308.002 154.827 310.033C153.221 310.113 151.518 309.609 149.997 308.569ZM154.035 303.066C153.113 301.783 152.017 300.637 150.863 299.561C151.861 297.309 153.557 295.551 155.712 295.551C155.725 295.551 155.741 295.551 155.757 295.551C156.945 295.567 158.226 296.158 159.274 297.176C160.927 298.784 161.614 301.316 161.112 303.952C160.613 306.588 159.044 308.689 156.919 309.572C156.908 309.577 156.9 309.58 156.889 309.585C156.401 307.283 155.479 305.082 154.035 303.066ZM197.822 195.805C197.809 195.805 197.796 195.805 197.785 195.805C197.432 195.805 197.104 195.983 196.906 196.277C196.711 196.572 196.674 196.946 196.808 197.272C197.31 198.489 198.047 199.579 198.95 200.505C197.403 201.125 196.135 202.154 195.287 203.499C193.888 205.718 194.146 208.925 195.908 211.34L193.676 211.2C193.254 211.171 192.855 211.404 192.665 211.786C192.475 212.171 192.533 212.629 192.813 212.953C196.198 216.883 194.476 223.261 192.599 228.374L172.885 282.066C172.69 282.593 172.94 283.182 173.455 283.405C173.97 283.63 174.57 283.41 174.821 282.906C178.433 275.64 182.957 268.96 188.321 262.966C175.962 283.601 164.82 305.034 155.012 327.04C150.089 338.078 145.505 349.261 141.266 360.558C140.53 362.523 139.106 364.78 137.59 365.39C137.046 365.61 136.55 365.594 136.027 365.342C134.545 364.629 134.458 362.192 134.836 360.322C136.338 352.86 141.1 346.471 145.708 340.295C147.309 338.147 148.964 335.927 150.467 333.683C151.898 331.551 153.221 329.196 154.315 326.727C156.448 321.911 157.711 316.652 157.22 311.722C157.391 311.667 157.56 311.603 157.727 311.534C160.513 310.375 162.554 307.691 163.188 304.35C163.824 301.009 162.911 297.757 160.745 295.652C159.29 294.241 157.529 293.45 155.78 293.429C152.846 293.389 150.583 295.4 149.218 298.086C148.954 297.858 148.692 297.63 148.431 297.404C148.296 297.29 148.164 297.174 148.032 297.06C148.148 296.795 148.265 296.529 148.383 296.267L152.646 286.709C153.723 288.746 155.347 290.353 157.307 291.276C160.18 292.631 163.716 292.384 166.766 290.615C169.637 288.95 171.501 286.195 171.752 283.246C172.019 280.079 170.323 276.884 167.323 274.903C164.45 273.009 161.154 272.731 158.506 274.16C156.079 275.47 154.515 277.793 153.364 280.034C153.491 278.581 153.934 277.197 154.674 276.03C155.556 274.643 156.765 273.484 158.046 272.256C159.657 270.713 161.321 269.116 162.335 266.995C162.617 266.408 162.837 265.801 163.021 265.191C163.082 265.305 163.146 265.419 163.212 265.533C164.812 268.244 167.757 269.681 170.899 269.286C174.168 268.872 176.772 266.65 177.694 263.486C178.69 260.062 177.021 256.745 173.442 255.032C170.857 253.793 167.485 253.65 165.084 255.336C165.097 255.294 165.11 255.254 165.121 255.214C166.513 250.741 168.345 246.455 170.601 242.395C170.999 243.705 171.731 244.853 172.753 245.713C174.66 247.314 177.382 247.739 180.036 246.853C182.69 245.964 184.616 243.986 185.186 241.557C186.094 237.688 184.122 233.845 182.212 230.132C179.793 225.428 178.494 222.402 180.839 220.06C181.579 219.32 182.632 218.816 183.749 218.283C185.527 217.432 187.539 216.469 188.236 214.303C188.841 212.42 188.096 210.635 187.436 209.06C187.035 208.1 186.654 207.19 186.559 206.304C186.229 203.302 188.83 201.372 191.841 199.134C194.286 197.314 196.816 195.437 198.047 192.703C198.792 191.048 198.95 189.282 199.101 187.574C199.238 186.012 199.37 184.537 199.93 183.23C200.537 181.806 202.505 180.957 203.854 181.148C204.388 181.222 204.662 181.434 204.807 181.654C203.772 182.628 203.278 183.988 203.405 185.561C203.577 187.698 204.892 189.982 206.706 191.53C204.443 193.93 201.385 195.805 197.822 195.805ZM148.378 300.165C148.127 300.969 147.95 301.799 147.847 302.626C147.702 303.809 147.647 305.002 147.657 306.201C146.91 305.053 146.511 303.764 146.535 302.467C146.553 301.34 146.82 300.229 147.198 299.139C147.591 299.478 147.985 299.82 148.378 300.165ZM153.821 284.068L154.08 283.487C155.535 280.222 156.948 277.409 159.507 276.027C161.458 274.974 163.948 275.216 166.164 276.677C168.514 278.228 169.848 280.676 169.647 283.065C169.455 285.325 167.984 287.46 165.71 288.778C163.294 290.178 160.418 290.401 158.205 289.356C156.176 288.401 154.589 286.484 153.821 284.068ZM164.107 260.733C164.376 259.789 164.717 258.906 165.25 258.134C166.84 255.827 170.117 255.79 172.534 256.946C174.596 257.935 176.503 260.015 175.666 262.889C174.85 265.687 172.531 266.941 170.635 267.18C168.308 267.474 166.212 266.453 165.029 264.451C164.366 263.327 164.112 262.049 164.107 260.733ZM208.069 189.905C206.685 188.714 205.637 186.945 205.51 185.388C205.423 184.296 205.792 183.463 206.611 182.914C206.947 182.691 207.123 182.299 207.073 181.898C206.875 180.344 205.782 179.276 204.147 179.045C201.995 178.743 199.006 180.013 197.989 182.392C197.294 184.009 197.144 185.725 196.996 187.385C196.853 188.987 196.721 190.501 196.122 191.827C195.118 194.058 192.813 195.771 190.584 197.428C187.346 199.836 183.998 202.324 184.457 206.535C184.589 207.729 185.046 208.824 185.49 209.882C186.081 211.295 186.591 212.518 186.227 213.65C185.809 214.947 184.433 215.605 182.841 216.366C181.613 216.955 180.345 217.562 179.35 218.556C175.737 222.163 178.074 226.709 180.335 231.106C182.067 234.476 183.86 237.964 183.129 241.069C182.73 242.777 181.322 244.188 179.371 244.84C177.417 245.492 175.449 245.211 174.108 244.084C172.843 243.021 172.214 241.27 172.396 239.353C173.482 237.624 174.644 235.94 175.888 234.306C176.178 233.922 176.176 233.389 175.88 233.007C175.581 232.628 175.066 232.495 174.625 232.689C172.37 233.673 170.78 235.887 170.36 238.624C167.286 243.607 164.854 248.951 163.106 254.583C162.554 256.355 162.036 258.4 161.994 260.447C161.83 261.065 161.693 261.688 161.558 262.301C161.26 263.656 160.977 264.934 160.431 266.077C159.583 267.848 158.128 269.243 156.588 270.72C155.273 271.983 153.913 273.288 152.894 274.889C151.286 277.419 150.805 280.756 151.579 283.903L146.456 295.4C146.426 295.463 146.397 295.527 146.371 295.591C144.266 293.663 142.476 291.655 141.707 289.061C140.485 284.935 142.222 280.501 144.272 275.942L206.125 138.263C209.944 144.432 213.858 150.56 217.856 156.625C216.311 162.08 214.967 167.591 213.821 173.142C213.731 173.579 213.641 174.017 213.551 174.454C212.611 179.077 211.637 183.858 209.352 187.926C208.985 188.587 208.555 189.252 208.069 189.905ZM231.892 177.191C243.07 193.01 252.725 208.514 248.104 224.274C246.728 228.965 244.151 232.633 240.847 234.603C237.049 236.866 232.206 236.63 229.333 234.039C228.673 233.442 228.026 232.713 227.339 231.938C225.593 229.971 223.655 227.788 221.194 227.788C220.932 227.788 220.666 227.812 220.391 227.865C217.843 223.985 219.591 218.774 221.434 213.274C223.502 207.108 225.638 200.733 221.278 196.092C219.211 193.891 216.366 193.066 213.615 192.268C212.352 191.902 211.05 191.522 209.875 191.019C210.369 190.34 210.813 189.65 211.196 188.969C213.638 184.609 214.647 179.663 215.622 174.879C215.711 174.444 215.799 174.006 215.888 173.574C216.9 168.665 218.072 163.791 219.398 158.956C223.483 165.109 227.653 171.195 231.892 177.191ZM113.049 88.3665C113.136 88.0589 113.223 87.7513 113.305 87.449C115.51 79.3897 115.695 70.8265 113.836 62.6823C113.672 61.9583 113.487 61.2211 113.313 60.5051C112.339 56.5696 111.332 52.4988 112.748 48.9691C113.701 46.5929 116.569 45.2192 118.774 45.2643C119.374 45.2749 120.272 45.4022 120.993 45.9591C121.207 46.6141 121.624 47.2135 122.239 47.7226C122.606 48.0276 123.129 48.0488 123.52 47.773C123.908 47.4999 124.067 46.9986 123.905 46.5478C123.681 45.914 123.356 45.3597 122.947 44.893C122.949 44.779 122.968 44.6623 123 44.5376C123.451 42.7529 126.591 40.4775 129.34 39.9444L151.022 35.7331C157.774 34.4204 165.43 32.9327 172.415 35.0038C175.315 35.8657 178.185 37.6478 180.348 39.9842C179.91 56.0418 177.446 71.9536 172.977 87.5153C172.94 87.6373 172.906 87.7593 172.869 87.8839C171.2 87.6293 169.526 87.4675 167.854 87.4569C167.828 87.4569 167.801 87.4569 167.775 87.4569C163.573 87.4569 159.19 89.4565 158.881 93.3045C158.733 95.1423 159.641 96.8263 161.368 97.9215C163.6 99.335 166.661 99.4491 168.808 98.2C171.66 96.5425 173.218 93.5405 174.327 90.2866C176.521 90.7003 178.719 91.2466 180.876 91.7849C187.94 93.5458 195.245 95.3677 202.072 92.4373C204.715 91.3023 206.989 89.5467 209.189 87.8468C211.325 86.1972 213.343 84.6379 215.667 83.6036C222.77 80.4425 232.201 83.715 235.848 90.6075C240.834 100.033 235.552 111.407 230.896 121.444C226.016 131.951 221.915 142.83 218.627 153.949C214.726 147.996 210.902 141.984 207.174 135.935L224.88 96.5213C225.453 95.2431 225.52 93.8481 225.065 92.5911C224.513 91.0662 223.114 89.4008 219.575 90.1168C215.606 90.9177 212.154 93.1639 208.816 95.3332C204.971 97.834 201.343 100.194 197.12 100.385C193.93 100.531 190.597 99.3722 187.373 98.253C182.677 96.6221 177.821 94.9381 173.202 97.1737C169.563 98.9373 167.624 102.478 165.752 105.901C164.257 108.628 162.847 111.205 160.653 112.961C155.45 117.124 147.298 115.027 142.267 110.94C138.586 107.949 135.715 103.949 132.937 100.08C131.331 97.8393 129.67 95.5242 127.848 93.392C127.191 92.6203 126.517 92.0209 125.791 91.5622C120.401 88.1491 115.592 92.7211 112.325 96.5001C111.454 94.055 112.265 91.167 113.049 88.3665ZM172.22 89.9312C171.308 92.5434 170.022 95.0415 167.749 96.3649C166.275 97.2214 164.067 97.1207 162.496 96.1262C161.886 95.739 160.874 94.8771 160.985 93.4742C161.189 90.9363 164.622 89.5785 167.775 89.5785C167.799 89.5785 167.82 89.5785 167.841 89.5785C169.288 89.5891 170.751 89.719 172.22 89.9312ZM112.08 100.07C113.221 101.335 114.628 102.305 115.84 103.141L137.347 117.973C128.405 123.977 119.07 129.578 109.571 134.643C107.619 131.692 107.725 127.801 107.833 123.696C107.955 119.153 108.082 114.451 105.277 110.807C104.577 109.898 103.777 109.155 102.9 108.553C106.265 106.076 109.354 103.231 112.08 100.07ZM97.1115 271.54C90.5781 271.373 83.6644 274.701 79.4998 280.037C76.2701 284.179 75.1715 288.945 76.4074 293.45C76.9303 295.362 77.7912 297.07 78.8871 298.624C78.5068 299.067 78.1609 299.531 77.8176 299.99C77.2392 300.765 76.6926 301.499 76.0297 302.059C72.4408 305.093 66.7631 302.568 62.6301 299.919C43.5184 287.656 26.551 272.497 12.1981 254.864C7.03528 248.521 2.24216 241.57 2.1154 233.723C2.02297 227.907 4.60043 222.219 6.87683 217.199L36.1373 152.642C41.2711 141.318 47.6592 127.226 59.1495 119.304C66.9743 113.913 76.8378 111.627 85.542 109.609C88.1776 108.999 91.2938 108.415 94.2806 108.415C95.7832 108.415 97.2541 108.561 98.6168 108.927C92.1256 113.072 84.7709 115.865 77.1732 116.957L76.6741 117.026C73.3255 117.501 69.528 118.039 67.3969 120.988C63.8476 125.905 68.1125 132.166 70.9356 136.309C83.8677 155.283 81.6098 183.171 65.7912 199.799C64.1539 201.52 62.3185 203.223 60.5439 204.87C54.734 210.261 48.7288 215.836 47.4929 223.738C46.0325 233.097 51.6707 242.581 64.2516 251.931C74.6037 259.625 85.7559 266.21 97.4786 271.553C97.3571 271.548 97.2356 271.545 97.1115 271.54ZM104.963 272.476C90.9452 266.75 77.6697 259.264 65.506 250.226C53.6091 241.385 48.2508 232.583 49.5818 224.065C50.7015 216.894 56.4321 211.574 61.9779 206.429C63.7763 204.758 65.6354 203.035 67.3176 201.263C83.7991 183.94 86.1547 154.88 72.6812 135.11C69.5174 130.469 66.6389 125.656 69.1081 122.235C70.7137 120.012 73.8933 119.564 76.9699 119.129L77.4716 119.055C85.8642 117.851 93.9716 114.647 101.017 109.885C102.002 110.433 102.879 111.16 103.605 112.104C105.948 115.151 105.839 119.275 105.721 123.64C105.599 128.265 105.47 133.049 108.449 136.68C108.768 137.067 109.315 137.178 109.756 136.945C120.058 131.49 130.172 125.406 139.819 118.861C140.107 118.665 140.281 118.336 140.284 117.986C140.284 117.634 140.112 117.305 139.824 117.108L117.037 101.39C115.801 100.539 114.449 99.6082 113.461 98.4334C116.986 94.3122 120.734 90.87 124.663 93.3549C125.207 93.6996 125.725 94.1637 126.245 94.771C128.007 96.8369 129.641 99.1149 131.223 101.319C134.081 105.302 137.036 109.42 140.939 112.59C146.751 117.31 155.841 119.524 161.968 114.621C164.495 112.6 166.074 109.715 167.603 106.922C169.396 103.647 171.089 100.555 174.121 99.0858C177.953 97.2294 182.194 98.7012 186.683 100.258C190.095 101.443 193.624 102.669 197.218 102.504C202.011 102.287 206.054 99.6586 209.962 97.1154C213.137 95.0521 216.417 92.9173 219.992 92.196C222.065 91.777 222.726 92.3418 223.079 93.3177C223.341 94.0391 223.296 94.8904 222.953 95.6488L205.835 133.755C203.725 130.305 201.644 126.844 199.597 123.375C194.619 114.939 188.981 106.636 179.664 105.793C178.449 105.681 177.306 105.816 176.271 106.19C174.409 106.861 173.033 108.177 172.293 109.991C170.883 113.449 171.966 117.984 173.448 121.073C173.646 121.484 173.849 121.901 174.055 122.32C175.79 125.863 177.578 129.512 176.733 132.774L158.675 123.335C157.082 122.505 152.244 119.975 149.128 122.834C146.968 124.818 147.227 128.18 147.367 129.986L149.347 155.673C149.479 157.397 149.646 159.54 148.79 161.136C147.369 163.794 143.532 164.329 140.569 163.703C139.103 163.393 137.696 162.892 136.204 162.361C134.329 161.693 132.39 161.004 130.333 160.733C125.926 160.152 121.708 161.553 117.628 162.908C114.948 163.799 112.172 164.722 109.42 165.037C100.288 166.09 90.8211 159.481 88.3281 150.64C88.2198 150.109 88.0984 149.579 87.9584 149.049C87.8105 148.497 87.2586 148.163 86.704 148.288C86.1494 148.412 85.7929 148.956 85.8985 149.515C85.9989 150.062 86.1257 150.603 86.2735 151.141C88.1248 160.351 84.9056 169.54 81.5095 179.239C78.0896 188.998 74.5535 199.091 76.7296 209.187C78.1002 215.549 81.6389 221.179 85.1433 226.398C89.0121 232.164 93.0763 237.775 97.2224 243.084C99.38 245.848 101.762 248.675 105.068 250.197C105.919 250.589 106.793 250.879 107.68 251.083C107.247 252.624 107.118 254.27 107.427 256.007C107.823 258.262 108.913 260.227 109.967 262.128C110.638 263.337 111.269 264.478 111.736 265.684C112.465 267.57 112.473 269.882 111.755 271.437C111.33 272.359 110.683 272.975 109.838 273.269C108.367 273.776 106.624 273.155 104.963 272.476ZM112.938 415.281C106.397 409.964 103.27 404.27 101.791 394.978C98.7172 375.661 104.841 356.09 111.38 337.701C111.684 336.847 112.001 335.956 112.354 334.977C115.096 337.961 118.851 340.093 122.912 340.923C124.521 341.252 125.984 340.462 126.589 338.982C128.429 339.793 130.465 340.228 132.557 340.228C132.583 340.228 132.61 340.228 132.636 340.228C133.412 340.223 134.165 340.053 134.852 339.74C135.736 339.337 136.51 338.701 137.078 337.876C138.087 336.41 138.324 334.537 137.709 332.866L137.218 331.533C140.059 331.4 142.867 330.405 145.262 328.663C146.471 327.783 147.058 326.324 146.796 324.855C146.537 323.394 145.492 322.235 144.063 321.832C139.193 320.458 133.56 318.636 128.72 315.552C123.53 312.247 119.81 307.646 118.262 302.783C124.658 309.484 133.531 316.477 143.643 314.348C144.876 314.088 145.901 313.335 146.453 312.285C147.375 310.529 146.366 309.24 145.822 308.545C145.816 308.537 145.809 308.529 145.803 308.522C139.843 300.913 133.272 293.678 126.28 287.014C121.914 282.856 116.641 278.318 110.625 275.239C111.966 274.743 113.02 273.741 113.672 272.328C114.631 270.251 114.644 267.342 113.707 264.915C113.186 263.573 112.489 262.314 111.813 261.097C110.799 259.269 109.843 257.54 109.505 255.639C109.244 254.159 109.378 252.743 109.785 251.409C112.972 251.69 116.239 251.075 119.189 250.343C134.382 246.582 148.547 239.024 160.156 228.491C160.486 228.191 160.595 227.716 160.426 227.303C160.257 226.889 159.845 226.618 159.404 226.645C145.093 227.242 131.03 231.456 118.735 238.828C115.988 240.472 110.765 244.105 108.433 249.073C107.58 248.9 106.748 248.638 105.948 248.269C103.075 246.943 100.883 244.334 98.8835 241.774C94.7717 236.508 90.7365 230.936 86.8941 225.213C83.5059 220.164 80.0861 214.732 78.7947 208.739C76.7454 199.229 80.1785 189.425 83.5007 179.944C86.1441 172.402 88.851 164.669 88.9117 156.92C90.3668 159.153 92.255 161.168 94.4786 162.818C98.9839 166.162 104.519 167.737 109.663 167.146C112.629 166.804 115.508 165.846 118.294 164.923C122.324 163.584 126.129 162.319 130.059 162.836C131.894 163.078 133.645 163.701 135.499 164.361C136.991 164.891 138.53 165.44 140.133 165.78C143.968 166.589 148.706 165.777 150.652 162.141C151.801 159.996 151.608 157.508 151.455 155.509L149.471 129.822C149.318 127.82 149.26 125.587 150.551 124.401C151.914 123.15 154.254 123.417 157.698 125.218L176.828 135.216C177.084 135.349 177.385 135.373 177.657 135.277C177.932 135.184 178.156 134.983 178.275 134.717C180.308 130.283 177.992 125.555 175.951 121.383C175.748 120.97 175.547 120.559 175.352 120.153C174.124 117.596 173.099 113.611 174.248 110.794C174.768 109.516 175.663 108.662 176.986 108.187C177.728 107.917 178.565 107.824 179.474 107.906C187.798 108.659 193.082 116.493 197.778 124.454C200.075 128.345 202.41 132.225 204.786 136.091L142.346 275.07C140.125 280.008 138.253 284.842 139.682 289.666C140.667 292.989 142.996 295.423 145.494 297.654C144.916 299.144 144.451 300.746 144.422 302.43C144.385 304.432 145.093 306.4 146.384 308.057C146.804 308.596 147.287 309.102 147.826 309.566C147.969 311.213 148.18 312.857 148.389 314.478C149.165 320.495 149.897 326.178 147.089 331C144.596 335.28 139.83 337.682 135.221 340.008C135.161 340.04 135.097 340.072 135.034 340.104C133.993 340.626 132.924 341.17 131.897 341.724C125.854 344.999 119.839 350.95 121.074 357.843C121.64 360.993 123.581 363.494 125.458 365.913C126.219 366.891 127.006 367.901 127.666 368.923C130.391 373.134 131.149 378.218 129.641 382.185C127.972 386.574 123.261 389.449 119.141 388.589C114.48 387.621 111.94 382.851 111.066 380.843C110.902 380.472 110.717 379.636 110.538 378.825C109.986 376.335 109.415 373.757 107.733 373.277C107.178 373.118 106.31 373.139 105.319 374.155C103.479 376.04 103.751 380.718 104.149 384.956C104.176 385.248 104.202 385.51 104.221 385.736C104.902 393.801 107.833 401.056 112.473 406.167C114.826 408.758 117.633 410.818 120.348 412.81C121.859 413.918 123.42 415.064 124.861 416.276C126.739 417.851 128.53 419.697 130.254 421.842C124.185 421.744 118.085 419.469 112.938 415.281ZM110.659 249.338C112.875 245.214 117.406 242.095 119.817 240.65C130.933 233.986 143.527 229.968 156.422 228.95C145.526 238.192 132.544 244.853 118.685 248.282C116.139 248.913 113.353 249.457 110.659 249.338Z" fill="white"/>
</svg>
