<svg width="136" height="42" viewBox="0 0 136 42" fill="none" xmlns="http://www.w3.org/2000/svg">
<rect width="136" height="42" rx="8" fill="#0149A5"/>
<path d="M44.245 16.32H51.025V17.595H45.775V20.94H50.725V22.215H45.775V27H44.245V16.32ZM60.0455 19.44V27H58.5455V25.71C58.3255 26.16 57.9955 26.505 57.5555 26.745C57.1255 26.985 56.6205 27.105 56.0405 27.105C55.3705 27.105 54.7805 26.945 54.2705 26.625C53.7705 26.305 53.3805 25.855 53.1005 25.275C52.8205 24.685 52.6805 24 52.6805 23.22C52.6805 22.44 52.8205 21.75 53.1005 21.15C53.3905 20.55 53.7905 20.085 54.3005 19.755C54.8105 19.425 55.3905 19.26 56.0405 19.26C56.6205 19.26 57.1255 19.385 57.5555 19.635C57.9855 19.875 58.3155 20.22 58.5455 20.67V19.44H60.0455ZM56.4005 25.905C57.0805 25.905 57.6055 25.67 57.9755 25.2C58.3555 24.72 58.5455 24.05 58.5455 23.19C58.5455 22.32 58.3555 21.65 57.9755 21.18C57.6055 20.71 57.0755 20.475 56.3855 20.475C55.7055 20.475 55.1705 20.72 54.7805 21.21C54.4005 21.69 54.2105 22.36 54.2105 23.22C54.2105 24.07 54.4005 24.73 54.7805 25.2C55.1705 25.67 55.7105 25.905 56.4005 25.905ZM66.2124 27.105C65.4524 27.105 64.7874 26.945 64.2174 26.625C63.6574 26.305 63.2274 25.855 62.9274 25.275C62.6274 24.685 62.4774 24 62.4774 23.22C62.4774 22.44 62.6324 21.75 62.9424 21.15C63.2624 20.55 63.7074 20.085 64.2774 19.755C64.8474 19.425 65.5124 19.26 66.2724 19.26C66.8024 19.26 67.3124 19.35 67.8024 19.53C68.2924 19.7 68.6874 19.935 68.9874 20.235L68.5224 21.33C67.8124 20.77 67.0974 20.49 66.3774 20.49C65.6474 20.49 65.0774 20.73 64.6674 21.21C64.2574 21.68 64.0524 22.345 64.0524 23.205C64.0524 24.065 64.2574 24.73 64.6674 25.2C65.0774 25.66 65.6474 25.89 66.3774 25.89C67.1174 25.89 67.8324 25.61 68.5224 25.05L68.9874 26.145C68.6674 26.445 68.2574 26.68 67.7574 26.85C67.2674 27.02 66.7524 27.105 66.2124 27.105ZM77.519 23.25H72.119C72.169 25.02 72.974 25.905 74.534 25.905C75.404 25.905 76.199 25.62 76.919 25.05L77.384 26.13C77.044 26.43 76.609 26.67 76.079 26.85C75.559 27.02 75.034 27.105 74.504 27.105C73.294 27.105 72.344 26.76 71.654 26.07C70.964 25.37 70.619 24.415 70.619 23.205C70.619 22.435 70.769 21.75 71.069 21.15C71.379 20.55 71.809 20.085 72.359 19.755C72.909 19.425 73.534 19.26 74.234 19.26C75.254 19.26 76.054 19.59 76.634 20.25C77.224 20.91 77.519 21.825 77.519 22.995V23.25ZM74.264 20.385C73.694 20.385 73.229 20.555 72.869 20.895C72.509 21.235 72.279 21.72 72.179 22.35H76.184C76.124 21.71 75.929 21.225 75.599 20.895C75.269 20.555 74.824 20.385 74.264 20.385ZM83.9187 19.26C84.5787 19.26 85.1637 19.42 85.6737 19.74C86.1837 20.06 86.5787 20.515 86.8587 21.105C87.1387 21.695 87.2787 22.38 87.2787 23.16C87.2787 23.94 87.1337 24.63 86.8437 25.23C86.5637 25.82 86.1687 26.28 85.6587 26.61C85.1487 26.94 84.5687 27.105 83.9187 27.105C83.3387 27.105 82.8287 26.985 82.3887 26.745C81.9587 26.495 81.6337 26.14 81.4137 25.68V27H79.9137V15.96H81.4137V20.685C81.6337 20.235 81.9587 19.885 82.3887 19.635C82.8287 19.385 83.3387 19.26 83.9187 19.26ZM83.5737 25.905C84.2537 25.905 84.7837 25.665 85.1637 25.185C85.5437 24.695 85.7337 24.02 85.7337 23.16C85.7337 22.31 85.5437 21.65 85.1637 21.18C84.7837 20.71 84.2537 20.475 83.5737 20.475C82.8837 20.475 82.3487 20.71 81.9687 21.18C81.5987 21.65 81.4137 22.32 81.4137 23.19C81.4137 24.06 81.5987 24.73 81.9687 25.2C82.3487 25.67 82.8837 25.905 83.5737 25.905ZM92.9656 27.105C92.2256 27.105 91.5756 26.945 91.0156 26.625C90.4556 26.305 90.0206 25.85 89.7106 25.26C89.4106 24.67 89.2606 23.98 89.2606 23.19C89.2606 22.4 89.4106 21.71 89.7106 21.12C90.0206 20.52 90.4556 20.06 91.0156 19.74C91.5756 19.42 92.2256 19.26 92.9656 19.26C93.6956 19.26 94.3406 19.42 94.9006 19.74C95.4606 20.06 95.8906 20.52 96.1906 21.12C96.5006 21.71 96.6556 22.4 96.6556 23.19C96.6556 23.98 96.5006 24.67 96.1906 25.26C95.8906 25.85 95.4606 26.305 94.9006 26.625C94.3406 26.945 93.6956 27.105 92.9656 27.105ZM92.9506 25.905C93.6506 25.905 94.1856 25.675 94.5556 25.215C94.9256 24.755 95.1106 24.08 95.1106 23.19C95.1106 22.32 94.9206 21.65 94.5406 21.18C94.1706 20.71 93.6456 20.475 92.9656 20.475C92.2756 20.475 91.7406 20.71 91.3606 21.18C90.9806 21.65 90.7906 22.32 90.7906 23.19C90.7906 24.08 90.9756 24.755 91.3456 25.215C91.7256 25.675 92.2606 25.905 92.9506 25.905ZM102.338 27.105C101.598 27.105 100.948 26.945 100.388 26.625C99.8277 26.305 99.3927 25.85 99.0827 25.26C98.7827 24.67 98.6327 23.98 98.6327 23.19C98.6327 22.4 98.7827 21.71 99.0827 21.12C99.3927 20.52 99.8277 20.06 100.388 19.74C100.948 19.42 101.598 19.26 102.338 19.26C103.068 19.26 103.713 19.42 104.273 19.74C104.833 20.06 105.263 20.52 105.563 21.12C105.873 21.71 106.028 22.4 106.028 23.19C106.028 23.98 105.873 24.67 105.563 25.26C105.263 25.85 104.833 26.305 104.273 26.625C103.713 26.945 103.068 27.105 102.338 27.105ZM102.323 25.905C103.023 25.905 103.558 25.675 103.928 25.215C104.298 24.755 104.483 24.08 104.483 23.19C104.483 22.32 104.293 21.65 103.913 21.18C103.543 20.71 103.018 20.475 102.338 20.475C101.648 20.475 101.113 20.71 100.733 21.18C100.353 21.65 100.163 22.32 100.163 23.19C100.163 24.08 100.348 24.755 100.718 25.215C101.098 25.675 101.633 25.905 102.323 25.905ZM113.57 27L109.955 23.43V27H108.455V15.96H109.955V22.86L113.315 19.455H115.19L111.575 23.085L115.505 27H113.57Z" fill="white"/>
<path d="M29.3569 14.8227H31V12.1197C30.7165 12.0829 29.7416 12 28.6062 12C26.2371 12 24.6143 13.4075 24.6143 15.9943V18.375H22V21.3967H24.6143V29H27.8195V21.3975H30.3281L30.7263 18.3757H27.8188V16.2939C27.8195 15.4205 28.0685 14.8227 29.3569 14.8227Z" fill="white"/>
</svg>
