<svg width="18" height="18" viewBox="0 0 18 18" fill="none" xmlns="http://www.w3.org/2000/svg">
<g clip-path="url(#clip0)">
<path d="M17.5146 7.82915C17.5141 7.82873 17.5137 7.82819 17.5133 7.82777L10.1707 0.485459C9.85769 0.172348 9.44158 0 8.99897 0C8.55636 0 8.14025 0.172348 7.82714 0.485459L0.488392 7.82407C0.48592 7.82654 0.483311 7.82915 0.480976 7.83162C-0.161725 8.47803 -0.160626 9.52681 0.484135 10.1716C0.778707 10.4663 1.16762 10.6368 1.58359 10.6548C1.60062 10.6565 1.61765 10.6573 1.63482 10.6573H1.92733V16.0607C1.92733 17.1301 2.79745 18 3.86683 18H6.73949C7.03076 18 7.26683 17.7638 7.26683 17.4727V13.2364C7.26683 12.7484 7.66385 12.3515 8.15178 12.3515H9.84615C10.3341 12.3515 10.731 12.7484 10.731 13.2364V17.4727C10.731 17.7638 10.967 18 11.2583 18H14.131C15.2005 18 16.0705 17.1301 16.0705 16.0607V10.6573H16.3418C16.7843 10.6573 17.2004 10.485 17.5137 10.1717C18.1591 9.52599 18.1594 8.47528 17.5146 7.82915ZM16.7678 9.42601C16.654 9.53986 16.5026 9.60262 16.3418 9.60262H15.5431C15.2519 9.60262 15.0158 9.83869 15.0158 10.13V16.0607C15.0158 16.5485 14.6189 16.9453 14.131 16.9453H11.7857V13.2364C11.7857 12.167 10.9157 11.2968 9.84615 11.2968H8.15178C7.08226 11.2968 6.21214 12.167 6.21214 13.2364V16.9453H3.86683C3.37904 16.9453 2.98202 16.5485 2.98202 16.0607V10.13C2.98202 9.83869 2.74595 9.60262 2.45467 9.60262H1.6697C1.66146 9.60207 1.65336 9.60166 1.64498 9.60152C1.48788 9.59877 1.34052 9.53642 1.23011 9.42587C0.995275 9.19104 0.995275 8.80885 1.23011 8.57388C1.23025 8.57388 1.23025 8.57375 1.23038 8.57361L1.23079 8.5732L8.57311 1.23116C8.68682 1.11731 8.83802 1.05469 8.99897 1.05469C9.15978 1.05469 9.31098 1.11731 9.42483 1.23116L16.7655 8.57169C16.7666 8.57278 16.7678 8.57388 16.7689 8.57498C17.0025 8.81023 17.0021 9.19159 16.7678 9.42601Z" fill="white"/>
</g>
<defs>
<clipPath id="clip0">
<rect width="18" height="18" fill="white"/>
</clipPath>
</defs>
</svg>
