<svg width="21" height="20" viewBox="0 0 21 20" fill="none" xmlns="http://www.w3.org/2000/svg">
<path d="M20.3273 7.50678L18.8959 6.22V3.67012C18.8959 2.80847 18.1157 2.10745 17.1567 2.10745H14.322L12.1058 0.114934C12.0242 0.0416842 11.9137 0.0004688 11.7984 0.000429734L10.1787 0C10.0634 0 9.95272 0.0411372 9.87119 0.114348L7.65164 2.10749H4.80895C3.84999 2.10749 3.06982 2.8085 3.06982 3.67016V6.22411L1.6393 7.50651C1.21604 7.88663 0.98291 8.39211 0.98291 8.92986V17.9877C0.98291 18.5297 1.22308 19.022 1.6123 19.3842C1.62069 19.3932 1.62943 19.4021 1.63887 19.4106C1.64826 19.419 1.65808 19.4268 1.66808 19.4343C2.07117 19.7841 2.61912 20 3.22247 20H16.0264C16.2665 20 16.4612 19.8251 16.4612 19.6093C16.4612 19.3936 16.2665 19.2187 16.0264 19.2187H3.22243C3.00299 19.2187 2.79565 19.1718 2.61156 19.089L7.73629 14.4843L9.40472 15.9825C9.82767 16.3624 10.3898 16.5715 10.9878 16.5715C11.586 16.5714 12.149 16.3619 12.5719 15.9817L14.2334 14.4878L19.3541 19.089C19.1701 19.1718 18.9627 19.2187 18.7433 19.2187H12.9394C12.6993 19.2187 12.5046 19.3936 12.5046 19.6093C12.5046 19.8251 12.6993 20 12.9394 20H18.7433C19.3466 20 19.8946 19.7842 20.2977 19.4344C20.3077 19.4269 20.3176 19.419 20.327 19.4106C20.3364 19.4021 20.3451 19.3932 20.3536 19.3842C20.7427 19.022 20.9829 18.5297 20.9829 17.9877V8.92928C20.9829 8.39203 20.7501 7.88686 20.3273 7.50678ZM18.8959 7.3252L19.7123 8.05911C19.7877 8.12689 19.8529 8.20135 19.9079 8.28073L18.8959 9.1906V7.3252ZM10.3585 0.781373L11.618 0.781764L13.0925 2.10749H8.88172L10.3585 0.781373ZM2.25373 8.05942L3.06986 7.32778V9.18931L2.05817 8.28085C2.11317 8.2015 2.17839 8.12708 2.25373 8.05942ZM1.99669 18.5366C1.9046 18.3712 1.85247 18.1849 1.85247 17.9877V9.20071L7.12124 13.932L1.99669 18.5366ZM11.9569 15.4294C11.6982 15.662 11.3542 15.7901 10.9883 15.7902C10.6225 15.7902 10.2782 15.6622 10.0195 15.4299L3.93943 9.97013V3.67012C3.93943 3.23929 4.32951 2.88879 4.80899 2.88879H17.1568C17.6363 2.88879 18.0264 3.23929 18.0264 3.67012V6.33189C18.0222 6.36295 18.0222 6.39428 18.0264 6.42534V9.97236L11.9569 15.4294ZM20.1133 17.9877C20.1133 18.1849 20.0612 18.3712 19.9691 18.5366L14.8481 13.9352L20.1133 9.20138V17.9877Z" fill="white"/>
<path d="M10.9831 19.2188C10.8688 19.2188 10.7566 19.2606 10.6757 19.3332C10.5949 19.4059 10.5483 19.5067 10.5483 19.6094C10.5483 19.7122 10.5949 19.813 10.6757 19.8856C10.7566 19.9587 10.8688 20.0001 10.9831 20.0001C11.0975 20.0001 11.2096 19.9587 11.2905 19.8856C11.3714 19.813 11.4179 19.7122 11.4179 19.6094C11.4179 19.5067 11.3714 19.4059 11.2905 19.3332C11.2096 19.2606 11.0975 19.2188 10.9831 19.2188Z" fill="white"/>
<path d="M10.983 4.52734C8.71945 4.52734 6.87793 6.18197 6.87793 8.21586C6.87793 10.2776 8.74467 11.9549 11.0392 11.9549H13.6817C13.9219 11.9549 14.1165 11.78 14.1165 11.5642C14.1165 11.3485 13.9219 11.1736 13.6817 11.1736H11.0392C9.22414 11.1736 7.74749 9.84674 7.74749 8.21586C7.74749 6.61284 9.19892 5.30868 10.983 5.30868C12.7671 5.30868 14.2185 6.61284 14.2185 8.21586V9.01646C14.2185 9.32415 13.9399 9.57445 13.5975 9.57445C13.255 9.57445 12.9764 9.32415 12.9764 9.01646V8.11218C12.9764 7.04257 12.008 6.1724 10.8176 6.1724C9.56588 6.1724 8.54758 7.08742 8.54758 8.21215C8.54758 9.33684 9.56592 10.2519 10.8176 10.2519H11.5093C11.7494 10.2519 11.944 10.0769 11.944 9.8612C11.944 9.64547 11.7494 9.47053 11.5093 9.47053H10.8176C10.0454 9.47053 9.41714 8.90602 9.41714 8.21211C9.41714 7.51825 10.0454 6.95374 10.8176 6.95374C11.5285 6.95374 12.1069 7.47344 12.1069 8.11218V9.01646C12.1069 9.75497 12.7755 10.3558 13.5975 10.3558C14.4194 10.3558 15.0881 9.75497 15.0881 9.01646V8.21586C15.088 6.18197 13.2465 4.52734 10.983 4.52734Z" fill="white"/>
</svg>
