<svg width="18" height="20" viewBox="0 0 18 20" fill="none" xmlns="http://www.w3.org/2000/svg">
<mask id="path-1-outside-1" maskUnits="userSpaceOnUse" x="0" y="0" width="18" height="20" fill="black">
<rect fill="white" width="18" height="20"/>
<path fill-rule="evenodd" clip-rule="evenodd" d="M14.5782 10.4907V7.5473C14.5924 5.30323 13.0663 3.81482 11.7549 3.22214C11.3793 3.05229 10.992 2.92138 10.5985 2.82418V2.63633C10.5985 1.73406 9.85608 1 8.94356 1C8.03105 1 7.28865 1.73406 7.28865 2.63633V2.85266C6.93417 2.94724 6.58565 3.07062 6.24739 3.22509C4.79835 3.88551 3.33012 5.47734 3.31688 7.54534V10.4907C3.31688 12.5813 2.57018 14.3751 1.09765 15.8222C1.00994 15.9086 0.978163 16.0359 1.01523 16.1528C1.0523 16.2696 1.15259 16.356 1.27472 16.377L4.41607 16.9133C5.00124 17.0132 5.54008 17.095 6.05277 17.1624C6.63033 18.2816 7.76461 19 9.0038 19C10.2433 19 11.3779 18.2813 11.9552 17.1614C12.4659 17.0943 13.0021 17.0128 13.5839 16.9133L16.7249 16.377C16.8471 16.3563 16.947 16.2696 16.9844 16.1528C17.0218 16.0363 16.9901 15.9086 16.902 15.8222C15.3603 14.3067 14.5782 12.5129 14.5782 10.4907ZM7.95093 2.63638C7.95093 2.09508 8.39643 1.65458 8.94387 1.65458C9.49132 1.65458 9.93682 2.09508 9.93682 2.63638V2.69594C9.27717 2.60234 8.60793 2.60627 7.95093 2.71132V2.63638ZM6.88062 17.2602C7.38338 17.9334 8.16648 18.3451 9.00452 18.3451C9.84257 18.3451 10.626 17.9331 11.1291 17.2592C10.3864 17.3355 9.69363 17.3735 9.00088 17.3735C8.31079 17.3735 7.62036 17.3355 6.88062 17.2602Z"/>
</mask>
<path fill-rule="evenodd" clip-rule="evenodd" d="M14.5782 10.4907V7.5473C14.5924 5.30323 13.0663 3.81482 11.7549 3.22214C11.3793 3.05229 10.992 2.92138 10.5985 2.82418V2.63633C10.5985 1.73406 9.85608 1 8.94356 1C8.03105 1 7.28865 1.73406 7.28865 2.63633V2.85266C6.93417 2.94724 6.58565 3.07062 6.24739 3.22509C4.79835 3.88551 3.33012 5.47734 3.31688 7.54534V10.4907C3.31688 12.5813 2.57018 14.3751 1.09765 15.8222C1.00994 15.9086 0.978163 16.0359 1.01523 16.1528C1.0523 16.2696 1.15259 16.356 1.27472 16.377L4.41607 16.9133C5.00124 17.0132 5.54008 17.095 6.05277 17.1624C6.63033 18.2816 7.76461 19 9.0038 19C10.2433 19 11.3779 18.2813 11.9552 17.1614C12.4659 17.0943 13.0021 17.0128 13.5839 16.9133L16.7249 16.377C16.8471 16.3563 16.947 16.2696 16.9844 16.1528C17.0218 16.0363 16.9901 15.9086 16.902 15.8222C15.3603 14.3067 14.5782 12.5129 14.5782 10.4907ZM7.95093 2.63638C7.95093 2.09508 8.39643 1.65458 8.94387 1.65458C9.49132 1.65458 9.93682 2.09508 9.93682 2.63638V2.69594C9.27717 2.60234 8.60793 2.60627 7.95093 2.71132V2.63638ZM6.88062 17.2602C7.38338 17.9334 8.16648 18.3451 9.00452 18.3451C9.84257 18.3451 10.626 17.9331 11.1291 17.2592C10.3864 17.3355 9.69363 17.3735 9.00088 17.3735C8.31079 17.3735 7.62036 17.3355 6.88062 17.2602Z" fill="#FDFEFF"/>
<path d="M14.5782 7.5473L14.2782 7.5454V7.5473H14.5782ZM11.7549 3.22214L11.6313 3.4955L11.6314 3.49552L11.7549 3.22214ZM10.5985 2.82418H10.2985V3.0591L10.5265 3.11543L10.5985 2.82418ZM7.28865 2.85266L7.36599 3.14252L7.58865 3.08311V2.85266H7.28865ZM6.24739 3.22509L6.3718 3.49807L6.372 3.49798L6.24739 3.22509ZM3.31688 7.54534L3.01688 7.54341V7.54534H3.31688ZM1.09765 15.8222L0.887365 15.6083L0.887119 15.6085L1.09765 15.8222ZM1.01523 16.1528L0.729281 16.2435H0.729281L1.01523 16.1528ZM1.27472 16.377L1.22401 16.6726L1.22423 16.6727L1.27472 16.377ZM4.41607 16.9133L4.36557 17.2091L4.36562 17.2091L4.41607 16.9133ZM6.05277 17.1624L6.31937 17.0248L6.24743 16.8854L6.09188 16.865L6.05277 17.1624ZM11.9552 17.1614L11.9161 16.864L11.7604 16.8844L11.6885 17.024L11.9552 17.1614ZM13.5839 16.9133L13.5334 16.6176L13.5334 16.6176L13.5839 16.9133ZM16.7249 16.377L16.675 16.0811L16.6744 16.0812L16.7249 16.377ZM16.9844 16.1528L16.6988 16.0611L16.6987 16.0613L16.9844 16.1528ZM16.902 15.8222L16.6917 16.0362L16.6919 16.0364L16.902 15.8222ZM9.93682 2.69594L9.89467 2.99296L10.2368 3.04151V2.69594H9.93682ZM7.95093 2.71132H7.65093V3.0631L7.9983 3.00756L7.95093 2.71132ZM6.88062 17.2602L6.91098 16.9618L6.23166 16.8926L6.64025 17.4397L6.88062 17.2602ZM11.1291 17.2592L11.3695 17.4387L11.7784 16.891L11.0985 16.9608L11.1291 17.2592ZM14.2782 7.5473V10.4907H14.8782V7.5473H14.2782ZM11.6314 3.49552C12.8678 4.05436 14.2915 5.45245 14.2782 7.5454L14.8782 7.5492C14.8934 5.15401 13.2647 3.57529 11.8785 2.94877L11.6314 3.49552ZM10.5265 3.11543C10.9037 3.20858 11.2735 3.33371 11.6313 3.4955L11.8785 2.94878C11.485 2.77087 11.0803 2.63419 10.6704 2.53294L10.5265 3.11543ZM10.2985 2.63633V2.82418H10.8985V2.63633H10.2985ZM8.94356 1.3C9.69359 1.3 10.2985 1.90293 10.2985 2.63633H10.8985C10.8985 1.56519 10.0186 0.7 8.94356 0.7V1.3ZM7.58865 2.63633C7.58865 1.90293 8.19353 1.3 8.94356 1.3V0.7C7.86856 0.7 6.98865 1.56519 6.98865 2.63633H7.58865ZM7.58865 2.85266V2.63633H6.98865V2.85266H7.58865ZM6.372 3.49798C6.69433 3.35079 7.02698 3.23297 7.36599 3.14252L7.21132 2.5628C6.84137 2.6615 6.47697 2.79045 6.12277 2.95219L6.372 3.49798ZM3.61687 7.54726C3.62918 5.6253 4.99966 4.12345 6.3718 3.49807L6.12297 2.9521C4.59704 3.64757 3.03106 5.32937 3.01688 7.54341L3.61687 7.54726ZM3.61688 10.4907V7.54534H3.01688V10.4907H3.61688ZM1.30793 16.0362C2.83866 14.5318 3.61688 12.6607 3.61688 10.4907H3.01688C3.01688 12.502 2.30171 14.2183 0.887365 15.6083L1.30793 16.0362ZM1.30118 16.0621C1.29847 16.0535 1.30036 16.0437 1.30817 16.036L0.887119 15.6085C0.719518 15.7736 0.657851 16.0184 0.729281 16.2435L1.30118 16.0621ZM1.32543 16.0813C1.31175 16.0789 1.30368 16.0699 1.30118 16.0621L0.729281 16.2435C0.800922 16.4693 0.993429 16.6331 1.22401 16.6726L1.32543 16.0813ZM4.46656 16.6176L1.32522 16.0812L1.22423 16.6727L4.36557 17.2091L4.46656 16.6176ZM6.09188 16.865C5.5834 16.7981 5.04836 16.7169 4.46651 16.6176L4.36562 17.2091C4.95413 17.3095 5.49676 17.3919 6.01366 17.4598L6.09188 16.865ZM9.0038 18.7C7.88236 18.7 6.84802 18.0493 6.31937 17.0248L5.78617 17.3C6.41264 18.514 7.64685 19.3 9.0038 19.3V18.7ZM11.6885 17.024C11.1602 18.049 10.1256 18.7 9.0038 18.7V19.3C10.3611 19.3 11.5957 18.5136 12.2218 17.2989L11.6885 17.024ZM13.5334 16.6176C12.9549 16.7165 12.4225 16.7974 11.9161 16.864L11.9942 17.4589C12.5092 17.3912 13.0492 17.3091 13.6345 17.2091L13.5334 16.6176ZM16.6744 16.0812L13.5334 16.6176L13.6344 17.2091L16.7754 16.6727L16.6744 16.0812ZM16.6987 16.0613C16.6957 16.0709 16.687 16.0791 16.675 16.0811L16.7749 16.6728C17.0072 16.6336 17.1984 16.4684 17.2701 16.2442L16.6987 16.0613ZM16.6919 16.0364C16.6997 16.044 16.7012 16.0536 16.6988 16.0611L17.2701 16.2445C17.3424 16.019 17.2804 15.7733 17.1121 15.6081L16.6919 16.0364ZM14.2782 10.4907C14.2782 12.5994 15.097 14.4686 16.6917 16.0362L17.1123 15.6083C15.6235 14.1448 14.8782 12.4265 14.8782 10.4907H14.2782ZM8.94387 1.35458C8.23394 1.35458 7.65093 1.92621 7.65093 2.63638H8.25093C8.25093 2.26395 8.55891 1.95458 8.94387 1.95458V1.35458ZM10.2368 2.63638C10.2368 1.92621 9.6538 1.35458 8.94387 1.35458V1.95458C9.32883 1.95458 9.63682 2.26395 9.63682 2.63638H10.2368ZM10.2368 2.69594V2.63638H9.63682V2.69594H10.2368ZM7.9983 3.00756C8.62505 2.90734 9.26412 2.90349 9.89467 2.99296L9.97896 2.39891C9.29022 2.30119 8.5908 2.3052 7.90356 2.41508L7.9983 3.00756ZM7.65093 2.63638V2.71132H8.25093V2.63638H7.65093ZM9.00452 18.0451C8.26589 18.0451 7.57002 17.682 7.12098 17.0807L6.64025 17.4397C7.19673 18.1849 8.06707 18.6451 9.00452 18.6451V18.0451ZM10.8887 17.0798C10.4393 17.6817 9.74308 18.0451 9.00452 18.0451V18.6451C9.94206 18.6451 10.8127 18.1845 11.3695 17.4387L10.8887 17.0798ZM9.00088 17.6735C9.70493 17.6735 10.408 17.6349 11.1597 17.5577L11.0985 16.9608C10.3648 17.0361 9.68233 17.0735 9.00088 17.0735V17.6735ZM6.85025 17.5587C7.59883 17.6349 8.29946 17.6735 9.00088 17.6735V17.0735C8.32211 17.0735 7.64188 17.0361 6.91098 16.9618L6.85025 17.5587Z" fill="#FDFEFF" mask="url(#path-1-outside-1)"/>
</svg>
