<svg width="20" height="22" viewBox="0 0 20 22" fill="none" xmlns="http://www.w3.org/2000/svg">
<mask id="path-1-outside-1" maskUnits="userSpaceOnUse" x="-0.0170898" y="0" width="20" height="22" fill="black">
<rect fill="white" x="-0.0170898" width="20" height="22"/>
<path fill-rule="evenodd" clip-rule="evenodd" d="M16.2585 8.27478V11.5453C16.2585 13.7921 17.1384 15.7852 18.8728 17.4692C18.9719 17.5652 19.0076 17.707 18.9655 17.8364C18.9235 17.9662 18.811 18.0626 18.6736 18.0855L15.1399 18.6815C14.4853 18.792 13.8821 18.8826 13.3076 18.9571C12.6582 20.2015 11.3817 21 9.98727 21C8.59316 21 7.31709 20.2018 6.66733 18.9582C6.09055 18.8833 5.48435 18.7924 4.82602 18.6815L1.29198 18.0855C1.15458 18.0622 1.04175 17.9662 1.00005 17.8364C0.958343 17.7066 0.994089 17.5652 1.09276 17.4692C2.74938 15.8612 3.58942 13.8681 3.58942 11.5453V8.27259C3.60431 5.97482 5.25609 4.20612 6.88627 3.47232C7.26682 3.30069 7.65891 3.1636 8.05771 3.05851V2.81815C8.05771 1.81562 8.89291 1 9.9195 1C10.9461 1 11.7813 1.81562 11.7813 2.81815V3.02687C12.224 3.13487 12.6597 3.28032 13.0823 3.46905C14.5576 4.12758 16.2745 5.78137 16.2585 8.27478ZM9.91983 1.72723C9.30395 1.72723 8.80276 2.21668 8.80276 2.81812V2.90139C9.54189 2.78467 10.2948 2.78031 11.0369 2.8843V2.81812C11.0369 2.21668 10.5357 1.72723 9.91983 1.72723ZM9.98806 20.2723C9.04526 20.2723 8.16426 19.8149 7.59865 19.0669C8.43087 19.1505 9.2076 19.1927 9.98397 19.1927C10.7633 19.1927 11.5427 19.1505 12.3782 19.0658C11.8122 19.8145 10.9309 20.2723 9.98806 20.2723ZM13.0253 18.2596C13.6442 18.1825 14.2991 18.0847 15.0137 17.9643L17.8644 17.484C16.3236 15.7793 15.5138 13.7393 15.5138 11.5456V8.27289C15.5268 6.26165 14.1465 4.74386 12.7728 4.13042C12.3122 3.92497 11.8341 3.77515 11.3486 3.67625C11.3463 3.6759 11.344 3.67621 11.3417 3.67651C11.3392 3.67685 11.3366 3.67719 11.334 3.67661C10.4058 3.4908 9.42944 3.49989 8.51158 3.70134C8.50971 3.7017 8.50776 3.70179 8.5058 3.70188C8.50385 3.70197 8.50189 3.70206 8.50003 3.70243C8.05581 3.8017 7.61903 3.94315 7.1979 4.1326C5.78182 4.77041 4.34676 6.29838 4.3341 8.27471V11.5452C4.3341 13.8332 3.58305 15.8273 2.09995 17.4833L4.95221 17.964C5.66974 18.0847 6.32733 18.1833 6.94842 18.26H6.95177C7.2221 18.2934 7.48499 18.3229 7.74266 18.348L7.76798 18.3502C7.99847 18.3727 8.22412 18.3909 8.44716 18.4065C8.49381 18.4098 8.54009 18.4127 8.58637 18.4156L8.58716 18.4156C8.7834 18.4283 8.97739 18.4378 9.1699 18.4454C9.1906 18.4462 9.21138 18.4471 9.23217 18.448C9.2529 18.4489 9.27363 18.4498 9.29427 18.4505C9.75711 18.4654 10.214 18.4654 10.6772 18.4502C10.7012 18.4495 10.7253 18.4485 10.7493 18.4474C10.7653 18.4467 10.7812 18.446 10.7971 18.4454C10.993 18.4382 11.1899 18.428 11.3892 18.4153C11.4317 18.4127 11.4747 18.4098 11.5177 18.4069L11.5184 18.4069C11.7485 18.3909 11.9808 18.372 12.2188 18.3487C12.2198 18.3487 12.2208 18.3486 12.2218 18.3485C12.2228 18.3484 12.2239 18.3483 12.2251 18.3483C12.4846 18.3229 12.7497 18.2934 13.0227 18.2596H13.0253Z"/>
</mask>
<path fill-rule="evenodd" clip-rule="evenodd" d="M16.2585 8.27478V11.5453C16.2585 13.7921 17.1384 15.7852 18.8728 17.4692C18.9719 17.5652 19.0076 17.707 18.9655 17.8364C18.9235 17.9662 18.811 18.0626 18.6736 18.0855L15.1399 18.6815C14.4853 18.792 13.8821 18.8826 13.3076 18.9571C12.6582 20.2015 11.3817 21 9.98727 21C8.59316 21 7.31709 20.2018 6.66733 18.9582C6.09055 18.8833 5.48435 18.7924 4.82602 18.6815L1.29198 18.0855C1.15458 18.0622 1.04175 17.9662 1.00005 17.8364C0.958343 17.7066 0.994089 17.5652 1.09276 17.4692C2.74938 15.8612 3.58942 13.8681 3.58942 11.5453V8.27259C3.60431 5.97482 5.25609 4.20612 6.88627 3.47232C7.26682 3.30069 7.65891 3.1636 8.05771 3.05851V2.81815C8.05771 1.81562 8.89291 1 9.9195 1C10.9461 1 11.7813 1.81562 11.7813 2.81815V3.02687C12.224 3.13487 12.6597 3.28032 13.0823 3.46905C14.5576 4.12758 16.2745 5.78137 16.2585 8.27478ZM9.91983 1.72723C9.30395 1.72723 8.80276 2.21668 8.80276 2.81812V2.90139C9.54189 2.78467 10.2948 2.78031 11.0369 2.8843V2.81812C11.0369 2.21668 10.5357 1.72723 9.91983 1.72723ZM9.98806 20.2723C9.04526 20.2723 8.16426 19.8149 7.59865 19.0669C8.43087 19.1505 9.2076 19.1927 9.98397 19.1927C10.7633 19.1927 11.5427 19.1505 12.3782 19.0658C11.8122 19.8145 10.9309 20.2723 9.98806 20.2723ZM13.0253 18.2596C13.6442 18.1825 14.2991 18.0847 15.0137 17.9643L17.8644 17.484C16.3236 15.7793 15.5138 13.7393 15.5138 11.5456V8.27289C15.5268 6.26165 14.1465 4.74386 12.7728 4.13042C12.3122 3.92497 11.8341 3.77515 11.3486 3.67625C11.3463 3.6759 11.344 3.67621 11.3417 3.67651C11.3392 3.67685 11.3366 3.67719 11.334 3.67661C10.4058 3.4908 9.42944 3.49989 8.51158 3.70134C8.50971 3.7017 8.50776 3.70179 8.5058 3.70188C8.50385 3.70197 8.50189 3.70206 8.50003 3.70243C8.05581 3.8017 7.61903 3.94315 7.1979 4.1326C5.78182 4.77041 4.34676 6.29838 4.3341 8.27471V11.5452C4.3341 13.8332 3.58305 15.8273 2.09995 17.4833L4.95221 17.964C5.66974 18.0847 6.32733 18.1833 6.94842 18.26H6.95177C7.2221 18.2934 7.48499 18.3229 7.74266 18.348L7.76798 18.3502C7.99847 18.3727 8.22412 18.3909 8.44716 18.4065C8.49381 18.4098 8.54009 18.4127 8.58637 18.4156L8.58716 18.4156C8.7834 18.4283 8.97739 18.4378 9.1699 18.4454C9.1906 18.4462 9.21138 18.4471 9.23217 18.448C9.2529 18.4489 9.27363 18.4498 9.29427 18.4505C9.75711 18.4654 10.214 18.4654 10.6772 18.4502C10.7012 18.4495 10.7253 18.4485 10.7493 18.4474C10.7653 18.4467 10.7812 18.446 10.7971 18.4454C10.993 18.4382 11.1899 18.428 11.3892 18.4153C11.4317 18.4127 11.4747 18.4098 11.5177 18.4069L11.5184 18.4069C11.7485 18.3909 11.9808 18.372 12.2188 18.3487C12.2198 18.3487 12.2208 18.3486 12.2218 18.3485C12.2228 18.3484 12.2239 18.3483 12.2251 18.3483C12.4846 18.3229 12.7497 18.2934 13.0227 18.2596H13.0253Z" fill="white"/>
<path d="M16.2585 8.27478L16.0585 8.27349V8.27478H16.2585ZM18.8728 17.4692L18.7335 17.6126L18.7336 17.6128L18.8728 17.4692ZM18.9655 17.8364L18.7753 17.7746L18.7753 17.7748L18.9655 17.8364ZM18.6736 18.0855L18.6407 17.8882L18.6404 17.8883L18.6736 18.0855ZM15.1399 18.6815L15.1067 18.4843L15.1066 18.4843L15.1399 18.6815ZM13.3076 18.9571L13.2818 18.7588L13.1785 18.7722L13.1303 18.8646L13.3076 18.9571ZM6.66733 18.9582L6.84459 18.8656L6.79636 18.7733L6.69308 18.7599L6.66733 18.9582ZM4.82602 18.6815L4.79276 18.8787L4.79279 18.8787L4.82602 18.6815ZM1.29198 18.0855L1.25858 18.2827L1.25872 18.2827L1.29198 18.0855ZM1.09276 17.4692L0.953465 17.3256L0.9533 17.3258L1.09276 17.4692ZM3.58942 8.27259L3.38942 8.2713V8.27259H3.58942ZM6.88627 3.47232L6.96837 3.65469L6.9685 3.65463L6.88627 3.47232ZM8.05771 3.05851L8.10867 3.25191L8.25771 3.21263V3.05851H8.05771ZM11.7813 3.02687H11.5813V3.18395L11.7339 3.22117L11.7813 3.02687ZM13.0823 3.46905L13.0008 3.65167L13.0008 3.65168L13.0823 3.46905ZM8.80276 2.90139H8.60276V3.13546L8.83395 3.09895L8.80276 2.90139ZM11.0369 2.8843L11.0091 3.08237L11.2369 3.11429V2.8843H11.0369ZM7.59865 19.0669L7.61865 18.8679L7.16278 18.8221L7.43912 19.1875L7.59865 19.0669ZM12.3782 19.0658L12.5378 19.1864L12.8143 18.8205L12.3581 18.8668L12.3782 19.0658ZM15.0137 17.9643L15.0469 18.1616L15.0469 18.1616L15.0137 17.9643ZM13.0253 18.2596V18.4596H13.0377L13.05 18.4581L13.0253 18.2596ZM17.8644 17.484L17.8977 17.6812L18.2575 17.6206L18.0128 17.3499L17.8644 17.484ZM15.5138 8.27289L15.3138 8.27159V8.27289H15.5138ZM12.7728 4.13042L12.8544 3.9478L12.8543 3.94777L12.7728 4.13042ZM11.3486 3.67625L11.3885 3.48001L11.3783 3.47847L11.3486 3.67625ZM11.3417 3.67651L11.368 3.87477L11.368 3.87477L11.3417 3.67651ZM11.334 3.67661L11.378 3.48145L11.3733 3.4805L11.334 3.67661ZM8.51158 3.70134L8.54991 3.89768L8.55445 3.89669L8.51158 3.70134ZM8.5058 3.70188L8.51509 3.90167L8.51509 3.90167L8.5058 3.70188ZM8.50003 3.70243L8.46168 3.50607L8.45641 3.50724L8.50003 3.70243ZM7.1979 4.1326L7.11585 3.95021L7.11576 3.95025L7.1979 4.1326ZM4.3341 8.27471L4.1341 8.27343V8.27471H4.3341ZM2.09995 17.4833L1.95097 17.3498L1.70885 17.6202L2.06671 17.6805L2.09995 17.4833ZM4.95221 17.964L4.91897 18.1612L4.91903 18.1612L4.95221 17.964ZM6.94842 18.26L6.9239 18.4585L6.93611 18.46H6.94842V18.26ZM6.95177 18.26L6.97633 18.0615L6.9641 18.06H6.95177V18.26ZM7.74266 18.348L7.72327 18.547L7.72549 18.5472L7.74266 18.348ZM7.76798 18.3502L7.78745 18.1511L7.78515 18.1509L7.76798 18.3502ZM8.44716 18.4065L8.43317 18.606L8.43325 18.606L8.44716 18.4065ZM8.58637 18.4156L8.59934 18.216L8.59885 18.216L8.58637 18.4156ZM8.58716 18.4156L8.57419 18.6152L8.57422 18.6152L8.58716 18.4156ZM9.1699 18.4454L9.16197 18.6453L9.16287 18.6453L9.1699 18.4454ZM9.23217 18.448L9.24092 18.2482H9.24092L9.23217 18.448ZM9.29427 18.4505L9.28723 18.6504L9.28783 18.6504L9.29427 18.4505ZM10.6772 18.4502L10.6717 18.2502L10.6706 18.2503L10.6772 18.4502ZM10.7493 18.4474L10.758 18.6472H10.7581L10.7493 18.4474ZM10.7971 18.4454L10.8044 18.6453L10.8045 18.6453L10.7971 18.4454ZM11.3892 18.4153L11.3773 18.2156L11.3764 18.2157L11.3892 18.4153ZM11.5177 18.4069L11.5045 18.2074L11.5042 18.2074L11.5177 18.4069ZM11.5184 18.4069L11.5315 18.6065L11.5322 18.6064L11.5184 18.4069ZM12.2188 18.3487V18.1487H12.209L12.1993 18.1497L12.2188 18.3487ZM12.2218 18.3485L12.2394 18.5478L12.2397 18.5477L12.2218 18.3485ZM12.2251 18.3483V18.5483H12.2349L12.2446 18.5474L12.2251 18.3483ZM13.0227 18.2596V18.0596H13.0103L12.9981 18.0611L13.0227 18.2596ZM16.4585 11.5453V8.27478H16.0585V11.5453H16.4585ZM19.0121 17.3257C17.3132 15.6762 16.4585 13.7336 16.4585 11.5453H16.0585C16.0585 13.8506 16.9636 15.8942 18.7335 17.6126L19.0121 17.3257ZM19.1558 17.8982C19.2218 17.6951 19.165 17.4738 19.012 17.3255L18.7336 17.6128C18.7787 17.6565 18.7935 17.7189 18.7753 17.7746L19.1558 17.8982ZM18.7065 18.2828C18.9162 18.2478 19.0903 18.1002 19.1558 17.8981L18.7753 17.7748C18.7567 17.8323 18.7058 17.8774 18.6407 17.8882L18.7065 18.2828ZM15.1732 18.8787L18.7069 18.2827L18.6404 17.8883L15.1067 18.4843L15.1732 18.8787ZM13.3333 19.1555C13.9107 19.0806 14.5164 18.9896 15.1733 18.8787L15.1066 18.4843C14.4543 18.5945 13.8536 18.6846 13.2818 18.7588L13.3333 19.1555ZM9.98727 21.2C11.459 21.2 12.8023 20.3576 13.4849 19.0497L13.1303 18.8646C12.5141 20.0453 11.3045 20.8 9.98727 20.8V21.2ZM6.49006 19.0508C7.17303 20.358 8.51596 21.2 9.98727 21.2V20.8C8.67036 20.8 7.46115 20.0457 6.84459 18.8656L6.49006 19.0508ZM4.79279 18.8787C5.45332 18.99 6.06202 19.0813 6.64157 19.1566L6.69308 18.7599C6.11907 18.6853 5.51538 18.5948 4.85924 18.4843L4.79279 18.8787ZM1.25872 18.2827L4.79276 18.8787L4.85928 18.4843L1.32523 17.8883L1.25872 18.2827ZM0.809632 17.8976C0.874923 18.1008 1.04999 18.2474 1.25858 18.2827L1.32537 17.8883C1.25916 17.8771 1.20858 17.8316 1.19046 17.7752L0.809632 17.8976ZM0.9533 17.3258C0.800902 17.4741 0.744389 17.6945 0.809632 17.8976L1.19046 17.7752C1.1723 17.7187 1.18728 17.6562 1.23223 17.6125L0.9533 17.3258ZM3.38942 11.5453C3.38942 13.8144 2.57101 15.7556 0.953465 17.3256L1.23206 17.6127C2.92775 15.9668 3.78942 13.9218 3.78942 11.5453H3.38942ZM3.38942 8.27259V11.5453H3.78942V8.27259H3.38942ZM6.80418 3.28994C5.12349 4.04648 3.40496 5.87477 3.38942 8.2713L3.78942 8.27389C3.80367 6.07486 5.38869 4.36576 6.96837 3.65469L6.80418 3.28994ZM8.00675 2.86511C7.59774 2.97289 7.19515 3.11361 6.80405 3.29L6.9685 3.65463C7.33849 3.48776 7.72009 3.3543 8.10867 3.25191L8.00675 2.86511ZM7.85771 2.81815V3.05851H8.25771V2.81815H7.85771ZM9.9195 0.8C8.78695 0.8 7.85771 1.70072 7.85771 2.81815H8.25771C8.25771 1.93052 8.99887 1.2 9.9195 1.2V0.8ZM11.9813 2.81815C11.9813 1.70072 11.052 0.8 9.9195 0.8V1.2C10.8401 1.2 11.5813 1.93052 11.5813 2.81815H11.9813ZM11.9813 3.02687V2.81815H11.5813V3.02687H11.9813ZM13.1638 3.28643C12.7294 3.09243 12.2822 2.94321 11.8287 2.83257L11.7339 3.22117C12.1658 3.32653 12.5899 3.46822 13.0008 3.65167L13.1638 3.28643ZM16.4585 8.27606C16.4752 5.68048 14.6882 3.96687 13.1638 3.28642L13.0008 3.65168C14.4269 4.28829 16.0739 5.88225 16.0585 8.27349L16.4585 8.27606ZM9.00276 2.81812C9.00276 2.33158 9.40991 1.92723 9.91983 1.92723V1.52723C9.19799 1.52723 8.60276 2.10178 8.60276 2.81812H9.00276ZM9.00276 2.90139V2.81812H8.60276V2.90139H9.00276ZM11.0647 2.68624C10.3034 2.57956 9.53061 2.58397 8.77156 2.70384L8.83395 3.09895C9.55316 2.98537 10.2862 2.98106 11.0091 3.08237L11.0647 2.68624ZM10.8369 2.81812V2.8843H11.2369V2.81812H10.8369ZM9.91983 1.92723C10.4297 1.92723 10.8369 2.33158 10.8369 2.81812H11.2369C11.2369 2.10178 10.6417 1.52723 9.91983 1.52723V1.92723ZM7.43912 19.1875C8.04095 19.9834 8.98001 20.4723 9.98806 20.4723V20.0723C9.1105 20.0723 8.28756 19.6463 7.75817 18.9463L7.43912 19.1875ZM9.98397 18.9927C9.21506 18.9927 8.44504 18.9509 7.61865 18.8679L7.57865 19.2659C8.41669 19.3501 9.20015 19.3927 9.98397 19.3927V18.9927ZM12.3581 18.8668C11.5284 18.9509 10.7559 18.9927 9.98397 18.9927V19.3927C10.7708 19.3927 11.5569 19.3501 12.3984 19.2648L12.3581 18.8668ZM9.98806 20.4723C10.9962 20.4723 11.9356 19.983 12.5378 19.1864L12.2187 18.9452C11.6889 19.646 10.8656 20.0723 9.98806 20.0723V20.4723ZM14.9805 17.7671C14.2681 17.8871 13.616 17.9845 13.0006 18.0612L13.05 18.4581C13.6723 18.3806 14.3301 18.2823 15.0469 18.1616L14.9805 17.7671ZM17.8312 17.2868L14.9804 17.7671L15.0469 18.1616L17.8977 17.6812L17.8312 17.2868ZM15.3138 11.5456C15.3138 13.7916 16.1439 15.8787 17.7161 17.6181L18.0128 17.3499C16.5034 15.6799 15.7138 13.687 15.7138 11.5456H15.3138ZM15.3138 8.27289V11.5456H15.7138V8.27289H15.3138ZM12.6913 4.31304C14.0098 4.90186 15.3262 6.35714 15.3138 8.27159L15.7138 8.27419C15.7274 6.16617 14.2831 4.58587 12.8544 3.9478L12.6913 4.31304ZM11.3086 3.87222C11.7807 3.96837 12.2448 4.11387 12.6914 4.31307L12.8543 3.94777C12.3797 3.73607 11.8876 3.58194 11.3885 3.48027L11.3086 3.87222ZM11.368 3.87477C11.3703 3.87446 11.3645 3.87532 11.3575 3.87575C11.3496 3.87625 11.3358 3.87658 11.3189 3.87403L11.3783 3.47847C11.359 3.47558 11.343 3.47589 11.3328 3.47652C11.3277 3.47684 11.3234 3.47728 11.3206 3.4776C11.318 3.4779 11.3157 3.47821 11.3154 3.47824L11.368 3.87477ZM11.2901 3.87171C11.3136 3.87702 11.3335 3.87728 11.3465 3.87672C11.353 3.87644 11.3583 3.87592 11.3617 3.87555C11.3649 3.87519 11.3677 3.87481 11.368 3.87477L11.3154 3.47824C11.3126 3.47862 11.3202 3.47748 11.3293 3.47709C11.3397 3.47664 11.3571 3.47678 11.378 3.48151L11.2901 3.87171ZM8.55445 3.89669C9.44519 3.70119 10.3935 3.69232 11.2948 3.87272L11.3733 3.4805C10.418 3.28927 9.41368 3.29858 8.4687 3.50599L8.55445 3.89669ZM8.51509 3.90167C8.51546 3.90165 8.52002 3.90146 8.52515 3.90104C8.53063 3.90058 8.53939 3.89968 8.5499 3.89763L8.47325 3.50504C8.48189 3.50336 8.48875 3.50268 8.4923 3.50239C8.4955 3.50212 8.49811 3.50202 8.49652 3.5021L8.51509 3.90167ZM8.53837 3.89872C8.52972 3.90041 8.52285 3.90109 8.5193 3.90138C8.51611 3.90164 8.5135 3.90174 8.51509 3.90167L8.49652 3.5021C8.49615 3.50212 8.49159 3.50231 8.48646 3.50273C8.48098 3.50318 8.47221 3.50408 8.46169 3.50614L8.53837 3.89872ZM7.27995 4.315C7.68785 4.1315 8.11165 3.99415 8.54365 3.89761L8.45641 3.50724C7.99997 3.60925 7.55022 3.7548 7.11585 3.95021L7.27995 4.315ZM4.53409 8.27599C4.54611 6.39931 5.91342 4.93049 7.28003 4.31496L7.11576 3.95025C5.65023 4.61033 4.1474 6.19746 4.1341 8.27343L4.53409 8.27599ZM4.5341 11.5452V8.27471H4.1341V11.5452H4.5341ZM2.24894 17.6167C3.76588 15.9229 4.5341 13.8809 4.5341 11.5452H4.1341C4.1341 13.7854 3.40022 15.7317 1.95097 17.3498L2.24894 17.6167ZM4.98545 17.7668L2.13319 17.2861L2.06671 17.6805L4.91897 18.1612L4.98545 17.7668ZM6.97294 18.0615C6.35543 17.9852 5.70083 17.8871 4.98539 17.7668L4.91903 18.1612C5.63866 18.2823 6.29922 18.3813 6.9239 18.4585L6.97294 18.0615ZM6.95177 18.06H6.94842V18.46H6.95177V18.06ZM7.76204 18.1489C7.50633 18.124 7.24519 18.0948 6.97633 18.0615L6.92721 18.4585C7.19902 18.4921 7.46364 18.5218 7.72327 18.547L7.76204 18.1489ZM7.78515 18.1509L7.75983 18.1487L7.72549 18.5472L7.75081 18.5494L7.78515 18.1509ZM8.46114 18.207C8.2395 18.1915 8.01572 18.1734 7.78745 18.1511L7.74851 18.5492C7.98121 18.572 8.20873 18.5903 8.43317 18.606L8.46114 18.207ZM8.59885 18.216C8.55246 18.2131 8.50688 18.2102 8.46107 18.207L8.43325 18.606C8.48073 18.6094 8.52773 18.6123 8.57389 18.6152L8.59885 18.216ZM8.60013 18.216L8.59934 18.216L8.5734 18.6151L8.57419 18.6152L8.60013 18.216ZM9.17783 18.2456C8.98652 18.238 8.79425 18.2286 8.60011 18.216L8.57422 18.6152C8.77254 18.6281 8.96827 18.6376 9.16197 18.6453L9.17783 18.2456ZM9.24092 18.2482C9.22027 18.2473 9.19863 18.2463 9.17694 18.2456L9.16287 18.6453C9.18256 18.646 9.20249 18.6469 9.22343 18.6478L9.24092 18.2482ZM9.30131 18.2506C9.28167 18.25 9.2618 18.2491 9.24092 18.2482L9.22342 18.6478C9.24401 18.6487 9.26559 18.6496 9.28723 18.6504L9.30131 18.2506ZM10.6706 18.2503C10.2118 18.2654 9.75926 18.2654 9.30071 18.2506L9.28783 18.6504C9.75497 18.6655 10.2162 18.6655 10.6838 18.6501L10.6706 18.2503ZM10.7406 18.2476C10.7163 18.2487 10.6938 18.2496 10.6717 18.2502L10.6827 18.6501C10.7085 18.6494 10.7343 18.6483 10.758 18.6472L10.7406 18.2476ZM10.7898 18.2456C10.7731 18.2462 10.7565 18.2469 10.7406 18.2476L10.7581 18.6472C10.7741 18.6465 10.7893 18.6458 10.8044 18.6453L10.7898 18.2456ZM11.3764 18.2157C11.1788 18.2283 10.9836 18.2384 10.7897 18.2456L10.8045 18.6453C11.0023 18.6379 11.2011 18.6277 11.4019 18.6148L11.3764 18.2157ZM11.5042 18.2074C11.4611 18.2103 11.419 18.2131 11.3773 18.2156L11.401 18.6149C11.4445 18.6123 11.4883 18.6094 11.5311 18.6065L11.5042 18.2074ZM11.5052 18.2073L11.5045 18.2074L11.5308 18.6065L11.5315 18.6065L11.5052 18.2073ZM12.1993 18.1497C11.9635 18.1727 11.733 18.1915 11.5045 18.2074L11.5322 18.6064C11.7639 18.5903 11.9982 18.5712 12.2382 18.5478L12.1993 18.1497ZM12.2041 18.1493C12.2033 18.1494 12.2101 18.1487 12.2188 18.1487V18.5487C12.2295 18.5487 12.2383 18.5479 12.2394 18.5478L12.2041 18.1493ZM12.2251 18.1483C12.2188 18.1483 12.2135 18.1486 12.2099 18.1489C12.208 18.149 12.2065 18.1491 12.2056 18.1492C12.2051 18.1492 12.2047 18.1493 12.2044 18.1493C12.2042 18.1493 12.2041 18.1493 12.204 18.1493C12.2039 18.1493 12.2039 18.1493 12.2039 18.1493L12.2397 18.5477C12.2409 18.5476 12.239 18.5478 12.2369 18.5479C12.2344 18.5481 12.2302 18.5483 12.2251 18.5483V18.1483ZM12.9981 18.0611C12.7268 18.0948 12.4634 18.124 12.2056 18.1493L12.2446 18.5474C12.5059 18.5218 12.7727 18.4921 13.0473 18.4581L12.9981 18.0611ZM13.0253 18.0596H13.0227V18.4596H13.0253V18.0596Z" fill="white" mask="url(#path-1-outside-1)"/>
</svg>
