<svg width="22" height="20" viewBox="0 0 22 20" fill="none" xmlns="http://www.w3.org/2000/svg">
<path fill-rule="evenodd" clip-rule="evenodd" d="M12.9965 15.3995H20.9C21.5083 15.3995 22 15.8912 22 16.4995C22 17.1078 21.5083 17.5995 20.9 17.5995H12.9965C12.5411 18.8766 11.3322 19.7995 9.9 19.7995C8.4678 19.7995 7.2589 18.8766 6.8035 17.5995H1.1C0.4917 17.5995 0 17.1078 0 16.4995C0 15.8912 0.4917 15.3995 1.1 15.3995H6.8035C7.2589 14.1224 8.4678 13.1995 9.9 13.1995C11.3322 13.1995 12.5411 14.1224 12.9965 15.3995ZM8.8 16.5003C8.8 17.1075 9.2928 17.6003 9.9 17.6003C10.5072 17.6003 11 17.1075 11 16.5003C11 15.8931 10.5072 15.4003 9.9 15.4003C9.2928 15.4003 8.8 15.8931 8.8 16.5003Z" fill="white"/>
<path fill-rule="evenodd" clip-rule="evenodd" d="M15.6035 8.8019C16.0589 7.52478 17.2678 6.60187 18.7 6.60187C20.5194 6.60187 22 8.08249 22 9.90191C22 11.7213 20.5194 13.202 18.7 13.202C17.2678 13.202 16.0589 12.279 15.6035 11.0019H1.1C0.4917 11.0019 0 10.5102 0 9.90191C0 9.2936 0.4917 8.8019 1.1 8.8019H15.6035ZM17.6 9.89861C17.6 10.5058 18.0928 10.9986 18.7 10.9986C19.3072 10.9986 19.8 10.5058 19.8 9.89861C19.8 9.2914 19.3072 8.7986 18.7 8.7986C18.0928 8.7986 17.6 9.2914 17.6 9.89861Z" fill="white"/>
<path fill-rule="evenodd" clip-rule="evenodd" d="M2.4035 4.40005H1.1C0.4917 4.40005 0 3.90835 0 3.30004C0 2.69173 0.4917 2.20003 1.1 2.20003H2.4035C2.8589 0.922912 4.0678 0 5.5 0C6.9322 0 8.1411 0.922912 8.5965 2.20003H20.9C21.5083 2.20003 22 2.69173 22 3.30004C22 3.90835 21.5083 4.40005 20.9 4.40005H8.5965C8.1411 5.67717 6.9322 6.60008 5.5 6.60008C4.0678 6.60008 2.8589 5.67717 2.4035 4.40005ZM6.6 3.29921C6.6 2.692 6.1072 2.19919 5.5 2.19919C4.8928 2.19919 4.4 2.692 4.4 3.29921C4.4 3.90642 4.8928 4.39922 5.5 4.39922C6.1072 4.39922 6.6 3.90642 6.6 3.29921Z" fill="white"/>
</svg>
