<svg width="22" height="22" viewBox="0 0 22 22" fill="none" xmlns="http://www.w3.org/2000/svg">
<path d="M10.7992 10.5975C12.2551 10.5975 13.5156 10.0753 14.5458 9.04507C15.5757 8.015 16.0981 6.75464 16.0981 5.29857C16.0981 3.84301 15.5759 2.58248 14.5457 1.55208C13.5154 0.52217 12.2549 0 10.7992 0C9.34309 0 8.08273 0.52217 7.05266 1.55224C6.02258 2.58232 5.50024 3.84284 5.50024 5.29857C5.50024 6.75464 6.02258 8.01517 7.05266 9.04524C8.08307 10.0751 9.3436 10.5975 10.7992 10.5975ZM7.9644 2.46382C8.75479 1.67343 9.68198 1.28923 10.7992 1.28923C11.9162 1.28923 12.8435 1.67343 13.6341 2.46382C14.4245 3.25437 14.8089 4.18172 14.8089 5.29857C14.8089 6.41576 14.4245 7.34294 13.6341 8.1335C12.8435 8.92406 11.9162 9.30826 10.7992 9.30826C9.68231 9.30826 8.75513 8.92389 7.9644 8.1335C7.17384 7.34311 6.78947 6.41576 6.78947 5.29857C6.78947 4.18172 7.17384 3.25437 7.9644 2.46382Z" fill="white"/>
<path d="M20.1437 16.9155C20.114 16.4869 20.0539 16.0192 19.9655 15.5254C19.8762 15.0279 19.7612 14.5576 19.6236 14.1278C19.4812 13.6835 19.288 13.2447 19.0489 12.8243C18.801 12.3879 18.5096 12.0079 18.1826 11.6952C17.8407 11.368 17.4221 11.105 16.938 10.9132C16.4556 10.7223 15.921 10.6257 15.3492 10.6257C15.1246 10.6257 14.9074 10.7178 14.488 10.9909C14.2298 11.1592 13.9279 11.3539 13.5908 11.5693C13.3026 11.7529 12.9122 11.925 12.43 12.0807C11.9595 12.233 11.4818 12.3102 11.0102 12.3102C10.5389 12.3102 10.0612 12.233 9.59037 12.0807C9.10864 11.9251 8.71807 11.7531 8.43038 11.5695C8.09653 11.3561 7.7944 11.1614 7.5324 10.9907C7.11328 10.7176 6.89609 10.6255 6.67151 10.6255C6.09949 10.6255 5.56506 10.7223 5.08284 10.9133C4.59911 11.1049 4.18033 11.3679 3.83809 11.6953C3.51112 12.0082 3.21974 12.388 2.972 12.8243C2.73315 13.2447 2.5398 13.6833 2.39746 14.1279C2.25999 14.5578 2.14502 15.0279 2.05573 15.5254C1.9671 16.0186 1.90718 16.4863 1.87747 16.916C1.84827 17.3362 1.8335 17.7734 1.8335 18.2152C1.8335 19.3636 2.19856 20.2933 2.91846 20.9789C3.62946 21.6555 4.57007 21.9986 5.71428 21.9986H16.3074C17.4513 21.9986 18.3919 21.6555 19.1031 20.9789C19.8231 20.2938 20.1882 19.3637 20.1882 18.215C20.188 17.7717 20.1731 17.3345 20.1437 16.9155ZM18.2142 20.0449C17.7444 20.492 17.1206 20.7094 16.3073 20.7094H5.71428C4.90073 20.7094 4.27701 20.492 3.80737 20.045C3.34663 19.6064 3.12273 19.0077 3.12273 18.2152C3.12273 17.8029 3.13632 17.3959 3.16351 17.0052C3.19003 16.6218 3.24425 16.2007 3.32465 15.7532C3.40404 15.3113 3.50508 14.8965 3.62526 14.521C3.74057 14.161 3.89784 13.8045 4.09288 13.4611C4.27902 13.1338 4.4932 12.853 4.72952 12.6267C4.95058 12.4151 5.2292 12.2418 5.55751 12.1119C5.86115 11.9918 6.20238 11.926 6.57282 11.9161C6.61797 11.9401 6.69837 11.9859 6.82862 12.0708C7.09365 12.2435 7.39913 12.4406 7.73683 12.6563C8.11751 12.899 8.60796 13.1182 9.19391 13.3073C9.79296 13.501 10.4039 13.5994 11.0103 13.5994C11.6168 13.5994 12.2279 13.501 12.8266 13.3075C13.4131 13.118 13.9034 12.899 14.2845 12.6559C14.6301 12.435 14.9271 12.2437 15.1921 12.0708C15.3223 11.9861 15.4027 11.9401 15.4479 11.9161C15.8185 11.926 16.1597 11.9918 16.4635 12.1119C16.7917 12.2418 17.0703 12.4152 17.2913 12.6267C17.5277 12.8528 17.7418 13.1336 17.928 13.4613C18.1232 13.8045 18.2806 14.1612 18.3958 14.5209C18.5161 14.8968 18.6173 15.3114 18.6966 15.753C18.7768 16.2013 18.8312 16.6226 18.8577 17.0053V17.0057C18.885 17.3949 18.8988 17.8018 18.899 18.2152C18.8988 19.0079 18.6749 19.6064 18.2142 20.0449Z" fill="white"/>
</svg>
