<svg width="18" height="18" viewBox="0 0 18 18" fill="none" xmlns="http://www.w3.org/2000/svg">
<path fill-rule="evenodd" clip-rule="evenodd" d="M13.7216 12.464L16.7393 15.4827C17.0869 15.8302 17.0869 16.392 16.7393 16.7396C16.566 16.9129 16.3385 17 16.1109 17C15.8834 17 15.6558 16.9129 15.4825 16.7396L12.4638 13.7218C11.2603 14.6578 9.75188 15.2222 8.11101 15.2222C4.19018 15.2222 1 12.032 1 8.11111C1 4.19022 4.19018 1 8.11101 1C12.0318 1 15.222 4.19022 15.222 8.11111C15.222 9.752 14.6576 11.2604 13.7216 12.464ZM8.11092 2.5111C5.02256 2.5111 2.51099 5.0227 2.51099 8.1111C2.51099 11.1995 5.02256 13.7111 8.11092 13.7111C11.1993 13.7111 13.7109 11.1995 13.7109 8.1111C13.7109 5.0227 11.1993 2.5111 8.11092 2.5111Z" fill="white"/>
<path d="M16.7393 15.4827L16.5979 15.6241L16.5979 15.6241L16.7393 15.4827ZM13.7216 12.464L13.5637 12.3412L13.4554 12.4806L13.5802 12.6054L13.7216 12.464ZM16.7393 16.7396L16.8808 16.881L16.8808 16.881L16.7393 16.7396ZM15.4825 16.7396L15.6239 16.5981L15.6239 16.5981L15.4825 16.7396ZM12.4638 13.7218L12.6052 13.5803L12.4804 13.4555L12.3411 13.5639L12.4638 13.7218ZM16.8808 15.3413L13.863 12.3226L13.5802 12.6054L16.5979 15.6241L16.8808 15.3413ZM16.8808 16.881C17.3064 16.4553 17.3064 15.7669 16.8808 15.3412L16.5979 15.6241C16.8674 15.8935 16.8674 16.3287 16.5979 16.5981L16.8808 16.881ZM16.1109 17.2C16.3895 17.2 16.6685 17.0932 16.8808 16.881L16.5979 16.5981C16.4635 16.7325 16.2875 16.8 16.1109 16.8V17.2ZM15.341 16.881C15.5533 17.0932 15.8323 17.2 16.1109 17.2V16.8C15.9344 16.8 15.7583 16.7325 15.6239 16.5981L15.341 16.881ZM12.3224 13.8632L15.3411 16.881L15.6239 16.5981L12.6052 13.5803L12.3224 13.8632ZM8.11101 15.4222C9.79864 15.4222 11.3498 14.8415 12.5866 13.8797L12.3411 13.5639C11.1708 14.474 9.70512 15.0222 8.11101 15.0222V15.4222ZM0.8 8.11111C0.8 12.1425 4.07972 15.4222 8.11101 15.4222V15.0222C4.30064 15.0222 1.2 11.9215 1.2 8.11111H0.8ZM8.11101 0.8C4.07972 0.8 0.8 4.07977 0.8 8.11111H1.2C1.2 4.30068 4.30064 1.2 8.11101 1.2V0.8ZM15.422 8.11111C15.422 4.07977 12.1423 0.8 8.11101 0.8V1.2C11.9214 1.2 15.022 4.30068 15.022 8.11111H15.422ZM13.8795 12.5868C14.8413 11.35 15.422 9.79876 15.422 8.11111H15.022C15.022 9.70524 14.4739 11.1709 13.5637 12.3412L13.8795 12.5868ZM2.71099 8.1111C2.71099 5.13316 5.13302 2.7111 8.11092 2.7111V2.3111C4.9121 2.3111 2.31099 4.91225 2.31099 8.1111H2.71099ZM8.11092 13.5111C5.13302 13.5111 2.71099 11.0891 2.71099 8.1111H2.31099C2.31099 11.31 4.9121 13.9111 8.11092 13.9111V13.5111ZM13.5109 8.1111C13.5109 11.0891 11.0888 13.5111 8.11092 13.5111V13.9111C11.3097 13.9111 13.9109 11.31 13.9109 8.1111H13.5109ZM8.11092 2.7111C11.0888 2.7111 13.5109 5.13316 13.5109 8.1111H13.9109C13.9109 4.91225 11.3097 2.3111 8.11092 2.3111V2.7111Z" fill="white"/>
</svg>
