<svg width="20" height="20" viewBox="0 0 20 20" fill="none" xmlns="http://www.w3.org/2000/svg">
<path opacity="0.8" d="M12.3566 10.0002L19.5113 2.84536C20.1629 2.1937 20.1629 1.14039 19.5113 0.48874C18.8596 -0.162913 17.8063 -0.162913 17.1547 0.48874L10 7.64359L2.8453 0.48874C2.19366 -0.162913 1.14037 -0.162913 0.48873 0.48874C-0.16291 1.14039 -0.16291 2.1937 0.48873 2.84536L7.64343 10.0002L0.48873 17.1551C-0.16291 17.8067 -0.16291 18.86 0.48873 19.5117C0.813716 19.8367 1.24036 20 1.66701 20C2.09366 20 2.52031 19.8367 2.8453 19.5117L10 12.3568L17.1547 19.5117C17.4797 19.8367 17.9063 20 18.333 20C18.7596 20 19.1863 19.8367 19.5113 19.5117C20.1629 18.86 20.1629 17.8067 19.5113 17.1551L12.3566 10.0002Z" fill="white"/>
</svg>
