<svg width="18" height="20" viewBox="0 0 18 20" fill="none" xmlns="http://www.w3.org/2000/svg">
<path d="M9.19951 9.63408C10.5231 9.63408 11.669 9.15938 12.6056 8.22279C13.5419 7.28636 14.0167 6.14058 14.0167 4.81689C14.0167 3.49365 13.542 2.34771 12.6054 1.41098C11.6688 0.4747 10.5229 0 9.19951 0C7.87582 0 6.73004 0.4747 5.79361 1.41113C4.85718 2.34756 4.38232 3.49349 4.38232 4.81689C4.38232 6.14058 4.85718 7.28652 5.79361 8.22295C6.73034 9.15922 7.87628 9.63408 9.19951 9.63408ZM6.62246 2.23983C7.341 1.5213 8.18389 1.17203 9.19951 1.17203C10.215 1.17203 11.058 1.5213 11.7767 2.23983C12.4953 2.95852 12.8447 3.80157 12.8447 4.81689C12.8447 5.83251 12.4953 6.6754 11.7767 7.39409C11.058 8.11278 10.215 8.46205 9.19951 8.46205C8.1842 8.46205 7.3413 8.11263 6.62246 7.39409C5.90378 6.67555 5.55435 5.83251 5.55435 4.81689C5.55435 3.80157 5.90378 2.95852 6.62246 2.23983Z" fill="white"/>
<path d="M17.6285 15.3784C17.6015 14.9887 17.5469 14.5636 17.4665 14.1146C17.3853 13.6624 17.2808 13.2348 17.1557 12.844C17.0263 12.4402 16.8506 12.0413 16.6332 11.6591C16.4078 11.2623 16.1429 10.9169 15.8457 10.6326C15.5349 10.3352 15.1543 10.0961 14.7143 9.92169C14.2757 9.7482 13.7897 9.66031 13.2699 9.66031C13.0657 9.66031 12.8683 9.74408 12.4869 9.99234C12.2523 10.1454 11.9778 10.3224 11.6714 10.5182C11.4094 10.6851 11.0545 10.8415 10.6161 10.9831C10.1884 11.1215 9.7541 11.1917 9.32533 11.1917C8.89687 11.1917 8.4626 11.1215 8.03459 10.9831C7.59667 10.8416 7.2416 10.6852 6.98006 10.5183C6.67656 10.3244 6.40191 10.1474 6.16372 9.99219C5.78271 9.74393 5.58526 9.66016 5.3811 9.66016C4.86108 9.66016 4.37524 9.7482 3.93685 9.92184C3.4971 10.0959 3.11639 10.3351 2.80526 10.6327C2.50802 10.9172 2.24313 11.2625 2.01791 11.6591C1.80078 12.0413 1.625 12.44 1.4956 12.8442C1.37064 13.235 1.26611 13.6624 1.18494 14.1146C1.10437 14.5629 1.0499 14.9882 1.02289 15.3788C0.996338 15.7608 0.98291 16.1583 0.98291 16.5599C0.98291 17.6039 1.31479 18.449 1.96924 19.0724C2.6156 19.6875 3.4707 19.9993 4.51089 19.9993H14.141C15.1809 19.9993 16.036 19.6875 16.6825 19.0724C17.3371 18.4495 17.669 17.604 17.669 16.5597C17.6688 16.1567 17.6552 15.7592 17.6285 15.3784ZM15.8744 18.2232C15.4473 18.6297 14.8803 18.8273 14.1408 18.8273H4.51089C3.7713 18.8273 3.20428 18.6297 2.77734 18.2234C2.35849 17.8247 2.15494 17.2804 2.15494 16.5599C2.15494 16.1851 2.1673 15.8151 2.19201 15.4599C2.21612 15.1113 2.26541 14.7285 2.3385 14.3217C2.41067 13.9199 2.50253 13.5429 2.61178 13.2016C2.71661 12.8743 2.85959 12.5502 3.03689 12.238C3.20611 11.9404 3.40081 11.6851 3.61566 11.4795C3.81661 11.287 4.06991 11.1296 4.36837 11.0115C4.6444 10.9022 4.95461 10.8424 5.29137 10.8334C5.33242 10.8552 5.40551 10.8969 5.52392 10.9741C5.76485 11.1311 6.04256 11.3102 6.34957 11.5063C6.69564 11.727 7.1415 11.9262 7.67418 12.0982C8.21877 12.2743 8.77419 12.3637 9.32549 12.3637C9.87678 12.3637 10.4324 12.2743 10.9766 12.0984C11.5098 11.9261 11.9555 11.727 12.302 11.506C12.6162 11.3052 12.8861 11.1313 13.1271 10.9741C13.2455 10.897 13.3186 10.8552 13.3596 10.8334C13.6965 10.8424 14.0067 10.9022 14.2829 11.0115C14.5812 11.1296 14.8345 11.2872 15.0355 11.4795C15.2503 11.685 15.445 11.9403 15.6142 12.2381C15.7917 12.5502 15.9348 12.8744 16.0395 13.2014C16.1489 13.5432 16.2409 13.9201 16.3129 14.3216C16.3859 14.7291 16.4353 15.1121 16.4594 15.46V15.4603C16.4843 15.8142 16.4968 16.184 16.497 16.5599C16.4968 17.2805 16.2932 17.8247 15.8744 18.2232Z" fill="white"/>
</svg>
