<svg width="20" height="20" viewBox="0 0 20 20" fill="none" xmlns="http://www.w3.org/2000/svg">
<path d="M9.12622 18.4036H2.34184C2.08977 18.4036 1.86009 18.2868 1.71157 18.083C1.56301 17.8792 1.52212 17.6246 1.5993 17.3845C2.37009 14.9881 4.72071 13.3145 7.31555 13.3145C8.52294 13.3145 9.68239 13.6781 10.6686 14.3659C11.0218 14.6123 11.5079 14.5257 11.7543 14.1724C12.0007 13.8192 11.9141 13.3331 11.5608 13.0867C11.0726 12.7462 10.5511 12.4684 10.0055 12.2564C10.7314 11.5964 11.2129 10.6722 11.2966 9.6373C12.3973 8.56512 13.84 7.97762 15.3866 7.97762C16.594 7.97762 17.7534 8.34121 18.7397 9.02902C19.0929 9.27539 19.579 9.18879 19.8254 8.83555C20.0717 8.4823 19.9851 7.99625 19.6319 7.74984C19.1437 7.40934 18.6221 7.13156 18.0765 6.91949C18.8773 6.19145 19.3807 5.14191 19.3807 3.97699C19.3807 1.7841 17.5966 0 15.4037 0C13.2107 0 11.4266 1.7841 11.4266 3.97707C11.4266 5.13727 11.926 6.18305 12.7211 6.91074C12.6124 6.95262 12.5043 6.99715 12.3971 7.04434C11.9091 7.25906 11.4502 7.52266 11.0236 7.83273C10.435 6.37121 9.00227 5.33691 7.33259 5.33691C5.13962 5.33691 3.35555 7.12102 3.35555 9.31398C3.35555 10.4708 3.85204 11.5138 4.64305 12.2413C2.5279 13.0339 0.812859 14.7362 0.114655 16.907C-0.116907 17.627 0.00574913 18.3905 0.451218 19.0017C0.896609 19.6128 1.58567 19.9633 2.34188 19.9633H9.12626C9.55696 19.9633 9.90606 19.6142 9.90606 19.1835C9.90606 18.7529 9.55688 18.4036 9.12622 18.4036ZM15.4037 1.55961C16.7367 1.55961 17.8211 2.64406 17.8211 3.97703C17.8211 5.31 16.7367 6.39445 15.4037 6.39445C14.0708 6.39445 12.9863 5.31 12.9863 3.97703C12.9863 2.64406 14.0708 1.55961 15.4037 1.55961ZM7.33262 6.89648C8.66559 6.89648 9.75005 7.98094 9.75005 9.31391C9.75005 10.6469 8.66559 11.7313 7.33262 11.7313C5.99966 11.7313 4.9152 10.6469 4.9152 9.31391C4.9152 7.98094 5.99966 6.89648 7.33262 6.89648Z" fill="white"/>
<path d="M19.6396 12.7376C19.2894 12.4869 18.8022 12.5675 18.5516 12.9178L14.7078 18.2868C14.6028 18.4085 14.4713 18.4348 14.4008 18.4395C14.3283 18.4444 14.1874 18.435 14.0666 18.3201L11.5782 15.9307C11.2675 15.6323 10.7738 15.6424 10.4756 15.9531C10.1773 16.2637 10.1874 16.7574 10.498 17.0556L12.9889 19.4474C13.3619 19.8025 13.8599 20 14.3723 20C14.4163 20 14.4604 19.9986 14.5046 19.9956C15.0627 19.9584 15.5838 19.687 15.9342 19.251C15.9433 19.2397 15.952 19.2282 15.9605 19.2165L19.8198 13.8256C20.0704 13.4754 19.9898 12.9883 19.6396 12.7376Z" fill="white"/>
</svg>
