<svg width="22" height="22" viewBox="0 0 22 22" fill="none" xmlns="http://www.w3.org/2000/svg">
<path d="M7.33294 12.0996H6.59961V12.8329H7.33294V12.0996Z" fill="white"/>
<path d="M7.33294 13.5664H6.59961V14.2997H7.33294V13.5664Z" fill="white"/>
<path d="M7.33294 15.0332H6.59961V15.7665H7.33294V15.0332Z" fill="white"/>
<path d="M7.33294 10.6328H6.59961V11.3661H7.33294V10.6328Z" fill="white"/>
<path d="M7.33294 9.16602H6.59961V9.89935H7.33294V9.16602Z" fill="white"/>
<path d="M7.33294 7.7002H6.59961V8.43353H7.33294V7.7002Z" fill="white"/>
<path d="M7.33294 6.23364H6.59961V6.96698H7.33294V6.23364Z" fill="white"/>
<path d="M2.20013 6.23364H1.4668V6.96698H2.20013V6.23364Z" fill="white"/>
<path d="M20.5331 6.23364H19.7998V6.96698H20.5331V6.23364Z" fill="white"/>
<path d="M20.5331 15.0332H19.7998V15.7665H20.5331V15.0332Z" fill="white"/>
<path d="M2.20013 15.0332H1.4668V15.7665H2.20013V15.0332Z" fill="white"/>
<path d="M21.6333 9.16636C21.8358 9.16636 22 9.00218 22 8.79969V5.13302C22 4.93053 21.8358 4.76636 21.6333 4.76636H0.366667C0.164175 4.76636 0 4.93053 0 5.13302V8.79969C0 9.00218 0.164175 9.16636 0.366667 9.16636C1.37917 9.16636 2.2 9.98719 2.2 10.9997C2.2 12.0122 1.37917 12.833 0.366667 12.833C0.164175 12.833 0 12.9972 0 13.1997V16.8664C0 17.0689 0.164175 17.233 0.366667 17.233H21.6333C21.8358 17.233 22 17.0689 22 16.8664V13.1997C22 12.9972 21.8358 12.833 21.6333 12.833C20.6208 12.833 19.8 12.0122 19.8 10.9997C19.8 9.98719 20.6208 9.16636 21.6333 9.16636ZM19.0907 11.3643C19.2526 12.4923 20.1388 13.3784 21.2667 13.5403V16.4997H0.733333V13.5403C2.13648 13.3389 3.11071 12.0382 2.90932 10.635C2.74743 9.50713 1.86129 8.62094 0.733333 8.45906V5.49969H21.2667V8.45906C19.8635 8.66045 18.8893 9.96115 19.0907 11.3643Z" fill="white"/>
<path d="M10.9999 7.33398C10.1899 7.33398 9.5332 7.99064 9.5332 8.80065C9.5332 9.61066 10.1899 10.2673 10.9999 10.2673C11.8099 10.2673 12.4665 9.61066 12.4665 8.80065C12.4665 7.99064 11.8099 7.33398 10.9999 7.33398ZM10.9999 9.53398C10.5948 9.53398 10.2665 9.20568 10.2665 8.80065C10.2665 8.39562 10.5948 8.06732 10.9999 8.06732C11.4049 8.06732 11.7332 8.39562 11.7332 8.80065C11.7332 9.20568 11.4049 9.53398 10.9999 9.53398Z" fill="white"/>
<path d="M15.4003 11.7336C14.5902 11.7336 13.9336 12.3903 13.9336 13.2003C13.9336 14.0103 14.5902 14.667 15.4003 14.667C16.2103 14.667 16.8669 14.0103 16.8669 13.2003C16.8669 12.3903 16.2103 11.7336 15.4003 11.7336ZM15.4003 13.9336C14.9952 13.9336 14.6669 13.6053 14.6669 13.2003C14.6669 12.7953 14.9952 12.467 15.4003 12.467C15.8053 12.467 16.1336 12.7953 16.1336 13.2003C16.1336 13.6053 15.8053 13.9336 15.4003 13.9336Z" fill="white"/>
<path d="M15.8744 7.8073L10.0078 13.6738L10.5264 14.1924L16.3929 8.32584L15.8744 7.8073Z" fill="white"/>
</svg>
