<svg width="19" height="19" viewBox="0 0 19 19" fill="none" xmlns="http://www.w3.org/2000/svg">
<path d="M12.8853 11.1785L10.2362 9.19167V5.14445C10.2362 4.73751 9.90722 4.40857 9.50028 4.40857C9.09334 4.40857 8.7644 4.73751 8.7644 5.14445V9.55965C8.7644 9.79143 8.87332 10.01 9.05876 10.1484L12.0022 12.356C12.1346 12.4553 12.2892 12.5031 12.443 12.5031C12.6674 12.5031 12.8882 12.4023 13.0324 12.208C13.2768 11.8835 13.2106 11.4221 12.8853 11.1785Z" fill="white"/>
<path d="M9.5 0C4.26138 0 0 4.26138 0 9.5C0 14.7386 4.26138 19 9.5 19C14.7386 19 19 14.7386 19 9.5C19 4.26138 14.7386 0 9.5 0ZM9.5 17.5283C5.07378 17.5283 1.47172 13.9262 1.47172 9.5C1.47172 5.07378 5.07378 1.47172 9.5 1.47172C13.927 1.47172 17.5283 5.07378 17.5283 9.5C17.5283 13.9262 13.9262 17.5283 9.5 17.5283Z" fill="white"/>
</svg>
