<svg width="15" height="17" viewBox="0 0 15 17" fill="none" xmlns="http://www.w3.org/2000/svg">
<path fill-rule="evenodd" clip-rule="evenodd" d="M11.6667 1.65H12.5C13.8783 1.65 15 2.76045 15 4.125V14.025C15 15.3895 13.8783 16.5 12.5 16.5H2.5C1.12167 16.5 0 15.3895 0 14.025V4.125C0 2.76045 1.12167 1.65 2.5 1.65H3.33333V0.825C3.33333 0.37125 3.70833 0 4.16667 0C4.625 0 5 0.37125 5 0.825V1.65H10V0.825C10 0.37125 10.375 0 10.8333 0C11.2917 0 11.6667 0.37125 11.6667 0.825V1.65ZM2.49996 3.30002H3.33329V4.12502C3.33329 4.57877 3.70829 4.95002 4.16663 4.95002C4.62496 4.95002 4.99996 4.57877 4.99996 4.12502V3.30002H9.99996V4.12502C9.99996 4.57877 10.375 4.95002 10.8333 4.95002C11.2916 4.95002 11.6666 4.57877 11.6666 4.12502V3.30002H12.5C12.9591 3.30002 13.3333 3.67044 13.3333 4.12502V7.42502H1.66663V4.12502C1.66663 3.67044 2.04079 3.30002 2.49996 3.30002ZM2.49996 14.85H12.5C12.9591 14.85 13.3333 14.4796 13.3333 14.025V9.07498H1.66663V14.025C1.66663 14.4796 2.04079 14.85 2.49996 14.85ZM10.8333 10.725H7.49995C7.04162 10.725 6.66662 11.0963 6.66662 11.55C6.66662 12.0038 7.04162 12.375 7.49995 12.375H10.8333C11.2916 12.375 11.6666 12.0038 11.6666 11.55C11.6666 11.0963 11.2916 10.725 10.8333 10.725ZM4.16659 10.725C3.70825 10.725 3.33325 11.0963 3.33325 11.55C3.33325 12.0038 3.70825 12.375 4.16659 12.375C4.62492 12.375 4.99992 12.0038 4.99992 11.55C4.99992 11.0963 4.62492 10.725 4.16659 10.725Z" fill="white"/>
<mask id="mask0" mask-type="alpha" maskUnits="userSpaceOnUse" x="0" y="0" width="15" height="17">
<path fill-rule="evenodd" clip-rule="evenodd" d="M11.6667 1.65H12.5C13.8783 1.65 15 2.76045 15 4.125V14.025C15 15.3895 13.8783 16.5 12.5 16.5H2.5C1.12167 16.5 0 15.3895 0 14.025V4.125C0 2.76045 1.12167 1.65 2.5 1.65H3.33333V0.825C3.33333 0.37125 3.70833 0 4.16667 0C4.625 0 5 0.37125 5 0.825V1.65H10V0.825C10 0.37125 10.375 0 10.8333 0C11.2917 0 11.6667 0.37125 11.6667 0.825V1.65ZM2.49996 3.30002H3.33329V4.12502C3.33329 4.57877 3.70829 4.95002 4.16663 4.95002C4.62496 4.95002 4.99996 4.57877 4.99996 4.12502V3.30002H9.99996V4.12502C9.99996 4.57877 10.375 4.95002 10.8333 4.95002C11.2916 4.95002 11.6666 4.57877 11.6666 4.12502V3.30002H12.5C12.9591 3.30002 13.3333 3.67044 13.3333 4.12502V7.42502H1.66663V4.12502C1.66663 3.67044 2.04079 3.30002 2.49996 3.30002ZM2.49996 14.85H12.5C12.9591 14.85 13.3333 14.4796 13.3333 14.025V9.07498H1.66663V14.025C1.66663 14.4796 2.04079 14.85 2.49996 14.85ZM10.8333 10.725H7.49995C7.04162 10.725 6.66662 11.0963 6.66662 11.55C6.66662 12.0038 7.04162 12.375 7.49995 12.375H10.8333C11.2916 12.375 11.6666 12.0038 11.6666 11.55C11.6666 11.0963 11.2916 10.725 10.8333 10.725ZM4.16659 10.725C3.70825 10.725 3.33325 11.0963 3.33325 11.55C3.33325 12.0038 3.70825 12.375 4.16659 12.375C4.62492 12.375 4.99992 12.0038 4.99992 11.55C4.99992 11.0963 4.62492 10.725 4.16659 10.725Z" fill="white"/>
</mask>
<g mask="url(#mask0)">
</g>
</svg>
