<svg width="18" height="16" viewBox="0 0 18 16" fill="none" xmlns="http://www.w3.org/2000/svg">
<path fill-rule="evenodd" clip-rule="evenodd" d="M0.948 0H17.051C17.573 0 18 0.569333 18 1.26533V1.40133C18 2.09733 17.573 2.66667 17.051 2.66667H0.948C0.426 2.66667 0 2.09733 0 1.40133V1.26533C0 0.569333 0.426 0 0.948 0ZM17.051 6.66667H0.948C0.426 6.66667 0 7.236 0 7.932V8.068C0 8.764 0.426 9.33333 0.948 9.33333H17.051C17.573 9.33333 18 8.764 18 8.068V7.932C18 7.236 17.573 6.66667 17.051 6.66667ZM17.051 13.3333H0.948C0.426 13.3333 0 13.9027 0 14.5987V14.7347C0 15.4307 0.426 16 0.948 16H17.051C17.573 16 18 15.4307 18 14.7347V14.5987C18 13.9027 17.573 13.3333 17.051 13.3333Z" fill="white"/>
<mask id="mask0" mask-type="alpha" maskUnits="userSpaceOnUse" x="0" y="0" width="18" height="16">
<path fill-rule="evenodd" clip-rule="evenodd" d="M0.948 0H17.051C17.573 0 18 0.569333 18 1.26533V1.40133C18 2.09733 17.573 2.66667 17.051 2.66667H0.948C0.426 2.66667 0 2.09733 0 1.40133V1.26533C0 0.569333 0.426 0 0.948 0ZM17.051 6.66667H0.948C0.426 6.66667 0 7.236 0 7.932V8.068C0 8.764 0.426 9.33333 0.948 9.33333H17.051C17.573 9.33333 18 8.764 18 8.068V7.932C18 7.236 17.573 6.66667 17.051 6.66667ZM17.051 13.3333H0.948C0.426 13.3333 0 13.9027 0 14.5987V14.7347C0 15.4307 0.426 16 0.948 16H17.051C17.573 16 18 15.4307 18 14.7347V14.5987C18 13.9027 17.573 13.3333 17.051 13.3333Z" fill="white"/>
</mask>
<g mask="url(#mask0)">
</g>
</svg>
