<svg width="32" height="32" viewBox="0 0 32 32" fill="none" xmlns="http://www.w3.org/2000/svg">
<circle cx="15.7835" cy="16.1664" r="15.3367" fill="#E50914"/>
<path d="M18.6104 17.3493C18.6104 18.908 17.3423 20.1761 15.7836 20.1761C14.2248 20.1761 12.9573 18.908 12.9573 17.3493C12.9573 15.7905 14.2248 14.5225 15.7836 14.5225C17.3423 14.5225 18.6104 15.791 18.6104 17.3493ZM24.5474 13.3354V21.3642C24.5474 22.4345 23.6796 23.3023 22.6093 23.3023H8.95792C7.88758 23.3023 7.01978 22.4345 7.01978 21.3642V13.3354C7.01978 12.265 7.88758 11.3972 8.95792 11.3972H11.3418V10.7266C11.3418 9.79003 12.1006 9.03076 13.0377 9.03076H18.5295C19.4666 9.03076 20.2253 9.79003 20.2253 10.7266V11.3968H22.6093C23.6796 11.3972 24.5474 12.265 24.5474 13.3354ZM20.064 17.3493C20.064 14.9891 18.1438 13.0689 15.7836 13.0689C13.4239 13.0689 11.5037 14.9891 11.5037 17.3493C11.5037 19.7095 13.4239 21.6297 15.7836 21.6297C18.1438 21.6297 20.064 19.7095 20.064 17.3493Z" fill="#FAFAFA"/>
</svg>
