<svg width="20" height="21" viewBox="0 0 20 21" fill="none" xmlns="http://www.w3.org/2000/svg">
<path d="M17.9113 19.599C17.8635 19.8628 17.8506 20.0917 17.7782 20.3012C17.6197 20.7627 17.2587 20.9986 16.762 20.9986C12.267 20.9994 7.77243 21.0003 3.27742 20.9999C2.62704 20.9999 2.16918 20.5519 2.16695 19.9172C2.16516 19.4732 2.1665 19.0287 2.1665 18.5491C1.86946 18.5491 1.5809 18.5264 1.29725 18.5531C0.220287 18.6543 -0.117855 17.7014 0.0478659 16.9703C0.180979 16.3829 0.557983 16.101 1.1762 16.1006C1.49513 16.1002 1.81407 16.1006 2.14953 16.1006C2.14953 15.4032 2.14953 14.7159 2.14953 13.9992C1.84623 13.9992 1.54472 13.9992 1.24275 13.9992C0.422637 13.9992 -0.0588923 13.4802 0.0103442 12.6715C0.0643934 12.0394 0.427103 11.5927 0.93856 11.5559C1.21193 11.5362 1.48799 11.5515 1.7627 11.5511C1.88777 11.5511 2.01284 11.5511 2.15221 11.5511C2.15221 10.8485 2.15221 10.1607 2.15221 9.44972C1.8373 9.44972 1.52595 9.43044 1.21819 9.45323C0.339999 9.51854 -0.037898 8.77688 0.0107909 8.14173C0.0608199 7.49036 0.425317 7.04238 0.943921 7.00819C1.26196 6.98715 1.58268 7.00118 1.90207 6.99986C1.98202 6.99942 2.06198 6.99986 2.15444 6.99986C2.15444 6.30028 2.15444 5.61779 2.15444 4.90023C1.86633 4.90023 1.57241 4.88708 1.27983 4.9033C0.773733 4.93135 0.360994 4.78758 0.148817 4.30804C-0.0780999 3.79299 -0.0566589 3.28321 0.290417 2.81813C0.471772 2.5753 0.729064 2.45388 1.03907 2.45212C1.40267 2.45037 1.76627 2.45168 2.14685 2.45168C2.15355 2.38681 2.16427 2.33202 2.16472 2.27679C2.16695 1.87571 2.16561 1.47463 2.16784 1.07399C2.17052 0.449365 2.6257 0.00226203 3.26491 0.0018237C7.26946 0.000947023 11.274 0.00138536 15.2781 0.00138536C15.761 0.00138536 16.2439 -0.000367986 16.7267 7.03503e-05C17.3624 0.000508686 17.8023 0.395888 17.86 1.02227C17.8707 1.13711 17.8613 1.25371 17.8613 1.40099C18.2048 1.40099 18.5358 1.40187 18.8668 1.40055C19.5484 1.39792 19.9969 1.83363 19.9974 2.50385C19.9983 3.63388 19.9983 4.76391 19.9974 5.89394C19.9969 6.56372 19.552 6.99767 18.8672 6.99898C18.5416 6.99986 18.2155 6.99898 17.8738 6.99898C17.8738 7.23569 17.8738 7.45661 17.8738 7.70076C18.2173 7.70076 18.5568 7.69988 18.8963 7.7012C19.5462 7.70339 19.9987 8.14874 19.9992 8.78959C20.0005 9.93408 20 11.079 19.9992 12.2235C19.9987 12.8481 19.5413 13.2992 18.907 13.3009C18.5666 13.3018 18.2258 13.3009 17.8716 13.3009C17.8716 13.5355 17.8716 13.7564 17.8716 13.9988C18.2093 13.9988 18.5416 13.997 18.8735 13.9992C19.556 14.0036 19.9965 14.4393 19.9969 15.1122C19.9978 16.2422 19.9978 17.3722 19.9969 18.5022C19.996 19.1584 19.5484 19.5968 18.8806 19.599C18.5492 19.5998 18.2169 19.599 17.9113 19.599ZM2.88969 11.5494C3.48825 11.5494 4.06671 11.5494 4.64562 11.5494C5.12402 11.5494 5.49566 11.7655 5.6319 12.2139C5.71767 12.497 5.75162 12.821 5.70605 13.1111C5.61448 13.6976 5.19996 13.9988 4.59827 13.9997C4.23422 14.0001 3.87017 13.9997 3.50612 13.9997C3.30109 13.9997 3.09651 13.9997 2.89684 13.9997C2.89684 14.7176 2.89684 15.4054 2.89684 16.0905C2.929 16.0953 2.94374 16.0997 2.95803 16.0997C3.51505 16.0997 4.07252 16.098 4.62954 16.1006C4.73272 16.101 4.83903 16.1054 4.93775 16.1304C5.42196 16.2523 5.71499 16.6604 5.74715 17.2569C5.78065 17.8789 5.43313 18.6136 4.52323 18.5553C4.04974 18.525 3.57268 18.55 3.0974 18.55C3.02727 18.55 2.95669 18.55 2.87897 18.55C2.87897 18.9713 2.87897 19.3574 2.87897 19.7436C2.87897 20.2104 2.97322 20.3016 3.4543 20.3016C7.85239 20.3016 12.25 20.3016 16.6481 20.3016C17.0202 20.3016 17.1466 20.1802 17.1466 19.8208C17.1466 13.624 17.1466 7.42768 17.1466 1.23092C17.1466 0.804856 17.0407 0.70097 16.6097 0.70097C12.6056 0.70097 8.60148 0.70097 4.59693 0.70097C4.16588 0.70097 3.73527 0.697902 3.30422 0.702285C3.01923 0.704915 2.88433 0.840361 2.87942 1.12133C2.87629 1.30368 2.88031 1.48603 2.88031 1.66794C2.88076 1.927 2.88031 2.18562 2.88031 2.45256C3.49227 2.45256 4.07118 2.45168 4.65009 2.453C5.14055 2.45431 5.47869 2.68532 5.6529 3.13724C5.76948 3.43969 5.7811 3.75004 5.6998 4.06038C5.55016 4.63022 5.18879 4.90023 4.59202 4.90111C4.10155 4.90155 3.61154 4.90111 3.12107 4.90111C3.04335 4.90111 2.96518 4.90111 2.89014 4.90111C2.89014 5.61735 2.89014 6.30028 2.89014 7.00249C2.97411 7.00249 3.04648 7.00249 3.11884 7.00249C3.65353 7.00249 4.18866 7.00118 4.72334 7.00381C5.02307 7.00512 5.27947 7.11734 5.45725 7.35316C5.81147 7.82262 5.8414 8.33723 5.60644 8.8606C5.39159 9.33926 4.98063 9.47471 4.47454 9.45542C3.95013 9.4357 3.42482 9.45104 2.88924 9.45104C2.88969 10.1581 2.88969 10.8406 2.88969 11.5494ZM17.8685 6.30028C18.2263 6.30028 18.5671 6.30641 18.907 6.29809C19.1379 6.29239 19.2737 6.15124 19.2845 5.92243C19.2907 5.78436 19.2845 5.6454 19.2845 5.50689C19.2849 4.52282 19.2862 3.53876 19.2858 2.55469C19.2858 2.28293 19.1817 2.1203 18.9624 2.10978C18.6015 2.09225 18.2397 2.10496 17.868 2.10496C17.8685 3.50501 17.8685 4.88752 17.8685 6.30028ZM17.8738 8.39947C17.8738 9.8131 17.8738 11.2009 17.8738 12.6009C18.2151 12.6009 18.5412 12.6044 18.8668 12.5996C19.1473 12.5952 19.2813 12.4571 19.2858 12.1744C19.2889 11.9702 19.2867 11.7663 19.2867 11.5621C19.2867 10.6582 19.2871 9.75437 19.2862 8.85052C19.2858 8.53141 19.1536 8.4021 18.8253 8.39991C18.5139 8.39815 18.2026 8.39947 17.8738 8.39947ZM17.8756 14.6992C17.8756 16.1151 17.8756 17.5011 17.8756 18.9003C18.2187 18.9003 18.5447 18.9042 18.8704 18.8989C19.1411 18.8946 19.2786 18.7582 19.2849 18.4926C19.2898 18.2813 19.2862 18.07 19.2862 17.8588C19.2862 16.9558 19.2871 16.0524 19.2858 15.1494C19.2853 14.8456 19.1558 14.7049 18.8695 14.7001C18.5443 14.6953 18.2182 14.6992 17.8756 14.6992ZM2.8888 7.7012C2.32463 7.7012 1.76047 7.69857 1.1963 7.70208C0.874237 7.70383 0.728617 7.87215 0.725937 8.22939C0.723704 8.58006 0.875577 8.7497 1.20166 8.75014C2.3224 8.75189 3.44358 8.75145 4.56432 8.75014C4.88817 8.7497 5.03111 8.58532 5.03066 8.22326C5.03022 7.8647 4.88594 7.70251 4.55896 7.70164C4.00239 7.69988 3.44582 7.70164 2.8888 7.7012ZM2.87852 13.3009C3.44314 13.3009 4.00775 13.3027 4.57236 13.3005C4.89085 13.2992 5.03424 13.1291 5.03156 12.7662C5.02888 12.4151 4.88683 12.2524 4.57638 12.2516C3.45475 12.2498 2.33312 12.2489 1.21149 12.2498C0.874237 12.2498 0.721917 12.4203 0.725044 12.7837C0.728171 13.1353 0.879151 13.2992 1.20747 13.3001C1.76404 13.3023 2.3215 13.3009 2.87852 13.3009ZM2.87986 17.8509C3.43688 17.8509 3.9939 17.8518 4.55137 17.8504C4.88996 17.8496 5.03424 17.6865 5.03111 17.3144C5.02798 16.9571 4.88415 16.7997 4.55226 16.7997C3.43822 16.7989 2.32374 16.7984 1.2097 16.7997C0.879598 16.8002 0.728617 16.9624 0.724597 17.3135C0.720577 17.6773 0.873344 17.8491 1.20836 17.8504C1.76583 17.8522 2.32284 17.8509 2.87986 17.8509ZM2.88165 4.20108C2.88165 4.20065 2.88165 4.19977 2.88165 4.19933C3.43822 4.19933 3.9948 4.20021 4.55137 4.19889C4.88326 4.19802 5.02575 4.04197 5.02843 3.68385C5.03111 3.30907 4.88996 3.15039 4.54869 3.15039C3.43554 3.14995 2.32195 3.15039 1.20881 3.15258C0.876918 3.15302 0.730851 3.3117 0.727724 3.66588C0.724597 4.0297 0.876471 4.20021 1.21149 4.20152C1.76806 4.2024 2.32463 4.20108 2.88165 4.20108Z" fill="white"/>
<g clip-path="url(#clip0)">
<path d="M10.3449 10.3967C10.8001 10.3967 11.1942 10.2365 11.5164 9.92037C11.8384 9.6043 12.0017 9.21758 12.0017 8.77081C12.0017 8.32419 11.8385 7.93742 11.5163 7.62125C11.1942 7.30524 10.8 7.14502 10.3449 7.14502C9.88958 7.14502 9.49548 7.30524 9.1734 7.6213C8.85131 7.93737 8.68799 8.32414 8.68799 8.77081C8.68799 9.21758 8.85131 9.60436 9.1734 9.92042C9.49559 10.2364 9.88973 10.3967 10.3449 10.3967ZM9.45848 7.90101C9.70562 7.65849 9.99554 7.5406 10.3449 7.5406C10.6941 7.5406 10.9841 7.65849 11.2313 7.90101C11.4784 8.14358 11.5986 8.42812 11.5986 8.77081C11.5986 9.1136 11.4784 9.39809 11.2313 9.64066C10.9841 9.88324 10.6941 10.0011 10.3449 10.0011C9.99564 10.0011 9.70573 9.88318 9.45848 9.64066C9.21129 9.39815 9.09111 9.1136 9.09111 8.77081C9.09111 8.42812 9.21129 8.14358 9.45848 7.90101Z" fill="white"/>
<path d="M13.2668 12.3353C13.2575 12.2037 13.2387 12.0603 13.211 11.9087C13.1831 11.7561 13.1472 11.6118 13.1041 11.4799C13.0596 11.3436 12.9992 11.2089 12.9244 11.0799C12.8469 10.946 12.7558 10.8294 12.6536 10.7335C12.5467 10.6331 12.4158 10.5524 12.2644 10.4935C12.1136 10.435 11.9464 10.4053 11.7676 10.4053C11.6974 10.4053 11.6295 10.4336 11.4983 10.5174C11.4176 10.569 11.3232 10.6288 11.2178 10.6949C11.1277 10.7512 11.0056 10.804 10.8548 10.8518C10.7077 10.8985 10.5584 10.9222 10.4109 10.9222C10.2635 10.9222 10.1141 10.8985 9.96693 10.8518C9.81631 10.804 9.69418 10.7513 9.60422 10.6949C9.49984 10.6295 9.40537 10.5697 9.32344 10.5173C9.19239 10.4335 9.12448 10.4053 9.05426 10.4053C8.8754 10.4053 8.70829 10.435 8.55751 10.4936C8.40626 10.5524 8.27531 10.6331 8.1683 10.7335C8.06607 10.8295 7.97496 10.9461 7.89749 11.0799C7.82281 11.2089 7.76235 11.3435 7.71785 11.4799C7.67486 11.6118 7.63891 11.7561 7.61099 11.9087C7.58328 12.0601 7.56454 12.2036 7.55525 12.3354C7.54612 12.4643 7.5415 12.5985 7.5415 12.7341C7.5415 13.0864 7.65565 13.3717 7.88075 13.5821C8.10307 13.7897 8.39718 13.8949 8.75495 13.8949H12.0672C12.4249 13.8949 12.719 13.7897 12.9414 13.5821C13.1665 13.3718 13.2807 13.0865 13.2807 12.734C13.2806 12.598 13.276 12.4638 13.2668 12.3353ZM12.6634 13.2955C12.5165 13.4327 12.3215 13.4994 12.0672 13.4994H8.75495C8.50057 13.4994 8.30554 13.4327 8.1587 13.2955C8.01463 13.1609 7.94462 12.9772 7.94462 12.7341C7.94462 12.6076 7.94887 12.4827 7.95738 12.3628C7.96567 12.2452 7.98262 12.1159 8.00776 11.9786C8.03258 11.843 8.06418 11.7158 8.10175 11.6006C8.13781 11.4901 8.18699 11.3807 8.24797 11.2753C8.30617 11.1749 8.37314 11.0887 8.44704 11.0193C8.51616 10.9544 8.60328 10.9012 8.70593 10.8614C8.80087 10.8245 8.90757 10.8043 9.0234 10.8013C9.03752 10.8086 9.06266 10.8227 9.10338 10.8488C9.18625 10.9017 9.28177 10.9622 9.38737 11.0284C9.5064 11.1029 9.65975 11.1701 9.84297 11.2282C10.0303 11.2876 10.2213 11.3178 10.4109 11.3178C10.6006 11.3178 10.7916 11.2876 10.9788 11.2282C11.1622 11.1701 11.3155 11.1029 11.4347 11.0283C11.5428 10.9605 11.6356 10.9018 11.7185 10.8488C11.7592 10.8227 11.7843 10.8086 11.7985 10.8013C11.9143 10.8043 12.021 10.8245 12.116 10.8614C12.2186 10.9012 12.3058 10.9544 12.3749 11.0193C12.4488 11.0887 12.5157 11.1749 12.5739 11.2754C12.635 11.3807 12.6842 11.4901 12.7202 11.6005C12.7578 11.7159 12.7895 11.8431 12.8143 11.9786C12.8393 12.1161 12.8564 12.2454 12.8646 12.3628V12.3629C12.8732 12.4824 12.8775 12.6072 12.8776 12.7341C12.8775 12.9773 12.8075 13.1609 12.6634 13.2955Z" fill="white"/>
</g>
<defs>
<clipPath id="clip0">
<rect width="6.87898" height="6.75038" fill="white" transform="translate(6.96826 7.14502)"/>
</clipPath>
</defs>
</svg>
