<svg width="21" height="21" viewBox="0 0 21 21" fill="none" xmlns="http://www.w3.org/2000/svg">
<g clip-path="url(#clip0)">
<path d="M18.8125 3.81836H2.18749C0.98175 3.81836 0 4.82242 0 6.0556V15.8993C0 17.1325 0.98175 18.1365 2.18749 18.1365H18.8125C20.0182 18.1365 21 17.1325 21 15.8993V6.0556C21 4.82242 20.0182 3.81836 18.8125 3.81836ZM20.125 15.8993C20.125 16.6394 19.5362 17.2416 18.8125 17.2416H2.18749C1.46385 17.2416 0.874986 16.6394 0.874986 15.8993V6.0556C0.874986 5.31552 1.46385 4.71327 2.18749 4.71327H18.8125C19.5361 4.71327 20.125 5.31552 20.125 6.0556V15.8993H20.125Z" fill="white"/>
<path d="M20.5625 6.12695H0.437514C0.196014 6.12695 0 6.32297 0 6.56447V9.18947C0 9.43097 0.196014 9.62698 0.437514 9.62698H20.5625C20.804 9.62698 21 9.43097 21 9.18947V6.56447C21 6.32297 20.804 6.12695 20.5625 6.12695ZM20.125 8.75195H0.874986V7.00194H20.125V8.75195H20.125Z" fill="white"/>
<path d="M8.31251 12.248H3.06251C2.82101 12.248 2.625 12.4441 2.625 12.6856C2.625 12.9271 2.82101 13.123 3.06251 13.123H8.31251C8.55401 13.123 8.75003 12.927 8.75003 12.6855C8.75003 12.444 8.55401 12.248 8.31251 12.248Z" fill="white"/>
<path d="M8.31251 14.002H3.06251C2.82101 14.002 2.625 14.198 2.625 14.4395C2.625 14.681 2.82101 14.877 3.06251 14.877H8.31251C8.55401 14.877 8.75003 14.681 8.75003 14.4395C8.74999 14.198 8.55401 14.002 8.31251 14.002Z" fill="white"/>
<path d="M17.0627 11.377H16.1877C15.4641 11.377 14.8752 11.9658 14.8752 12.6895V13.5644C14.8752 14.2881 15.4641 14.8769 16.1877 14.8769H17.0627C17.7864 14.8769 18.3752 14.2881 18.3752 13.5644V12.6895C18.3752 11.9659 17.7864 11.377 17.0627 11.377ZM17.5002 13.5645C17.5002 13.806 17.3042 14.002 17.0627 14.002H16.1877C15.9462 14.002 15.7502 13.806 15.7502 13.5645V12.6895C15.7502 12.448 15.9462 12.252 16.1877 12.252H17.0627C17.3042 12.252 17.5002 12.448 17.5002 12.6895V13.5645Z" fill="white"/>
</g>
<defs>
<clipPath id="clip0">
<rect width="21" height="21" fill="white"/>
</clipPath>
</defs>
</svg>
