<svg width="22" height="22" viewBox="0 0 22 22" fill="none" xmlns="http://www.w3.org/2000/svg">
<path d="M14.4612 8.92608C14.7564 8.92608 14.996 8.68651 14.996 8.39129V3.1739C14.9959 1.92045 13.9764 0.9 12.722 0.9H3.15681C1.90245 0.9 0.88291 1.92045 0.88291 3.1739V18.8261C0.88291 20.0795 1.90245 21.1 3.15681 21.1H12.722C13.9764 21.1 14.9959 20.0795 14.9959 18.8261V13.6087C14.9959 13.3134 14.7564 13.0739 14.4611 13.0739C14.1659 13.0739 13.9264 13.3135 13.9264 13.6087V18.8261C13.9264 19.49 13.3859 20.0304 12.722 20.0304H3.15681C2.49289 20.0304 1.95246 19.49 1.95246 18.8261V3.1739C1.95246 2.50998 2.49289 1.96955 3.15681 1.96955H12.722C13.3859 1.96955 13.9264 2.50998 13.9264 3.1739V8.39129C13.9264 8.68651 14.1659 8.92608 14.4612 8.92608Z" fill="white" stroke="white" stroke-width="0.2"/>
<path d="M20.548 10.4645H6.63499C6.33976 10.4645 6.1002 10.704 6.1002 10.9993C6.1002 11.2945 6.33977 11.534 6.63499 11.534H20.548C20.8432 11.534 21.0828 11.2944 21.0828 10.9992C21.0828 10.704 20.8432 10.4645 20.548 10.4645Z" fill="white" stroke="white" stroke-width="0.2"/>
<path d="M19.791 10.9999L17.5609 13.23C17.3522 13.4386 17.3522 13.7776 17.5609 13.9862L17.5612 13.9866C17.6657 14.09 17.8025 14.1425 17.9394 14.1425C18.0761 14.1425 18.2129 14.0902 18.3167 13.9875L18.3171 13.9871L20.9257 11.3784L20.9258 11.3784C21.1344 11.1698 21.1344 10.8308 20.9257 10.6222L18.3171 8.01349C18.1085 7.80488 17.7695 7.80488 17.5609 8.01349C17.3522 8.22211 17.3522 8.56109 17.5609 8.76971L19.791 10.9999Z" fill="white" stroke="white" stroke-width="0.2"/>
</svg>
