<svg width="16" height="16" viewBox="0 0 16 16" fill="none" xmlns="http://www.w3.org/2000/svg">
<path fill-rule="evenodd" clip-rule="evenodd" d="M15.7354 1.87408L10.6199 8.01237L15.5514 14.1404C15.9468 14.6318 15.8691 15.3507 15.3777 15.7472C15.1662 15.9175 14.9125 15.9998 14.6611 15.9998C14.3274 15.9998 13.9959 15.8535 13.7697 15.5735L8.25194 8.71637C7.91137 8.29237 7.91594 7.68551 8.26451 7.26837L13.9788 0.411225C14.3834 -0.0744898 15.1034 -0.13849 15.5891 0.264939C16.0737 0.668367 16.1388 1.38951 15.7354 1.87408ZM5.97947 0.410882C6.3829 -0.073689 7.1029 -0.138832 7.58862 0.264597C8.07319 0.669168 8.13833 1.38917 7.7349 1.87374L2.61947 8.01202L7.5509 14.14C7.94633 14.6315 7.86862 15.3515 7.37719 15.7469C7.16576 15.9172 6.91319 15.9995 6.66062 15.9995C6.3269 15.9995 5.99547 15.8543 5.77033 15.5732L0.252617 8.71603C-0.0890975 8.29203 -0.0833832 7.68631 0.265188 7.26803L5.97947 0.410882Z" fill="white"/>
<mask id="mask0" mask-type="alpha" maskUnits="userSpaceOnUse" x="0" y="0" width="16" height="16">
<path fill-rule="evenodd" clip-rule="evenodd" d="M15.7354 1.87408L10.6199 8.01237L15.5514 14.1404C15.9468 14.6318 15.8691 15.3507 15.3777 15.7472C15.1662 15.9175 14.9125 15.9998 14.6611 15.9998C14.3274 15.9998 13.9959 15.8535 13.7697 15.5735L8.25194 8.71637C7.91137 8.29237 7.91594 7.68551 8.26451 7.26837L13.9788 0.411225C14.3834 -0.0744898 15.1034 -0.13849 15.5891 0.264939C16.0737 0.668367 16.1388 1.38951 15.7354 1.87408ZM5.97947 0.410882C6.3829 -0.073689 7.1029 -0.138832 7.58862 0.264597C8.07319 0.669168 8.13833 1.38917 7.7349 1.87374L2.61947 8.01202L7.5509 14.14C7.94633 14.6315 7.86862 15.3515 7.37719 15.7469C7.16576 15.9172 6.91319 15.9995 6.66062 15.9995C6.3269 15.9995 5.99547 15.8543 5.77033 15.5732L0.252617 8.71603C-0.0890975 8.29203 -0.0833832 7.68631 0.265188 7.26803L5.97947 0.410882Z" fill="white"/>
</mask>
<g mask="url(#mask0)">
</g>
</svg>
