<svg width="22" height="22" viewBox="0 0 22 22" fill="none" xmlns="http://www.w3.org/2000/svg">
<path d="M19.3333 3.54167H19.125V2C19.125 1.37963 18.6204 0.875 18 0.875H17.3333C16.713 0.875 16.2083 1.37963 16.2083 2V3.54167H5.79167V2C5.79167 1.37963 5.28704 0.875 4.66667 0.875H4C3.37963 0.875 2.875 1.37963 2.875 2V3.54167H2.66667C1.67863 3.54167 0.875 4.3453 0.875 5.33333V19.3333C0.875 20.3214 1.67863 21.125 2.66667 21.125H19.3333C20.3214 21.125 21.125 20.3214 21.125 19.3333V5.33333C21.125 4.3453 20.3214 3.54167 19.3333 3.54167ZM17.125 4V2C17.125 1.88504 17.2184 1.79167 17.3333 1.79167H18C18.115 1.79167 18.2083 1.88504 18.2083 2V4V5.33333C18.2083 5.4483 18.115 5.54167 18 5.54167H17.3333C17.2184 5.54167 17.125 5.4483 17.125 5.33333V4ZM3.79167 4V2C3.79167 1.88504 3.88504 1.79167 4 1.79167H4.66667C4.78163 1.79167 4.875 1.88504 4.875 2V4V5.33333C4.875 5.4483 4.78163 5.54167 4.66667 5.54167H4C3.88504 5.54167 3.79167 5.4483 3.79167 5.33333V4ZM20.2083 19.3333C20.2083 19.8156 19.8156 20.2083 19.3333 20.2083H2.66667C2.18437 20.2083 1.79167 19.8156 1.79167 19.3333V9.79167H20.2083V19.3333ZM20.2083 8.875H1.79167V5.33333C1.79167 4.85104 2.18437 4.45833 2.66667 4.45833H2.875V5.33333C2.875 5.9537 3.37963 6.45833 4 6.45833H4.66667C5.28704 6.45833 5.79167 5.9537 5.79167 5.33333V4.45833H16.2083V5.33333C16.2083 5.9537 16.713 6.45833 17.3333 6.45833H18C18.6204 6.45833 19.125 5.9537 19.125 5.33333V4.45833H19.3333C19.8156 4.45833 20.2083 4.85104 20.2083 5.33333V8.875Z" fill="white" stroke="white" stroke-width="0.25"/>
<path d="M14.6667 5.33203H7.33333C7.149 5.33203 7 5.48103 7 5.66536V7.66536C7 7.8497 7.149 7.9987 7.33333 7.9987H14.6667C14.851 7.9987 15 7.8497 15 7.66536V5.66536C15 5.48103 14.851 5.33203 14.6667 5.33203ZM14.3333 7.33203H7.66667V5.9987H14.3333V7.33203Z" fill="white"/>
<path d="M8.5 11.4004H5.5C5.2235 11.4004 5 11.6047 5 11.8575V14.1432C5 14.396 5.2235 14.6004 5.5 14.6004H8.5C8.7765 14.6004 9 14.396 9 14.1432V11.8575C9 11.6047 8.7765 11.4004 8.5 11.4004ZM8 13.6861H6V12.3147H8V13.6861Z" fill="white"/>
<path d="M16.5 11.4004H13.5C13.2235 11.4004 13 11.6047 13 11.8575V14.1432C13 14.396 13.2235 14.6004 13.5 14.6004H16.5C16.7765 14.6004 17 14.396 17 14.1432V11.8575C17 11.6047 16.7765 11.4004 16.5 11.4004ZM16 13.6861H14V12.3147H16V13.6861Z" fill="white"/>
<path d="M16.5 16.1992H13.5C13.2235 16.1992 13 16.4036 13 16.6564V18.9421C13 19.1949 13.2235 19.3992 13.5 19.3992H16.5C16.7765 19.3992 17 19.1949 17 18.9421V16.6564C17 16.4036 16.7765 16.1992 16.5 16.1992ZM16 18.4849H14V17.1135H16V18.4849Z" fill="white"/>
<path d="M9.02144 15.4004L6.84382 18.1014L5.71625 16.936L5 17.6763L6.51963 19.247C6.61435 19.3459 6.74352 19.4004 6.87775 19.4004C6.88535 19.4004 6.89295 19.4004 6.90055 19.3999C7.04289 19.3931 7.1756 19.325 7.26729 19.2124L9.8 16.0711L9.02144 15.4004Z" fill="white"/>
</svg>
