<svg width="23" height="16" viewBox="0 0 23 16" fill="none" xmlns="http://www.w3.org/2000/svg">
<path d="M20.4844 0H2.51562C1.12853 0 0 1.1259 0 2.50976V13.2659C0 14.6497 1.12853 15.7756 2.51562 15.7756H20.4844C21.8715 15.7756 23 14.6497 23 13.2659V2.50976C23 1.1259 21.8715 0 20.4844 0ZM2.51562 1.43415H20.4844C21.0788 1.43415 21.5625 1.9167 21.5625 2.50976V3.94391H1.4375V2.50976C1.4375 1.9167 1.92117 1.43415 2.51562 1.43415ZM20.4844 14.3415H2.51562C1.92117 14.3415 1.4375 13.8589 1.4375 13.2659V5.37806H21.5625V13.2659C21.5625 13.8589 21.0788 14.3415 20.4844 14.3415Z" fill="white"/>
<path d="M5.03125 12.1903H4.3125C3.91557 12.1903 3.59375 11.8692 3.59375 11.4732V10.7561C3.59375 10.3601 3.91557 10.0391 4.3125 10.0391H5.03125C5.42818 10.0391 5.75 10.3601 5.75 10.7561V11.4732C5.75 11.8692 5.42818 12.1903 5.03125 12.1903Z" fill="white"/>
</svg>
