<svg width="43" height="26" viewBox="0 0 43 26" fill="none" xmlns="http://www.w3.org/2000/svg">
<rect width="43" height="26" rx="4" fill="#000066"/>
<path fill-rule="evenodd" clip-rule="evenodd" d="M35.972 12.9928C35.972 17.7835 32.1339 21.6666 27.3981 21.6666C22.6634 21.6666 18.8247 17.7835 18.8247 12.9928C18.8247 8.20205 22.6634 4.31885 27.3981 4.31885C32.1339 4.31885 35.972 8.20205 35.972 12.9928Z" fill="#CC0000"/>
<path fill-rule="evenodd" clip-rule="evenodd" d="M20.7751 18.5011C20.5384 18.2106 20.3204 17.9037 20.1221 17.5824H23.1607C23.3431 17.288 23.5078 16.9812 23.6548 16.6639H19.6283C19.4911 16.3667 19.3691 16.0602 19.2653 15.7456H24.0171C24.3033 14.8806 24.458 13.9554 24.458 12.9928C24.458 12.3626 24.3916 11.7479 24.2655 11.156H19.0176C19.084 10.8431 19.1677 10.5369 19.2664 10.2375H24.0166C23.9124 9.9229 23.7911 9.61653 23.654 9.31936H19.6291C19.7762 9.00203 19.9412 8.6958 20.1231 8.40068H23.1598C22.9617 8.08019 22.7431 7.77383 22.5068 7.48296H20.7762C21.0425 7.15603 21.3318 6.84912 21.6416 6.56496C20.1198 5.16913 18.1001 4.31885 15.8847 4.31885C11.1492 4.31885 7.31055 8.20205 7.31055 12.9928C7.31055 17.7835 11.1492 21.6666 15.8847 21.6666C18.1002 21.6666 20.1201 20.8163 21.6416 19.421C21.9517 19.1363 22.2415 18.8287 22.5077 18.5011H20.7751Z" fill="#0066CC"/>
<path fill-rule="evenodd" clip-rule="evenodd" d="M21.5194 15.3372C21.153 15.4353 20.7987 15.4833 20.4241 15.4825C19.2291 15.4814 18.6067 14.9308 18.6067 13.8778C18.6067 12.6475 19.399 11.7427 20.4745 11.7427C21.3542 11.7427 21.9158 12.25 21.9158 13.0449C21.9158 13.3086 21.8778 13.5656 21.7847 13.9289H19.6596C19.584 14.4432 19.9551 14.669 20.587 14.669C20.9655 14.669 21.3076 14.6001 21.6868 14.4459L21.5194 15.3372ZM20.9484 13.2032C20.9484 13.1256 21.0665 12.5734 20.4514 12.5615C20.1119 12.5615 19.8684 12.7899 19.7698 13.2032H20.9484Z" fill="#000066"/>
<path fill-rule="evenodd" clip-rule="evenodd" d="M22.24 12.962C22.24 13.4164 22.4928 13.7305 23.0678 13.9642C23.5073 14.1462 23.5764 14.199 23.5764 14.3617C23.5764 14.5872 23.3823 14.6906 22.9511 14.6878C22.6274 14.6855 22.3319 14.6456 21.9832 14.5479L21.8289 15.3768C22.1389 15.4495 22.5735 15.4734 22.9587 15.4824C24.1063 15.4824 24.6362 15.1023 24.6362 14.2807C24.6362 13.7867 24.4152 13.4962 23.8701 13.2796C23.4146 13.0954 23.3612 13.0558 23.3612 12.889C23.3612 12.6932 23.5417 12.5943 23.8936 12.5943C24.107 12.5943 24.399 12.614 24.6763 12.648L24.8317 11.8146C24.5493 11.775 24.121 11.7432 23.8729 11.7432C22.6571 11.7432 22.2363 12.2968 22.24 12.962Z" fill="#000066"/>
<path fill-rule="evenodd" clip-rule="evenodd" d="M18.0249 15.4231H17.1334L17.1547 15.0454C16.8829 15.3434 16.5207 15.4822 16.0293 15.4822C15.4477 15.4822 15.0493 15.0799 15.0493 14.5013C15.0493 13.6218 15.7419 13.1145 16.9327 13.1145C17.0551 13.1145 17.2108 13.1238 17.3707 13.1421C17.4038 13.0243 17.4127 12.9736 17.4127 12.9097C17.4127 12.669 17.2253 12.5803 16.7242 12.5803C16.2301 12.5823 15.8968 12.6564 15.5874 12.7404L15.7397 11.9336C16.2747 11.796 16.6249 11.7427 17.0212 11.7427C17.9434 11.7427 18.4304 12.1087 18.4304 12.796C18.4381 12.9795 18.3751 13.3477 18.3432 13.5089C18.3072 13.7432 18.0516 15.1024 18.0249 15.4231ZM17.2415 13.8189C17.1286 13.8076 17.0794 13.8042 17.0021 13.8042C16.394 13.8042 16.0858 13.9873 16.0858 14.3488C16.0858 14.5758 16.2362 14.7177 16.4707 14.7177C16.9076 14.7177 17.2231 14.348 17.2415 13.8189Z" fill="#000066"/>
<path fill-rule="evenodd" clip-rule="evenodd" d="M26.5145 15.3654C26.222 15.4464 25.994 15.4818 25.7475 15.4818C25.2014 15.4818 24.9031 15.1994 24.9031 14.6966C24.8859 14.5585 25.0194 13.9202 25.0498 13.7425C25.0798 13.5641 25.5529 10.9644 25.5529 10.9644H26.6139L26.4535 11.8246H26.9977L26.8498 12.7023H26.3032C26.3032 12.7023 26.0033 14.2262 26.0033 14.3427C26.0033 14.5274 26.1139 14.6077 26.368 14.6077C26.4894 14.6077 26.5833 14.5962 26.6558 14.5742L26.5145 15.3654Z" fill="#000066"/>
<path fill-rule="evenodd" clip-rule="evenodd" d="M31.2553 11.7422C30.4776 11.7422 29.87 12.0664 29.517 12.607L29.8234 11.8049C29.2588 11.5953 28.8949 11.8945 28.566 12.3197C28.566 12.3197 28.5108 12.3903 28.4558 12.4549V11.8245H27.4596C27.3246 12.9371 27.086 14.0655 26.8994 15.1806L26.8542 15.4231H27.926C28.0277 14.8573 28.1112 14.3981 28.1944 14.0318C28.4221 13.027 28.8053 12.72 29.3805 12.856C29.2477 13.1445 29.175 13.479 29.175 13.849C29.175 14.7472 29.6568 15.4821 30.854 15.4821C32.0619 15.4821 32.9366 14.8293 32.9366 13.3408C32.9366 12.4431 32.3537 11.7422 31.2553 11.7422ZM30.9429 14.6089C30.5645 14.6148 30.3349 14.2935 30.3349 13.8126C30.3349 13.243 30.6698 12.5991 31.2079 12.5991C31.642 12.5991 31.7907 12.9474 31.7907 13.3185C31.7907 14.1289 31.4623 14.6089 30.9429 14.6089Z" fill="#000066"/>
<path fill-rule="evenodd" clip-rule="evenodd" d="M14.5497 15.4235H13.4823L14.1167 12.0427L12.6563 15.4235H11.6833L11.5056 12.0626L10.8692 15.4235H9.90088L10.7256 11.0259H12.3935L12.5324 13.4775L13.5891 11.0259H15.391L14.5497 15.4235Z" fill="#000066"/>
<path fill-rule="evenodd" clip-rule="evenodd" d="M21.7877 15.0661C21.4216 15.1644 21.0671 15.2123 20.6927 15.2115C19.4976 15.2104 18.8752 14.6596 18.8752 13.6068C18.8752 12.3765 19.6674 11.4717 20.7428 11.4717C21.6227 11.4717 22.1843 11.979 22.1843 12.7738C22.1843 13.0375 22.1463 13.294 22.0533 13.6579H19.9283C19.8525 14.1717 20.2234 14.3978 20.8553 14.3978C21.2338 14.3978 21.5762 14.329 21.9552 14.1745L21.7877 15.0661ZM21.2168 12.9323C21.2168 12.8546 21.3349 12.3026 20.7201 12.2905C20.3806 12.2905 20.1371 12.5189 20.0383 12.9323H21.2168Z" fill="white"/>
<path fill-rule="evenodd" clip-rule="evenodd" d="M22.5076 12.6904C22.5076 13.145 22.7603 13.4587 23.3351 13.6927C23.7749 13.8749 23.8438 13.9275 23.8438 14.0898C23.8438 14.3157 23.6497 14.4191 23.2189 14.4165C22.8947 14.414 22.5992 14.3741 22.2508 14.2764L22.0962 15.105C22.4064 15.1781 22.8412 15.2019 23.2261 15.2111C24.3737 15.2111 24.9038 14.8308 24.9038 14.0089C24.9038 13.5152 24.6826 13.2245 24.1376 13.0082C23.682 12.8241 23.6285 12.7839 23.6285 12.6176C23.6285 12.4219 23.8093 12.3225 24.1611 12.3225C24.3745 12.3225 24.6664 12.3427 24.9437 12.3767L25.0992 11.5432C24.8168 11.5031 24.3884 11.4717 24.1406 11.4717C22.9245 11.4717 22.5038 12.0251 22.5076 12.6904Z" fill="white"/>
<path fill-rule="evenodd" clip-rule="evenodd" d="M18.2928 15.152H17.401L17.4225 14.7742C17.1506 15.072 16.7886 15.2107 16.2972 15.2107C15.7157 15.2107 15.3169 14.8085 15.3169 14.2299C15.3169 13.3507 16.0096 12.8434 17.2005 12.8434C17.3228 12.8434 17.4784 12.8529 17.6385 12.8704C17.6716 12.7529 17.6804 12.7026 17.6804 12.6386C17.6804 12.3973 17.4931 12.3091 16.9922 12.3091C16.498 12.3111 16.1646 12.3853 15.8554 12.4695L16.0073 11.6625C16.5424 11.5249 16.8924 11.4717 17.2891 11.4717C18.2112 11.4717 18.6981 11.8373 18.6981 12.5248C18.7061 12.7085 18.6427 13.076 18.6112 13.2378C18.5748 13.472 18.3193 14.8313 18.2928 15.152ZM17.5099 13.5475C17.3972 13.5357 17.3479 13.5327 17.2704 13.5327C16.6626 13.5327 16.3542 13.7156 16.3542 14.0768C16.3542 14.3042 16.5049 14.4463 16.739 14.4463C17.1762 14.4463 17.4916 14.0762 17.5099 13.5475Z" fill="white"/>
<path fill-rule="evenodd" clip-rule="evenodd" d="M26.7819 15.0949C26.4894 15.1761 26.2614 15.2114 26.0148 15.2114C25.4687 15.2114 25.1707 14.9289 25.1707 14.4261C25.1534 14.288 25.2869 13.6497 25.3171 13.472C25.3474 13.2936 25.8205 10.6938 25.8205 10.6938H26.8814L26.7211 11.5539H27.2653L27.1173 12.4318H26.5708C26.5708 12.4318 26.2707 13.9557 26.2707 14.0717C26.2707 14.257 26.3814 14.3368 26.6354 14.3368C26.7569 14.3368 26.8506 14.3258 26.9235 14.3036L26.7819 15.0949Z" fill="white"/>
<path fill-rule="evenodd" clip-rule="evenodd" d="M32.0589 13.0474C32.0589 13.8585 31.7301 14.3385 31.2107 14.3385C30.8323 14.344 30.6029 14.0231 30.6029 13.5423C30.6029 12.9726 30.9377 12.3286 31.4757 12.3286C31.91 12.3286 32.0589 12.6769 32.0589 13.0474ZM33.2043 13.0701C33.2043 12.1725 32.6212 11.4717 31.5231 11.4717C30.2597 11.4717 29.4426 12.3235 29.4426 13.5784C29.4426 14.4765 29.9245 15.2115 31.1218 15.2115C32.3298 15.2115 33.2043 14.5588 33.2043 13.0701Z" fill="white"/>
<path fill-rule="evenodd" clip-rule="evenodd" d="M27.7278 11.5536C27.593 12.6665 27.3542 13.7948 27.1678 14.9098L27.1228 15.1527H28.1944C28.5806 12.9991 28.7103 12.3857 29.5197 12.6016L29.909 11.5827C29.3443 11.3731 28.981 11.6725 28.6521 12.098C28.6818 11.9065 28.7376 11.7216 28.7242 11.5536H27.7278Z" fill="white"/>
<path fill-rule="evenodd" clip-rule="evenodd" d="M14.8171 15.1522H13.75L14.3841 11.7714L12.9236 15.1522H11.9507L11.7728 11.7911L11.1364 15.1522H10.1682L10.9928 10.7544H12.6609L12.749 13.477L13.9231 10.7544H15.6583L14.8171 15.1522Z" fill="white"/>
</svg>
