<svg width="537" height="352" viewBox="0 0 537 352" fill="none" xmlns="http://www.w3.org/2000/svg">
<path d="M333.331 351.008C320.573 351.008 308.447 349.68 298.68 347.184C285.787 343.887 277.817 338.742 275.629 332.3C273.995 327.488 276.176 323.917 280.135 317.434C283.601 311.756 288.35 303.983 293.67 290.888C297.512 281.427 298.629 276.633 301.078 266.131C302.522 259.932 304.5 251.439 307.813 238.799C311.177 225.963 313.219 219.157 315.377 211.952C316.34 208.739 317.353 205.356 318.551 201.222C317.675 201.741 316.795 202.266 315.916 202.788C316.197 205.189 316.261 206.879 316.075 207.37C315.96 207.675 315.735 207.9 315.443 208.007C315.185 208.102 314.878 208.089 314.63 207.971C314.139 207.741 314.004 207.508 312.959 204.544C296.776 214.158 280.258 223.938 263.88 233.445C258.423 236.614 252.935 239.805 247.429 243.013C247.002 246.002 246.662 249.007 246.409 252.012C245.606 261.578 245.916 268.399 246.12 272.912C246.176 274.143 246.225 275.205 246.243 276.137C246.476 287.806 241.501 302.048 232.936 314.234C223.91 327.073 211.96 336.195 200.148 339.262C191.531 341.499 186.789 339.587 180.225 336.945C174.09 334.475 166.455 331.399 152.24 329.904C136.643 328.263 127.052 330.032 117.778 331.739C107.945 333.551 98.6557 335.261 83.3367 332.796C71.402 330.877 65.2749 327.887 59.3497 324.995C54.5339 322.645 49.5571 320.216 41.3442 318.276C22.2318 313.76 9.03441 318.171 -6.24373 323.277C-15.8344 326.484 -26.7057 330.116 -40.2636 331.778C-49.7137 332.935 -58.0877 333.283 -66.6201 332.868C-82.9028 332.08 -93.838 328.611 -103.485 325.55C-107.713 324.209 -111.708 322.942 -115.762 322.033C-134.997 317.723 -156.791 321.201 -180.543 332.369C-181.054 332.609 -181.662 332.389 -181.903 331.877C-182.143 331.366 -181.923 330.756 -181.412 330.516C-157.241 319.148 -135.002 315.621 -115.317 320.034C-111.176 320.963 -107.14 322.243 -102.869 323.597C-93.3421 326.62 -82.5424 330.047 -66.523 330.82C-58.1081 331.227 -49.8441 330.884 -40.5141 329.743C-27.1608 328.107 -16.8569 324.664 -6.89299 321.332C8.68166 316.126 22.1321 311.631 41.812 316.282C50.2447 318.276 55.3289 320.753 60.2444 323.152C66.3025 326.108 72.0257 328.898 83.6613 330.772C98.6327 333.18 107.753 331.501 117.408 329.722C126.822 327.987 136.561 326.195 152.453 327.864C166.951 329.39 175.064 332.656 180.987 335.041C187.418 337.631 191.669 339.344 199.634 337.276C224.866 330.726 244.645 298.495 244.198 276.175C244.18 275.269 244.132 274.219 244.078 273.004C243.871 268.437 243.559 261.537 244.372 251.838C244.581 249.33 244.852 246.821 245.185 244.318C230.316 252.985 215.324 261.77 200.409 270.552C200.086 270.741 199.688 270.738 199.366 270.549C199.046 270.357 198.854 270.006 198.867 269.633L199.207 260.418C199.22 260.06 199.422 259.732 199.736 259.558C204.611 256.876 209.498 254.175 214.391 251.462C214.189 251.554 213.989 251.644 213.795 251.731C209.682 253.571 204.35 255.593 202.85 255.222C202.356 255.099 202.129 254.779 202.039 254.6C201.513 253.548 202.717 252.726 203.594 252.125C204.529 251.485 205.989 250.594 208.187 249.322C212.443 246.86 219.194 243.12 229.416 237.463C230.016 237.131 230.63 236.79 231.256 236.445C231.113 236.44 230.97 236.427 230.827 236.411C228.605 236.161 227.591 234.84 225.369 231.945C224.183 230.401 222.56 228.287 220.139 225.51C217.813 222.84 213.481 217.875 207.699 213.426C201.628 208.757 197.617 205.673 192.778 206.208C188.535 206.679 184.499 209.812 182.853 212.522C182.129 213.713 182.032 214.547 182.181 214.934C182.413 215.538 183.965 215.563 185.759 215.594C188.392 215.638 191.999 215.699 195.731 217.519C205.286 222.177 209.174 235.344 209.186 240.051C209.189 240.855 209.092 241.825 208.325 242.204C206.957 242.877 205.789 241.385 201.385 234.709C200.994 234.115 200.564 233.465 200.133 232.82C200.567 233.87 201.032 234.96 201.446 235.93C204.943 244.129 205.567 245.959 204.222 246.719C203.202 247.295 202.443 246.358 201.293 244.94C200.866 244.413 200.352 243.781 199.744 243.089C200.043 243.911 200.309 244.85 200.544 245.905C201.224 248.979 200.8 250.988 199.772 255.839C199.501 257.119 199.194 258.57 198.844 260.318C198.596 261.562 198.392 262.635 198.208 263.602C197.62 266.689 197.231 268.729 196.268 272.011C194.307 278.678 192.97 280.273 191.186 280.882C189.691 281.394 188.321 280.985 187.219 280.657C186.168 280.345 185.552 280.183 185.072 280.519C184.599 280.849 184.502 281.496 184.369 282.612C184.315 283.066 184.256 283.58 184.146 284.11C183.103 289.142 177.562 294.776 171.708 294.781C171.705 294.781 171.703 294.781 171.7 294.781C167.782 294.781 164.103 292.229 162.342 289.854C161.724 289.019 161.345 288.226 161.215 287.501C159.193 288.279 156.264 289.324 153.178 290.14C149.173 291.2 146.479 291.507 144.544 289.948C143.539 289.14 142.473 287.609 142.772 285.96C143.077 284.286 144.587 283.385 147.854 282.001C150.073 281.061 151.783 280.473 153.033 280.045C154.799 279.439 155.576 279.152 155.947 278.689C155.407 278.453 154.901 278.164 154.459 277.834C149.211 273.912 151.231 263.364 152.703 255.662C153.439 251.807 154.063 249.977 154.85 247.658C155.515 245.7 156.269 243.479 157.319 239.388C159.055 232.631 159.462 229.037 159.761 226.411C160.083 223.577 160.295 221.706 161.803 218.243C166.016 208.576 173.226 202.842 177.099 199.763C180.69 196.909 182.756 195.926 185.371 194.682C187.303 193.763 189.494 192.721 192.878 190.648C200.805 185.787 209.194 177.256 225.911 160.26C230.661 155.43 231.64 154.25 232.757 152.42C233.943 150.482 234.702 148.742 235.369 147.209C236.599 144.388 237.567 142.161 240.285 140.63C241.821 139.765 243.091 139.617 244.017 139.507C244.973 139.394 245.376 139.33 245.788 138.826C246.591 137.846 246.217 136.522 245.486 134.267C244.85 132.304 244.06 129.86 244.369 127.075C244.983 121.561 249.469 116.642 257.702 112.454C261.26 110.645 263.456 110.409 267.094 110.017C269.266 109.785 271.971 109.493 275.874 108.776C281.002 107.832 283.264 107.089 286.686 105.966C289.846 104.929 294.173 103.508 302.726 101.284C303.746 101.018 304.838 100.739 305.962 100.45C309.738 99.482 315.351 98.041 318.541 96.9838C317.342 96.756 316.018 96.262 314.998 95.1025C314.045 94.0173 313.948 93.0088 313.846 91.9388C313.771 91.1735 313.69 90.3084 313.27 89.1386C312.741 87.6592 312.169 87.0449 311.305 86.1132C310.533 85.2838 309.574 84.2497 308.416 82.3249C306.586 79.2841 304.858 76.4096 305.98 74.0241C306.4 73.1308 307.069 72.6009 307.849 72.2682C307.194 71.3569 306.456 70.2947 305.538 68.8767C303.273 65.3854 300.932 61.7763 299.319 57.9676C295.474 48.8937 296.482 40.4726 297.371 33.0446C298.516 23.4665 299.273 17.1391 304.398 13.0821C306.336 11.5489 307.749 11.2853 309.707 10.9218C311.42 10.6044 313.549 10.2077 317.105 8.83571C321.627 7.09261 323.784 5.5594 325.686 4.20536C327.654 2.80781 329.351 1.59967 332.874 0.614219C335.754 -0.19206 337.084 -0.0564006 339.502 0.191882C341.68 0.414569 344.972 0.752439 351.526 0.575825C354.067 0.506715 356.122 0.391533 357.934 0.286588C363.259 -0.0180064 365.935 -0.169024 368.419 2.02457C369.963 3.38885 370.572 4.90414 371.106 6.24282C371.722 7.78115 372.254 9.10959 374.091 10.2921C375.321 11.0856 376.453 11.3774 377.547 11.6615C379.004 12.0378 380.51 12.4269 381.42 14.0727C382.125 15.3499 381.97 16.4608 381.829 17.4412C381.709 18.2935 381.604 19.0307 381.987 19.9931C382.463 21.1884 383.283 21.6492 384.423 22.2839C385.213 22.7268 386.111 23.2259 387.01 24.0526C389.027 25.8981 389.288 27.7539 389.919 32.2357C390.188 34.1401 390.52 36.5077 391.077 39.6458C391.524 42.1568 391.888 43.8871 392.179 45.277C392.695 47.7342 393.01 49.2188 393.135 52.0651C393.227 54.1512 393.199 56.3985 393.058 58.2312C392.864 60.7448 392.578 61.9504 391.484 62.0067C391.016 62.0297 390.717 61.8659 390.497 61.528C391.2 63.9776 391.701 65.9152 392.079 67.3819C394.162 75.4472 395.208 79.494 395.006 82.7191C394.906 84.3342 394.674 85.6447 394.487 86.6993C394.145 88.6344 394.03 89.4483 394.625 90.2213C395.525 91.386 397.255 91.4167 400.006 91.3706C400.653 91.3604 401.325 91.3476 402.012 91.3604C406.59 91.4397 408.727 92.5275 411.687 94.0352C414.43 95.4302 417.843 97.1681 424.76 99.0751C425.981 99.4129 427.216 99.7278 428.522 100.061C431.559 100.836 435.002 101.714 440.296 103.35C443.113 104.22 444.823 104.803 445.848 105.239C446.569 105.546 447.775 106.058 447.658 107.169C447.499 108.663 445.792 108.676 441.231 108.715C436.6 108.75 429.604 108.807 421.084 110.289C417.878 110.847 415.726 111.389 414.152 111.784C411.429 112.47 410.062 112.813 407.679 112.142C400.64 110.156 397 102.861 394.589 98.0307C394.014 96.8789 393.332 95.5146 392.844 94.8133C392.78 95.5991 392.846 96.9608 392.907 98.1997C393.089 101.95 393.362 107.614 391.916 114.272C390.75 119.634 388.991 127.738 381.972 132.803C381.297 133.289 375.998 136.945 369.125 136.945C367.901 136.945 366.628 136.829 365.319 136.558C363.126 136.105 360.966 135.235 356.428 132.135C350.398 128.017 346.523 124.249 343.696 121.5C340.143 118.047 338.188 116.143 335.238 116.273C334.719 116.296 333.883 116.701 332.705 117.433C335.79 144.8 327.508 176.427 327.421 176.752C326.828 178.984 326.266 181.078 325.734 183.051C343.195 173.084 357.469 164.939 368.455 158.676C378.621 152.881 386.149 148.591 390.834 145.931C393.025 144.687 394.536 143.833 395.499 143.287C397.245 142.304 397.245 142.304 397.667 142.42C397.93 142.494 398.155 142.671 398.288 142.909C398.367 143.052 398.72 143.799 397.8 144.36C397.716 144.411 397.588 144.488 397.416 144.59C397.084 144.787 396.588 145.079 395.936 145.463C394.635 146.226 392.711 147.347 390.223 148.796C384.357 152.205 376.819 156.562 368.995 161.064C358.11 167.327 342.909 176.045 324.855 186.307C324.584 187.305 324.318 188.27 324.062 189.204C360.212 168.18 396.248 146.722 431.896 124.999C430.013 125.634 427.942 126.581 426.232 127.512L400.563 142.921C400.083 143.211 399.459 143.057 399.165 142.578C398.871 142.1 399.019 141.473 399.495 141.176C407.817 135.964 416.227 130.906 424.491 126.14C424.668 126.038 424.916 125.897 425.222 125.731L470.571 98.5068C470.906 98.3072 471.325 98.3123 471.652 98.5247C472.884 99.3208 474.096 100.13 475.256 100.931L475.888 101.368C477.368 102.395 477.923 102.781 478.83 102.996C479.755 103.217 480.438 103.122 480.89 103.058C481.281 103.004 482.01 102.902 482.385 103.583C482.552 103.882 482.585 104.24 482.483 104.591C482.271 105.326 481.849 106.767 465.967 116.217C462.66 118.584 458.23 121.533 452.739 125.014C450.418 126.486 447.893 128.063 445.165 129.744L454.904 135.294C455.065 135.125 455.216 134.963 455.362 134.81C456.773 133.31 457.706 132.319 458.892 132.829C459.743 133.195 459.848 134.073 459.912 134.597C459.945 134.882 459.986 135.204 460.093 135.299C460.29 135.468 461.308 135.099 462.051 134.83C463.117 134.446 464.441 133.968 466.036 133.778C468.805 133.451 471.118 133.842 472.912 134.946C474.134 135.696 475.083 136.748 475.778 137.956C476.509 138.171 477.194 139.061 478.15 140.3C479.242 141.718 480.739 143.661 482.961 145.737C484.402 147.083 485.445 147.823 486.207 148.366C487.352 149.18 488.109 149.715 488.564 151.148C488.789 151.857 488.873 152.581 488.85 153.311C491.511 151.977 494.466 151.353 496.508 152.878C498.819 154.603 498.609 158.12 498.579 158.517C498.451 160.107 497.899 160.949 495.565 164.481L494.834 165.589C492.884 168.553 492.329 169.472 492.418 169.843C492.582 170.524 494.842 171.517 497.457 172.664C500.971 174.205 502.114 174.282 502.454 174.072C502.664 173.941 502.735 173.811 502.978 173.25C503.144 172.861 503.354 172.38 503.714 171.786C504.673 170.217 506.076 168.932 507.888 167.957C508.686 167.22 509.478 166.444 510.243 165.656C510.585 165.303 510.882 164.985 511.145 164.706C512.402 163.37 513.093 162.63 514.253 162.723C515.329 162.807 516.26 163.647 517.014 165.221C517.182 165.574 517.136 165.994 516.891 166.301L511.651 172.892C511.362 173.255 510.866 173.378 510.439 173.191C510.168 173.071 509.91 173.02 509.657 173.022C508.826 173.038 507.789 173.744 507.078 174.781C506.449 175.695 506.309 176.521 506.447 176.9C506.554 177.2 506.971 177.328 507.968 177.568C509.284 177.886 511.089 178.318 512.694 180.077C513.233 180.665 513.573 181.211 513.847 181.651C514.253 182.301 514.376 182.457 514.654 182.521C515.529 182.713 516.75 181.687 517.482 181.072C517.982 180.65 518.161 180.412 518.553 179.89C518.841 179.503 519.24 178.974 519.918 178.183C520.843 177.1 521.362 176.619 521.778 176.23C522.164 175.869 522.469 175.585 523.023 174.886C523.703 174.028 524.115 173.36 524.445 172.823C524.984 171.945 525.452 171.187 526.497 171.11C527.381 171.046 528.348 171.548 529.081 172.452C529.81 173.348 530.099 174.387 529.856 175.229C529.552 176.286 528.642 176.588 527.839 176.854C527.272 177.041 526.63 177.253 525.973 177.747C525.211 178.321 525.027 178.897 524.772 179.695C524.506 180.522 524.179 181.551 523.118 182.542C522.596 183.028 522.149 183.281 521.707 183.448C522.714 183.916 523.821 184.633 525.153 185.652C529.409 188.913 538.263 195.696 536.228 201.278C535.331 203.735 532.755 204.775 531.05 205.46C524.659 208.033 518.266 205.455 515.081 203.733L512.336 208.64L512.814 209.256C513.093 209.615 513.103 210.116 512.837 210.485C510.843 213.255 508.417 215.197 505.826 216.101C504.412 216.595 503.382 216.618 502.487 216.183C500.184 215.062 500.238 211.645 500.25 211.258C500.258 211.051 500.327 210.851 500.45 210.685L504.795 204.798C505.112 204.368 505.708 204.255 506.16 204.539L507.377 205.302L510.797 200.357L500.082 194.052L496.664 197.958V199.753C496.664 200.024 496.557 200.282 496.368 200.474C495.519 201.332 494.668 202.225 493.84 203.131C493.395 203.62 493.024 204.035 492.71 204.385C491.483 205.765 490.921 206.395 489.814 206.743C487.858 207.36 485.108 206.756 484.351 205.023C483.83 203.83 484.42 202.819 485.394 201.145C485.627 200.746 485.893 200.29 486.184 199.765C487.068 198.173 487.869 196.527 488.564 194.874C488.732 194.475 489.126 194.224 489.563 194.249L491.301 194.347L494.361 190.057C491.646 186.701 488.63 184.525 485.386 183.586C484.607 183.361 483.945 183.24 483.306 183.125C482.01 182.89 480.785 182.67 479.426 181.623C478.196 180.678 476.619 178.707 475.336 171.784C474.845 169.137 474.646 167.071 474.484 165.41C474.198 162.449 474.04 160.818 472.611 159.062C471.414 157.593 470.016 156.636 469.354 156.835C468.066 157.227 467.698 162.83 467.521 165.52C467 173.481 467.1 180.043 467.138 182.514C467.143 182.872 467.148 183.151 467.148 183.338C467.151 183.906 466.987 184.597 466.182 184.648C465.875 184.666 465.579 184.548 465.369 184.326C464.812 183.729 464.186 179.57 464.048 178.49C463.667 175.495 463.365 170.78 464.081 165.321C464.188 164.504 464.308 163.736 464.426 162.991C464.733 161.043 465.114 158.617 464.544 158.253C463.976 157.89 461.875 158.696 460.359 160.38C458.442 162.51 458.342 165.359 458.578 170.913C458.792 175.984 459.168 180.297 459.444 183.443C459.608 185.319 459.738 186.801 459.781 187.843C459.83 188.974 459.884 190.256 458.815 190.51C457.731 190.768 457.11 189.642 456.213 187.177C454.201 181.659 453.774 177.123 453.465 173.811C453.297 172.022 453.087 169.792 452.604 169.616C451.883 169.349 449.352 171.261 448.008 174.2C447.154 176.068 446.975 178.119 447.06 179.885C447.755 181.858 447.842 183.724 447.844 184.474C447.854 184.643 447.824 184.858 447.681 185.081C447.52 185.329 447.259 185.495 446.967 185.536C446.674 185.58 446.38 185.49 446.155 185.298C445.999 185.163 445.894 184.996 445.84 184.799H445.838L445.827 184.769C445.6 184.021 445.158 182.35 445.025 180.292C444.672 179.373 444.156 178.451 443.409 177.691C442.395 176.662 441.336 176.112 440.715 176.291C439.542 176.632 439.064 179.511 438.885 180.594C438.151 185.022 439.406 188.644 441.142 193.656C442.264 196.893 443.064 198.255 443.698 199.164C445.247 201.38 446.967 202.673 447.701 203.226C447.806 203.305 447.893 203.372 447.964 203.426C451.64 206.31 451.149 212.617 450.531 220.601C450.05 226.797 449.503 233.818 450.901 240.381C452.944 249.98 459.49 260.687 465.206 260.687C465.213 260.687 465.224 260.687 465.231 260.687C472.087 260.648 480.632 245.201 483.405 231.94C483.799 230.058 484.078 228.195 484.326 226.554C485.031 221.847 485.588 218.131 488.344 217.345C492.017 216.3 496.345 221.729 498.323 225.106C502.472 232.18 502.758 241.121 499.177 251.677C497.505 256.607 494.026 266.863 484.068 271.473C477.199 274.652 470.686 273.574 465.451 272.707C460.743 271.926 451.878 269.758 445.388 264.017C441.017 260.149 437.857 254.738 435.953 247.876C435.958 248.134 435.963 248.388 435.966 248.639C436.4 271.493 436.618 282.966 436.733 286.247C437.321 303.064 438.223 320.231 439.414 337.273C439.452 337.836 439.028 338.328 438.466 338.366C437.903 338.404 437.413 337.98 437.374 337.416C436.181 320.352 435.278 303.159 434.688 286.319C434.573 283.019 434.355 271.542 433.921 248.677C433.921 248.605 433.785 241.526 433.762 234.425C433.711 219.659 434.136 219.218 434.547 218.791C434.752 218.579 435.023 218.461 435.309 218.456C435.603 218.443 435.887 218.573 436.083 218.783C436.454 219.18 436.436 219.393 436.273 221.422C434.683 241.113 438.202 254.928 446.737 262.479C451.198 266.425 458.138 269.415 465.781 270.682C470.74 271.504 476.908 272.528 483.206 269.612C492.367 265.371 495.657 255.675 497.237 251.017C500.619 241.049 500.389 232.679 496.557 226.142C494.379 222.428 490.834 218.763 488.901 219.313C487.411 219.738 486.918 223.037 486.345 226.856C486.095 228.528 485.811 230.422 485.404 232.36C482.812 244.743 474.142 262.683 465.239 262.734C465.226 262.734 465.213 262.734 465.201 262.734C457.606 262.734 450.855 250.013 448.897 240.809C447.438 233.954 447.998 226.777 448.488 220.442C449.038 213.359 449.513 207.245 446.702 205.038C446.64 204.99 446.564 204.933 446.472 204.864C445.659 204.252 443.757 202.824 442.021 200.341C441.27 199.266 440.408 197.797 439.21 194.331C437.443 189.232 436.048 185.204 436.866 180.261C437.17 178.431 437.735 175.024 440.148 174.325C442.055 173.772 443.923 175.295 444.866 176.253C444.976 176.363 445.081 176.478 445.183 176.593C445.357 175.513 445.661 174.412 446.149 173.345C447.476 170.445 450.789 166.764 453.312 167.691C455.004 168.313 455.203 170.424 455.502 173.616C455.766 176.422 456.116 180.138 457.491 184.561C457.466 184.251 457.438 183.937 457.409 183.619C457.133 180.453 456.755 176.114 456.538 170.998C456.3 165.395 456.338 161.791 458.846 159.006C460.469 157.204 463.651 155.243 465.653 156.526C466.059 156.787 466.346 157.132 466.54 157.547C466.893 156.444 467.358 155.691 467.997 155.243C467.808 155.197 467.619 155.1 467.453 154.918C467.292 154.739 466.826 154.089 467.657 153.224C467.831 153.045 468.069 152.824 468.373 152.545C470.144 150.918 474.295 147.106 474.26 142.379C474.254 141.787 474.185 141.217 474.127 140.715C474.058 140.147 473.989 139.571 474.075 139.082C473.536 138.104 472.8 137.259 471.849 136.676C470.456 135.818 468.582 135.524 466.284 135.795C464.922 135.957 463.769 136.374 462.752 136.74C461.267 137.275 459.866 137.782 458.767 136.835C458.166 136.318 458.002 135.639 457.923 135.104C457.604 135.404 457.205 135.829 456.857 136.197C456.617 136.451 456.361 136.725 456.083 137.014C456.049 137.091 456.003 137.162 455.952 137.229C455.853 137.354 454.702 138.78 452.872 140.157C451.911 140.984 451.019 141.572 449.925 142.002C449.299 142.251 448.685 142.415 448.102 142.519C446.865 142.822 445.531 142.896 444.143 142.606C444.079 142.594 443.949 142.563 443.767 142.519C442.689 142.389 441.523 142.148 440.452 141.235C440.186 141.009 439.642 140.546 439.235 139.865C438.977 139.486 438.788 139.061 438.703 138.588C438.427 137.037 439.406 135.854 440.355 134.71C440.651 134.352 440.961 133.978 441.252 133.576C441.446 133.279 441.64 132.957 441.832 132.596C442.029 132.227 442.208 131.846 442.369 131.457C425.78 141.601 402.406 155.231 372.652 172.109C364.966 184.067 362.954 192.171 364.953 194.009C366.295 195.242 370.965 195.57 374.498 194.193C375.183 193.927 375.83 193.597 376.456 193.277C378.105 192.437 379.661 191.644 381.216 192.445C381.867 192.78 382.384 193.341 382.754 194.119C383.018 193.855 383.301 193.571 383.608 193.269C386.885 190.018 388.531 188.385 389.689 187.443C391.356 186.087 394.456 183.56 398.84 182.752C399.157 182.693 406.652 181.351 408.022 184.646C408.947 186.87 406.598 190.53 404.661 192.795C405.729 192.547 406.905 192.491 407.894 193.138C408.694 193.661 408.98 194.39 409.234 195.033C409.474 195.639 409.699 196.215 410.402 196.778C410.43 196.801 410.972 197.216 411.777 197.513C415.849 199.008 422.901 195.424 422.97 195.388C426.638 193.499 429.082 191.587 430.866 190.19C433.003 188.518 434.417 187.413 435.935 188.229C437.229 188.925 437.231 190.356 437.231 191.871C437.231 193.43 437.231 195.373 438.297 197.656C438.921 198.995 439.537 199.502 440.391 200.206C441.308 200.963 442.451 201.905 443.849 204.058C445.746 206.978 446.502 209.512 447.167 211.747C448.003 214.55 448.24 216.666 447.967 218.824C447.709 220.849 447.328 222.111 446.221 222.149C446.201 222.149 446.18 222.149 446.157 222.149C445.061 222.149 444.79 221.069 444.148 218.527C443.867 217.414 443.517 216.029 443.031 214.373C442.162 211.419 441.502 209.832 441.07 209.658C440.661 209.492 440.25 209.694 439.079 210.36C438.468 210.708 437.709 211.138 436.761 211.563C434.956 212.371 428.696 214.818 423.995 212.438C422.495 211.678 421.682 210.695 421.03 209.904C420.307 209.029 419.954 208.64 419.141 208.578C418.282 208.514 417.651 208.895 416.922 209.338C416.074 209.853 415.016 210.493 413.668 210.068C412.342 209.648 411.808 208.542 411.189 207.262C410.859 206.579 410.486 205.803 409.916 204.902C409.06 203.548 408.014 202.307 406.797 201.209C405.31 202.386 403.774 203.438 402.219 204.344C401.839 204.567 401.468 204.774 401.113 204.972C399.346 205.954 398.337 206.559 398.099 207.541C398.071 207.657 398.05 207.785 398.03 207.92C397.953 208.419 397.833 209.172 397.107 209.592C396.159 210.145 395.198 209.574 394.423 209.118C394.122 208.939 393.812 208.755 393.505 208.624C392.624 208.243 391.99 208.361 389.137 208.977C388.82 209.047 388.483 209.118 388.117 209.198C383.57 210.168 381.681 210.554 380.569 210.357C379.173 210.109 377.703 209.402 374.69 206.651C371.811 204.022 370.232 201.99 369.186 200.643C368.739 200.067 368.235 199.42 367.995 199.256C367.596 199.481 366.436 201.061 365.378 206.049C364.611 209.674 363.662 216.216 363.504 226.79C363.192 247.919 362.801 274.217 377.576 302.703C382.256 311.728 386.353 316.94 389.347 320.743C392.787 325.12 394.865 327.762 393.759 331.852C392.25 337.427 385.714 342.177 374.858 345.594C365.306 348.599 352.645 350.488 339.208 350.913C337.237 350.977 335.276 351.008 333.331 351.008ZM321.123 199.694C319.653 204.818 318.462 208.796 317.34 212.54C315.185 219.728 313.15 226.516 309.794 239.319C306.489 251.93 304.513 260.405 303.071 266.594C300.6 277.204 299.47 282.047 295.566 291.658C290.186 304.907 285.388 312.765 281.883 318.501C278.011 324.844 276.242 327.736 277.569 331.639C279.522 337.393 286.998 342.083 299.189 345.2C310.264 348.031 324.454 349.337 339.144 348.868C352.4 348.448 364.866 346.593 374.245 343.641C384.403 340.444 390.469 336.185 391.785 331.317C392.624 328.22 391.092 326.272 387.741 322.01C384.7 318.143 380.533 312.844 375.763 303.647C360.751 274.703 361.145 248.119 361.462 226.759C361.661 213.262 363.471 197.421 367.913 197.193C369.048 197.129 369.708 197.984 370.799 199.387C371.801 200.677 373.317 202.627 376.067 205.138C379.002 207.82 380.114 208.197 380.924 208.343C381.688 208.478 384.204 207.941 387.69 207.198C388.053 207.122 388.391 207.047 388.705 206.981C391.685 206.336 392.803 206.095 394.316 206.748C394.743 206.932 395.126 207.16 395.466 207.36C395.625 207.454 395.832 207.575 396.003 207.664C396.005 207.644 396.008 207.626 396.011 207.608C396.036 207.444 396.064 207.26 396.113 207.06C396.575 205.161 398.219 204.245 400.121 203.185C400.463 202.993 400.824 202.793 401.194 202.578C402.887 201.593 404.561 200.418 406.169 199.09C406.547 198.777 407.091 198.777 407.47 199.09C409.126 200.456 410.529 202.043 411.647 203.812C412.278 204.81 412.695 205.678 413.032 206.374C413.599 207.552 413.84 207.977 414.284 208.117C414.711 208.253 415.056 208.079 415.864 207.588C416.718 207.068 417.781 206.423 419.295 206.536C421.01 206.663 421.858 207.692 422.607 208.599C423.195 209.31 423.801 210.045 424.921 210.61C428.918 212.635 434.792 210.201 435.927 209.694C436.786 209.31 437.469 208.921 438.07 208.581C439.363 207.846 440.48 207.209 441.84 207.762C442.921 208.202 443.634 209.177 444.992 213.797C445.426 215.277 445.753 216.539 446.019 217.588C446.083 216.034 445.83 214.434 445.204 212.333C444.577 210.232 443.867 207.849 442.131 205.176C440.904 203.287 439.938 202.491 439.087 201.79C438.146 201.014 437.259 200.282 436.439 198.524C435.184 195.829 435.181 193.543 435.181 191.874C435.181 191.068 435.181 190.151 434.964 190.036C434.621 189.852 433.292 190.891 432.121 191.807C430.273 193.254 427.74 195.235 423.901 197.213C423.581 197.38 415.982 201.245 411.066 199.44C410.149 199.102 409.499 198.747 409.124 198.373L409.116 198.381C407.989 197.474 407.605 196.499 407.324 195.788C407.12 195.271 407.012 195.015 406.767 194.853C406.064 194.393 404.625 194.902 403.674 195.24C402.708 195.583 401.609 195.972 401.067 195.012C400.517 194.042 401.524 193.085 402.007 192.627C404.397 190.356 406.583 186.532 406.125 185.431C405.747 184.52 402.317 184.19 399.203 184.766C395.333 185.48 392.603 187.704 390.972 189.033C389.891 189.913 388.271 191.521 385.04 194.725C384.176 195.58 383.47 196.292 383.002 196.765C382.734 197.037 382.335 197.137 381.972 197.021C381.607 196.909 381.336 196.602 381.269 196.225C381.083 195.184 380.737 194.505 380.275 194.267C379.649 193.947 378.596 194.482 377.376 195.104C376.737 195.429 376.011 195.8 375.234 196.103C371.106 197.713 365.651 197.439 363.563 195.519C361.809 193.906 361.727 190.679 363.315 185.925C364.736 181.671 367.415 176.437 371.065 170.788C371.154 170.65 371.277 170.535 371.42 170.453C395.392 156.856 415.23 145.363 430.71 136.105C394.633 155.986 358.747 177.325 323.978 197.999C323.027 198.56 322.076 199.128 321.123 199.694ZM163.319 286.669C163.278 286.718 163.25 286.769 163.234 286.818C163.176 287.012 163.257 287.642 163.991 288.628C165.504 290.665 168.638 292.728 171.708 292.728C171.711 292.728 171.711 292.728 171.713 292.728C175.588 292.726 179.982 289.324 181.636 285.344C181.381 285.569 181.094 285.768 180.772 285.937C179.098 286.813 176.779 286.634 175.261 285.513C174.479 284.934 173.952 284.176 173.617 283.27C173.324 283.69 172.961 284.054 172.511 284.35C170.07 285.96 165.699 284.98 163.342 282.295C162.347 281.161 161.895 279.922 161.757 278.435C161.721 278.463 161.683 278.491 161.647 278.52C160.64 279.259 159.306 279.449 157.982 279.265C157.966 279.295 157.951 279.329 157.935 279.359C157.25 280.762 155.99 281.194 153.705 281.98C152.417 282.423 150.814 282.973 148.662 283.885C145.96 285.029 144.912 285.692 144.797 286.324C144.674 286.997 145.242 287.87 145.837 288.351C146.936 289.237 148.787 289.186 152.667 288.159C156.404 287.171 160.011 285.809 162.225 284.903C163.291 284.059 164.786 283.841 164.806 283.841C165.231 283.813 165.632 284.051 165.808 284.44C165.934 284.716 165.929 285.034 165.798 285.305C165.66 285.589 165.583 285.748 163.319 286.669ZM176.549 245.782C176.572 245.782 176.598 245.782 176.621 245.785C176.91 245.805 177.176 245.946 177.355 246.174C177.569 246.448 177.603 246.491 177.672 248.621C177.707 249.693 177.738 251.454 177.695 253.753C177.62 257.713 177.298 263.981 176.197 271.358C176.107 271.957 176.015 272.553 175.923 273.142C175.179 277.898 174.479 282.39 176.475 283.864C177.367 284.525 178.84 284.637 179.826 284.12C181.365 283.316 181.636 280.823 182.05 277.05C182.091 276.667 182.135 276.272 182.181 275.868C182.546 272.653 183.126 269.43 183.686 266.313C184.052 264.286 184.427 262.192 184.742 260.129C186.046 251.523 186.605 249.202 188.083 246.332C190.516 241.6 192.853 239.068 195.041 238.779C194.57 238.444 194.074 238.116 193.553 237.801C189.192 235.157 185.028 234.576 183.461 234.356C180.959 234.005 168.163 232.649 161.834 240.328C160.262 242.235 159.49 245.687 157.953 252.568C155.673 262.778 154.528 267.902 156.686 273.134C156.859 273.559 157.051 273.971 157.238 274.373C157.67 275.307 158.112 276.262 158.247 277.224C159.116 277.347 159.924 277.235 160.441 276.858C161.627 275.988 161.363 273.326 161.133 270.979C161.105 270.682 161.074 270.388 161.049 270.099C160.067 259.279 162.411 249.652 163.178 248.838C163.38 248.626 163.679 248.495 163.973 248.506C164.254 248.513 164.523 248.639 164.712 248.849C164.929 249.089 165.203 249.391 165.336 253.745C165.405 255.944 165.422 259.463 165.131 263.761C164.896 267.219 164.533 270.006 164.239 272.246C163.597 277.176 163.395 279.244 164.878 280.933C166.527 282.812 169.811 283.67 171.386 282.63C173.001 281.568 172.771 278.151 172.549 274.844C172.518 274.388 172.488 273.93 172.462 273.477C171.999 265.537 172.856 258.649 173.656 254.27C174.141 251.61 175.289 246.591 175.841 246.059C176.031 245.885 176.286 245.782 176.549 245.782ZM185.7 278.282C186.426 278.282 187.142 278.494 187.807 278.691C188.758 278.975 189.655 279.241 190.534 278.942C191.442 278.632 192.528 277.509 194.315 271.432C195.25 268.245 195.631 266.246 196.209 263.218C196.395 262.246 196.6 261.168 196.848 259.916C197.198 258.155 197.507 256.699 197.778 255.414C198.796 250.607 199.138 248.987 198.555 246.348C197.482 241.497 196.048 240.893 195.634 240.822C194.563 240.64 192.487 242.24 189.898 247.277C188.622 249.757 188.088 251.674 186.761 260.441C186.444 262.532 186.066 264.641 185.698 266.681C185.143 269.766 184.568 272.955 184.21 276.103C184.164 276.505 184.121 276.897 184.08 277.278C184.021 277.818 183.965 278.34 183.903 278.842C183.906 278.842 183.906 278.84 183.909 278.84C184.502 278.422 185.105 278.282 185.7 278.282ZM156.87 248.083C156.844 248.16 156.816 248.237 156.79 248.314C156.029 250.556 155.428 252.327 154.717 256.044C153.345 263.216 151.466 273.034 155.689 276.19C155.742 276.231 155.796 276.27 155.852 276.308C155.719 275.986 155.558 275.632 155.379 275.243C155.185 274.824 154.986 274.391 154.794 273.925C152.389 268.094 153.58 262.76 155.954 252.13C156.289 250.633 156.588 249.289 156.87 248.083ZM175.622 254.882C174.929 258.731 174.318 263.817 174.374 269.653C175.19 263.807 175.514 258.739 175.622 254.882ZM201.237 261.076L200.986 267.843C215.837 259.102 230.76 250.361 245.553 241.741C245.844 239.777 246.174 237.822 246.539 235.876C231.489 244.331 216.298 252.78 201.237 261.076ZM163.332 257.05C162.999 259.63 162.769 262.793 162.869 266.323C162.948 265.473 163.022 264.577 163.089 263.63C163.252 261.214 163.321 258.982 163.332 257.05ZM235.19 236.611C233.516 237.538 231.926 238.418 230.415 239.255C219.224 245.452 211.671 249.634 207.548 252.071C212.995 250.098 222.703 245.623 232.187 238.805C232.992 238.229 234.012 237.494 235.19 236.611ZM244.932 231.213C240.154 235.603 235.809 238.725 233.38 240.471C232.291 241.254 231.213 241.999 230.144 242.708C235.793 239.555 241.437 236.393 247.058 233.235C247.309 232.017 247.575 230.801 247.853 229.59C246.859 230.14 245.885 230.683 244.932 231.213ZM178.464 231.976C180.749 231.976 182.633 232.178 183.74 232.334C185.422 232.569 189.887 233.194 194.609 236.056C198.044 238.137 200.388 240.642 201.963 242.519C201.278 240.722 200.319 238.477 199.575 236.731C198.696 234.671 197.865 232.726 197.295 231.203C196.549 229.209 196.135 227.857 197.149 227.276C198.402 226.557 199.338 227.875 203.1 233.578C204.332 235.446 206.032 238.021 207.139 239.401C206.809 235.311 203.563 223.608 194.844 219.357C191.518 217.736 188.31 217.683 185.731 217.639C183.195 217.598 181.007 217.56 180.279 215.671C179.842 214.537 180.131 213.08 181.112 211.46C183.057 208.256 187.612 204.723 192.559 204.176C198.215 203.548 202.484 206.832 208.951 211.803C214.894 216.375 219.314 221.443 221.689 224.164C224.153 226.989 225.799 229.132 227 230.698C229.147 233.493 229.761 234.231 231.067 234.379C236.011 234.937 241.696 225.873 244.28 220.432C249.939 208.506 249.226 197.108 248.843 190.986L248.807 190.389C248.055 178.165 248.152 163.388 249.062 150.864C249.484 145.059 250.057 140.134 250.716 136.622C251.695 131.411 252.651 130.244 253.786 130.098C254.783 129.97 255.839 130.807 257.196 132.819C263.855 142.688 277.538 181.423 260.263 212.328C257.38 217.486 253.85 222.029 250.261 225.914C255.563 222.966 261.391 219.718 267.784 216.142C282.699 207.623 296.364 199.819 308.741 192.752C306.614 187.07 303.81 179.995 300.206 171.909C299.056 169.331 297.962 166.951 296.901 164.65C291.362 152.62 287.701 144.675 291.512 139.765C293.611 137.065 297.228 136.264 300.134 135.619C301.803 135.25 303.879 134.789 303.956 134.132C304.025 133.548 302.678 132.675 301.487 131.907C299.419 130.571 296.847 128.907 296.298 125.997C295.674 122.688 298.005 119.903 303.475 114.338C315.129 102.484 320.446 97.076 324.093 98.3481C328.669 99.9453 331.036 108.167 332.04 112.925C332.051 112.969 332.265 113.998 332.401 114.968C332.413 115.052 332.424 115.132 332.434 115.216C333.566 114.576 334.42 114.256 335.154 114.223C338.985 114.054 341.426 116.432 345.125 120.028C348.055 122.877 351.702 126.422 357.586 130.441C361.842 133.346 363.798 134.147 365.738 134.549C373.529 136.161 380.063 131.656 380.781 131.137C387.164 126.532 388.759 119.191 389.922 113.834C391.31 107.44 391.044 101.937 390.868 98.2969C390.699 94.7954 390.604 92.8654 392.176 92.4201C393.846 91.9465 394.814 93.8918 396.422 97.1118C398.672 101.617 402.071 108.425 408.239 110.166C410.095 110.691 411.066 110.445 413.658 109.792C415.264 109.388 417.459 108.835 420.739 108.264C429.425 106.754 436.523 106.698 441.221 106.662C442.098 106.654 442.988 106.646 443.76 106.626C442.76 106.273 441.403 105.83 439.698 105.303C434.455 103.68 431.038 102.81 428.024 102.042C426.707 101.706 425.463 101.389 424.22 101.046C417.107 99.0827 413.441 97.2193 410.765 95.8551C407.848 94.3705 406.087 93.4746 401.979 93.4029C401.325 93.3901 400.673 93.4029 400.042 93.4132C397.235 93.4618 394.582 93.5079 393.007 91.4704C391.834 89.95 392.117 88.3579 392.475 86.3384C392.662 85.2838 392.874 84.0885 392.966 82.5886C393.145 79.6885 392.128 75.7467 390.101 67.8912C389.5 65.5671 388.593 62.0553 387.049 57.1946C385.321 51.7554 383.889 48.0593 382.941 45.6123C382.527 44.5424 382.228 43.7668 382.046 43.2139C381.875 42.6867 381.517 41.5937 382.448 41.1227C382.629 41.0306 383 40.9103 383.467 41.1176C384.95 41.7729 389.004 47.6856 390.88 54.3892C390.972 54.7169 391.057 55.0394 391.136 55.3542C391.151 54.3636 391.141 53.2809 391.09 52.1521C390.97 49.4697 390.689 48.1284 390.175 45.6942C389.878 44.2915 389.51 42.5433 389.06 39.9991C388.495 36.8251 388.161 34.4345 387.89 32.5147C387.251 27.9765 387.046 26.858 385.628 25.5577C384.902 24.8922 384.15 24.4724 383.422 24.0654C382.146 23.3513 380.827 22.6141 380.083 20.7431C379.5 19.2738 379.667 18.0964 379.802 17.1468C379.922 16.297 380.001 15.7364 379.628 15.0581C379.165 14.2237 378.46 14.0087 377.034 13.6401C375.899 13.3458 374.488 12.9823 372.982 12.0122C370.595 10.4739 369.856 8.63094 369.207 7.00303C368.713 5.76673 368.246 4.6021 367.065 3.55778C365.211 1.91962 363.261 2.02969 358.049 2.3266C356.311 2.42643 354.151 2.54929 351.579 2.6184C344.893 2.79757 341.521 2.45203 339.292 2.22422C336.984 1.98873 335.928 1.87867 333.423 2.58001C330.246 3.47075 328.756 4.52788 326.869 5.86912C324.868 7.29226 322.6 8.90226 317.838 10.7401C314.104 12.1786 311.778 12.6137 310.078 12.9285C308.225 13.2741 307.205 13.4635 305.666 14.6819C301.203 18.2167 300.485 24.2113 299.401 33.2826C298.542 40.4572 297.571 48.5917 301.2 57.1639C302.744 60.8062 305.034 64.341 307.251 67.7556C308.38 69.4987 309.229 70.6966 309.996 71.7383C310.249 71.7051 310.5 71.6743 310.747 71.6462C312.156 71.4798 313.488 71.3211 314.071 70.4688C314.799 69.4014 313.863 67.8221 312.148 65.1217C310.116 61.9222 307.332 57.5401 307.417 51.7503C307.453 49.2188 308.028 47.2761 308.534 45.5611C309.239 43.173 309.848 41.1099 308.986 37.8643C308.708 36.8123 308.36 35.9753 308.056 35.2356C307.455 33.7766 306.934 32.5147 307.463 30.8126C308.14 28.6369 309.853 27.8716 311.836 26.986C313.219 26.3691 314.789 25.6678 316.504 24.3342C319.124 22.2993 320.067 20.3258 320.901 18.5827C321.78 16.7398 322.613 14.9993 325.031 13.8142C327.521 12.5932 329.295 13.1308 331.539 13.8116C333.316 14.3517 335.524 15.0223 338.96 15.0735C343.137 15.1375 345.928 14.2595 348.394 13.4865C351.275 12.583 353.762 11.8023 356.932 13.2946C358.755 14.152 359.412 15.1196 360.168 16.2381C360.828 17.2082 361.646 18.4164 363.632 20.0929C366.635 22.6321 369.038 23.4793 371.154 24.2267C373.281 24.9767 375.29 25.6857 377.205 27.8793C380.559 31.7238 381.412 37.7671 380.513 41.5016C380.124 43.109 379.436 44.1533 378.519 44.5194C376.709 45.2412 375.05 43.2703 373.13 40.9871C371.305 38.8165 369.03 36.1136 367.118 36.5461C366.244 36.7432 365.319 37.5905 364.647 38.8114C363.762 40.4086 363.486 42.2771 363.941 43.5697C364.209 44.3325 364.644 44.6397 365.431 45.1977C366.19 45.7326 367.134 46.4007 368.197 47.6958C370.942 51.0387 372.604 56.2629 370.638 57.9906C369.457 59.0273 368.044 58.221 366.548 57.3661C365.15 56.5675 363.407 55.5718 361.165 55.3363C358.08 55.0112 356.319 56.3704 353.883 58.2517C351.62 59.9974 348.806 62.1705 344.136 63.3325C340.539 64.2284 333.461 65.2779 326.445 62.2549C324.84 61.5639 323.577 60.8011 322.562 60.1893C321.371 59.4701 320.43 58.9044 320.024 59.1348C319.27 59.5597 319.538 62.429 319.906 66.399C320.052 67.9655 320.215 69.7393 320.371 71.8177C321.261 83.7839 321.223 87.5875 319.257 88.0738C317.981 88.3886 317.345 87.2394 315.947 84.7207C315.228 83.4281 314.247 81.6543 312.861 79.43C311.241 76.832 310.211 75.4447 309.124 73.9831C308.488 74.1597 308.058 74.4208 307.839 74.8867C307.182 76.2842 308.703 78.8131 310.175 81.2601C311.223 83.0032 312.066 83.9119 312.81 84.7105C313.736 85.7062 314.533 86.5636 315.205 88.4398C315.709 89.8476 315.811 90.8945 315.891 91.7341C315.98 92.6786 316.026 93.1521 316.542 93.7408C317.608 94.9515 319.4 95.0693 320.586 95.146C321.519 95.2075 322.575 95.2766 322.749 96.2928C322.953 97.5035 321.775 98.1818 317.018 99.5972C313.994 100.498 310.004 101.522 306.481 102.426C305.359 102.715 304.268 102.994 303.253 103.257C294.764 105.466 290.472 106.877 287.336 107.903C283.831 109.052 281.518 109.813 276.255 110.78C272.275 111.512 269.53 111.807 267.321 112.045C263.801 112.423 261.861 112.631 258.638 114.269C249.193 119.073 246.775 124.001 246.409 127.292C246.148 129.639 246.833 131.759 247.439 133.627C248.204 135.99 248.927 138.219 247.378 140.113C246.424 141.278 245.325 141.409 244.259 141.531C243.38 141.634 242.473 141.739 241.294 142.404C239.175 143.6 238.408 145.356 237.25 148.018C236.555 149.612 235.768 151.422 234.508 153.48C233.222 155.579 232.023 156.961 227.376 161.683C210.541 178.802 202.09 187.392 193.952 192.383C190.475 194.516 188.234 195.58 186.253 196.522C183.755 197.71 181.782 198.647 178.375 201.357C174.64 204.327 167.687 209.853 163.679 219.052C162.294 222.231 162.105 223.887 161.793 226.631C161.489 229.316 161.069 232.992 159.3 239.887C159.198 240.289 159.099 240.673 158.999 241.039C159.367 240.258 159.773 239.598 160.249 239.022C165.093 233.156 172.945 231.976 178.464 231.976ZM248.878 234.561C248.492 236.504 248.142 238.454 247.828 240.415C252.858 237.484 257.873 234.568 262.861 231.671C279.348 222.101 295.983 212.251 312.274 202.571C311.918 201.552 311.512 200.392 311.054 199.105C293.064 209.505 275.056 219.792 257.058 229.951C254.338 231.487 251.608 233.022 248.878 234.561ZM254.085 132.243C253.262 133.492 251.879 139.486 251.015 152.215C250.179 164.548 250.118 178.413 250.844 190.259L250.88 190.853C251.276 197.16 252.01 208.901 246.123 221.307C245.612 222.382 243.746 226.163 241.174 229.636C240.517 230.524 239.863 231.325 239.216 232.04C240.665 231.236 242.166 230.404 243.72 229.541C248.797 224.855 254.333 218.73 258.472 211.325C273.387 184.643 263.845 153.523 260.565 144.621C257.802 137.106 255.113 133.034 254.085 132.243ZM250.202 228.535C249.934 229.651 249.676 230.775 249.43 231.899C251.642 230.655 253.85 229.411 256.053 228.167C274.154 217.951 292.259 207.605 310.351 197.144C310.101 196.451 309.838 195.726 309.561 194.974C305.538 197.252 301.41 199.586 297.19 201.967C286.699 207.884 277.252 213.188 268.783 217.923C262.797 221.343 256.603 224.88 250.202 228.535ZM502.288 211.606C502.316 212.405 502.538 213.91 503.374 214.317C503.622 214.437 504.046 214.527 505.148 214.143C507.597 213.288 509.471 211.455 510.715 209.873L510.301 209.341C510.048 209.016 510.015 208.57 510.217 208.212L513.796 201.813C513.921 201.588 514.128 201.419 514.373 201.339C514.1 201.13 513.826 200.899 513.558 200.646C513.44 200.561 513.323 200.474 513.21 200.382C513.182 200.454 513.144 200.526 513.1 200.59L508.499 207.245C508.187 207.695 507.579 207.82 507.116 207.531L505.874 206.753L502.288 211.606ZM490.164 196.333C489.51 197.83 488.773 199.315 487.971 200.761C487.672 201.301 487.398 201.767 487.16 202.179C486.603 203.136 486.12 203.966 486.225 204.206C486.445 204.711 487.925 205.192 489.198 204.79C489.75 204.616 490.016 204.332 491.181 203.024C491.501 202.665 491.874 202.246 492.329 201.749C493.078 200.927 493.847 200.116 494.617 199.333V197.577C494.617 197.331 494.706 197.093 494.867 196.906L499.085 192.043C499.407 191.669 499.949 191.582 500.376 191.831L511.314 198.268C510.462 196.893 510.161 195.468 510.076 194.272C510.01 193.819 509.969 193.353 509.954 192.875C509.931 192.122 509.867 190.123 510.958 187.965C511.595 186.704 512.63 185.414 513.941 184.428C512.983 184.121 512.538 183.407 512.106 182.716C511.853 182.309 511.59 181.889 511.178 181.438C509.995 180.143 508.66 179.823 507.482 179.539C506.321 179.26 505.008 178.943 504.514 177.573C504.115 176.46 504.44 174.975 505.388 173.601C506.25 172.347 507.814 170.993 509.611 170.957C509.9 170.952 510.197 170.98 510.485 171.044L514.864 165.536C514.486 164.921 514.187 164.752 514.087 164.745C514.084 164.745 514.084 164.745 514.082 164.745C513.893 164.745 513.22 165.459 512.627 166.091C512.359 166.375 512.055 166.7 511.707 167.061C510.887 167.911 510.033 168.743 509.171 169.534C509.105 169.595 509.033 169.646 508.954 169.687C507.415 170.494 506.237 171.551 505.455 172.833C505.169 173.301 505 173.693 504.852 174.039C504.581 174.666 504.302 175.313 503.52 175.795C502.446 176.455 501.03 176.445 496.631 174.517C492.764 172.82 490.823 171.97 490.425 170.299C490.115 169.009 490.693 168.134 493.121 164.443L493.852 163.332C496.079 159.958 496.452 159.367 496.534 158.333C496.595 157.573 496.488 155.399 495.281 154.498C493.771 153.37 490.818 154.394 488.334 155.942C487.431 158.627 485.553 161.09 484.436 162.554C484.014 163.104 483.344 163.936 482.726 164.619C482.007 165.41 481.023 166.493 480.059 165.861C479.878 165.743 479.569 165.459 479.528 164.896C479.423 163.519 481.274 159.165 484.602 156.18C485.179 155.661 485.859 155.128 486.601 154.621C486.849 153.631 486.897 152.65 486.611 151.749C486.373 151.002 486.107 150.79 485.021 150.019C484.211 149.446 483.104 148.657 481.562 147.219C479.656 145.437 478.229 143.717 477.189 142.389C477.335 143.687 477.281 144.982 477.043 146.162C476.046 151.102 472.059 153.787 469.914 154.785C471.744 155.016 473.454 156.864 474.193 157.77C476.013 160.004 476.215 162.078 476.517 165.213C476.675 166.836 476.869 168.853 477.345 171.412C478.211 176.084 479.328 178.974 480.668 180.003C481.634 180.745 482.444 180.893 483.669 181.113C484.328 181.234 485.075 181.367 485.954 181.623C489.811 182.739 493.344 185.357 496.449 189.407C496.723 189.765 496.733 190.259 496.47 190.625L492.636 196C492.431 196.287 492.094 196.448 491.746 196.428L490.164 196.333ZM517.921 202.819C521.047 204.17 525.705 205.379 530.278 203.536C531.809 202.919 533.716 202.151 534.301 200.551C535.822 196.384 527.471 189.985 523.905 187.254C521.068 185.078 519.759 184.699 518.453 184.776C518.172 184.794 517.893 184.833 517.622 184.891C516.165 185.613 514.516 186.571 513.381 188.39C512.359 190.029 512.221 191.608 512.17 192.204C512.129 192.675 512.07 193.351 512.121 194.126C512.28 195.086 512.658 196.366 513.586 197.6C513.824 197.915 514.24 198.47 514.81 199.031C516.022 199.881 517.492 200.3 518.872 200.144C520.539 199.955 521.669 199.353 522.052 198.455C522.308 197.858 522.213 197.213 522.039 196.681C521.909 196.399 521.74 196.113 521.533 195.829C521.247 195.434 520.912 195.071 520.549 194.751C520.72 195.04 520.741 195.399 520.595 195.711C520.544 195.821 519.603 197.779 518.156 198.675C517.655 198.99 517.098 199.172 516.5 199.108C515.409 199 514.427 198.255 513.808 197.062C513.466 196.405 513.282 195.693 513.254 195.01C513.19 194.249 513.333 193.535 513.686 192.949C514.629 191.39 516.656 191.296 517.323 191.262C519.746 191.147 522.177 192.524 523.379 194.687C523.596 195.079 523.772 195.46 523.91 195.834C524.46 197.024 524.575 198.219 524.225 199.299C523.529 201.442 521.099 202.624 519.135 202.816C518.724 202.857 518.32 202.86 517.921 202.819ZM315.014 196.814C315.254 198.145 315.458 199.412 315.63 200.577C316.882 199.832 318.135 199.087 319.382 198.347C319.814 196.835 320.272 195.219 320.757 193.484C318.84 194.595 316.928 195.706 315.014 196.814ZM312.854 198.063C313.056 198.631 313.25 199.179 313.434 199.699C313.345 199.131 313.245 198.532 313.138 197.902C313.04 197.956 312.948 198.009 312.854 198.063ZM516.71 197.07C516.715 197.07 516.722 197.07 516.727 197.07C517.093 197.07 517.719 196.433 518.236 195.688C518.422 195.417 518.599 195.12 518.757 194.812C518.895 194.544 519.148 194.344 519.44 194.275C519.616 194.234 519.795 194.242 519.964 194.293C519.123 193.709 518.192 193.356 517.367 193.353C517.364 193.353 517.361 193.353 517.361 193.353C516.845 193.353 515.789 193.512 515.449 194.114C515.337 194.311 515.286 194.577 515.293 194.871C515.327 195.189 515.432 195.542 515.603 195.89C515.968 196.643 516.477 197.037 516.71 197.07ZM323.288 192.012C322.813 193.725 322.365 195.322 321.938 196.824C322.271 196.627 322.603 196.43 322.933 196.233C359.764 174.333 397.851 151.685 436.104 130.807C436.145 130.786 437.645 129.965 440.074 128.621C440.04 128.613 440.01 128.605 439.976 128.595C438.535 128.186 438.018 126.908 437.604 125.882C437.402 125.38 437.211 124.907 436.968 124.656C436.891 124.579 436.802 124.51 436.699 124.456C399.229 147.329 361.318 169.91 323.288 192.012ZM311.366 193.952C311.64 194.7 311.903 195.417 312.151 196.105C312.348 195.99 312.544 195.877 312.741 195.762C312.598 195.02 312.44 194.247 312.268 193.441C311.969 193.612 311.668 193.781 311.366 193.952ZM314.134 192.383C314.303 193.159 314.462 193.927 314.61 194.682C316.923 193.341 319.226 192.005 321.54 190.661C321.8 189.716 322.071 188.738 322.35 187.722C319.668 189.245 316.928 190.799 314.134 192.383ZM302.581 137.134C301.947 137.311 301.264 137.462 300.574 137.615C297.854 138.219 294.769 138.903 293.125 141.02C290.076 144.946 293.529 152.443 298.757 163.79C299.82 166.096 300.917 168.482 302.072 171.072C305.633 179.058 308.416 186.064 310.538 191.723C310.939 191.495 311.338 191.265 311.737 191.037C309.95 183.33 306.532 171.704 300.387 160.086L300.07 159.492C297.939 155.492 294.718 149.446 296.924 143.548C297.956 140.792 299.784 139.072 302.581 137.134ZM330.793 118.692C329.653 119.475 328.311 120.43 326.762 121.536C323.469 123.883 321.504 125.636 319.602 127.331C317.524 129.184 315.561 130.935 312.092 133.32C310.172 134.641 308.48 135.729 306.985 136.689C302.476 139.586 299.991 141.181 298.838 144.268C296.957 149.297 299.915 154.854 301.875 158.53L302.195 159.129C308.255 170.586 311.714 182.037 313.59 189.98C316.903 188.088 320.121 186.251 323.237 184.472C323.922 181.945 324.658 179.204 325.453 176.217C325.537 175.899 333.515 145.42 330.793 118.692ZM523.563 177.333C523.427 177.463 523.299 177.584 523.172 177.704C522.773 178.075 522.32 178.497 521.469 179.491C520.833 180.233 520.475 180.712 520.186 181.095C519.969 181.385 519.782 181.633 519.557 181.884C519.846 181.802 520.094 181.741 520.316 181.687C520.989 181.525 521.242 181.464 521.722 181.016C522.392 180.389 522.594 179.767 522.824 179.043C522.995 178.505 523.184 177.919 523.563 177.333ZM526.681 173.13C526.569 173.245 526.364 173.578 526.183 173.875C525.843 174.428 525.378 175.183 524.623 176.137C524.59 176.181 524.554 176.222 524.524 176.263C524.593 176.204 524.667 176.148 524.744 176.089C525.666 175.393 526.551 175.101 527.195 174.888C527.445 174.807 527.78 174.694 527.895 174.617C527.911 174.481 527.816 174.118 527.494 173.721C527.169 173.322 526.829 173.15 526.681 173.13ZM444.12 140.497C444.253 140.513 444.393 140.528 444.539 140.543C445.28 140.62 446.374 140.735 447.619 140.526C449.161 140.149 450.559 139.33 451.673 138.488C452.192 138.03 452.757 137.474 453.432 136.791L444.468 131.685C444.424 131.8 444.381 131.918 444.335 132.03C443.99 133.118 443.463 134.004 442.906 134.769C442.487 135.401 442.083 135.913 441.73 136.356C440.963 137.323 440.702 137.705 440.759 138.199C440.784 138.409 440.861 138.606 440.966 138.785C441.561 139.586 443 140.198 444.12 140.497ZM322.971 100.209C320.231 100.209 313.733 106.818 304.93 115.771C299.59 121.203 297.885 123.386 298.304 125.613C298.69 127.661 300.763 129.002 302.593 130.185C304.449 131.385 306.203 132.516 305.983 134.37C305.955 134.597 305.904 134.807 305.824 134.999C305.842 134.987 305.86 134.976 305.878 134.963C307.358 134.011 309.037 132.934 310.932 131.631C314.293 129.317 316.21 127.61 318.24 125.8C320.182 124.067 322.191 122.278 325.573 119.867C327.6 118.421 329.213 117.271 330.527 116.399C330.478 116.015 330.427 115.628 330.374 115.247C330.248 114.348 330.039 113.355 330.036 113.345C328.5 106.076 326.026 101.189 323.416 100.278C323.283 100.232 323.135 100.209 322.971 100.209ZM442.476 126.412C442.816 126.412 443.179 126.481 443.54 126.698C447.512 124.484 452.634 121.602 457.78 118.628C460.443 117.09 462.795 115.71 464.873 114.474C465.482 114.039 466.049 113.621 466.576 113.227C470.691 110.151 471.468 109.006 471.616 108.681C470.832 106.534 469.467 105.879 469.408 105.85C468.787 105.582 468.025 105.543 467.159 105.743C457.65 111.625 448.108 117.489 438.537 123.335C438.997 123.855 439.256 124.495 439.506 125.111C439.851 125.966 440.094 126.496 440.541 126.624C440.83 126.706 441.145 126.634 441.51 126.55C441.789 126.489 442.121 126.412 442.476 126.412ZM435.488 122.211C435.789 122.211 436.081 122.229 436.359 122.268C446.344 116.171 456.302 110.051 466.22 103.918C466.307 103.864 466.402 103.823 466.502 103.798C467.879 103.442 469.134 103.503 470.231 103.977C470.323 104.018 472.521 105.001 473.605 108.169C473.7 108.448 473.728 108.743 473.641 109.086C476.662 107.143 478.372 105.912 479.339 105.136C479.04 105.108 478.715 105.057 478.367 104.975C477.081 104.67 476.297 104.125 474.73 103.037L474.104 102.602C473.127 101.929 472.115 101.248 471.082 100.578L435.025 122.224C435.181 122.217 435.337 122.211 435.488 122.211ZM311.404 73.6299C312.304 74.8534 313.253 76.1946 314.597 78.3524C316.011 80.6202 317.008 82.4196 317.736 83.7327C318.102 84.3905 318.454 85.0253 318.736 85.486C319.152 83.0058 318.631 75.9822 318.334 71.9764C318.181 69.9159 318.017 68.1523 317.872 66.5935C317.35 60.9879 317.112 58.4309 319.022 57.3558C320.466 56.5393 321.859 57.3789 323.62 58.4411C324.581 59.0221 325.778 59.7414 327.255 60.3787C333.72 63.1636 340.299 62.1833 343.645 61.3488C347.899 60.2917 350.416 58.349 352.635 56.634C355.125 54.7118 357.479 52.8944 361.38 53.304C364.048 53.583 366.081 54.745 367.563 55.5923C368.179 55.9429 369.012 56.419 369.314 56.4318C369.818 55.8585 369.133 52.0651 366.617 49.0012C365.728 47.9185 364.943 47.3631 364.253 46.8742C363.351 46.2369 362.497 45.6328 362.014 44.2532C361.364 42.4051 361.689 39.9428 362.86 37.8234C363.826 36.0726 365.217 34.8824 366.674 34.5522C369.797 33.8457 372.517 37.076 374.7 39.6714C375.584 40.7234 377.228 42.6815 377.77 42.6176C377.854 42.5817 378.245 42.208 378.532 41.0204C379.153 38.4403 378.925 32.9576 375.671 29.2256C374.112 27.4365 372.509 26.8708 370.482 26.1567C368.312 25.3913 365.61 24.4366 362.32 21.6568C360.122 19.7986 359.176 18.4036 358.486 17.3874C357.778 16.3431 357.387 15.7672 356.071 15.1452C353.624 13.9933 351.792 14.5693 349.016 15.4395C346.534 16.2177 343.443 17.1903 338.939 17.1212C335.215 17.0649 332.853 16.3482 330.956 15.7697C328.863 15.1349 327.71 14.7843 325.941 15.652C324.16 16.5248 323.572 17.7585 322.756 19.4658C321.872 21.3164 320.773 23.6175 317.769 25.9493C315.86 27.4339 314.096 28.2197 312.68 28.8519C310.755 29.712 309.812 30.1804 309.426 31.4167C309.129 32.374 309.372 33.0369 309.955 34.4498C310.267 35.2075 310.656 36.1494 310.97 37.3319C311.982 41.133 311.231 43.6747 310.502 46.137C310.011 47.8033 309.503 49.526 309.469 51.7733C309.395 56.9514 311.882 60.8676 313.881 64.016C315.712 66.8955 317.291 69.3835 315.765 71.618C314.745 73.118 313.012 73.4328 311.404 73.6299ZM385.888 47.573C386.737 49.8357 387.813 52.8279 389.004 56.5726C389.336 57.6195 389.641 58.6049 389.917 59.529C389.896 59.4138 389.873 59.2935 389.85 59.168C389.651 58.0725 389.375 56.5726 388.92 54.9396C388.115 52.0728 386.982 49.5541 385.888 47.573Z" fill="white"/>
</svg>
