<svg width="63" height="69" viewBox="0 0 63 69" fill="none" xmlns="http://www.w3.org/2000/svg">
<path d="M52.9215 53.3534C52.9215 52.5403 52.8949 51.7854 52.9311 51.0337C52.9555 50.5318 52.7409 50.3773 52.2799 50.3847C51.4661 50.3974 50.6514 50.3794 49.8366 50.391C49.5434 50.3952 49.4255 50.3 49.4297 49.9961C49.4425 49.0263 49.4425 48.0554 49.4297 47.0846C49.4255 46.7828 49.5402 46.6801 49.8334 46.6854C50.5589 46.6971 51.2855 46.6801 52.0111 46.6928C52.3723 46.6992 52.5221 46.5584 52.5136 46.192C52.4976 45.4689 52.4987 44.7447 52.5125 44.0216C52.5199 43.6288 52.3309 43.4848 51.9622 43.488C51.1496 43.4933 50.3358 43.4901 49.4786 43.4901C49.4786 42.4621 49.4786 41.4701 49.4786 40.4187C50.3932 40.4187 51.2909 40.4198 52.1874 40.4187C52.9066 40.4177 52.9194 40.405 52.9215 39.667C52.9226 39.0138 52.9151 38.3616 52.9226 37.7083C52.9268 37.3738 52.777 37.2308 52.4424 37.2319C50.5483 37.2361 48.6532 37.2383 46.7591 37.2287C46.3288 37.2266 46.2279 37.4331 46.23 37.8216C46.2417 40.3806 46.2354 42.9385 46.2354 45.4975C46.2354 47.9146 46.2354 50.3317 46.2354 52.7499C46.2354 52.9235 46.2354 53.0972 46.2354 53.3121C43.4298 53.3121 40.6636 53.3121 37.8442 53.3121C38.1459 51.8383 38.438 50.3921 38.7376 48.9458C39.5067 45.2339 40.2726 41.5209 41.0545 37.8121C41.1459 37.378 41.0141 37.2245 40.5871 37.2298C39.7372 37.2404 38.8874 37.2478 38.0375 37.2245C37.5903 37.2118 37.4076 37.3865 37.3619 37.8269C37.1495 39.8788 36.9147 41.9295 36.6874 43.9793C36.5673 45.0655 36.4462 46.1529 36.3219 47.2391C36.307 47.3715 36.2646 47.5017 36.1445 47.6298C36.0489 46.7987 35.9512 45.9686 35.8598 45.1375C35.5942 42.7183 35.3202 40.3001 35.078 37.8788C35.028 37.3865 34.8389 37.2044 34.3471 37.2224C33.5514 37.251 32.7536 37.2266 31.9569 37.2319C31.345 37.2361 31.2823 37.3092 31.4088 37.9222C32.0706 41.1344 32.7377 44.3456 33.4048 47.5557C33.7777 49.3513 34.158 51.1459 34.5319 52.9405C34.5532 53.0421 34.5521 53.148 34.5659 53.3026C31.7806 53.3026 29.0154 53.3026 26.178 53.3026C26.178 53.1363 26.178 52.9669 26.178 52.7965C26.1748 46.7976 26.1758 40.7988 26.1567 34.7989C26.1546 34.3151 26.2523 34.1478 26.7792 34.115C32.2979 33.773 36.6459 29.1939 36.7065 23.6821C36.7256 21.9352 36.7065 20.1883 36.7235 18.4413C36.7267 18.11 36.6565 17.9617 36.2879 17.9702C35.3733 17.9914 34.4586 17.9776 33.4898 17.9776C33.4898 18.219 33.4898 18.3905 33.4898 18.5631C33.4888 20.2751 33.5036 21.986 33.4834 23.698C33.4378 27.5931 30.2105 30.8456 26.3033 30.8985C24.7672 30.9197 23.2078 30.9768 21.695 30.7619C18.2925 30.2791 15.6728 27.1633 15.6325 23.7361C15.6123 22.0252 15.6282 20.3132 15.6282 18.6012C15.6282 18.4128 15.6282 18.2232 15.6282 18.0051C14.5266 18.0051 13.4909 18.0051 12.4551 18.0051C12.4264 18.0676 12.3861 18.1152 12.3861 18.1618C12.3978 20.2963 12.2692 22.4423 12.4562 24.5609C12.9172 29.7773 17.1834 33.8048 22.4248 34.1224C22.802 34.1457 22.9454 34.2346 22.9454 34.6369C22.9454 40.7416 22.9348 46.8463 22.9454 52.9511C22.9454 53.0548 22.9539 53.1586 22.9454 53.3057C21.1214 53.3057 19.3187 53.3057 17.449 53.3057C17.449 52.535 17.4235 51.7801 17.4575 51.0273C17.4798 50.5308 17.2759 50.3709 16.8074 50.3804C15.9575 50.3974 15.1066 50.3561 14.2589 50.3942C13.7862 50.4154 13.6619 50.2693 13.664 49.8034C13.6821 45.9041 13.6746 42.0047 13.6746 38.1043C13.6746 37.2277 13.6746 37.2266 12.7982 37.2266C12.1959 37.2266 11.5946 37.2372 10.9923 37.2245C10.6056 37.216 10.4389 37.3907 10.4548 37.7655C10.4601 37.8883 10.4559 38.0122 10.4559 38.1361C10.4559 42.9703 10.4559 47.8056 10.4559 52.6398C10.4559 52.8494 10.4559 53.059 10.4559 53.3089C9.02706 53.3089 7.62481 53.3089 6.15458 53.3089C6.15458 48.6822 6.15458 44.0841 6.15458 39.4849C6.15458 34.8836 6.15458 30.2823 6.15458 25.591C5.87307 25.591 5.65211 25.591 5.43115 25.591C4.2095 25.591 2.98892 25.5953 1.76727 25.5889C0.902549 25.5836 0.346963 25.2056 0.0909479 24.4709C-0.143821 23.7965 0.0750134 23.1379 0.758075 22.6234C4.30405 19.9575 7.85746 17.3011 11.4077 14.6426C17.6753 9.95446 23.9418 5.26211 30.2073 0.569761C31.2154 -0.185122 31.788 -0.189357 32.7791 0.55388C40.5425 6.37167 48.3058 12.1905 56.0691 18.0073C58.063 19.5011 60.0634 20.9887 62.0584 22.4815C62.9157 23.1231 63.1674 23.7393 62.8955 24.5058C62.6543 25.1845 62.0796 25.5879 61.2999 25.5931C60.0251 25.6027 58.7504 25.6186 57.4756 25.5847C56.9668 25.5709 56.8202 25.7191 56.8212 26.2326C56.8361 35.0202 56.8329 43.8067 56.8308 52.5943C56.8308 53.437 56.919 53.347 56.0542 53.3513C55.0334 53.3566 54.0114 53.3534 52.9215 53.3534ZM26.1472 6.63636C26.0388 6.69035 25.9188 6.73058 25.8232 6.80152C23.3225 8.65008 20.8197 10.4955 18.3339 12.3642C18.1767 12.4827 18.0747 12.7749 18.0747 12.9867C18.0598 16.5144 18.0535 20.0432 18.0683 23.5709C18.08 26.24 20.2323 28.4126 22.9124 28.4729C24.0098 28.4973 25.1072 28.4962 26.2045 28.4719C28.0391 28.4316 29.4053 27.5508 30.355 26.0283C30.6397 25.5709 30.7894 25.031 31.0401 24.4359C30.6715 24.4359 30.4792 24.4359 30.287 24.4359C29.0653 24.4359 27.8437 24.4444 26.6231 24.4232C26.4637 24.4201 26.1833 24.275 26.1705 24.1702C26.1185 23.7435 26.1493 23.3073 26.1493 22.8224C27.8139 22.8224 29.3999 22.8224 31.0189 22.8224C31.0306 22.6001 31.0497 22.4286 31.0465 22.257C31.0274 21.0554 31.2399 21.2216 30.0256 21.211C29.0876 21.2025 28.1496 21.2099 27.2116 21.2099C26.1376 21.2099 26.1631 21.2089 26.1344 20.1554C26.1206 19.6769 26.281 19.5573 26.7399 19.5678C28.0136 19.5964 29.2884 19.5869 30.5632 19.5668C30.7257 19.5647 31.0115 19.4239 31.0242 19.3212C31.0763 18.8945 31.0465 18.4583 31.0465 17.9755C29.708 17.9755 28.4556 17.9755 27.202 17.9755C26.1365 17.9755 26.1567 17.9755 26.1365 16.9125C26.1291 16.4784 26.2523 16.3323 26.6996 16.3419C27.9913 16.3683 29.2842 16.3598 30.5759 16.3387C30.7353 16.3366 31.0136 16.1873 31.0274 16.0803C31.0794 15.6526 31.0486 15.2153 31.0486 14.7336C30.7703 14.7336 30.5791 14.7336 30.3868 14.7336C29.1301 14.7326 27.8734 14.7389 26.6167 14.7209C26.4605 14.7188 26.1812 14.6023 26.1727 14.5166C26.128 14.0719 26.1514 13.6209 26.1514 13.1222C26.4351 13.1222 26.6263 13.1222 26.8175 13.1222C28.0742 13.1212 29.3309 13.1286 30.5876 13.1106C30.7416 13.1084 31.0157 12.9814 31.0242 12.8903C31.0699 12.4446 31.0455 11.9925 31.0455 11.4992C30.7661 11.4992 30.5749 11.4992 30.3826 11.4992C29.1259 11.4992 27.8692 11.5076 26.6125 11.4854C26.4563 11.4822 26.1833 11.3298 26.1705 11.2218C26.1185 10.7951 26.1493 10.3589 26.1493 9.87082C27.8224 9.87082 29.4074 9.87082 31.0497 9.87082C31.0497 9.44838 31.0316 9.07993 31.055 8.71467C31.0773 8.37058 30.9552 8.24882 30.6035 8.25623C29.6836 8.27635 28.7626 8.26259 27.8426 8.26364C27.2998 8.26364 26.7559 8.26364 26.1397 8.26364C26.1397 7.66969 26.1397 7.14667 26.1397 6.62259C27.7268 6.62259 29.3139 6.62259 30.9594 6.62259C30.7735 5.65596 30.3528 4.86614 29.6942 4.20125C29.6358 4.14196 29.4435 4.12714 29.3776 4.17584C28.293 4.98895 27.2222 5.81477 26.1472 6.63636Z" fill="white"/>
<path d="M43.4638 63.8029C43.2471 63.769 43.0771 63.7426 42.8721 63.7108C42.8721 62.9221 42.8721 62.1365 42.8721 61.2715C43.8282 61.2715 44.7928 61.2609 45.7563 61.2884C45.8476 61.2905 46.008 61.5287 46.0102 61.659C46.025 63.299 46.0686 64.9411 45.9974 66.5789C45.9432 67.8219 44.8055 68.8997 43.5552 68.9791C42.9443 69.0183 42.307 69.0119 41.7153 68.8775C40.4628 68.5937 39.6629 67.5361 39.6565 66.2581C39.6448 63.6304 39.6416 61.0025 39.6533 58.3748C39.6608 56.7221 40.8399 55.5733 42.5088 55.5416C43.364 55.5257 44.2042 55.5236 44.9298 56.0985C45.8221 56.8046 46.1047 57.7374 46.0123 58.8205C46.0038 58.9253 45.9284 59.0809 45.8455 59.1138C45.0976 59.4102 44.3402 59.6855 43.4628 60.0116C43.4628 59.4409 43.4553 59.01 43.4649 58.5791C43.4744 58.1524 43.2885 57.8951 42.8541 57.8877C42.4196 57.8803 42.2252 58.1281 42.2262 58.5579C42.2294 61.0269 42.2284 63.4959 42.2262 65.9649C42.2262 66.382 42.3877 66.6531 42.836 66.6573C43.2843 66.6626 43.4628 66.3926 43.4638 65.9786C43.4659 65.2598 43.4638 64.5409 43.4638 63.8029Z" fill="white"/>
<path d="M31.5319 55.7335C31.6201 55.7335 31.7093 55.7335 31.7975 55.7335C33.2911 55.7335 33.2836 55.7346 33.4759 57.2221C33.954 60.9288 34.4341 64.6344 34.9291 68.3389C34.9791 68.7137 34.893 68.8693 34.5074 68.8609C33.9593 68.8492 33.4101 68.846 32.8619 68.8619C32.4965 68.8725 32.352 68.6946 32.3297 68.359C32.2957 67.8487 32.2309 67.3394 32.2213 66.8291C32.215 66.484 32.0843 66.3495 31.7444 66.3823C31.568 66.3823 31.398 66.3834 31.2143 66.3834C30.9189 66.359 30.8053 66.4861 30.7936 66.7762C30.7745 67.2696 30.715 67.7608 30.6927 68.2542C30.6736 68.6809 30.5142 68.9 30.0425 68.8662C29.5666 68.8323 29.0865 68.8386 28.6095 68.8651C28.1633 68.8894 28.0093 68.7349 28.072 68.2817C28.379 66.0647 28.6658 63.8445 28.9601 61.6254C29.1959 59.8425 29.4434 58.0617 29.6612 56.2777C29.709 55.8828 29.8535 55.7113 30.2582 55.7325C30.681 55.7515 31.107 55.7346 31.5319 55.7335ZM32.0142 63.9102C31.8665 62.2977 31.7252 60.7488 31.5839 59.1998C31.5255 59.2009 31.4671 59.2019 31.4076 59.203C31.2706 60.7604 31.1335 62.3168 30.9933 63.9091C31.346 63.9102 31.6371 63.9102 32.0142 63.9102Z" fill="white"/>
<path d="M8.84299 64.163C8.84299 64.7601 8.85148 65.3551 8.8398 65.949C8.8313 66.3842 8.96515 66.6753 9.46019 66.6732C9.93185 66.6711 10.0179 66.3725 10.0646 65.9776C10.2059 64.7813 9.95416 63.8114 8.79624 63.1698C8.16948 62.8226 7.64152 62.3006 7.06044 61.8676C6.52822 61.4706 6.2414 60.9666 6.26052 60.289C6.27964 59.6199 6.25415 58.9486 6.26902 58.2795C6.30301 56.7581 7.49067 55.6041 9.01508 55.548C10.1475 55.5067 11.2002 55.6104 11.997 56.5612C12.6588 57.351 12.6864 58.27 12.6089 59.2123C12.5982 59.3393 12.4091 59.513 12.2689 59.5574C11.6804 59.7427 11.077 59.8835 10.4811 60.0466C10.1634 60.1334 10.0615 59.9841 10.0625 59.6951C10.0646 59.3076 10.0593 58.919 10.0583 58.5315C10.0572 58.1186 9.83837 57.9026 9.43681 57.9047C9.03208 57.9079 8.81962 58.1281 8.84086 58.5453C8.84192 58.5633 8.84086 58.5802 8.84086 58.5982C8.8568 60.6162 8.64646 60.126 10.1571 61.2916C10.6882 61.7014 11.2162 62.1196 11.7771 62.4859C12.3921 62.8882 12.6205 63.4621 12.6344 64.1471C12.6492 64.8871 12.6577 65.6293 12.628 66.3683C12.5664 67.8717 11.3734 69.0046 9.86174 68.9993C9.33483 68.9972 8.792 69.0078 8.28528 68.8881C7.1178 68.6128 6.32639 67.5869 6.27008 66.398C6.19254 64.7484 6.19254 64.7474 7.79343 64.3101C8.04838 64.2402 8.30758 64.1831 8.56679 64.1301C8.63159 64.1174 8.70382 64.145 8.84299 64.163Z" fill="white"/>
<path d="M53.8168 58.2944C53.8168 59.1562 53.8168 59.9397 53.8168 60.7877C54.4818 60.7877 55.1139 60.7994 55.7459 60.7835C56.1337 60.7739 56.2824 60.9253 56.2622 61.315C56.2367 61.8253 56.2356 62.3377 56.2611 62.848C56.2813 63.2535 56.1029 63.371 55.7268 63.3605C55.1096 63.3435 54.4913 63.3562 53.8285 63.3562C53.8285 64.3345 53.8285 65.2757 53.8285 66.3175C54.5115 66.3175 55.2105 66.3165 55.9095 66.3175C56.6096 66.3196 56.6149 66.3249 56.617 67.0269C56.6181 67.5033 56.6489 67.9829 56.5958 68.453C56.5788 68.6044 56.3366 68.8469 56.1942 68.85C54.6741 68.8786 53.1518 68.8617 51.6306 68.8712C51.2375 68.8733 51.2194 68.6393 51.2205 68.3503C51.2237 66.6934 51.2205 65.0364 51.2205 63.3785C51.2205 61.0333 51.2322 58.6893 51.212 56.3442C51.2078 55.8836 51.3459 55.7259 51.8143 55.7343C53.2293 55.7597 54.6443 55.7555 56.0593 55.7375C56.4736 55.7322 56.6372 55.8773 56.6191 56.2881C56.599 56.7634 56.5947 57.2409 56.6181 57.7152C56.6393 58.1419 56.4948 58.3208 56.0423 58.3018C55.3221 58.2721 54.5965 58.2944 53.8168 58.2944Z" fill="white"/>
<path d="M19.0807 58.2931C18.6208 58.2931 18.2001 58.2762 17.7815 58.2984C17.3842 58.3185 17.2419 58.1459 17.2525 57.7669C17.2674 57.2375 17.2557 56.7082 17.2557 56.1788C17.2557 55.8792 17.3842 55.7394 17.7061 55.7405C19.512 55.75 21.3179 55.7468 23.1228 55.7415C23.4043 55.7405 23.5509 55.8358 23.5456 56.1375C23.536 56.7198 23.535 57.3021 23.5445 57.8844C23.5488 58.1767 23.4256 58.3005 23.1334 58.2952C22.6766 58.2857 22.2209 58.2931 21.6908 58.2931C21.6908 58.5334 21.6908 58.7208 21.6908 58.9082C21.6908 61.9955 21.6908 65.0839 21.6897 68.1712C21.6897 68.8657 21.6887 68.8657 20.978 68.8678C20.5881 68.8689 20.1993 68.8689 19.8095 68.8678C19.153 68.8657 19.1105 68.8287 19.1094 68.1839C19.1073 65.9076 19.1083 63.6324 19.1083 61.3561C19.1083 60.5271 19.1094 59.6981 19.1073 58.868C19.1062 58.6965 19.0914 58.5239 19.0807 58.2931Z" fill="white"/>
</svg>
