<svg width="18" height="18" viewBox="0 0 18 18" fill="none" xmlns="http://www.w3.org/2000/svg">
<path d="M15.6797 1.40625H14.0625V0.5625C14.0625 0.251859 13.8107 0 13.5 0C13.1893 0 12.9375 0.251859 12.9375 0.5625V1.40625H5.0625V0.5625C5.0625 0.251859 4.81068 0 4.5 0C4.18932 0 3.9375 0.251859 3.9375 0.5625V1.40625H2.32031C1.04087 1.40625 0 2.44712 0 3.72656V15.6797C0 16.9591 1.04087 18 2.32031 18H15.6797C16.9591 18 18 16.9591 18 15.6797V3.72656C18 2.44712 16.9591 1.40625 15.6797 1.40625ZM2.32031 2.53125H3.9375V3.09375C3.9375 3.40439 4.18932 3.65625 4.5 3.65625C4.81068 3.65625 5.0625 3.40439 5.0625 3.09375V2.53125H12.9375V3.09375C12.9375 3.40439 13.1893 3.65625 13.5 3.65625C13.8107 3.65625 14.0625 3.40439 14.0625 3.09375V2.53125H15.6797C16.3388 2.53125 16.875 3.06745 16.875 3.72656V5.0625H1.125V3.72656C1.125 3.06745 1.6612 2.53125 2.32031 2.53125ZM15.6797 16.875H2.32031C1.6612 16.875 1.125 16.3388 1.125 15.6797V6.1875H16.875V15.6797C16.875 16.3388 16.3388 16.875 15.6797 16.875Z" fill="white"/>
<path d="M8.76221 7.03181C8.83705 6.80148 9.1629 6.80148 9.23774 7.03181L10.1562 9.85861C10.1897 9.96162 10.2857 10.0314 10.394 10.0314L13.3663 10.0314C13.6084 10.0314 13.7091 10.3413 13.5132 10.4836L11.1086 12.2307C11.021 12.2943 10.9843 12.4072 11.0178 12.5102L11.9363 15.337C12.0111 15.5673 11.7475 15.7588 11.5515 15.6165L9.14692 13.8694C9.0593 13.8058 8.94065 13.8058 8.85303 13.8694L6.44841 15.6165C6.25248 15.7588 5.98886 15.5673 6.0637 15.337L6.98218 12.5102C7.01565 12.4072 6.97899 12.2943 6.89136 12.2307L4.48674 10.4836C4.29082 10.3413 4.39151 10.0314 4.63369 10.0314L7.60596 10.0314C7.71427 10.0314 7.81026 9.96162 7.84373 9.85861L8.76221 7.03181Z" fill="white"/>
</svg>
