<svg width="291" height="473" viewBox="0 0 291 473" fill="none" xmlns="http://www.w3.org/2000/svg">
<g opacity="0.2">
<path d="M44.8366 418.727L65.9284 403.221L66.5616 403.859C66.1357 404.699 65.5884 405.472 64.9373 406.153C59.4535 410.298 54.0216 414.542 48.3563 418.381C43.4069 421.736 42.3241 424.239 44.8107 430.277C46.3791 434.084 48.4709 437.638 50.3195 441.311C51.8039 443.929 53.7261 446.273 56.0027 448.242C59.602 451.739 62.665 455.871 66.1278 459.545C67.1358 460.614 68.744 461.012 70.0561 461.762C70.8199 462.198 71.5409 462.723 72.2797 463.208L72.151 463.87L69.471 464.061C69.3154 464.681 69.1473 465.351 68.9665 466.07C68.7083 466.037 68.4564 465.967 68.2187 465.861C62.6756 461.963 57.9889 456.971 54.4473 451.193C51.855 447.065 48.3892 445.385 44.2953 444.539C38.2377 443.408 32.0091 443.576 26.0212 445.032C17.636 446.85 9.76921 450.145 1.99217 453.822C1.36557 453.96 0.717643 453.971 0.08678 453.854L0 452.578C15.574 445.353 31.172 438.27 49.3693 443.784C45.7639 437.12 41.5553 430.964 41.8395 423.015C38.1963 424.399 34.9239 426.092 31.4701 426.851C25.4688 428.17 19.3589 429.119 13.4483 426.085C10.524 424.583 9.28365 422.127 9.07526 418.651C8.82675 413.045 8.29421 407.456 7.47987 401.905C6.80487 397.754 7.24763 394.095 9.67347 390.947C14.1233 385.171 17.3408 378.53 21.2522 372.421C24.9224 366.685 30.2198 362.149 34.8671 357.163C36.4439 355.515 38.114 353.958 39.8693 352.501C43.5015 349.404 44.6482 350.293 48.2446 351.892C48.9016 352.273 49.5343 352.695 50.139 353.155C48.5208 347.501 46.9076 342.485 48.132 337.045L44.6851 336.033C47.2515 345.471 42.2523 350 35.4295 353.808C34.915 350.934 37.0636 350.583 38.1674 349.956C40.0906 348.865 41.6132 347.186 42.5115 345.166C43.4097 343.145 43.6362 340.89 43.1576 338.731C42.5893 336.438 41.678 334.237 41.0927 331.944C41.0415 331.112 41.1332 330.278 41.3639 329.477C42.0148 329.773 42.6232 330.155 43.1726 330.613C44.0351 331.532 44.6741 332.7 45.5495 333.605C47.3312 335.442 48.5308 335.1 49.0732 332.559C50.4825 326.644 50.3492 320.466 48.6862 314.618C46.9025 308.8 44.4767 303.211 42.3221 297.526C42.1227 296.992 41.669 296.495 41.6521 295.967C41.6102 294.696 41.7568 293.418 41.8286 292.141C42.8545 292.481 44.1218 292.52 44.8626 293.215C47.8238 295.994 51.4482 295.696 53.9638 292.376C57.4455 287.781 60.5025 282.803 63.6223 277.896C65.1657 275.473 66.3851 272.81 67.8657 270.336C68.5637 269.169 69.3613 267.216 70.8897 268.242C71.6385 268.741 71.7612 270.847 71.6694 272.186C71.5089 274.568 70.8189 276.906 70.6205 279.288C70.3835 281.772 70.6964 284.278 71.5368 286.627C72.3772 288.977 73.7246 291.112 75.4832 292.882C76.3009 293.741 77.0536 294.66 77.7355 295.63C79.4066 298.032 79.3797 299.926 76.9848 301.189C70.0832 304.824 66.3401 311.543 62.1665 317.909C58.4774 323.53 54.5999 329.007 51.0194 334.704C48.7262 338.346 49.1439 342.672 50.3065 346.454C51.7273 351.08 54.1083 355.357 56.0197 359.816C56.3699 360.798 56.6539 361.802 56.8701 362.823L56.0605 363.342C55.3426 362.519 54.6437 361.678 53.9048 360.878C51.814 358.414 49.593 356.064 47.2515 353.837C44.9922 351.866 43.2055 351.923 41.1027 354.061C34.905 360.361 28.6315 366.614 22.8864 373.379C20.1804 376.564 18.6718 380.917 16.5052 384.663C15.5665 386.34 14.4436 387.907 13.1572 389.335C9.38733 393.389 8.54074 397.994 9.61955 403.595C10.4571 408.563 10.8993 413.59 10.9417 418.629C10.8944 419.869 11.2235 421.094 11.8857 422.143C12.5479 423.192 13.5122 424.017 14.6517 424.507C18.9749 426.71 23.5874 426.377 27.9963 425.513C31.9975 424.73 35.8292 422.897 39.7077 421.441C41.4785 420.776 42.349 419.385 42.9203 417.33C44.6258 411.092 48.5418 405.688 53.9378 402.124C57.3996 399.782 61.2353 398.084 65.046 396.021C63.4507 393.652 61.7198 391.307 60.2232 388.797C56.9555 383.572 55.7254 377.327 56.7675 371.254C57.5103 367.024 59.9739 363.646 62.6191 360.519C68.6179 353.469 76.4137 348.175 85.1786 345.199C92.844 342.5 99.4834 338.072 105.812 332.852C109.974 329.418 114.38 326.331 118.589 322.958C119.523 322.318 120.313 321.492 120.909 320.53C121.506 319.569 121.896 318.494 122.054 317.373C122.364 314.382 121.147 312.957 118.615 314.16C114.976 316.051 111.438 318.129 108.016 320.388C106.969 321.028 106.013 321.844 105.036 322.565C103.586 321.639 103.905 320.638 104.903 319.805C108.493 316.814 111.982 313.648 115.778 310.998C118.364 309.194 121.433 308.212 124.221 306.724C125.311 306.167 126.198 305.282 126.76 304.195C127.322 303.108 127.53 301.872 127.355 300.661C127.203 298.481 125.47 297.384 123.676 298.394C115.579 302.946 107.479 307.491 99.3756 312.029C98.5013 312.525 97.5615 312.894 96.5839 313.126C95.9377 313.16 95.2903 313.084 94.6695 312.902C94.8929 312.218 94.9288 311.277 95.3735 310.895C97.0169 309.449 98.7618 308.123 100.595 306.927C107.364 302.626 114.274 298.637 121.915 296.372C122.396 296.214 122.804 295.889 123.067 295.457C123.166 295.279 122.768 294.565 122.451 294.355C119.038 292.104 118.909 288.931 120.174 285.319C120.3 284.925 120.372 284.516 120.39 284.103C120.451 283.205 121.797 281.942 120.06 281.578C119.587 281.478 118.623 282.699 118.288 283.508C116.863 286.946 115.638 290.479 114.248 293.935C113.326 296.229 112.964 296.208 109.425 294.42C107.841 293.622 108.515 292.492 108.942 291.335C110.157 288.062 111.387 284.793 112.494 281.476C112.679 280.922 112.279 280.139 112.149 279.461C111.443 279.83 110.294 280.027 110.105 280.598C109.227 283.162 108.537 285.788 108.042 288.453C107.249 292.963 104.618 295.559 100.986 297.453C99.4006 298.248 97.9858 299.345 96.8213 300.683C93.7304 304.41 89.7879 306.359 85.4936 307.715C85.021 307.865 84.4737 307.735 83.5344 307.149C84.0082 306.376 84.5776 305.665 85.2294 305.035C88.1671 302.718 91.2322 300.567 94.4103 298.593C96.9588 297.115 97.9997 294.886 98.3476 291.68C97.3237 292.378 96.2748 293.029 95.2798 293.768C93.2129 295.307 91.2397 297.011 89.0841 298.387C88.6582 298.59 88.1905 298.691 87.7186 298.682C87.2467 298.672 86.7835 298.553 86.366 298.333C85.9971 298.124 86.0221 296.538 86.2754 295.722C86.9223 293.704 87.6782 291.722 88.5397 289.786C90.6983 284.8 90.135 279.534 89.781 274.369C88.7126 261.457 91.7046 248.534 98.3387 237.406C99.4864 235.491 100.836 233.705 102.365 232.079C104.291 230.026 106.721 229.219 109.314 230.468C111.988 231.758 113.31 234.184 113.412 237.331C113.501 240.069 113.477 242.816 113.576 245.551C113.664 246.579 113.809 247.602 114.009 248.614L114.754 248.754C116.076 244.912 117.493 241.101 118.634 237.197C118.833 236.529 118 235.287 117.363 234.623C116.553 234.032 115.699 233.505 114.808 233.046C112.315 231.168 112.919 228.478 113.683 226.1C114.873 222.396 113.883 218.888 113.361 215.33C113.288 214.822 112.585 214.402 112.141 213.978C111.229 213.223 110.366 212.411 109.558 211.546C107.602 209.127 107.887 208.165 110.536 206.873C111.083 206.605 111.824 205.377 111.669 205.073C109.538 200.937 107.27 196.884 105.005 192.831C104.881 192.609 104.479 192.569 103.998 192.348C103.945 192.985 103.795 193.609 103.554 194.2C103.041 195.008 102.374 196.21 101.711 196.256C101.048 196.303 100.079 195.29 99.6369 194.488C98.1932 191.872 97.1004 189.017 95.5559 186.48C93.1132 182.467 89.7003 180.926 85.1527 181.934C69.9825 185.3 58.94 194.524 51.818 209.214C50.2526 212.442 49.4521 216.115 48.4331 219.628C48.3645 220.008 48.3732 220.399 48.4589 220.776C48.5445 221.152 48.7054 221.508 48.9316 221.822C51.5638 225.043 52.6486 228.85 53.2548 233.02C53.9148 237.562 55.4533 241.805 59.294 244.409C60.6117 245.188 62.0345 245.773 63.5186 246.146C69.794 248.13 74.9947 252.089 80.1834 256.207C81.7418 257.445 84.0998 257.513 86.0999 258.093C86.8656 258.314 87.6493 258.463 88.425 258.645C88.0571 259.476 87.8916 260.597 87.2874 261.091C82.6012 264.925 77.2001 266.548 72.479 261.05C65.3551 252.756 59.5791 255.248 52.4811 257.837C42.2602 261.567 34.8581 269.604 27.1399 277.151C23.1976 281.045 18.3463 283.893 13.0255 285.438C9.17289 286.572 6.92061 290.491 7.31544 295.472C7.65244 301.696 10.2805 307.576 14.6936 311.978C14.535 309.806 14.4573 307.624 14.195 305.469C13.9428 303.424 13.3765 301.422 13.1791 299.375C13.0794 298.31 13.1742 296.51 13.7026 296.243C14.2427 296 14.8302 295.881 15.4221 295.895C16.0141 295.909 16.5954 296.055 17.1234 296.323C19.2451 297.498 21.1567 299.017 22.7798 300.819C27.104 306.072 31.2039 311.546 35.2749 317.034C36.0512 318.276 36.6118 319.641 36.933 321.07C37.5651 323.217 36.6787 324.637 34.5749 324.907C30.7622 325.397 27.2964 324.025 23.9962 322.224C21.5035 320.862 19.1624 319.179 16.7067 317.61C15.0659 324.874 15.3183 332.437 17.4395 339.576C18.6011 343.465 18.3619 348.216 17.6021 352.329C16.3847 358.924 14.212 365.315 12.4383 371.79C11.863 373.884 11.2527 375.971 10.6575 378.062L11.3934 378.352C13.1881 375.25 14.9249 372.107 16.8163 369.078C17.2012 368.462 18.1664 368.27 18.8644 367.881C18.772 368.676 18.5825 369.457 18.3 370.206C15.9263 374.707 13.5051 379.179 11.0364 383.622C10.4493 384.467 9.77567 385.248 9.02633 385.953L7.94152 385.383C8.3553 382.691 8.68632 379.972 9.20878 377.306C9.61757 375.218 10.2557 373.182 10.804 371.123C12.1381 366.148 13.4244 361.158 14.8343 356.209C16.6569 349.813 17.3319 343.483 14.9449 337.028C13.0894 332.013 13.4234 326.715 14.1642 321.552C14.6857 317.926 14.563 315.071 11.9218 312.168C7.85584 307.687 5.90253 301.919 5.48576 295.624C5.11685 290.069 6.74806 285.227 13.1133 283.291C20.1585 281.15 25.4669 276.427 30.517 271.103C37.5614 263.447 46.4024 257.668 56.241 254.288C63.1276 251.977 68.5965 253.714 73.4302 259.239C76.6019 262.864 81.2672 263.306 83.9273 260.873C78.9051 257.467 73.857 253.84 68.6154 250.585C66.1409 249.157 63.4993 248.041 60.7507 247.262C56.2291 245.831 53.9906 242.176 52.5898 237.81C51.4511 234.258 50.8748 230.496 49.7451 226.94C49.2326 225.325 47.9873 223.982 46.9354 222.289C43.1337 227.268 38.7596 230.699 33.5061 232.485C29.2225 233.934 24.8431 235.082 20.3997 235.922C15.9648 236.763 14.2769 233.115 15.5312 228.79C17.3498 222.518 20.6779 217.123 24.055 211.761C25.6782 209.185 27.3682 206.657 29.1021 204.167C29.426 203.783 29.6174 203.304 29.6477 202.802C29.6781 202.3 29.5459 201.801 29.2707 201.38C26.4121 194.974 23.4428 188.583 21.1875 181.919C19.5802 177.167 19.4147 172.062 21.9852 167.289C23.3013 164.842 25.3402 163.665 27.5686 162.535C33.4144 159.575 38.1145 154.903 42.9871 150.45C47.2336 146.57 52.0843 143.869 57.8433 143.684C61.6979 143.564 64.019 146.239 66.373 149.02C69.6165 152.851 73.0035 156.541 76.3666 160.252C77.2191 161.193 77.9738 161.249 79.3188 160.543C86.1527 156.974 93.0892 153.625 100.067 150.392C104.316 148.423 107.934 151.045 107.916 155.983C107.995 163.308 106.12 170.523 102.484 176.883C100.473 180.337 97.8621 180.63 95.0065 177.986C92.3145 175.493 89.9824 172.521 87.1856 170.189C84.6288 167.923 81.7363 166.067 78.611 164.688C77.2001 164.125 74.8221 165.326 73.2747 166.395C62.8893 173.575 52.8012 181.213 43.8058 190.377C40.3161 193.935 37.0178 197.729 33.7793 201.561C33.5211 201.997 33.369 202.488 33.3354 202.994C33.3018 203.5 33.3877 204.007 33.5859 204.473C37.5143 209.171 41.6032 213.71 45.6622 218.28C45.8507 218.491 46.1976 218.538 46.7689 218.796C47.4748 216.316 48.0601 213.902 48.8448 211.566C51.85 202.636 57.4445 195.82 64.1627 189.949C70.0174 184.833 76.8442 181.845 84.033 179.9C90.0801 178.265 95.1132 180.967 98.2111 186.993C99.3158 189.142 100.257 191.39 101.327 193.711C101.533 193.299 101.732 192.953 101.887 192.587C103.217 189.461 104.825 189.054 106.653 191.836C109.064 195.535 111.241 199.382 113.171 203.354C114.478 206.022 113.484 208.006 110.371 209.623L113.316 212.481L133.01 195.892C133.399 197.387 134.082 198.558 133.894 199.532C132.816 205.111 130.593 210.073 126.545 213.922C123.393 216.919 119.756 217.358 115.468 216.116C115.788 217.2 115.984 218.317 116.053 219.445C115.947 222.227 115.628 224.996 115.099 227.729C114.624 229.831 115.065 231.02 116.761 231.952C120.817 234.177 121.362 235.607 119.765 240.239C118.652 243.472 117.497 246.704 116.105 249.803C115.621 250.884 114.376 251.567 113.478 252.433C112.862 251.371 112.404 250.226 112.118 249.033C111.771 245.151 111.639 241.246 111.482 237.347C111.382 234.876 110.352 233.034 108.263 232.139C106.192 231.249 104.282 232.33 103.208 234.033C100.455 238.405 97.5251 242.773 95.5609 247.57C91.6735 257.098 90.3893 267.487 91.8399 277.675C92.4459 283.027 91.5233 288.442 89.1788 293.291C88.7969 294.145 88.5626 295.076 88.2595 295.971L88.769 296.47C90.4949 295.095 92.1589 293.624 93.9636 292.372C95.6509 291.155 97.4485 290.099 99.3328 289.217C100.729 288.595 101.127 289.901 100.942 291.054C100.616 292.604 100.207 294.135 99.7186 295.641C103.507 294.373 105.518 291.623 106.424 287.831C107.128 284.888 107.72 281.915 108.361 278.937C105.818 276.949 105.844 276.961 107.264 273.598C108.428 270.843 109.505 268.044 110.654 265.28C110.941 264.685 111.266 264.11 111.628 263.558C111.856 263.57 112.082 263.613 112.299 263.684C116.201 266.051 116.171 266.035 114.011 270.445C113.058 272.389 112.25 274.417 111.261 276.671L113.753 278.098C115.535 273.432 117.262 268.994 118.871 264.506C118.979 264.207 118.273 263.328 117.788 263.074C116.436 262.367 114.997 261.846 113.408 261.171C115.461 255.736 117.433 250.521 119.401 245.304C124.377 232.094 129.354 218.885 134.333 205.677C138.246 195.361 142.249 185.084 146.164 174.764C150.976 162.088 155.727 149.388 160.527 136.708C163.984 127.581 167.457 118.462 170.948 109.353C171.714 107.736 172.353 106.062 172.859 104.347C173.433 101.599 174.869 100.902 177.196 101.488C177.863 101.679 178.55 101.795 179.243 101.834C180.977 101.866 181.126 102.808 180.578 104.277C177.734 111.898 174.895 119.522 172.063 127.15C167.715 138.887 163.371 150.625 159.033 162.366C155.742 171.195 152.386 179.991 149.101 188.819C143.131 204.864 137.176 220.916 131.235 236.974C128.321 244.805 125.344 252.608 122.417 260.432C122.111 261.249 121.198 262.415 122.752 262.719C123.25 262.818 124.239 261.89 124.502 261.207C129.044 249.405 133.538 237.582 137.983 225.737C143.689 210.544 149.325 195.322 155.032 180.128C159.401 168.499 163.852 156.907 168.234 145.285C173.541 131.211 178.776 117.107 184.149 103.063C184.926 101.478 185.906 100.001 187.064 98.6686C188.617 96.5386 190.298 94.5133 191.799 92.3414C192.796 90.9034 192.334 90.0568 190.625 90.0309C188.111 89.994 186.743 91.4669 186.829 94.1862C186.921 97.1319 185.86 98.8561 183.23 100.032C180.719 101.152 178.31 100.883 176.914 98.3984C174.195 93.6372 171.812 88.692 169.782 83.5989C169.192 82.0892 170.307 79.677 170.928 77.7873C171.446 76.6997 172.109 75.6873 172.899 74.7777C169.608 70.4898 172.834 65.071 176.934 63.0507C179.14 61.9022 181.225 60.5323 183.154 58.9622C185.392 57.2161 185.491 56.3844 183.48 54.5526C179.674 51.0873 181.087 46.6318 184.41 44.2645C186.277 42.9342 188.229 43.2752 190.157 43.9154C191.904 44.4958 193.582 45.3115 195.32 45.9298C200.405 47.7317 203.197 46.4892 206.154 40.7344C209.922 33.39 213.751 26.0606 217.108 18.4968C221.545 8.49394 228.885 3.0253 238.725 1.07877C239.805 0.865366 241.801 1.09372 241.997 1.66512C242.394 3.03057 242.282 4.49412 241.68 5.78256C240.375 8.08592 238.904 10.2912 237.28 12.381C229.334 23.3183 221.376 34.2449 213.405 45.1609C213.283 45.3666 213.215 45.5998 213.208 45.8387C213.201 46.0777 213.255 46.3145 213.364 46.5271C216.531 42.9152 219.863 39.453 222.836 35.6576C230.257 26.1783 237.511 16.5453 244.842 6.98318C245.359 6.19068 245.998 5.48547 246.737 4.89405C247.377 4.47024 248.46 4.0963 248.992 4.41341C249.289 4.7151 249.519 5.07626 249.666 5.47313C249.813 5.87 249.875 6.29355 249.846 6.71593C249.585 10.323 248.095 13.7315 245.626 16.3738C245.012 17.0938 244.358 17.7759 243.557 18.6554C245.631 18.9865 246.847 19.9777 246.312 22.3949C246.031 23.5492 245.369 24.5746 244.431 25.304C243.494 26.0334 242.337 26.4238 241.149 26.4116C237.774 26.1972 236.219 27.0628 235.196 29.9018C236.062 30.3007 236.965 30.6557 237.823 31.1134C239.244 31.8723 240.914 32.4686 240.714 34.7193C240.482 35.7287 239.998 36.6628 239.307 37.435C238.617 38.2072 237.742 38.7922 236.765 39.1359C236.004 39.2876 235.216 39.2316 234.485 38.9737C233.753 38.7157 233.104 38.2654 232.606 37.67C231.927 36.9719 230.361 36.1243 230.014 36.4285C228.809 37.5525 227.84 38.9051 227.162 40.4073C227.002 40.7483 228.129 42.0587 228.868 42.5842C231.776 44.6484 231.747 46.2868 228.795 48.4357C227.918 49.1423 226.857 49.5823 225.737 49.7036C224.618 49.8249 223.487 49.6223 222.479 49.1198C221.584 48.6205 220.538 48.4618 219.535 48.6731C218.532 48.8845 217.639 49.4515 217.021 50.2696C214.213 53.8096 211.605 57.5491 209.075 61.3305C204.273 68.5044 206.172 75.6134 209.606 82.5509C213.654 90.7349 219.477 97.2935 226.096 103.107C229.739 106.256 232.51 110.29 234.143 114.82C234.988 117.215 236.34 119.399 238.108 121.223C239.875 123.046 242.015 124.466 244.383 125.386C245.926 126.19 247.322 127.25 248.511 128.522C243.954 128.843 236.085 123.521 233.861 118.461C231.387 112.831 228.613 107.515 223.954 103.66C218.829 99.3655 214.412 94.2903 210.868 88.6208C207.87 83.9091 205.333 78.9819 204.686 73.1413C204.187 68.6021 204.75 64.4069 207.362 60.6644C210.054 56.8142 212.503 52.7486 215.418 49.1128C216.29 47.8472 217.614 46.9642 219.117 46.6456C220.621 46.3271 222.189 46.5973 223.499 47.4006C225.664 48.5225 227.432 47.258 229.209 45.486C228.715 45.0287 228.182 44.6166 227.614 44.2545C226.795 43.8872 226.129 43.2454 225.732 42.4398C225.336 41.6342 225.232 40.7154 225.44 39.8419C225.561 38.726 225.968 37.6604 226.623 36.7486C227.277 35.8368 228.156 35.1099 229.174 34.6385C230.938 33.7181 232.465 34.4061 233.719 35.873C234.751 37.0806 235.86 37.9382 237.257 36.597C237.932 36.0645 238.398 35.3104 238.571 34.468C238.564 33.9564 237.474 33.388 236.797 32.9722C235.392 32.1156 233.273 31.966 233.269 29.6465C233.299 28.6757 233.625 27.737 234.202 26.9558C234.779 26.1747 235.581 25.5882 236.5 25.2748C237.876 24.6391 239.372 24.3059 240.887 24.2976C242.844 24.3494 243.887 23.5516 244.476 21.3259C243.88 21.3162 243.287 21.2494 242.704 21.1264C241.979 20.9011 240.857 20.6837 240.705 20.1791C240.647 19.3443 240.912 18.5192 241.444 17.8736C243.27 15.3696 245.283 13.0222 247.05 10.4734C247.617 9.65269 247.641 8.39123 247.913 7.33121L247.285 6.96025C245.525 9.27774 243.726 11.5593 242.014 13.9167C232.405 27.1505 222.51 40.1071 211.005 51.5161C210.118 52.2991 209.181 53.0246 208.201 53.688L207.445 53.1305C207.581 52.0204 207.887 50.9378 208.352 49.9206C215.204 39.8535 222.11 29.8293 229.07 19.848C232.559 14.871 236.267 10.0755 239.838 5.17526C240.309 4.36238 240.717 3.51423 241.057 2.6384C231.585 4.4892 224.002 8.23368 219.604 17.5126C215.678 25.7963 211.67 34.0392 207.496 42.1783C204.25 48.5045 200.668 49.8567 194.279 47.6629C192.441 47.0749 190.639 46.3783 188.883 45.5768C186.603 44.4798 185.265 45.862 183.987 47.4714C182.504 49.3402 182.86 51.0863 184.432 52.6938C185.013 53.237 185.543 53.8328 186.015 54.4738C187.065 56.0473 187.377 57.8074 185.802 59.0938C183.4 61.0651 180.883 62.8928 178.266 64.5674C176.111 65.9376 173.992 67.1601 173.526 70.1607C173.252 71.9247 173.664 72.913 175.415 72.0833C177.004 71.3304 178.433 70.1757 180.025 69.4258C180.828 69.2273 181.662 69.184 182.482 69.2981C182.144 69.9313 181.718 70.5138 181.217 71.0283C179.41 72.4034 177.412 73.5083 175.694 74.9961C172.139 78.0735 169.819 81.7122 172.839 86.9625C174.681 90.1685 176.211 93.5829 178.023 96.8138C178.213 97.2299 178.492 97.5992 178.84 97.8955C179.188 98.1919 179.597 98.4081 180.038 98.5288C180.479 98.6496 180.941 98.6719 181.391 98.5942C181.842 98.5165 182.27 98.3407 182.645 98.0793C184.364 97.1459 185.631 95.9712 184.914 93.3984C184.804 92.8666 184.801 92.3184 184.904 91.7852C185.006 91.252 185.213 90.7443 185.512 90.2912C185.811 89.8381 186.197 89.4485 186.647 89.1447C187.097 88.841 187.603 88.6291 188.135 88.5211C188.711 88.2947 189.331 88.2022 189.948 88.2509C191.216 88.5361 193.108 88.6597 193.52 89.5293C193.738 90.2352 193.809 90.9781 193.729 91.7126C193.65 92.447 193.421 93.1574 193.057 93.8003C192.52 94.527 192.174 95.3768 192.05 96.2718C191.926 97.1669 192.029 98.0786 192.348 98.9239C193.968 103.341 195.755 107.624 199.944 109.893C201.343 110.524 202.805 111.005 204.306 111.326C210.225 113.033 214.142 117.451 217.149 122.83C220.993 129.71 224.217 137.014 228.353 143.671C230.473 147.084 233.956 149.527 236.913 152.296C237.411 152.763 238.356 152.71 239.106 152.815C240.762 153.147 242.442 153.337 244.129 153.384C246.64 153.463 249.147 153.155 251.563 152.468C252.313 152.072 252.964 151.512 253.47 150.831C253.975 150.15 254.322 149.364 254.484 148.532C254.83 145.911 254.27 143.153 254.111 140.454C254.067 139.726 254.104 138.993 254.104 138.025C256.221 139.4 257.356 145.137 256.539 148.695C255.414 153.598 253.321 154.935 245.789 155.897C247.051 156.326 248.36 156.599 249.688 156.71C252.963 156.745 256.233 156.451 259.448 155.831C264.724 154.549 265.556 151.543 262.389 146.694C260.987 144.548 259.416 142.505 258.202 140.251C257.66 139.247 257.268 137.354 257.761 136.683C258.477 135.711 260.248 134.748 261.239 135.049C268.054 137.121 274.92 139.26 280.111 144.944C282.281 147.39 283.576 150.489 283.791 153.752C284.552 161.392 285.405 169.033 286.565 176.612C287.102 179.416 288.06 182.123 289.406 184.641C291.5 188.873 290.419 192.678 288.466 196.363C285.766 201.449 281.43 204.74 276.881 207.594C266.197 214.417 254.83 220.105 242.964 224.565C235.173 227.424 227.156 229.563 219.274 232.144C214.328 233.76 209.153 234.972 204.594 237.463C197.349 241.422 196.949 246.766 198.129 253.688C200.098 265.233 202.699 276.654 204.577 288.213C206.154 297.913 207.078 307.735 208.304 317.502C208.468 318.806 208.713 320.095 208.919 321.397L208.321 321.717C207.752 320.542 206.842 319.423 206.668 318.182C205.72 311.467 205.11 304.694 204.086 297.994C202.665 288.692 201.016 279.428 199.399 270.162C198.321 263.991 197.073 257.854 195.997 251.683C194.785 244.725 198.473 237.411 204.878 234.852C209.754 232.999 214.727 231.412 219.775 230.097C230.567 227.091 241.298 223.898 251.447 218.813C258.553 215.253 265.705 211.771 272.652 207.877C278.25 204.74 283.673 201.133 287.032 195.013C287.937 193.538 288.464 191.864 288.569 190.137C288.673 188.41 288.351 186.684 287.63 185.111C283.847 176.869 282.528 168.073 282.227 158.958C282.244 155.524 281.607 152.117 280.348 148.921C279.009 146.331 276.949 144.184 274.416 142.739C270.703 140.539 266.595 139.095 262.601 137.483C261.525 137.222 260.416 137.121 259.311 137.183L258.925 137.826C260.47 140.211 262.079 142.552 263.536 144.999C264.481 146.396 265.194 147.936 265.648 149.56C266.775 154.926 264.108 157.039 259.094 158.157C252.512 159.731 245.587 158.955 239.516 155.963C238.275 155.378 236.912 155.099 235.542 155.149C233.685 155.212 233.086 156.507 234.163 158.178C237.862 164.179 240.739 170.65 242.717 177.416C244.194 182.103 247.576 184.935 251.553 186.834C256.409 189.151 261.424 191.074 266.331 193.274C267.127 193.804 267.837 194.455 268.436 195.201C267.663 195.893 266.986 196.942 266.1 197.223C256.665 200.209 248.297 198.299 241.274 190.606C240.631 189.901 240.03 189.149 239.379 188.456C236.174 185.056 232.948 184.687 229.329 187.552C223.147 192.438 219.22 199.028 217.223 206.978C216.545 209.682 215.997 212.424 215.269 215.109C214.952 215.785 214.522 216.402 213.998 216.934C213.534 216.273 212.627 215.57 212.677 214.958C212.902 210.61 213.398 206.28 214.162 201.994C214.8 198.941 216.374 196.119 217.513 193.185C217.753 192.565 217.912 191.907 218.266 190.739C215.584 191.144 213.416 191.524 211.235 191.788C206.98 192.303 202.696 193.304 198.463 193.105C191.428 192.775 189.719 199.026 189.831 204.294C189.876 206.364 190.137 208.43 190.148 210.498C190.148 211.097 189.628 211.695 189.35 212.286C188.973 211.696 188.343 211.146 188.259 210.51C187.73 206.522 187.643 202.425 186.804 198.516C185.275 191.401 180.672 186.949 174.733 183.991C173.365 183.307 171.903 182.828 170.395 182.569C167.349 182.061 166.054 183.566 167.043 186.642C168.139 190.021 169.42 193.337 170.88 196.576C173.484 202.07 176.972 207.098 181.207 211.461C185.228 215.812 186.99 221.481 188.11 227.328C189.12 232.351 189.867 237.423 190.349 242.523C191.021 249.448 191.346 256.401 191.323 263.358C191.195 274.385 191.918 285.405 193.485 296.32C195.269 308.73 198.612 320.864 203.436 332.436C204.399 334.791 205.61 337.028 206.707 339.317L207.351 339.003C207.563 335.771 207.764 332.535 208.02 329.306C208.035 329.115 208.5 328.968 208.761 328.798C210.456 332.264 209.628 340.053 207.319 342.026C204.39 340.649 203.367 337.513 202.368 334.746C199.331 326.341 196.086 317.944 193.984 309.242C190.979 296.845 189.488 284.129 189.543 271.373C189.572 265.477 189.876 259.557 189.504 253.688C189.069 246.84 188.207 240.008 187.189 233.228C186.445 229.036 185.485 224.885 184.314 220.793C183.259 216.687 180.618 213.679 177.971 210.711C171.857 203.917 167.474 195.746 165.195 186.894C164.062 182.53 165.804 180.14 169.964 180.611C177.49 181.464 182.856 186.072 186.752 192.846C187.445 194.213 188.062 195.617 188.6 197.052C188.817 196.962 189.155 196.935 189.212 196.783C190.981 192.07 194.608 191.507 198.751 191.199C204.224 190.793 209.642 189.574 215.103 188.942C216.553 188.775 218.555 188.983 219.43 189.945C220.076 190.656 219.597 192.991 219.108 194.392C218.086 197.32 216.727 200.112 215.981 203.176C217.748 199.879 219.263 196.383 221.343 193.335C224.106 189.287 227.251 185.479 232.03 184.061C235.071 183.163 237.705 184.006 240.037 186.354C242.54 188.871 244.948 191.63 247.815 193.562C253.007 197.062 258.782 196.782 264.514 195.718L264.637 195.075C261.777 193.903 258.839 192.914 256.077 191.52C251.421 189.168 246.38 187.232 243.285 182.46C241.697 180.01 240.827 177.021 239.596 174.298C237.434 169.525 235.385 164.682 233.015 160.038C231.299 156.68 231.229 155.551 233.971 152.888C233.006 151.991 232.083 151.07 231.107 150.226C226.291 146.059 224.266 139.921 221.336 134.392C218.661 129.348 215.685 124.48 212.652 119.675C210.053 115.557 205.996 113.757 201.685 112.667C196.928 111.462 194.179 107.98 192.213 103.475C191.933 102.835 191.541 102.252 190.989 101.264C190.59 102.13 190.291 102.652 190.092 103.215C186.702 112.728 183.319 122.245 179.944 131.765C177.451 138.817 174.976 145.877 172.521 152.945C167.578 167.074 162.634 181.201 157.689 195.326C153.914 206.057 150.112 216.777 146.282 227.486C144.161 233.458 142.014 239.419 139.923 245.402C138.915 248.294 140.813 253.53 143.126 254.452C145.706 255.482 149.715 253.179 150.856 249.99C152.877 244.339 157.068 241.835 162.29 241.159C163.779 240.967 165.848 241.268 166.837 242.275C169.074 244.554 171.81 245.145 174.485 246.164C181.518 248.85 185.033 257.524 183.06 265.916C180.524 276.685 175.781 286.371 170.849 295.985C166.14 305.16 161.293 314.258 156.79 323.551C154.693 328.024 154.397 333.133 155.964 337.819C160.14 351.614 162.572 365.711 161.846 380.299C161.382 389.217 160.078 398.071 157.952 406.743C155.607 417.146 151.459 427.058 145.696 436.03C136.413 450.055 124.433 460.493 109.403 466.544C104.436 468.604 99.3262 470.301 94.1142 471.623C85.8515 473.623 78.0167 471.578 70.5976 467.435C70.3583 467.301 70.2207 466.958 69.5188 466.03C71.3195 466.316 72.6296 466.211 73.6635 466.737C83.4596 471.723 93.2228 470.895 103.129 467.058C112.019 463.614 120.446 459.347 127.965 453.065C140.815 442.333 150.14 427.983 154.729 411.881C159.106 397.175 160.802 381.802 159.736 366.495C159.013 357.536 157.306 348.683 154.647 340.097C153.564 336.592 153.202 332.904 153.582 329.255C153.962 325.606 155.077 322.072 156.858 318.865C163.135 306.905 169.236 294.839 175.161 282.667C178.221 276.723 180.345 270.342 181.458 263.75C182.694 255.44 178.96 249.254 171.115 247.225C171.309 248.482 171.414 249.676 171.685 250.826C173.075 256.751 172.103 262.468 170.615 268.198C168.535 276.22 164.219 282.847 159.725 289.417C153.678 298.241 148.646 307.719 144.723 317.671C142.108 324.509 141.66 331.984 143.439 339.085C145.367 347.581 147.889 355.988 149.037 364.607C149.946 372.339 150.126 380.138 149.574 387.903C149.135 395.067 148.085 402.18 146.437 409.165C144.522 417.19 141.457 424.895 137.339 432.043C131.819 441.768 125.242 450.421 116.313 456.674C106.499 463.55 95.8351 467.831 83.9801 467.693C81.0715 467.498 78.1879 467.028 75.3685 466.287C74.7413 466.157 74.2288 465.38 73.6645 464.901C74.3453 464.571 75.0827 464.374 75.8372 464.319C78.0307 464.619 80.1823 465.388 82.3718 465.51C95.3136 466.232 106.835 461.621 117.113 453.58C130.374 443.209 138.573 428.759 143.694 412.238C147.898 398.508 149.301 384.073 147.82 369.79C147.009 361.547 144.908 353.418 142.991 345.349C141.241 337.984 139.376 330.578 141.296 323.102C142.69 317.615 144.735 312.314 147.386 307.311C151.977 298.747 157.166 290.55 162.228 282.282C167.681 273.382 171.226 263.926 170.231 252.996C170.231 252.417 170.173 251.839 170.059 251.271C169.635 249.875 169.12 248.509 168.55 246.866C161.727 247.616 155.332 249.212 150.479 254.979C147.799 258.162 142.649 261.615 138.028 258.81C136.391 257.813 134.956 258.201 133.9 259.999C133.166 261.248 132.322 262.422 131.565 263.656C131.314 264.061 130.957 264.593 131.026 264.991C131.979 270.461 128.628 274.776 127.689 279.728C127.613 280.127 127.376 280.498 127.341 280.894C127.193 282.64 126.287 283.281 124.821 282.755C123.481 282.276 122.783 282.709 122.445 284.117C122.102 285.553 121.64 286.963 121.401 288.416C121.232 289.133 121.346 289.889 121.72 290.525C123.689 292.345 124.599 295.237 127.097 296.508C129.741 297.858 130.332 303.408 127.734 306.061C125.813 308.023 123.185 309.178 120.874 310.695C120.455 310.97 120.043 311.257 119.478 311.643C124.296 313.054 125.691 317.903 122.194 321.715C119.236 324.939 115.676 327.537 112.285 330.272C108.308 333.688 104.146 336.882 99.8163 339.837C95.5657 342.476 91.0988 344.75 86.4638 346.633C76.8113 350.683 67.9873 355.901 61.5952 365.037C59.6422 367.66 58.4516 370.771 58.155 374.027C57.8584 377.283 58.4671 380.558 59.9141 383.49C61.6021 387.202 64.1237 390.471 66.2953 393.924C66.4718 394.204 66.8476 394.337 67.1318 394.539L67.8517 394.297C67.6104 393.085 67.6673 391.663 67.081 390.694C63.7289 385.161 63.7498 379.316 65.6422 373.375C66.6525 370.279 67.9141 367.271 69.4141 364.38C69.7133 363.775 70.1386 363.24 70.6617 362.813C71.1847 362.385 71.7932 362.075 72.4462 361.902C73.2069 361.833 74.551 363.48 74.872 364.614C76.0494 368.281 76.8773 372.052 77.3447 375.876C77.6395 380.846 77.6758 385.829 77.4534 390.803C77.4102 392.453 77.1305 394.088 76.6228 395.658C75.196 400.117 72.1948 401.243 68.5915 398.542C68.1537 398.133 67.5889 397.888 66.9915 397.846C66.3941 397.804 65.8006 397.969 65.3103 398.313C61.9701 400.098 58.4525 401.547 55.2629 403.598C50.6212 406.633 47.0917 411.095 45.2065 416.311C45.0191 417.106 44.8955 417.914 44.8366 418.727ZM31.3055 201.307C43.8623 186.187 58.7693 173.186 75.4552 162.801C71.6664 158.275 68.098 154.017 64.5325 149.762C62.4327 147.257 60.0347 144.882 56.7305 145.563C52.06 146.447 47.7373 148.641 44.2673 151.89C39.5323 156.401 34.8362 160.973 29.0802 163.966C26.8189 165.142 24.5864 166.144 23.3331 168.834C21.3031 173.189 21.8445 177.545 23.0539 181.871C23.9689 185.157 25.0967 188.381 26.43 191.521C27.807 194.752 29.5398 197.807 31.3055 201.307ZM43.6162 295.21C48.6125 305.971 52.9408 316.918 51.8709 329.431C52.4977 328.956 53.0345 328.372 53.4562 327.708C56.3477 323.285 59.1205 318.773 62.1246 314.445C65.4887 309.599 68.5616 304.411 73.4093 301.03C77.5969 298.111 77.6897 298.101 74.0664 294.227C72.1934 292.286 70.7657 289.961 69.8828 287.412C69 284.863 68.6832 282.152 68.9544 279.469C69.1538 276.853 69.3961 274.241 69.6803 270.919C68.3602 273.265 67.408 275.082 66.3452 276.82C63.1755 282.006 60.3378 287.49 56.6736 292.232C52.2348 297.952 48.8168 298.738 43.6132 295.207L43.6162 295.21ZM178.727 103.828C176.281 103.004 175.086 103.391 174.2 106.061C172.046 112.551 169.43 118.862 166.992 125.241C162.555 136.849 158.087 148.444 153.679 160.065C148.295 174.251 142.992 188.468 137.61 202.653C131.455 218.874 125.278 235.085 119.079 251.288C117.994 254.142 117.012 257.041 115.918 260.099L119.975 261.595C139.631 208.809 159.169 156.342 178.724 103.828H178.727ZM143.133 257.806L143.316 257.23C143.079 256.956 142.823 256.697 142.55 256.457C138.031 252.955 136.751 248.592 138.708 243.049C144.708 226.039 150.718 209.033 156.739 192.03C161.305 179.075 165.802 166.089 170.383 153.14C176.191 136.719 182.023 120.309 187.879 103.91C188.3 102.722 188.553 101.463 188.884 100.236L188.239 99.961C187.316 101.249 186.506 102.615 185.82 104.044C181.532 115.19 177.298 126.362 173.118 137.559C168.332 150.329 163.632 163.137 158.822 175.898C153.96 188.798 148.968 201.643 144.104 214.545C138.182 230.251 132.313 245.98 126.495 261.733C126.228 262.453 126.255 263.954 126.613 264.164C127.619 264.753 128.802 265.24 129.645 263.434C130.542 261.547 131.652 259.769 132.953 258.135C134.349 256.37 135.945 255.267 138.351 256.722C139.7 257.542 141.517 257.473 143.126 257.806H143.133ZM31.0663 205.049C30.9955 205.083 30.7034 205.117 30.5917 205.287C27.782 209.641 24.7769 213.871 22.2653 218.418C20.2647 222.097 18.5988 225.949 17.288 229.927C16.2909 232.901 17.3099 234.109 20.1794 233.701C23.6717 233.232 27.1234 232.498 30.5049 231.507C35.5974 229.998 40.178 227.119 43.7478 223.186C45.1826 221.618 45.2924 220.638 43.7539 219.019C39.4745 214.516 35.3755 209.822 31.0663 205.049ZM79.5961 162.579C82.2074 164.231 84.3988 165.264 86.1905 166.829C89.414 169.648 92.4401 172.738 95.4692 175.804C98.0117 178.381 99.4454 178.404 101.265 175.293C104.087 170.466 105.029 164.93 105.999 159.429C106.428 156.997 106.797 153.902 104.773 152.823C103.043 151.9 100.297 152.513 98.2151 153.202C95.2596 154.333 92.3933 155.684 89.6404 157.244C86.4638 158.869 83.3271 160.594 79.5961 162.58V162.579ZM15.4922 297.116C15.3119 297.558 15.1705 298.015 15.0695 298.481C15.5674 303.661 16.0762 308.839 16.596 314.016C16.6097 314.412 16.7578 314.793 17.0158 315.095C21.2284 318.562 25.6961 321.55 30.9556 322.744C32.2844 322.876 33.6247 322.838 34.9438 322.63C34.537 321.116 34.4882 319.305 33.6626 318.137C30.123 313.137 26.4978 308.187 22.6103 303.502C20.651 301.141 18.0656 299.386 15.4922 297.116ZM72.6665 363.792H71.7691C70.5726 366.345 69.2306 368.829 68.2256 371.463C65.8327 377.736 65.0041 383.966 68.9056 390.066C69.5844 391.262 69.7873 392.67 69.4739 394.009C68.9066 395.885 68.9755 396.879 70.825 397.606C72.7782 398.373 73.9567 397.662 74.6227 395.749C74.9969 394.576 75.2796 393.376 75.4683 392.159C76.8831 384.346 75.7604 376.649 74.4144 368.988C73.9685 367.213 73.384 365.476 72.6665 363.792ZM131.834 199.616C126.77 203.762 121.863 207.747 117.007 211.799C116.551 212.351 116.189 212.975 115.937 213.646C122.337 218.175 130.461 208.994 131.834 199.616ZM124.947 265.849C123.425 269.722 121.917 273.376 120.585 277.104C120.336 277.802 120.794 278.795 120.927 279.651C121.519 279.178 122.341 278.84 122.663 278.207C123.822 275.935 124.831 273.571 125.853 271.227C126.478 269.8 127.033 268.335 127.71 266.667L124.947 265.849ZM123.109 265.151C121.713 264.317 120.802 264.006 120.269 266.195C119.65 268.213 118.918 270.194 118.075 272.129C117.346 274.113 116.652 276.111 115.942 278.103L116.782 278.76C117.403 278.205 118.312 277.785 118.6 277.072C120.171 273.185 121.587 269.227 123.109 265.149V265.151ZM166.361 244.566C164.746 243.095 161.583 242.879 158.85 244.046C156.199 245.179 154.097 247.411 153.964 248.816L166.361 244.566ZM117.013 281.312C115.691 279.938 114.957 280.467 114.414 281.924C113.285 284.959 112.087 287.967 111.038 291.035C110.857 291.566 111.272 292.332 111.41 292.993C111.957 292.631 112.792 292.404 113.005 291.885C114.417 288.385 115.7 284.822 117.013 281.311V281.312ZM108.41 275.928L109.195 276.46C110.591 273.337 112.007 270.222 113.351 267.072C113.414 266.927 112.866 266.473 112.389 265.922C110.983 269.456 109.696 272.691 108.41 275.925V275.928ZM128.04 272.406L127.401 272.15L124.011 280.427L125.232 280.946L128.04 272.406Z" fill="white" stroke="white" stroke-width="0.5"/>
<path d="M250.783 131.964C251.43 132.222 252.289 132.288 252.677 132.784C253.223 133.629 253.636 134.554 253.902 135.525C253.946 135.647 253.503 136.171 253.342 136.144C252.896 136.11 252.479 135.909 252.174 135.582C251.551 134.612 251.065 133.539 250.525 132.507L250.783 131.964Z" fill="white" stroke="white" stroke-width="0.5"/>
<path d="M21.9641 364.859C23.0529 360.984 23.0529 360.984 25.8258 361.469L21.9641 364.859Z" fill="white" stroke="white" stroke-width="0.5"/>
<path d="M30.8708 356.365C31.3018 355.543 31.8089 354.763 32.3854 354.035C32.5918 353.812 33.3016 354.135 33.7812 354.205L31.8639 357.053L30.8708 356.365Z" fill="white" stroke="white" stroke-width="0.5"/>
</g>
</svg>
