<svg width="15" height="15" viewBox="0 0 15 15" fill="none" xmlns="http://www.w3.org/2000/svg">
<g clip-path="url(#clip0)">
<path d="M3.28125 15H11.7188C12.4937 15 13.125 14.3694 13.125 13.5938V7.03125C13.125 6.25562 12.4937 5.625 11.7188 5.625H3.28125C2.50625 5.625 1.875 6.25562 1.875 7.03125V13.5938C1.875 14.3694 2.50625 15 3.28125 15ZM11.7188 6.5625C11.9769 6.5625 12.1875 6.7725 12.1875 7.03125V13.5938C12.1875 13.8525 11.9769 14.0625 11.7188 14.0625H3.28125C3.02312 14.0625 2.8125 13.8525 2.8125 13.5938V7.03125C2.8125 6.7725 3.02312 6.5625 3.28125 6.5625H11.7188Z" fill="white"/>
<path d="M4.21875 6.5625C4.4775 6.5625 4.6875 6.3525 4.6875 6.09375V3.75C4.6875 2.19938 5.94938 0.9375 7.5 0.9375C9.05062 0.9375 10.3125 2.19938 10.3125 3.75V6.09375C10.3125 6.3525 10.5225 6.5625 10.7812 6.5625C11.04 6.5625 11.25 6.3525 11.25 6.09375V3.75C11.25 1.68187 9.56813 0 7.5 0C5.43188 0 3.75 1.68187 3.75 3.75V6.09375C3.75 6.3525 3.96 6.5625 4.21875 6.5625Z" fill="white"/>
<path d="M7.5 10.625C8.18937 10.625 8.75 10.0644 8.75 9.375C8.75 8.68562 8.18937 8.125 7.5 8.125C6.81062 8.125 6.25 8.68562 6.25 9.375C6.25 10.0644 6.81062 10.625 7.5 10.625ZM7.5 9.0625C7.67187 9.0625 7.8125 9.2025 7.8125 9.375C7.8125 9.5475 7.67187 9.6875 7.5 9.6875C7.32812 9.6875 7.1875 9.5475 7.1875 9.375C7.1875 9.2025 7.32812 9.0625 7.5 9.0625Z" fill="white"/>
<path d="M7.5 12.5C7.75875 12.5 7.96875 12.29 7.96875 12.0312V10.3125C7.96875 10.0537 7.75875 9.84375 7.5 9.84375C7.24125 9.84375 7.03125 10.0537 7.03125 10.3125V12.0312C7.03125 12.29 7.24125 12.5 7.5 12.5Z" fill="white"/>
</g>
<defs>
<clipPath id="clip0">
<rect width="15" height="15" fill="white" transform="matrix(-1 0 0 1 15 0)"/>
</clipPath>
</defs>
</svg>
