<svg width="870" height="328" viewBox="0 0 870 328" fill="none" xmlns="http://www.w3.org/2000/svg">
<path d="M1.99994 307.968C1.99994 307.968 303.346 308.557 308.743 308.555C314.143 308.554 309.986 255.718 310.941 245.639C311.898 235.53 317.037 227.562 326.646 228.988C336.255 230.418 316.414 246.35 315.368 254.272C314.324 262.179 316.226 309.972 316.339 312.805C316.449 315.638 308.302 314.223 304.841 312.101C301.381 309.975 302.486 271.512 301.244 257.888C299.996 244.215 291.714 225.44 285.852 216.024C279.977 206.589 279.84 218.941 282.662 221.11C285.485 223.28 530.822 225.663 539.077 224.92C547.336 224.173 543.831 218.351 543.099 213.974C542.367 209.59 280.203 211.678 275.914 207.326C271.62 202.968 275.954 161.945 277.627 153.094C279.301 144.221 483.905 138.246 510.4 143.349C536.885 148.451 354.807 153.556 308.874 142.629C262.893 131.691 267.881 89.1481 290.106 73.2473C312.439 57.2674 415.101 54.4229 456.241 43.5432C497.563 32.6174 508.455 4.93034 511.961 2.59745C515.47 0.261266 581.441 5.2199 587.847 9.80013C594.247 14.3787 551.439 134.901 544.504 138.652L522.812 139.565C520.446 136.26 537.229 36.2286 542.603 23.4125C547.995 10.552 528.243 140.373 528.274 142.857C528.304 145.338 612.578 146.932 612.578 146.932C611.88 146.439 611.188 150.656 611.654 152.143C612.119 153.627 620.021 152.854 624.207 153.582C628.392 154.313 625.595 161.494 628.377 165.931C631.157 170.363 629.085 157.526 629.085 157.526C629.085 157.526 517.099 159.148 514.793 159.651C512.486 160.152 514.173 165.324 514.944 170.984C515.715 176.635 628.603 171.851 626.518 170.131C624.43 168.414 624.889 173.833 626.735 186.373C628.573 198.87 656.097 199.044 658.641 199.281C661.187 199.521 657.633 216.146 656.925 219.315C656.217 222.482 638.933 217.161 629.243 217.671C619.559 218.179 605.75 228.179 602.541 233.768C599.338 239.347 626.237 226.193 627.622 223.762C629.009 221.325 586.159 218.742 570.286 219.507C554.424 220.27 550.755 221.008 551.237 223.438C551.717 225.863 567.818 228.743 572.652 230.431C577.486 232.118 579.581 237.445 583.276 242.035C586.969 246.622 602.787 240.307 597.279 241.77C591.774 243.231 591.771 304.877 592.244 309.633C592.715 314.383 596.565 308.68 595.874 306.541C595.184 304.399 575.623 307.025 574.946 307.501C574.265 307.974 575.196 311.777 575.891 313.912C576.586 316.046 612.509 316.515 613.643 313.427C614.78 310.337 603.626 311.293 601.347 310.342C599.068 309.394 618.193 306.291 625.943 306.29C633.694 306.285 622.751 309.384 612.956 309.386C603.165 309.393 600.198 305.824 598.822 302.731C597.445 299.637 611.348 297.722 616.819 293.421C622.3 289.116 628.691 293.892 629.371 297.708C630.051 301.524 622.3 294.849 620.244 290.073C618.187 285.294 647.904 223.962 649.997 220.062C652.09 216.157 694.488 204.82 700.295 203.091C706.108 201.364 700.959 206.03 699.745 211.409C698.533 216.783 706.243 230.652 705.499 235.27C704.756 239.883 693.216 240.872 677.726 247.439C662.273 253.989 670.808 249.386 667.369 247.456C663.929 245.526 668.756 246.487 668.943 253.255C669.129 260.012 656.781 296.499 655.147 303.654C653.518 310.799 651.916 311.989 647.807 313.417C643.701 314.842 641.21 309.613 633.455 311.52C625.707 313.422 620.242 316.511 616.603 319.122C612.965 321.73 645.031 326.228 650.038 325.991C655.047 325.754 651.688 312.226 654.209 309.371C656.732 306.514 654.188 314.128 648.952 312.466C643.714 310.801 637.569 306.997 634.149 307.474C630.727 307.953 636.429 306.52 638.037 301.994C639.645 297.463 648.554 236.102 651.572 229.788C654.596 223.459 696.548 207.017 696.548 207.017C693.794 204.577 700.214 188.617 700.29 181.238C700.366 173.843 702.176 134.658 703.841 131.908C705.509 129.156 703.81 134.651 701.221 136.406C698.633 138.159 687.703 132.471 680.25 129.26C672.793 126.047 666.84 105.299 662.898 97.7821C658.95 90.2537 655.945 79.9268 655.491 76.6479C655.035 73.3641 649.661 64.5293 647.321 60.7388C644.979 56.945 647.807 56.4218 651.808 57.6689C655.808 58.9159 658.837 65.7468 658.83 67.0152C658.824 68.2804 657.201 62.968 658.15 61.6947C659.098 60.4196 663.304 66.7372 664.45 72.5546C665.593 78.3638 666.511 81.8944 668.372 85.1651C670.231 88.4341 668.864 81.6295 668.633 80.8727C668.402 80.116 658.046 83.1974 657.329 85.7244C656.613 88.2482 662.919 94.0097 660.337 94.5246C657.754 95.0412 670.231 88.1824 671.644 87.6707C673.058 87.1591 682.308 105.73 686.966 109.473C691.62 113.212 688.318 115.733 685.726 117.497C683.135 119.257 685.752 114.491 689.28 112.724C692.812 110.954 709.866 116.391 713.85 116.375C717.836 116.356 713.511 125.132 712.106 125.137C710.702 125.143 718.524 117.605 722.282 117.089C726.042 116.572 720.373 119.601 717.34 118.612C714.304 117.623 720.96 110.578 720.773 106.814C720.587 103.047 717.07 102.56 713.839 97.7969C710.603 93.0291 717.762 84.6699 723.035 77.5692C728.319 70.4521 733.732 71.4359 740.318 72.9231C746.902 74.4088 751.394 88.0425 750.342 94.6052C749.291 101.156 737.958 104.226 735.383 103.484C732.809 102.741 742.484 100.433 742.067 96.9102C741.651 93.3861 737.593 97.1833 737.593 97.1833C737.593 97.1833 740.266 91.6274 740.305 89.1053C740.344 86.5816 735.878 85.8462 735.679 83.3224C735.48 80.7954 737.397 78.7636 737.173 78.0035C736.948 77.2451 728.023 74.7592 727.6 71.2171C727.176 67.67 739.67 68.871 746.005 71.3734C752.338 73.8741 752.239 79.6981 752.462 80.4549C752.685 81.2133 755.761 80.6918 756.534 90.5416C757.304 100.365 751.35 104.667 744.69 109.471C738.04 114.265 739.86 118.018 742.231 116.503C744.601 114.991 731.44 116.299 726.969 117.319C722.5 118.341 725.348 115.823 730.743 115.8C736.14 115.777 740.769 120.017 743.051 124.012C745.331 127.999 742.702 131.259 741.228 135.755C739.754 140.246 735.85 150.953 737.231 167.8C738.606 184.575 745.824 212.77 750.358 218.867C754.887 224.958 747.403 187.256 744.103 175.437C740.795 163.584 747.253 139.47 744.331 132.001C741.402 124.518 733.248 121.049 727.866 120.32C722.484 119.591 716.808 123.618 710.385 132.134C703.977 140.631 690.082 153.597 691.907 157.804C693.73 162.006 693.106 154.082 691.245 153.594C689.385 153.104 667.837 170.987 660.857 172.736C653.883 174.483 659.695 172.984 653.857 180.147C648.032 187.294 642.912 195.16 638.283 195.171C633.657 195.185 630.192 191.271 634.134 187.824C638.078 184.372 652.01 178.181 651.783 176.706C651.557 175.228 648.958 187.536 649.647 189.008C650.335 190.481 653.353 189.244 656.134 188.99C658.917 188.737 658.282 176.441 657.127 175.46C655.971 174.476 658.235 186.037 660.775 188.242C663.312 190.445 682.44 175.873 692.21 174.856C701.989 173.84 723.116 159.926 726.481 152.724C729.851 145.506 708.618 163.689 706.223 169.63C703.831 175.561 701.336 213.606 707.427 227.488C713.498 241.324 725.28 240.334 735.435 240.556C745.595 240.781 748.89 223.26 745.81 227.653C742.732 232.04 719.528 238.888 709.155 237.933C698.784 236.982 754.777 231.043 765.604 233.697C776.429 236.352 775.518 247.038 773.313 253.339C771.112 259.63 711.626 262.847 707.083 257.788C702.537 252.72 773.313 253.339 772.279 258.903C771.246 264.461 766.714 260.361 759.789 260.854C752.865 261.346 754.248 300.502 756.592 310.525C758.929 320.524 760.219 275.075 759.1 273.392C757.978 271.709 728.094 270.058 721.639 271.27C715.188 272.479 717.193 313.397 711.911 315.541C706.632 317.683 709.44 272.968 710.867 268.876C712.295 264.78 766.822 266.881 767.744 266.879C768.665 266.879 766.09 305.034 765.261 312.431C764.943 322.279 762.249 320.445 755.79 316.957C749.857 316.01 870 318.275 870 318.275" stroke="#F2F2F2" stroke-width="3" stroke-miterlimit="10" stroke-linecap="round" stroke-linejoin="round"/>
</svg>
