<svg width="521" height="405" viewBox="0 0 521 405" fill="none" xmlns="http://www.w3.org/2000/svg">
<path d="M520 404C486.377 306.722 222.065 364.302 298.582 307.12C301.5 308.242 300.109 304.93 307.958 295.019C315.735 285.197 314.472 276.512 323.1 267.522C331.651 258.614 373.796 230.239 371.204 217.538C368.624 204.895 362.319 167.671 359.261 162.332C356.206 156.995 348.009 144.947 335.695 144.943C323.291 144.938 314.745 158.82 318.605 166.41C322.47 174.008 307.601 159.369 309.119 145.671C310.625 132.071 317.911 129.235 316.711 132.083C315.506 134.937 294.316 128.363 283.602 124.894C272.835 121.409 264.504 119.362 264.121 116.62C263.737 113.881 273.723 108.942 276.15 94.06C278.555 79.3036 278.074 74.2676 280.993 70.8026C283.902 67.3486 288.692 67.6163 288.891 62.1223C289.089 56.6437 282.919 54.1677 281.501 45.6157C280.088 37.0925 281.577 28.3923 277.191 30.7001C272.789 33.0168 271.566 45.2683 270.852 52.4285C270.135 59.6175 272.121 65.6869 269.945 71.2871C267.759 76.9095 256.06 98.7243 248.956 109.954C241.784 121.289 237.371 125.097 247.33 135.196C257.276 145.286 314.987 167.297 314.987 167.297C314.987 167.297 311.712 160.356 314.592 145.6C317.445 130.972 313.665 130.297 324.014 128.666C334.291 127.049 337.14 130.874 347.472 127.507C357.722 124.163 373.345 152.999 362.816 143.737C352.264 134.454 353.748 127.268 350.895 115.574C348.053 103.926 342.95 101.34 342.901 94.0887C342.853 86.8643 343.953 76.925 358.931 79.2328C373.789 81.5207 383.89 80.7021 388.174 80.0648C392.445 79.432 395.913 72.513 413.631 66.2422C431.1 60.06 427.786 61.5846 433.563 57.8828C439.311 54.2009 455.015 35.787 454.269 39.21C453.521 42.6375 447.729 48.698 450.067 48.178C452.401 47.6602 462.722 42.2038 460.845 45.483C458.964 48.771 450.515 50.6894 451.361 51.07C452.208 51.4505 465.362 52.8467 463.59 53.9818C461.815 55.1191 453.246 53.765 453.493 54.6169C453.739 55.4665 460.969 60.7438 458.107 60.3875C455.241 60.0313 451.946 56.6105 449.592 57.4115C447.234 58.2125 445.475 58.5421 441.836 61.3876C438.182 64.2464 419.397 73.9092 411.568 80.5427C403.674 87.2317 398.065 90.2696 390.477 90.8272C382.85 91.387 363.306 94.9207 362.387 94.8167C361.471 94.7149 372.735 91.9601 373.709 95.5048C374.683 99.054 375.706 115.005 365.633 113.647C355.505 112.281 346.227 99.3814 347.208 90.8184C348.186 82.2974 359.696 81.326 356.683 80.4056C353.666 79.4851 350.711 77.7127 348.131 71.1212C345.555 64.5407 346.724 57.573 341.586 56.0971C336.434 54.6169 325.277 57.542 318.082 60.9761C310.84 64.4301 307.903 68.9926 308.724 74.0087C309.547 79.0359 319.131 74.3428 321.838 75.8121C324.545 77.2791 330.093 78.4938 331.025 78.6C331.957 78.7084 319.384 78.7084 323.797 82.397C328.205 86.0789 336.592 87.0259 338.063 84.3065C339.531 81.5938 341.351 86.1209 340.938 91.272C340.525 96.4364 338.411 99.3947 330.63 98.545C322.816 97.6887 314.326 93.2545 311.768 97.067C309.201 100.89 315.007 114.746 325.168 107.298C335.232 99.9213 309.875 96.8612 306.918 90.6834C303.963 84.5145 299.67 79.0713 305.13 71.5637C310.552 64.107 322.317 59.1882 331.746 58.6085C341.118 58.031 328.325 47.3704 323.131 38.7741C317.942 30.189 315.963 24.2856 312.105 18.4264C308.251 12.5695 292.055 0.842294 297.393 1.00161C302.716 1.16092 309.48 9.36108 312.407 8.06888C315.326 6.78111 318.725 -0.0162225 320.065 2.39338C321.405 4.80519 315.797 8.52248 316.944 13.158C318.093 17.8024 328.511 30.4124 335.644 37.805C342.773 45.1931 348.08 56.033 351.086 60.9363C354.097 65.8417 359.73 76.7569 361.82 77.5689C363.909 78.381 383.848 90.0727 386.384 97.4874C388.924 104.918 386.979 106.712 386.517 113.558C386.053 120.428 384.551 133.607 381.432 138.831C378.297 144.077 373.651 153.03 364.952 157.23C356.186 161.458 344.698 134.879 331.136 138.566C317.438 142.29 303.208 154.141 322.006 171.858C340.752 189.523 340.714 225.34 346.871 224.566C353.001 223.796 336.723 222.882 329.521 232.252C322.257 241.703 314.667 262.254 308.582 264.086C302.469 265.925 298.039 267.239 297.098 270.37C296.157 273.505 299.303 283.297 299.11 285.531C298.915 287.768 292.548 299.356 292.57 302.923C292.594 306.85 300.828 299.374 293.928 300.323C113.799 325.112 -22.857 -129.71 -174 50.3685" stroke="white" stroke-miterlimit="10" stroke-linecap="round" stroke-linejoin="round"/>
</svg>
