<svg width="739" height="283" viewBox="0 0 739 283" fill="none" xmlns="http://www.w3.org/2000/svg">
<path d="M1 281.237C1 281.237 186.28 282.682 168.854 281.244C151.381 279.801 191.306 73.8148 193.65 71.3232C195.996 68.8302 197.493 50.3305 197.717 54.5538C197.942 58.7674 207.047 74.7686 198.143 78.0422C189.244 81.3145 106.65 52.0773 127.607 40.3612C148.633 28.6081 281.739 72.8267 260.876 84.305C240.077 95.7489 136.423 59.0987 139.082 48.9672C141.753 38.7904 257.998 73.4795 248.282 76.7394C238.57 79.9979 197.786 71.3562 197.786 71.3562C197.786 71.3562 168.634 265.268 169.811 271.364C170.983 277.443 180.724 281.951 177.575 281.964C175.015 281.977 317.867 282.43 367.215 279.706C411.298 277.274 337.961 275.289 321.703 266.712C316.797 264.123 318.979 259.68 319.366 254.356C320.917 233.051 322.321 196.949 322.85 189.554C323.546 179.847 326.895 163.571 325.145 168.698C323.399 173.814 316.894 193.239 319.081 187.706C321.271 182.162 292.334 153.172 300.894 156.015C309.433 158.852 312.894 165.409 321.654 159.821C330.43 154.223 334.345 140.12 330.895 133.012C327.433 125.878 325.477 123.013 324.924 119.674C324.371 116.331 321.068 116.791 310.215 100.903C299.266 84.8739 298.716 82.4414 297.554 75.6152C296.389 68.7683 279.275 60.2902 273.486 60.2421C267.693 60.1954 252.438 77.2355 251.072 79.1815C249.707 81.1221 248.748 92.79 251.328 97.1672C253.902 101.535 263.036 102.553 267.304 101.613C271.573 100.673 281.825 93.0017 282.57 86.7045C283.318 80.3868 281.633 73.0562 280.29 75.9766C278.95 78.8929 366.518 18.0121 374.158 11.5968C381.813 5.16779 380.776 -1.88107 387.097 2.21576C393.402 6.30435 380.893 9.67005 379.466 11.6559C378.04 13.6418 288.303 86.2565 286.293 83.3265C284.279 80.3923 297.599 77.0788 297.891 86.8076C298.179 96.491 270.28 104.524 272.835 95.8492C275.4 87.1416 286.725 81.8724 284.951 86.2345C283.18 90.5897 251.426 111.159 247.042 109.21C242.651 107.26 241.524 103.393 248.493 98.1182C255.472 92.8326 268.316 103.066 273.164 105.021C278.005 106.974 282.662 103.632 282.662 103.632C282.662 103.632 281.659 102.181 282.92 111.327C284.176 120.432 289.846 148.928 297.902 150.367C305.947 151.804 321.146 139.126 317.836 138.641C314.524 138.155 304.831 145.678 309.267 152.753C313.684 159.8 325.539 165.438 330.155 162.646C334.773 159.854 333.247 132.549 337.584 137.299C341.909 142.034 346.046 137.332 346.196 145.348C346.345 153.331 341.92 166.407 343.168 158.474C344.418 150.513 353.103 137.83 355.051 142.083C356.994 146.325 359.038 161.524 373.506 162.957C387.941 164.389 396.786 157.684 396.697 143.642C396.483 110.504 401.242 120.998 398.465 127.148C395.694 133.28 389.734 148.311 373.856 147.79C357.944 147.268 351.026 126.459 349.942 118.369C348.854 110.247 350.444 92.959 346.708 96.3096C342.975 99.6575 344.687 115.003 347.959 113.109C351.233 111.215 346.267 98.2323 347.517 88.5942C348.772 78.9108 351.077 74.5542 354.852 72.1478C358.63 69.74 361.49 69.762 361.034 71.2201C360.58 72.6769 358.114 67.2978 364.785 66.8622C371.453 66.4265 379.096 68.4371 385.709 63.124C392.335 57.8027 395.645 54.404 395.671 58.3208C395.698 62.2294 395.716 65.158 398.568 65.1814C401.419 65.2034 400.442 60.3149 401.419 65.2034C402.393 70.0808 399.552 71.0291 400.988 73.4699C402.423 75.9065 404.314 75.4365 403.384 78.8228C402.453 82.2037 398.203 83.6219 400.607 90.3932C402.999 97.1397 400.689 105.751 400.689 105.751C400.689 105.751 402.04 93.7726 403.493 101.461C404.94 109.12 401.693 117.676 399.804 115.289C397.91 112.898 397.84 101.426 396.39 95.6609C394.933 89.8764 394.388 79.242 393.936 82.1432C393.48 85.0402 389.246 87.9098 382.616 87.8645C375.984 87.8191 369.432 94.5271 366.073 91.1326C362.704 87.7311 364.038 81.4492 364.081 84.3545C364.121 87.257 364.108 86.2909 358.964 91.5682C353.831 96.8374 351.577 103.552 351.544 101.634C351.51 99.7097 348.52 91.5023 356.018 85.267C363.529 79.0194 381.558 76.727 388.233 80.1683C394.892 83.6027 397.328 94.7058 398.294 98.5539C399.259 102.395 398.859 123.011 395.041 130.417C388.573 142.959 402.822 155.837 400.936 151.159C399.047 146.468 401.342 139.902 410.196 137.112C419.054 134.322 424.186 128.21 424.183 131.043C424.183 133.871 420.921 138.566 425.109 150.767C429.269 162.89 434.795 171.706 440.335 169.867C445.88 168.027 457.091 149.465 459.888 147.139C462.688 144.811 470.639 137.347 472.658 123.235C474.691 109.03 471.009 104.725 474.791 100.933C478.578 97.1356 480.637 83.2399 480.253 76.9716C479.868 70.6869 455.907 63.2147 449.297 62.1881C442.678 61.1601 439.36 62.1057 438.87 66.4815C438.382 70.8491 442.086 87.7861 447.708 91.1889C453.319 94.5835 472.5 97.0985 473.938 94.2358C475.377 91.3703 474.961 87.0495 476.838 87.0619C478.71 87.0742 496.462 89.1137 496.836 94.3828C497.211 99.6396 492.975 101.998 485.09 99.0885C477.189 96.1722 356.458 22.3989 349.702 22.3289C342.942 22.2574 337.544 18.2059 339.924 16.231C342.307 14.2548 345.621 10.2816 349.099 15.3308C352.565 20.3636 451.151 67.5548 451.123 71.9196C451.094 76.2762 436.947 75.6867 435.983 82.9279C435.02 90.1458 454.673 101.771 457.051 97.0036C459.434 92.2265 453.401 83.0502 448.226 83.0145C443.047 82.9788 440.188 91.6205 442.515 96.4347C444.836 101.234 445.767 102.673 445.751 105.537C445.736 108.397 440.106 111.696 436.811 117.858C433.524 124.001 432.555 140.021 439.526 140.516C446.489 141.011 435.391 124.008 431.651 126.356C427.914 128.702 418.581 130.549 416.723 137.139C414.87 143.711 418.15 160.075 414.9 158.205C411.648 156.33 407.434 147.436 408.856 155.389C410.276 163.31 417.253 180.448 425.552 181.381C433.84 182.314 442.157 174.033 438.918 177.716C435.684 181.396 426.465 191.486 426.456 205.183C426.445 218.79 431.38 261.267 430.028 260.385C428.673 259.505 381.653 179.938 392.932 202.447C404.073 224.683 420.982 252.426 409.19 250.678C397.369 248.926 360.223 233.762 375.475 245.405C390.612 256.959 406.5 258.686 396.082 260.496C385.664 262.304 341.879 257.107 362.549 266.373C404.457 285.164 515.836 280.403 566.523 277.437C566.523 277.437 523.804 96.9418 527.463 99.3469C531.116 101.749 539.203 111.284 523.821 115.459C508.445 119.633 443.795 122.155 455.097 107.018C466.467 91.7909 515.902 75.3115 541.127 75.4997C566.28 75.6894 591.936 73.0012 597.085 83.1052C602.209 93.1556 558.193 109.968 543.336 112.252C528.473 114.536 563.395 106.21 576.682 96.3206C590.011 86.3994 574.903 81.5096 536.669 85.0732C498.334 88.6464 459.264 111.323 475.123 111.409C490.951 111.494 533.601 113.144 536.09 106.526C538.59 99.8897 532.806 90.3121 532.595 98.4247C532.385 106.504 577.122 277.824 573.993 278.707C570.866 279.591 566.032 278.742 570.062 277.42C574.092 276.096 738 276.797 738 276.797" stroke="white" stroke-width="2" stroke-miterlimit="10" stroke-linecap="round" stroke-linejoin="round"/>
</svg>
