<svg width="14" height="14" viewBox="0 0 14 14" fill="none" xmlns="http://www.w3.org/2000/svg">
<path d="M6.89987 6.74385C7.82636 6.74385 8.62851 6.41156 9.28412 5.75596C9.93952 5.10045 10.2719 4.29841 10.2719 3.37182C10.2719 2.44555 9.93962 1.6434 9.28401 0.987684C8.6284 0.33229 7.82625 0 6.89987 0C5.97328 0 5.17123 0.33229 4.51573 0.987791C3.86023 1.64329 3.52783 2.44545 3.52783 3.37182C3.52783 4.29841 3.86023 5.10056 4.51573 5.75606C5.17145 6.41146 5.9736 6.74385 6.89987 6.74385ZM5.09593 1.56788C5.59891 1.06491 6.18893 0.820418 6.89987 0.820418C7.6107 0.820418 8.20084 1.06491 8.70392 1.56788C9.20689 2.07096 9.45149 2.6611 9.45149 3.37182C9.45149 4.08276 9.20689 4.67278 8.70392 5.17586C8.20084 5.67894 7.6107 5.92344 6.89987 5.92344C6.18915 5.92344 5.59912 5.67884 5.09593 5.17586C4.59285 4.67289 4.34825 4.08276 4.34825 3.37182C4.34825 2.6611 4.59285 2.07096 5.09593 1.56788Z" fill="white"/>
<path d="M12.8004 10.7653C12.7815 10.4925 12.7433 10.1949 12.687 9.88066C12.6301 9.56407 12.557 9.26478 12.4694 8.99124C12.3788 8.70851 12.2559 8.4293 12.1037 8.16174C11.9459 7.88403 11.7605 7.64221 11.5524 7.44322C11.3348 7.23505 11.0685 7.06767 10.7604 6.94559C10.4534 6.82414 10.1132 6.76262 9.74933 6.76262C9.60641 6.76262 9.4682 6.82126 9.20128 6.99504C9.037 7.10217 8.84485 7.22607 8.63037 7.36311C8.44698 7.47996 8.19853 7.58945 7.89166 7.68857C7.59227 7.78544 7.28828 7.83458 6.98814 7.83458C6.68822 7.83458 6.38423 7.78544 6.08463 7.68857C5.77808 7.58955 5.52953 7.48007 5.34645 7.36322C5.134 7.22746 4.94174 7.10356 4.77501 6.99493C4.5083 6.82115 4.37009 6.76251 4.22717 6.76251C3.86316 6.76251 3.52307 6.82414 3.2162 6.94569C2.90837 7.06757 2.64188 7.23494 2.42409 7.44333C2.21602 7.64242 2.03059 7.88414 1.87294 8.16174C1.72095 8.4293 1.5979 8.7084 1.50732 8.99134C1.41985 9.26489 1.34668 9.56407 1.28986 9.88066C1.23346 10.1945 1.19533 10.4922 1.17642 10.7656C1.15784 11.0329 1.14844 11.3112 1.14844 11.5923C1.14844 12.3231 1.38075 12.9147 1.83887 13.3511C2.29132 13.7816 2.88989 13.9999 3.61803 13.9999H10.3591C11.087 13.9999 11.6856 13.7816 12.1382 13.3511C12.5964 12.9151 12.8287 12.3232 12.8287 11.5922C12.8286 11.3101 12.8191 11.0319 12.8004 10.7653ZM11.5725 12.7567C11.2735 13.0412 10.8766 13.1795 10.359 13.1795H3.61803C3.10031 13.1795 2.7034 13.0412 2.40454 12.7568C2.11134 12.4777 1.96886 12.0967 1.96886 11.5923C1.96886 11.33 1.97751 11.071 1.99481 10.8223C2.01169 10.5783 2.04619 10.3104 2.09735 10.0256C2.14787 9.74436 2.21217 9.48043 2.28865 9.2415C2.36203 9.01239 2.46211 8.78552 2.58623 8.56698C2.70468 8.3587 2.84097 8.18001 2.99136 8.03602C3.13203 7.90133 3.30934 7.79111 3.51826 7.70843C3.71149 7.63196 3.92863 7.59009 4.16437 7.58378C4.1931 7.59906 4.24426 7.62822 4.32715 7.68226C4.4958 7.79217 4.6902 7.91757 4.90511 8.05482C5.14735 8.20927 5.45946 8.34877 5.83234 8.46914C6.21355 8.5924 6.60234 8.655 6.98825 8.655C7.37416 8.655 7.76306 8.5924 8.14406 8.46925C8.51726 8.34866 8.82925 8.20927 9.07182 8.05461C9.29175 7.91405 9.4807 7.79228 9.64935 7.68226C9.73224 7.62832 9.7834 7.59906 9.81213 7.58378C10.048 7.59009 10.2651 7.63196 10.4585 7.70843C10.6673 7.79111 10.8446 7.90144 10.9852 8.03602C11.1356 8.1799 11.2719 8.35859 11.3904 8.56709C11.5146 8.78552 11.6148 9.01249 11.6881 9.24139C11.7646 9.48065 11.8291 9.74447 11.8795 10.0255C11.9305 10.3108 11.9651 10.5789 11.982 10.8224V10.8226C11.9994 11.0703 12.0082 11.3292 12.0083 11.5923C12.0082 12.0968 11.8657 12.4777 11.5725 12.7567Z" fill="white"/>
</svg>
