<svg width="726" height="274" viewBox="0 0 726 274" fill="none" xmlns="http://www.w3.org/2000/svg">
<path d="M728 139.732C667.205 139.732 681.656 105.904 634.375 139.916C630.96 142.373 630.688 134.798 629.526 129.238C628.364 123.677 626.315 120.128 623.688 117.842C621.058 115.556 617.849 114.532 614.091 114.158C610.334 113.784 606.03 114.056 606.818 114.978C607.603 115.899 613.476 117.468 616.993 118.662C620.51 119.856 621.672 120.676 622.525 119.754C623.379 118.832 623.925 116.172 624.574 113.272C625.224 110.372 625.973 107.233 626.863 106.072C627.75 104.911 628.774 105.731 630.517 106.242C632.258 106.754 634.717 106.958 638.679 104.57C642.639 102.181 648.105 97.1989 651.895 91.5697C655.684 85.9405 657.802 79.662 658.615 75.0665C659.425 70.4684 658.931 67.5533 657.634 66.1199C656.336 64.6865 654.237 64.7374 653.22 64.3886C652.203 64.0398 652.272 63.2887 652.889 60.8216C653.505 58.3546 654.672 54.174 656.757 49.6702C658.839 45.1663 661.838 40.3416 665.933 36.4971C670.029 32.6527 675.219 29.7859 676.756 27.3137C678.293 24.839 676.175 22.7589 675.288 20.6432C674.401 18.5275 674.743 16.3787 675.591 15.3628C676.443 14.3469 677.801 14.4615 678.553 15.2151C679.304 15.9662 679.447 17.3563 677.811 18.6115C676.175 19.8667 672.76 20.9895 670.439 22.4381C668.117 23.8868 666.886 25.6614 665.811 27.5887C664.736 29.516 663.813 31.5986 662.891 32.1944C661.968 32.7927 661.046 31.9042 660.381 31.1378C659.715 30.3715 659.305 29.7222 660.551 27.9655C661.798 26.2088 664.7 23.342 666.219 21.8424C667.738 20.3402 667.875 20.2053 669.906 18.0565C671.937 15.9076 675.864 11.7449 677.966 9.28804C680.066 6.83115 680.339 6.08008 681.534 6.55873C682.729 7.03738 684.847 8.7432 686.246 9.6623C687.645 10.584 688.328 10.7189 684.829 14.5252C681.328 18.3289 673.645 25.8014 669.086 29.9463C664.527 34.0912 663.092 34.911 662.017 34.995C660.941 35.0816 660.223 34.4323 659.54 33.6304C658.857 32.8284 658.207 31.8736 656.553 32.4032C654.897 32.9327 652.234 34.9441 650.748 36.599C649.262 38.2539 648.954 39.5498 649.484 39.8069C650.014 40.0616 651.38 39.2774 652.455 38.511C653.531 37.7421 654.316 36.9936 653.702 35.6952C653.087 34.3992 651.072 32.5559 650.542 30.4911C650.012 28.4263 650.97 26.14 650.61 23.0543C650.251 19.966 648.579 16.0782 645.455 14.1662C642.331 12.2567 637.754 12.3229 636.388 13.0918C635.022 13.8607 636.867 15.3272 638.368 16.2132C639.872 17.0992 641.031 17.4072 642.67 18.7897C644.308 20.1722 646.426 22.6291 647.366 26.1069C648.307 29.5873 648.067 34.0912 646.987 37.8032C645.906 41.5179 643.982 44.4407 641.347 47.0096C638.71 49.5785 635.356 51.7961 631.452 53.5579C627.548 55.3197 623.089 56.6284 620.128 56.9237C617.164 57.219 615.696 56.5036 615.558 55.4292C615.421 54.3548 616.616 52.9214 617.095 51.0628C617.574 49.2042 617.335 46.9179 615.319 44.7004C613.303 42.4828 609.514 40.334 609.924 37.8083C610.334 35.2827 614.944 32.3828 617.248 30.3536C619.554 28.3245 619.554 27.1635 619.177 25.3202C618.802 23.4769 618.051 20.9538 619.126 18.8559C620.201 16.758 623.104 15.0853 626.503 14.6932C629.9 14.3011 633.794 15.1871 637.107 17.1501C640.42 19.1131 643.152 22.1479 644.535 25.6105C645.919 29.073 645.952 32.9633 644.945 36.5786C643.939 40.1939 641.89 43.5394 639.413 45.841C636.936 48.1451 634.034 49.4054 630.945 47.8701C627.854 46.3349 624.577 42.0016 622.732 37.3271C620.887 32.6527 620.479 27.6371 622.016 24.0039C623.552 20.3708 627.036 18.1176 628.914 18.3569C630.792 18.5962 631.065 21.3255 631.373 23.4413C631.682 25.557 632.023 27.0566 631.954 28.4212C631.885 29.7859 631.409 31.0131 630.588 32.6527C629.768 34.2898 628.608 36.3368 628.608 37.4799C628.608 38.6231 629.77 38.8624 630.69 38.9973C631.613 39.1348 632.296 39.1679 632.568 40.1048C632.841 41.0443 632.706 42.8851 632.551 44.9321C632.398 46.979 632.227 49.2297 631.817 50.3067C631.406 51.3811 630.759 51.2792 629.786 50.4085C628.812 49.5378 627.515 47.9007 626.73 48.1909C625.945 48.4812 625.673 50.6987 625.262 52.4733C624.852 54.2479 624.307 55.5769 624.307 56.3916C624.309 57.2063 624.857 57.5017 625.905 57.5526C626.952 57.6035 628.496 57.4049 628.463 57.9141C628.43 58.4233 626.822 59.6378 625.285 60.1775C623.749 60.7198 622.288 60.5874 620.991 61.3181C619.694 62.0488 618.56 63.6401 616.249 66.1199C613.938 68.5997 610.449 71.9655 608.772 72.6605C607.095 73.3556 607.233 71.3748 609.009 68.9179C610.785 66.461 614.2 63.528 615.704 61.7535C617.207 59.9789 616.797 59.3653 615.192 58.9911C613.586 58.6168 610.785 58.4793 607.987 59.9458C605.187 61.4123 602.386 64.4828 597.743 69.226C593.1 73.9692 586.61 80.3826 583.06 84.3747C579.508 88.3668 578.893 89.9352 578.791 91.4042C578.69 92.8707 579.1 94.2354 580.259 95.5313C581.421 96.8272 583.333 98.0569 584.186 98.2275C585.04 98.3981 584.836 97.5121 584.016 96.0099C583.195 94.5078 581.763 92.3946 579.885 92.2571C578.007 92.1196 575.685 93.9629 573.361 97.1021C571.04 100.241 568.718 104.677 567.829 108.088C566.942 111.5 567.487 113.888 568.443 115.866C569.398 117.844 570.764 119.415 572.301 120.199C573.838 120.984 575.545 120.984 576.365 120.744C577.186 120.505 577.117 120.029 576.332 119.55C575.547 119.072 574.044 118.595 573.088 117.844C572.133 117.093 571.722 116.07 572.714 116.139C573.705 116.207 576.095 117.366 577.905 117.743C579.714 118.117 580.945 117.709 581.457 117.231C581.969 116.752 581.765 116.207 580.672 115.696C579.579 115.184 577.599 114.705 576.2 113.682C574.801 112.658 573.98 111.09 574.329 110.627C574.679 110.166 576.2 110.81 577.94 111.63C579.681 112.449 581.646 113.44 582.68 113.432C583.715 113.425 583.822 112.416 582.354 111.016C580.886 109.618 577.843 107.828 577.449 106.456C577.054 105.084 579.309 104.129 581.187 103.513C583.065 102.899 584.568 102.627 585.797 101.84C587.025 101.056 587.983 99.7602 588.427 97.6775C588.87 95.5975 588.801 92.7307 590.338 89.6602C591.874 86.5897 595.017 83.3156 598.159 81.6759C601.301 80.0389 604.443 80.0389 604.272 81.4366C604.101 82.8344 600.618 85.6324 598.492 88.8149C596.367 91.9974 595.598 95.5618 595.462 97.2167C595.325 98.8716 595.822 98.6145 599.945 94.1208C604.068 89.6245 611.82 80.8918 618.509 73.6051C625.199 66.3185 630.828 60.483 634.266 57.023C637.703 53.563 638.952 52.4809 639.808 51.9259C640.664 51.3734 641.131 51.3505 641.984 51.9412C642.838 52.5319 644.082 53.7361 644.252 54.6832C644.423 55.6303 643.521 56.3203 642.764 55.8111C642.007 55.3019 641.391 53.5961 641.258 52.2111C641.126 50.8235 641.475 49.7567 641.946 49.133C642.418 48.5092 643.009 48.3284 643.837 49.2806C644.665 50.2328 645.733 52.3155 645.955 51.9463C646.176 51.5771 645.552 48.7536 645.361 46.9918C645.17 45.2299 645.412 44.5272 645.766 44.3388C646.12 44.1504 646.584 44.4763 646.999 45.4693C647.415 46.4647 647.784 48.1273 648.218 48.695C648.653 49.2603 649.155 48.7281 649.188 47.6385C649.222 46.5462 648.788 44.8964 649.015 43.8729C649.242 42.852 650.129 42.4573 650.598 43.2619C651.067 44.0639 651.118 46.0625 651.375 47.5366C651.632 49.0107 652.099 49.9579 652.361 49.5734C652.624 49.1864 652.685 47.4653 652.932 46.0701C653.179 44.6749 653.61 43.603 653.969 44.4992C654.328 45.3954 654.619 48.2622 654.382 50.2583C654.142 52.2543 653.375 53.3797 652.392 54.6603C651.411 55.9384 650.215 57.3718 649.053 61.0406C647.891 64.7094 646.765 70.611 645.998 74.9596C645.228 79.3107 644.821 82.1062 645.366 81.4595C645.911 80.8128 647.415 76.7163 648.918 73.3403C650.422 69.9618 651.923 67.3012 653.324 66.8913C654.723 66.4814 656.023 68.3247 655.646 72.7598C655.271 77.195 653.222 84.2219 649.227 90.1948C645.231 96.1652 639.288 101.079 635.532 102.306C631.776 103.533 630.206 101.079 630.239 96.234C630.272 91.3889 631.913 84.1557 634.268 77.3681C636.625 70.5779 639.699 64.2333 641.133 60.8904C642.568 57.5475 642.362 57.2063 637.018 62.6471C631.674 68.0879 621.19 79.3132 613.917 87.7227C606.644 96.1321 602.58 101.728 599.423 105.649C596.265 109.572 594.015 111.821 594.178 112.928C594.341 114.036 596.92 114.003 598.533 114.295C600.146 114.586 600.791 115.202 600.574 116.174C600.36 117.147 599.282 118.478 597.774 119.553C596.263 120.627 594.316 121.447 594.93 121.582C595.544 121.719 598.719 121.172 600.419 120.301C602.119 119.431 602.34 118.237 600.444 117.47C598.548 116.701 594.537 116.36 591.558 116.566C588.579 116.77 586.633 117.521 585.338 122.104C584.044 126.687 583.399 135.104 580.565 142.199C577.731 149.295 572.706 155.072 567.872 155.607C563.038 156.141 558.392 151.434 557.146 147.406C555.9 143.381 558.051 140.038 561.723 136.453C565.395 132.871 570.583 129.049 571.694 125.997C572.803 122.944 569.834 120.658 568.117 119.054C566.399 117.45 565.94 116.528 565.051 116.785C564.164 117.04 562.849 118.473 561.287 121.068C559.725 123.659 557.916 127.412 556.685 131.114C555.457 134.816 554.807 138.467 555.011 141.843C555.215 145.222 556.275 148.325 558.102 150.97C559.929 153.616 562.523 155.798 564.949 156.908C567.372 158.018 569.628 158.051 572.377 156.77C575.127 155.49 578.371 152.898 580.42 149.333C582.469 145.769 583.322 141.229 584.365 137.444C585.407 133.658 586.635 130.62 589.084 128.186C591.53 125.752 595.197 123.922 600.131 123.308C605.065 122.695 611.27 123.298 615.207 123.751C619.144 124.207 620.818 124.512 621.945 128.948C623.071 133.383 623.652 141.947 623.568 147.541C623.481 153.137 622.732 155.765 621.758 153.188C620.785 150.611 619.59 142.833 618.428 139.557C617.266 136.283 616.139 137.51 614.672 141.161C613.204 144.812 611.395 150.884 610.062 151.225C608.729 151.566 607.875 146.176 607.192 141.553C606.509 136.929 605.997 133.075 604.017 133.655C602.037 134.236 598.587 139.251 595.31 142.968C592.032 146.688 588.924 149.109 588.531 147.011C588.139 144.914 590.46 138.294 592.634 133.953C594.808 129.612 596.836 127.547 600.592 126.745C604.348 125.943 609.835 126.404 613.994 126.839C618.155 127.275 620.989 127.685 622.729 128.843C624.47 130.004 625.12 131.914 625.599 136.109C626.078 140.305 626.384 146.787 626.572 151.172C626.761 155.556 626.827 157.842 626.932 159.581C627.033 161.32 627.171 162.517 625.82 163.079C624.472 163.642 621.636 163.573 618.683 162.534C615.729 161.493 612.656 159.482 609.139 157.878C605.623 156.274 601.66 155.08 598.452 154.604C595.241 154.125 592.784 154.364 588.959 155.082C585.134 155.798 579.943 156.992 576.513 158C573.081 159.006 571.409 159.825 568.965 165.422C566.524 171.018 563.313 181.388 561.504 187.837C559.694 194.286 559.284 196.809 561.914 200.971C564.544 205.134 570.211 210.934 574.447 215.677C578.682 220.42 581.48 224.104 583.633 225.538C585.784 226.971 587.288 226.151 589.234 224.888C591.181 223.626 593.572 221.92 591.727 219.053C589.882 216.186 583.804 212.161 579.502 208.851C575.201 205.541 572.673 202.95 573.664 194.863C574.656 186.777 579.161 173.2 581.949 165.923C584.737 158.647 585.802 157.672 589.489 157.672C593.177 157.672 599.486 158.647 603.872 159.612C608.255 160.577 610.714 161.531 611.945 162.351C613.173 163.171 613.173 163.853 609.522 169.788C605.867 175.725 598.559 186.915 594.94 193.158C591.321 199.4 591.388 200.696 593.829 201.806C596.27 202.916 601.087 203.836 605.388 206.499C609.69 209.159 613.482 213.561 615.683 215.967C617.885 218.373 618.502 218.783 618.346 219.379C618.193 219.977 617.271 220.761 615.546 222.33C613.821 223.898 611.295 226.253 611.494 226.963C611.693 227.674 614.616 226.745 616.784 225.105C618.953 223.468 620.365 221.123 621.532 220.823C622.699 220.52 623.621 222.261 624.577 224.018C625.533 225.774 626.524 227.549 628.282 228.435C630.04 229.321 632.568 229.321 634.276 229.39C635.983 229.459 636.87 229.593 639.586 231.233C642.3 232.87 646.844 236.009 649.42 237.988C651.999 239.966 652.613 240.786 652.682 241.827C652.751 242.868 652.272 244.131 651.469 244.694C650.666 245.256 649.54 245.119 647.456 244.523C645.374 243.927 642.333 242.868 641.633 243.329C640.932 243.79 642.573 245.768 644.398 248.004C646.225 250.239 648.24 252.729 649.16 254.519C650.083 256.311 649.912 257.401 648.307 259.499C646.701 261.597 643.664 264.703 641.615 266.953C639.566 269.204 638.508 270.604 637.586 271.098C636.664 271.592 635.879 271.185 634.803 270.673C633.728 270.161 632.362 269.548 631.85 268.216C631.338 266.885 631.679 264.838 631.541 262.21C631.404 259.583 630.79 256.377 629.34 253.307C627.887 250.236 625.601 247.301 621.962 243.482C618.326 239.66 613.339 234.953 609.07 231.49C604.802 228.028 601.25 225.81 599.201 225.263C597.152 224.718 596.607 225.843 595.564 226.918C594.522 227.992 592.986 229.016 592.458 229.647C591.928 230.278 592.407 230.518 593.926 232.478C595.445 234.441 598.006 238.125 599.237 241.043C600.465 243.961 600.363 246.109 599.782 249.078C599.201 252.047 598.143 255.833 596.128 258.598C594.112 261.36 591.143 263.101 589.604 264.688C588.067 266.274 587.965 267.707 588.99 268.611C590.014 269.515 592.165 269.892 595.307 269.754C598.449 269.617 602.58 268.97 604.578 268.407C606.576 267.845 606.438 267.366 606.831 265.54C607.223 263.715 608.145 260.543 608.742 259.349C609.341 258.155 609.613 258.939 609.748 260.27C609.886 261.602 609.886 263.478 610.704 264.433C611.524 265.388 613.163 265.423 614.46 265.319C615.757 265.217 616.713 264.978 617.054 263.562C617.396 262.147 617.123 259.552 617.174 256.296C617.225 253.037 617.6 249.114 617.719 246.863C617.839 244.612 617.702 244.032 614.73 241.336C611.759 238.639 605.954 233.83 602.129 230.622C598.304 227.414 596.459 225.813 594.991 225.538C593.523 225.265 592.43 226.322 591.184 227.396C589.938 228.471 588.536 229.563 588.982 230.91C589.426 232.257 591.714 233.861 593.73 236.078C595.745 238.296 597.486 241.127 597.086 243.439C596.686 245.75 594.171 247.95 585.494 248.403C519.416 251.843 625.132 265.877 527.249 270.403C509.518 271.223 531.966 260.935 539.693 258.162C544.886 256.299 549.59 255.082 552.35 255.163C555.11 255.244 555.92 256.622 555.515 258.04C555.11 259.458 553.487 260.917 550.444 262.093C547.401 263.269 542.939 264.161 540.343 263.389C537.746 262.618 537.017 260.186 523.587 231.208C510.16 202.229 484.035 146.703 470.973 118.939C457.91 91.1751 457.91 91.1751 458.539 90.9536C459.169 90.7295 460.425 90.284 460.912 89.7366C461.399 89.1892 461.116 88.54 460.405 88.1555C459.694 87.7711 458.56 87.6488 458.376 86.9181C458.193 86.1874 458.965 84.8508 458.945 83.6949C458.924 82.539 458.114 81.5665 456.896 80.8383C455.678 80.1076 454.057 79.6213 452.434 80.128C450.81 80.6346 449.187 82.1342 447.829 83.8171C446.471 85.5 445.375 87.3637 444.644 89.2274C443.912 91.091 443.548 92.9573 443.65 94.2124C443.752 95.4702 444.32 96.1168 445.8 95.9743C447.281 95.8317 449.674 94.8999 451.562 94.0495C453.448 93.1991 454.827 92.4277 455.517 91.3736C456.208 90.3196 456.208 88.983 455.762 87.2593C455.316 85.5357 454.424 83.4301 452.841 80.0058C451.259 76.5814 448.988 71.8382 446.473 66.9346C443.958 62.031 441.201 56.9645 439.455 54.5127C437.712 52.0609 436.981 52.2212 436.27 54.533C435.559 56.8422 434.871 61.3028 434.282 63.9354C433.693 66.5705 433.207 67.3801 432.376 67.5227C431.545 67.6653 430.368 67.1383 429.354 66.1046C428.339 65.0709 427.488 63.5306 426.311 61.1603C425.134 58.7899 423.633 55.5871 423.452 53.2982C423.268 51.0094 424.405 49.6294 426.153 48.7943C427.901 47.9592 430.263 47.6665 431.645 46.7117C433.026 45.757 433.426 44.1352 433.502 42.661C433.579 41.1869 433.332 39.8553 432.702 39.3512C432.073 38.8471 431.058 39.173 430.908 40.0896C430.758 41.0061 431.471 42.5184 431.41 43.4095C431.349 44.3006 430.513 44.5731 429.988 43.8678C429.461 43.1626 429.244 41.4822 428.65 40.6395C428.057 39.7993 427.088 39.7993 426.793 40.4511C426.497 41.1029 426.877 42.409 427.246 43.4503C427.616 44.4941 427.978 45.2758 427.641 45.5278C427.305 45.7799 426.27 45.5024 425.679 44.6367C425.088 43.7711 424.94 42.3199 424.382 41.6477C423.824 40.9756 422.855 41.08 422.539 41.8056C422.224 42.5312 422.56 43.878 422.771 44.7615C422.983 45.6449 423.067 46.065 422.797 46.2865C422.527 46.5055 421.905 46.5258 421.248 46.536C420.59 46.5462 419.902 46.5462 418.717 46.6735C417.535 46.8008 415.855 47.0554 415.155 48.2342C414.454 49.413 414.726 51.516 415.422 52.6439C416.118 53.7692 417.234 53.9169 418.475 54.0009C419.719 54.0849 421.087 54.1053 423.696 53.2015C426.308 52.2976 430.161 50.4671 433.732 48.1731C437.302 45.8792 440.587 43.1244 442.133 41.2734C443.68 39.4225 443.492 38.4754 442.607 37.8542C441.723 37.2329 440.143 36.9402 438.785 37.5512C437.427 38.1622 436.29 39.6796 436.007 40.805C435.722 41.9303 436.29 42.6636 437.345 42.2587C438.4 41.8539 439.942 40.3085 442.011 39.3156C444.08 38.3201 446.677 37.8745 449.855 38.9617C453.033 40.0488 456.791 42.6712 457.153 47.9363C457.518 53.2015 454.485 61.1119 457.77 66.0359C461.055 70.9598 470.657 72.8948 474.153 77.7322C477.649 82.5721 475.037 90.312 468.919 95.2257C462.8 100.137 453.178 102.22 453.659 114.731C454.141 127.242 464.729 150.181 475.498 169.251C486.27 188.32 497.223 203.52 494.17 219.998C491.12 236.478 474.064 254.239 457.614 262.791C441.165 271.343 425.32 270.686 413.697 269.97C402.074 269.255 394.671 268.481 392.548 267.043C390.426 265.604 393.586 263.501 396.766 261.795C399.946 260.092 403.147 258.786 406.363 257.997C409.581 257.205 412.815 256.93 415.445 257.561C418.077 258.193 420.103 259.733 422.904 260.543C425.702 261.352 429.272 261.434 431.102 262.218C432.929 263.002 433.018 264.486 429.772 265.176C426.525 265.866 419.948 265.759 414.795 265.176C409.64 264.596 405.909 263.542 402.232 262.243C398.555 260.945 394.934 259.402 395.25 257.706C395.566 256.011 399.819 254.157 404.105 253.714C408.391 253.269 412.708 254.231 414.581 253.618C416.457 253.004 415.888 250.814 415.442 248.223C414.997 245.628 414.673 242.629 415.687 239.062C419.451 225.831 435.88 197.394 431.762 183.707C423.791 157.216 414.176 140.231 399.036 115.619C397.663 113.384 394.335 114.356 389.748 114.97C385.158 115.584 379.307 115.838 377.159 115.393C375.008 114.947 376.56 113.801 381.736 112.964C386.912 112.126 395.716 111.599 399.077 110.189C402.441 108.776 400.362 106.477 399.526 103.584C398.69 100.692 399.095 97.2065 400.92 95.2614C402.744 93.3163 405.991 92.9114 411.174 94.4314C416.357 95.9539 423.482 99.4012 428.472 100.779C433.462 102.156 436.318 101.463 437.868 100.633C439.417 99.8009 439.662 98.8283 440.067 96.5573C440.472 94.2888 441.04 90.7219 439.985 88.8149C438.93 86.9105 436.252 86.6661 431.102 85.5331C425.949 84.3976 418.322 82.371 413.901 80.4258C409.479 78.4807 408.261 76.617 406.923 74.346C405.586 72.0775 404.125 69.4017 402.298 64.2944C400.474 59.1871 398.282 51.6484 395.28 46.6633C392.278 41.6783 388.466 39.2468 384.491 40.1379C380.515 41.029 376.377 45.2452 378.163 53.9576C379.947 62.6726 387.656 75.8838 392.89 82.5721C398.124 89.2605 400.881 89.4209 406.116 90.5156C411.347 91.6104 419.056 93.637 424.331 95.1366C429.603 96.6362 432.445 97.6088 434.109 97.2447C435.773 96.8806 436.26 95.1774 436.624 92.8681C436.988 90.5589 437.233 87.6387 435.773 85.8157C434.313 83.9928 431.148 83.2621 429.364 82.6129C427.58 81.9636 427.172 81.3959 428.431 79.2496C429.69 77.1008 432.61 73.3734 433.989 71.469C435.368 69.5646 435.207 69.4831 433.625 69.2795C432.042 69.0758 429.04 68.7524 427.297 67.5762C425.552 66.3999 425.065 64.3733 423.768 65.9951C422.471 67.6169 420.361 72.8846 418.737 74.9519C417.114 77.0193 415.98 75.8838 413.992 73.5338C412.005 71.1839 409.166 67.6169 406.893 63.4007C404.622 59.1846 402.918 54.3217 401.822 50.4314C400.726 46.5411 400.239 43.6234 397.969 41.5153C395.698 39.4072 391.641 38.1113 389.197 36.3775C386.754 34.6437 385.923 32.477 385.913 30.1754C385.905 27.8738 386.72 25.4399 387.266 22.7844C387.814 20.1289 388.094 17.2545 389.684 15.182C391.274 13.1096 394.174 11.8391 396.06 11.2536C397.946 10.6654 398.82 10.7596 399.105 11.7093C399.391 12.6589 399.085 14.4615 398.924 16.1342C398.761 17.807 398.741 19.3473 399.077 20.5617C399.411 21.7787 400.102 22.6698 399.898 23.1357C399.694 23.6017 398.601 23.6424 397.849 23.6322C397.097 23.622 396.692 23.5609 396.572 24.4418C396.45 25.3228 396.613 27.1482 396.695 28.8082C396.776 30.4708 396.776 31.9704 397.423 32.9124C398.073 33.8544 399.37 34.2388 400.8 33.5107C402.23 32.78 403.792 30.9367 404.898 27.9273C406.004 24.9179 406.653 20.7425 406.773 16.7707C406.895 12.799 406.49 9.02835 404.88 7.38872C403.269 5.74655 400.456 6.23538 398.435 7.16722C396.414 8.09906 395.183 9.47644 393.122 10.1562C391.06 10.836 388.165 10.8131 386.608 11.4114C385.049 12.0097 384.827 13.2242 384.952 14.5455C385.077 15.8644 385.548 17.2901 385.135 18.9527C384.723 20.6152 383.423 22.5171 383.339 24.7143C383.255 26.9115 384.384 29.4091 383.612 31.0232C382.839 32.64 380.164 33.3758 378.594 32.836C377.022 32.2962 376.553 30.481 376.634 28.0648C376.713 25.6461 377.343 22.6291 378.487 20.0576C379.631 17.4862 381.29 15.3653 382.416 12.692C383.543 10.0162 384.134 6.78787 386.275 4.87073C388.415 2.95104 392.108 2.3451 394.957 2.11086C397.806 1.87663 399.814 2.01921 401.355 2.48513C402.897 2.95104 403.973 3.7403 405.726 4.92674C407.482 6.11318 409.915 7.6917 411.121 9.51718C412.328 11.3401 412.308 13.4075 411.658 15.3628C411.008 17.3181 409.732 19.1614 409.487 21.3103C409.242 23.4591 410.035 25.9109 409.691 28.0673C409.347 30.2263 407.866 32.09 406.771 33.6915C405.675 35.2929 404.966 36.6295 403.476 37.2686C401.985 37.9076 399.712 37.8465 397.897 36.8129C396.083 35.7792 394.722 33.7729 392.816 32.8309C390.91 31.8889 388.456 32.0111 386.012 33.195C383.736 34.2974 368.867 43.6514 368.712 44.0435C366.013 50.8821 363.161 70.4328 363.569 79.7944C363.977 89.1561 365.434 98.3981 365.353 105.084C365.271 111.772 363.648 115.904 364.135 118.784C364.622 121.661 367.218 123.283 371.194 123.527C375.169 123.772 380.523 122.636 380.931 121.783C381.336 120.933 376.792 120.365 373.668 120.487C370.544 120.609 368.842 121.419 368.029 124.054C367.279 126.486 366.329 140.007 367.539 141.82C371.838 148.264 386.608 167.138 390.989 171.555C395.369 175.972 397.561 177.675 399.386 180.148C401.21 182.62 402.67 185.863 403.32 189.631C403.97 193.402 403.807 197.697 401.901 206.168C399.995 214.638 396.343 227.284 393.828 235.47C391.313 243.658 389.934 247.385 389.921 249.76C389.908 252.136 391.267 253.157 392.337 252.553C393.41 251.952 394.197 249.727 394.33 244.393C394.462 239.06 393.942 230.617 394.615 220.357C395.288 210.096 397.153 198.018 397.194 190.884C397.235 183.75 395.451 181.563 394.597 182.07C393.746 182.576 393.828 185.779 393.603 189.812C393.379 193.845 392.852 198.708 387.256 209.144C381.657 219.58 370.987 235.589 364.721 244.811C358.455 254.033 356.587 256.464 354.275 256.545C351.964 256.627 349.204 254.356 346.243 253.101C343.282 251.846 340.117 251.601 337.401 253.141C334.682 254.682 332.411 258.004 332.735 259.667C333.058 261.329 335.981 261.329 340.076 261.49C344.174 261.653 349.446 261.976 354.518 262.989C359.589 264.003 364.456 265.706 368.026 265.989C371.596 266.274 373.867 265.138 374.275 263.921C374.68 262.704 373.22 261.408 370.745 260.436C368.271 259.463 364.782 258.814 362.348 257.681C359.915 256.545 358.536 254.924 358.251 252.777C357.968 250.629 358.778 247.955 363.5 240.21C368.222 232.468 376.859 219.656 382.213 208.309C387.567 196.961 389.643 187.075 388.887 180.387C388.132 173.699 384.544 170.208 380.984 166.865C377.422 163.522 373.885 160.324 372.269 161.987C370.653 163.652 370.962 170.177 370.266 177.25C369.568 184.323 367.866 191.943 364.255 200.332C360.644 208.721 355.127 217.882 350.542 225.785C287.38 334.682 347.747 149.028 286.623 112.18C281.004 108.793 275.454 116.923 271.866 115.965C268.278 115.008 266.137 110.688 263.884 108.483C261.632 106.278 259.269 106.189 255.228 107.299C254.976 107.368 230.048 115.719 243.434 109.748C245.223 108.949 247.856 108.595 248.5 107.279C249.148 105.965 247.81 103.694 242.614 99.4597C237.42 95.2283 228.369 89.0364 222.215 85.0494C216.063 81.0623 212.806 79.2801 211.626 78.1905C210.444 77.0982 211.336 76.6985 212.072 74.5599C212.809 72.4212 213.387 68.5462 213.611 65.3382C213.836 62.1303 213.701 59.5919 213.211 56.0275C212.72 52.4631 211.873 47.8752 210.469 44.6902C209.065 41.5051 207.103 39.7229 203.156 38.9209C199.211 38.119 193.281 38.2972 189.222 40.1227C185.165 41.9481 182.978 45.4234 182.109 49.0107C181.24 52.5981 181.686 56.2949 182.777 57.5857C183.87 58.8765 185.608 57.7639 188.172 56.361C190.735 54.9582 194.125 53.2651 197.223 52.486C200.322 51.707 203.13 51.8394 205.383 52.8883C207.636 53.9347 209.33 55.8951 210.199 58.7008C211.068 61.5065 211.114 65.16 210.421 68.6124C209.73 72.0648 208.303 75.316 206.655 77.3885C205.006 79.4609 203.133 80.3495 201.884 80.4615C200.635 80.5735 200.011 79.9039 199.789 78.4578C199.568 77.0091 199.746 74.7814 200.08 73.7146C200.414 72.6453 200.906 72.7344 201.729 72.8464C202.554 72.9584 203.714 73.0908 203.846 71.1533C203.981 69.2158 203.087 65.2059 202.71 61.9088C202.33 58.6117 202.465 56.0275 201.329 54.7367C200.192 53.4459 197.784 53.4459 195.353 54.1358C192.922 54.8258 190.47 56.2083 189.357 58.2553C188.243 60.3048 188.465 63.0214 188.488 65.2491C188.511 67.4769 188.332 69.2133 187.573 70.1706C186.816 71.1279 185.478 71.3061 184.229 70.6594C182.981 70.0127 181.821 68.5437 181.51 66.7844C181.2 65.0251 181.735 62.9756 182.96 62.3289C184.186 61.6822 186.105 62.4409 187.463 65.3357C188.824 68.2305 189.627 73.2639 190.473 77.1415C191.319 81.0165 192.211 83.7331 194.418 84.0463C196.624 84.3569 200.146 82.2641 201.441 82.7758C202.733 83.2876 201.797 86.4064 201.061 90.8619C200.325 95.3174 199.789 101.107 199.033 105.741C198.276 110.374 197.295 113.847 195.511 113.669C193.727 113.491 191.14 109.659 188.689 102.978C186.238 96.2976 183.919 86.7628 182.002 82.2641C180.086 77.7653 178.57 78.2999 176.251 80.8383C173.932 83.3767 170.81 87.9213 167.913 93.2679C165.015 98.6145 162.339 104.761 161.226 109.794C160.112 114.827 160.556 118.748 163.767 122.045C166.977 125.342 172.951 128.013 174.334 129.485C175.716 130.954 172.507 131.221 169.029 130.686C165.55 130.152 161.807 128.815 159.488 126.944C157.169 125.073 156.277 122.667 156.234 116.475C156.19 110.283 156.991 100.305 160.201 93.8458C163.412 87.3866 169.029 84.446 173.132 85.7826C177.234 87.1193 179.821 92.7307 179.597 98.7469C179.375 104.761 176.342 111.176 175.451 114.873C174.559 118.57 175.807 119.55 178.751 120.22C181.694 120.887 186.329 121.243 193.419 122.18C200.508 123.117 210.049 124.63 215.133 125.342C220.217 126.055 220.838 125.966 220.573 123.293C220.306 120.62 219.146 115.365 219.014 111.398C218.879 107.434 219.771 104.761 222.938 105.028C226.103 105.295 231.544 108.503 236.449 111.22C241.355 113.936 245.723 116.164 249.247 118.035C252.769 119.907 255.444 121.422 256.961 121.019C258.477 120.62 258.834 118.303 258.431 115.897C258.031 113.491 256.871 110.996 254.507 110.774C252.144 110.55 248.577 112.6 247.328 115.273C246.079 117.946 247.15 121.241 249.334 122.845C251.518 124.449 254.818 124.36 258.429 124.716C262.039 125.073 265.964 125.875 268.015 127.389C295.884 147.969 240.203 127.346 277.11 132.469C283.532 133.36 293.162 135.498 296.638 137.859C300.116 140.219 297.441 142.803 289.416 144.585C281.391 146.367 268.015 147.347 258.829 146.189C249.644 145.031 244.65 141.734 246.166 139.328C247.682 136.922 255.707 135.407 261.102 135.407C266.496 135.407 269.261 136.922 270.711 139.727C272.161 142.533 272.294 146.632 271.782 158.257C271.269 169.885 270.11 189.038 270.556 205.788C271.002 222.539 273.053 236.883 274.748 245.924C276.443 254.967 277.78 258.707 278.226 257.238C278.672 255.769 278.226 249.086 276.621 240.755C275.015 232.425 272.251 222.447 271.583 217.057C270.915 211.667 272.34 210.865 275.461 218.348C278.583 225.831 283.397 241.6 287.635 250.822C291.87 260.044 295.527 262.717 297.532 263.206C299.538 263.697 299.895 262.004 295.213 250.198C290.532 238.392 280.813 216.476 275.729 208.502C270.645 200.528 270.199 206.499 269.175 210.239C268.15 213.981 266.545 215.496 264.226 219.058C261.907 222.623 258.874 228.234 257.626 228.636C256.377 229.036 256.912 224.227 257.137 216.609C257.358 208.991 257.269 198.568 255.977 194.782C254.685 190.996 252.188 193.848 250.004 195.36C247.82 196.875 245.947 197.053 244.031 196.195C242.114 195.337 235.18 194.224 233.975 193.825C232.772 193.425 231.794 220.858 232.303 226.454C233.307 237.458 236.014 234.627 247.642 231.801C250.942 230.999 250.852 232.157 249.915 233.494C248.979 234.831 247.196 236.345 244.52 237.102C241.844 237.858 238.276 237.858 236.271 238.171C234.265 238.482 233.82 239.108 233.952 240.353C234.136 242.071 233.096 246.359 233.305 246.41C238.045 247.563 259.975 248.742 265.34 247.212C272.118 245.277 266.476 242.792 261.372 239.416C258.339 237.412 255.218 235.63 253.48 232.111C251.742 228.593 251.385 223.335 251.207 218.437C251.028 213.536 251.028 208.994 251.472 203.288C251.915 197.583 252.799 190.716 252.799 187.085C252.799 183.455 251.915 183.06 248.753 184.023C245.59 184.982 240.15 187.299 232.928 188.101C225.703 188.903 216.697 188.19 211.081 187.21C205.462 186.23 203.235 184.982 200.648 184.002C198.062 183.022 195.118 182.309 189.859 181.864C184.596 181.418 177.018 181.24 172.915 179.682C168.812 178.124 168.188 175.183 167.564 173.044C166.939 170.906 166.315 169.569 160.607 168.232C154.898 166.896 144.109 165.559 136.441 164.757C128.773 163.955 124.224 163.688 123.289 163.288C122.354 162.886 125.027 162.351 130.735 162.486C136.441 162.618 145.182 163.42 149.463 163.466C153.744 163.512 153.566 162.799 153.698 157.809C153.831 152.819 154.279 143.554 153.877 138.475C153.474 133.395 152.228 132.504 148.436 132.504C144.647 132.504 138.314 133.395 132.117 133.884C125.919 134.373 119.854 134.462 116.6 136.155C113.346 137.848 112.9 141.145 112.454 145.11C112.008 149.074 111.562 153.707 111.116 152.503C110.67 151.301 110.224 144.262 110.092 140.076C109.959 135.888 110.135 134.551 112.365 132.858C114.594 131.165 118.873 129.116 123.511 128.135C128.149 127.155 133.141 127.244 138.938 127.822C144.736 128.403 151.333 129.469 154.677 130.495C158.02 131.519 158.109 132.499 158.109 138.691C158.109 144.883 158.02 156.286 158.288 161.99C158.555 167.693 159.18 167.693 159.758 163.459C160.337 159.227 160.874 150.762 161.185 145.15C161.496 139.536 161.585 136.776 164.083 135.44C166.58 134.103 171.483 134.192 174.069 134.46C176.656 134.727 176.923 135.173 177.056 139.628C177.188 144.084 177.188 152.546 177.456 159.273C177.724 165.999 178.259 170.99 179.729 172.102C181.2 173.215 183.608 170.455 188.067 168.983C192.527 167.514 199.035 167.336 205.5 168.584C211.965 169.831 218.387 172.505 219.455 175.31C220.525 178.116 216.244 181.057 209.735 181.634C203.227 182.215 194.486 180.433 189.627 178.116C184.767 175.799 183.786 172.948 184.589 170.901C185.391 168.851 187.978 167.603 193.059 166.891C198.143 166.178 205.722 165.999 210.403 166.178C215.084 166.356 216.868 166.891 217.314 162.168C217.76 157.445 216.868 147.467 216.155 141.054C215.441 134.638 214.906 131.789 213.568 130.185C212.23 128.581 210.09 128.224 205.989 128.848C201.887 129.472 195.824 131.076 190.786 132.278C185.748 133.479 181.735 134.281 180.621 133.793C179.507 133.304 181.291 131.522 184.099 129.918C186.908 128.314 190.743 126.888 196.808 126.531C202.873 126.175 211.165 126.888 215.4 127.466C219.636 128.044 219.814 128.489 219.992 133.034C220.171 137.578 220.349 146.22 220.438 152.814C220.528 159.405 220.528 163.95 221.82 166.089C223.112 168.227 225.698 167.96 231.004 166.934C236.309 165.91 244.336 164.128 247.01 162.924C249.685 161.722 247.01 161.098 242.015 160.92C237.02 160.742 229.709 161.009 224.714 162.613C219.72 164.217 217.047 167.158 217.758 168.94C218.471 170.722 222.574 171.346 228.458 170.409C234.344 169.472 242.012 166.98 246.383 165.465C250.753 163.95 251.823 163.415 252.58 166.623C253.34 169.831 253.783 176.779 253.918 180.433C254.051 184.086 253.872 184.443 251.11 186.047C248.345 187.651 242.996 190.502 236.62 191.928C230.244 193.354 222.844 193.354 217.403 192.195C211.963 191.037 208.487 188.72 207.238 189.924C205.989 191.129 206.971 195.849 206.079 196.383C205.187 196.918 202.422 193.265 198.276 190.413C194.13 187.562 188.6 185.512 182.983 184.489C177.364 183.465 171.659 183.465 164.926 184.578C158.193 185.69 150.434 187.918 145.398 191.304C140.36 194.69 138.041 199.232 136.971 201.773C135.901 204.312 136.079 204.846 138.577 202.219C141.074 199.591 145.888 193.799 152.888 190.637C159.888 187.475 169.072 186.94 178.391 188.855C187.71 190.77 197.162 195.136 203.762 201.506C210.362 207.876 214.106 216.25 214.373 227.699C214.641 239.149 211.43 253.671 202.603 262.445C193.775 271.221 179.329 274.25 166.221 270.284C153.112 266.32 141.341 255.362 135.901 244.493C130.46 233.624 131.352 222.844 131.887 216.517C132.422 210.19 132.601 208.322 133.582 201.995C134.563 195.668 136.347 184.888 136.658 178.964C136.969 173.039 135.812 171.97 132.733 171.125C129.657 170.279 124.663 169.656 120.784 170.458C116.906 171.26 114.141 173.487 114.587 175.448C115.033 177.408 118.69 179.101 126.714 179.903C134.741 180.705 147.136 180.616 153.823 179.458C160.512 178.299 161.491 176.071 159.931 174.068C158.372 172.064 154.269 170.282 145.753 169.345C137.236 168.411 124.306 168.321 115.389 167.965C106.473 167.609 101.567 166.985 97.1079 165.783C92.6484 164.581 88.6373 162.799 89.0833 161.506C89.5293 160.215 94.4347 159.413 99.5161 159.634C104.6 159.859 109.86 161.104 112.981 162.664C116.103 164.222 117.084 166.094 115.389 167.476C113.695 168.859 109.325 169.747 104.243 169.391C99.1593 169.034 93.3645 167.43 90.332 168.054C87.2995 168.678 87.0319 171.529 86.3184 179.19C85.6049 186.851 84.4454 199.327 84.1345 206.14C83.8236 212.955 84.3587 214.114 86.5426 214.738C88.7265 215.361 92.5617 215.45 94.4347 217.276C96.3077 219.101 96.2186 222.666 96.4861 224.448C96.7537 226.23 97.378 226.23 102.505 226.63C107.632 227.03 117.262 227.832 122.436 227.343C127.609 226.854 128.322 225.072 126.582 224.313C124.844 223.557 120.652 223.822 114.587 223.066C108.524 222.309 100.586 220.527 94.6565 219.28C88.7265 218.032 84.8021 217.319 82.8399 217.454C80.8777 217.589 80.8778 218.567 81.102 219.458C81.3237 220.349 81.7722 221.151 82.7966 221.775C83.821 222.398 85.4265 222.844 87.3887 223.066C89.3509 223.287 91.6698 223.287 92.7834 224.356C93.8971 225.426 95.6121 228.099 93.6754 231.304C57.153 291.79 88.5558 126.043 67.4354 123.122C61.1488 122.254 53.012 125.06 48.3741 127.865C43.7362 130.671 43.6699 138.401 50.9836 140.896C58.2947 143.391 71.7599 143.747 80.679 142.233C89.5955 140.718 93.9659 137.332 94.5443 133.591C95.1228 129.849 92.2457 124.388 86.4738 123.703C72.0504 121.987 72.0504 125.129 72.7869 116.976C73.1283 113.206 73.3679 110.339 74.2572 109.382C75.1492 108.424 76.3086 109.359 76.7215 114.155C77.1343 118.952 74.5019 127.512 73.5233 151.121C72.5422 174.73 73.2124 213.391 73.5131 229.909C73.8138 246.428 76.0436 240.903 78.9105 235.263C81.7773 229.624 85.2812 223.865 89.3203 222.406C93.3594 220.947 97.9336 223.786 102.11 226.042C106.287 228.298 110.071 229.968 112.408 235.969C114.745 241.972 115.637 252.306 116.172 259.657C116.707 267.007 116.885 271.373 112.586 271.814C108.287 272.254 99.5135 268.771 90.2861 264.629C43.303 243.54 49.5132 283.561 2 262.434" stroke="#F2F2F2" stroke-width="3" stroke-miterlimit="2.6131" stroke-linecap="round"/>
</svg>
